<?xml version="1.0" encoding="UTF-8"?>
<svg width="485px" height="306px" viewBox="0 0 485 306" version="1.1" xmlns="http://www.w3.org/2000/svg" xmlns:xlink="http://www.w3.org/1999/xlink">
    <title>Blog Logo</title>
    <defs>
        <polygon id="path-1" points="0.554216867 0 88.5542169 0 88.5542169 71 0.554216867 71"></polygon>
    </defs>
    <g id="Logo" stroke="none" stroke-width="1" fill="none" fill-rule="evenodd">
        <g id="Desktop" transform="translate(-286.000000, -623.000000)">
            <g id="Blog-Logo" transform="translate(286.000000, 623.000000)">
                <path d="M47.1742797,62.4140801 C-23.5683565,154.133346 -14.7466526,221.51545 73.6393913,264.560394 C206.218457,329.127809 223.650484,245.95839 327.412815,293.797488 C431.175146,341.636586 483.503415,235.511891 483.503415,204.243453 C483.503415,172.975015 511.213212,84.7042356 328.165259,23.2892249 C206.133291,-17.6541156 112.469631,-4.61249721 47.1742797,62.4140801 Z" id="Blob" fill="#0E92CC"></path>
                <g id="Group" transform="translate(59.000000, 91.000000)">
                    <text id="darcy-copy-3" font-family="Quicksand-Medium, Quicksand" font-size="100" font-weight="400" letter-spacing="1.39140278" fill="#FFFFFF">
                        <tspan x="89.4214931" y="100">darcy</tspan>
                    </text>
                    <g id="Group-3-Copy" transform="translate(0.000000, 29.000000)">
                        <mask id="mask-2" fill="white">
                            <use xlink:href="#path-1"></use>
                        </mask>
                        <g id="Clip-2"></g>
                        <path d="M5.04793819,0 C2.20467806,0 0.205168922,2.3463562 0.605165873,5.2141782 L6.78062415,49.5358922 C7.18014548,52.4037142 9.83363298,54.7500704 12.6768931,54.7500704 L62.8220519,54.7500704 C65.6657876,54.7500704 69.8678959,56.4089744 72.1608629,58.4372701 L85.0487552,69.8346797 C87.3417222,71.8624957 88.8912943,71.1750435 88.4912973,68.3072215 L87.3293561,59.9642486 C86.9293592,57.0964266 86.5536189,54.3984288 86.4936907,53.9681115 C86.4337625,53.5377943 86.0575465,50.8393168 85.6580252,47.9714948 L79.7004012,5.2141782 C79.3008799,2.3463562 76.6473924,0 73.8041322,0 L5.04793819,0 Z" id="Fill-1" fill="#F9F9F9" mask="url(#mask-2)"></path>
                    </g>
                </g>
            </g>
        </g>
    </g>
</svg>