<?xml version="1.0" encoding="UTF-8"?>
<svg width="485px" height="306px" viewBox="0 0 485 306" version="1.1" xmlns="http://www.w3.org/2000/svg" xmlns:xlink="http://www.w3.org/1999/xlink">
    <title>Blog Logo</title>
    <defs>
        <polygon id="path-1" points="0.554216867 0 88.5542169 0 88.5542169 71 0.554216867 71"></polygon>
    </defs>
    <g id="Logo" stroke="none" stroke-width="1" fill="none" fill-rule="evenodd">
        <g id="Desktop" transform="translate(-286.000000, -623.000000)">
            <g id="Blog-Logo" transform="translate(286.000000, 623.000000)">
                <path d="M47.1742797,62.4140801 C-23.5683565,154.133346 -14.7466526,221.51545 73.6393913,264.560394 C206.218457,329.127809 223.650484,245.95839 327.412815,293.797488 C431.175146,341.636586 483.503415,235.511891 483.503415,204.243453 C483.503415,172.975015 511.213212,84.7042356 328.165259,23.2892249 C206.133291,-17.6541156 112.469631,-4.61249721 47.1742797,62.4140801 Z" id="Blob" fill="#0E92CC"></path>
                <g id="Group" transform="translate(59.000000, 91.000000)">
                    <path d="M117.521493,101 C120.98816,101 124.23816,100.166667 127.271493,98.5 C130.304826,96.8333333 132.654826,94.8 134.321493,92.4 L134.321493,92.4 L134.321493,95.2 C134.321493,96.6 134.754826,97.75 135.621493,98.65 C136.48816,99.55 137.621493,100 139.021493,100 C140.421493,100 141.571493,99.5333333 142.471493,98.6 C143.371493,97.6666667 143.821493,96.5333333 143.821493,95.2 L143.821493,95.2 L143.821493,30.8 C143.821493,29.4 143.371493,28.25 142.471493,27.35 C141.571493,26.45 140.421493,26 139.021493,26 C137.621493,26 136.48816,26.45 135.621493,27.35 C134.754826,28.25 134.321493,29.4 134.321493,30.8 L134.321493,30.8 L134.321493,54.3 C132.454826,51.9666667 130.021493,50.0666667 127.021493,48.6 C124.021493,47.1333333 120.754826,46.4 117.221493,46.4 C112.821493,46.4 108.78816,47.5666667 105.121493,49.9 C101.454826,52.2333333 98.5714931,55.4833333 96.4714931,59.65 C94.3714931,63.8166667 93.3214931,68.5 93.3214931,73.7 C93.3214931,78.9 94.3881597,83.5833333 96.5214931,87.75 C98.6548264,91.9166667 101.554826,95.1666667 105.221493,97.5 C108.88816,99.8333333 112.98816,101 117.521493,101 Z M118.621493,92.2 C115.48816,92.2 112.704826,91.4 110.271493,89.8 C107.83816,88.2 105.93816,86 104.571493,83.2 C103.204826,80.4 102.521493,77.2333333 102.521493,73.7 C102.521493,70.2333333 103.204826,67.0833333 104.571493,64.25 C105.93816,61.4166667 107.83816,59.2 110.271493,57.6 C112.704826,56 115.48816,55.2 118.621493,55.2 C121.754826,55.2 124.53816,56 126.971493,57.6 C129.404826,59.2 131.304826,61.4166667 132.671493,64.25 C134.03816,67.0833333 134.721493,70.2333333 134.721493,73.7 C134.721493,77.2333333 134.03816,80.4 132.671493,83.2 C131.304826,86 129.404826,88.2 126.971493,89.8 C124.53816,91.4 121.754826,92.2 118.621493,92.2 Z M180.312896,101 C183.779562,101 187.012896,100.183333 190.012896,98.55 C193.012896,96.9166667 195.379562,94.9333333 197.112896,92.6 L197.112896,92.6 L197.112896,95.2 C197.112896,96.6 197.546229,97.75 198.412896,98.65 C199.279562,99.55 200.412896,100 201.812896,100 C203.212896,100 204.362896,99.5333333 205.262896,98.6 C206.162896,97.6666667 206.612896,96.5333333 206.612896,95.2 L206.612896,95.2 L206.612896,51.8 C206.612896,50.3333333 206.162896,49.15 205.262896,48.25 C204.362896,47.35 203.212896,46.9 201.812896,46.9 C200.412896,46.9 199.279562,47.3666667 198.412896,48.3 C197.546229,49.2333333 197.112896,50.4 197.112896,51.8 L197.112896,51.8 L197.112896,54.2 C195.312896,51.9333333 192.896229,50.0666667 189.862896,48.6 C186.829562,47.1333333 183.546229,46.4 180.012896,46.4 C175.612896,46.4 171.579562,47.5666667 167.912896,49.9 C164.246229,52.2333333 161.362896,55.4833333 159.262896,59.65 C157.162896,63.8166667 156.112896,68.5 156.112896,73.7 C156.112896,78.9 157.162896,83.5833333 159.262896,87.75 C161.362896,91.9166667 164.262896,95.1666667 167.962896,97.5 C171.662896,99.8333333 175.779562,101 180.312896,101 Z M181.412896,92.2 C178.279562,92.2 175.496229,91.4 173.062896,89.8 C170.629562,88.2 168.729562,86 167.362896,83.2 C165.996229,80.4 165.312896,77.2333333 165.312896,73.7 C165.312896,70.1666667 165.996229,67 167.362896,64.2 C168.729562,61.4 170.629562,59.2 173.062896,57.6 C175.496229,56 178.279562,55.2 181.412896,55.2 C184.546229,55.2 187.329562,56.0166667 189.762896,57.65 C192.196229,59.2833333 194.096229,61.5 195.462896,64.3 C196.829562,67.1 197.512896,70.2333333 197.512896,73.7 C197.512896,77.2333333 196.829562,80.4 195.462896,83.2 C194.096229,86 192.196229,88.2 189.762896,89.8 C187.329562,91.4 184.546229,92.2 181.412896,92.2 Z M226.804299,100 C228.204299,100 229.354299,99.5333333 230.254299,98.6 C231.154299,97.6666667 231.604299,96.5333333 231.604299,95.2 L231.604299,95.2 L231.604299,71.1 C231.604299,68.0333333 232.220965,65.25 233.454299,62.75 C234.687632,60.25 236.287632,58.2833333 238.254299,56.85 C240.220965,55.4166667 242.237632,54.7 244.304299,54.7 C245.104299,54.7 246.204299,54.9333333 247.604299,55.4 C248.804299,55.8 249.704299,56 250.304299,56 C251.504299,56 252.520965,55.5833333 253.354299,54.75 C254.187632,53.9166667 254.604299,52.7 254.604299,51.1 C254.604299,49.7666667 253.970965,48.65 252.704299,47.75 C251.437632,46.85 249.937632,46.4 248.204299,46.4 C244.470965,46.4666667 241.137632,47.5166667 238.204299,49.55 C235.270965,51.5833333 233.070965,54.2333333 231.604299,57.5 L231.604299,57.5 L231.604299,52.4 C231.604299,51.0666667 231.154299,49.9333333 230.254299,49 C229.354299,48.0666667 228.204299,47.6 226.804299,47.6 C225.470965,47.6 224.354299,48.0666667 223.454299,49 C222.554299,49.9333333 222.104299,51.0666667 222.104299,52.4 L222.104299,52.4 L222.104299,95.2 C222.104299,96.6 222.537632,97.75 223.404299,98.65 C224.270965,99.55 225.404299,100 226.804299,100 Z M284.895701,101 C288.295701,101 291.479035,100.566667 294.445701,99.7 C297.412368,98.8333333 299.779035,97.7166667 301.545701,96.35 C303.312368,94.9833333 304.195701,93.6 304.195701,92.2 C304.195701,90.8666667 303.812368,89.7833333 303.045701,88.95 C302.279035,88.1166667 301.229035,87.7 299.895701,87.7 C299.162368,87.7 298.545701,87.8333333 298.045701,88.1 C297.545701,88.3666667 296.962368,88.7666667 296.295701,89.3 C295.495701,89.9 294.862368,90.3333333 294.395701,90.6 C292.262368,91.6666667 289.462368,92.2 285.995701,92.2 C282.662368,92.2 279.695701,91.4 277.095701,89.8 C274.495701,88.2 272.479035,86 271.045701,83.2 C269.612368,80.4 268.895701,77.2333333 268.895701,73.7 C268.895701,70.2333333 269.629035,67.0833333 271.095701,64.25 C272.562368,61.4166667 274.629035,59.2 277.295701,57.6 C279.962368,56 283.029035,55.2 286.495701,55.2 C287.695701,55.2 289.029035,55.3333333 290.495701,55.6 C291.962368,55.8666667 293.095701,56.2 293.895701,56.6 C294.762368,57.1333333 295.395701,57.6 295.795701,58 C296.662368,58.6 297.345701,59.0333333 297.845701,59.3 C298.345701,59.5666667 299.029035,59.7 299.895701,59.7 C301.029035,59.7 301.962368,59.25 302.695701,58.35 C303.429035,57.45 303.795701,56.4333333 303.795701,55.3 C303.795701,52.7 302.045701,50.5666667 298.545701,48.9 C295.045701,47.2333333 290.662368,46.4 285.395701,46.4 C280.329035,46.4 275.829035,47.5833333 271.895701,49.95 C267.962368,52.3166667 264.895701,55.5833333 262.695701,59.75 C260.495701,63.9166667 259.395701,68.5666667 259.395701,73.7 C259.395701,78.8333333 260.445701,83.4833333 262.545701,87.65 C264.645701,91.8166667 267.629035,95.0833333 271.495701,97.45 C275.362368,99.8166667 279.829035,101 284.895701,101 Z M334.087104,120 C341.620437,120 347.687104,117.933333 352.287104,113.8 C356.887104,109.666667 359.187104,103.433333 359.187104,95.1 L359.187104,95.1 L359.187104,51.9 C359.187104,50.5666667 358.737104,49.4333333 357.837104,48.5 C356.937104,47.5666667 355.787104,47.1 354.387104,47.1 C352.987104,47.1 351.853771,47.55 350.987104,48.45 C350.120437,49.35 349.687104,50.5 349.687104,51.9 L349.687104,51.9 L349.687104,79.3 C349.687104,83.1 348.453771,86.2 345.987104,88.6 C343.520437,91 340.387104,92.2 336.587104,92.2 C332.653771,92.2 329.720438,91.15 327.787104,89.05 C325.853771,86.95 324.887104,83.7 324.887104,79.3 L324.887104,79.3 L324.887104,51.9 C324.887104,50.5666667 324.437104,49.4333333 323.537104,48.5 C322.637104,47.5666667 321.487104,47.1 320.087104,47.1 C318.687104,47.1 317.553771,47.55 316.687104,48.45 C315.820438,49.35 315.387104,50.5 315.387104,51.9 L315.387104,51.9 L315.387104,81.8 C315.387104,87.5333333 316.937104,92.1666667 320.037104,95.7 C323.137104,99.2333333 327.453771,101 332.987104,101 C336.653771,101 339.903771,100.333333 342.737104,99 C345.570438,97.6666667 347.887104,95.8 349.687104,93.4 L349.687104,93.4 L349.687104,95.4 C349.687104,106 344.520437,111.3 334.187104,111.3 C332.053771,111.3 330.187104,111.033333 328.587104,110.5 C326.987104,109.966667 325.153771,109.233333 323.087104,108.3 C322.620437,108.1 322.120437,108 321.587104,108 C320.653771,108 319.820438,108.3 319.087104,108.9 C318.353771,109.5 317.787104,110.366667 317.387104,111.5 C317.253771,112.033333 317.187104,112.466667 317.187104,112.8 C317.187104,114.733333 318.420437,116.266667 320.887104,117.4 C322.420437,118.2 324.387104,118.833333 326.787104,119.3 C329.187104,119.766667 331.620437,120 334.087104,120 Z" id="darcy" fill="#FFFFFF" fill-rule="nonzero"></path>
                    <g id="Group-3-Copy" transform="translate(0.000000, 29.000000)">
                        <mask id="mask-2" fill="white">
                            <use xlink:href="#path-1"></use>
                        </mask>
                        <g id="Clip-2"></g>
                        <path d="M5.04793819,0 C2.20467806,0 0.205168922,2.3463562 0.605165873,5.2141782 L6.78062415,49.5358922 C7.18014548,52.4037142 9.83363298,54.7500704 12.6768931,54.7500704 L62.8220519,54.7500704 C65.6657876,54.7500704 69.8678959,56.4089744 72.1608629,58.4372701 L85.0487552,69.8346797 C87.3417222,71.8624957 88.8912943,71.1750435 88.4912973,68.3072215 L87.3293561,59.9642486 C86.9293592,57.0964266 86.5536189,54.3984288 86.4936907,53.9681115 C86.4337625,53.5377943 86.0575465,50.8393168 85.6580252,47.9714948 L79.7004012,5.2141782 C79.3008799,2.3463562 76.6473924,0 73.8041322,0 L5.04793819,0 Z" id="Fill-1" fill="#F9F9F9" mask="url(#mask-2)"></path>
                    </g>
                </g>
            </g>
        </g>
    </g>
</svg>