<?xml version="1.0" encoding="UTF-8"?>
<svg width="763px" height="563px" viewBox="0 0 763 563" version="1.1" xmlns="http://www.w3.org/2000/svg" xmlns:xlink="http://www.w3.org/1999/xlink">
    <title>Blob</title>
    <g id="Onboarding" stroke="none" stroke-width="1" fill="none" fill-rule="evenodd">
        <g id="Feeds-Explanation" transform="translate(-339.000000, -165.000000)">
            <g id="Blob" transform="translate(339.000000, 165.000000)">
                <path d="M140.831769,82.8327805 C273.282866,8.49843479 392.310392,-15.8050392 497.914347,9.92235847 C603.518302,35.6497561 681.530132,106.57447 731.949839,222.696499 C780.210424,365.363165 772.213231,450.62076 707.958261,478.469282 C611.575805,520.242066 339.630325,581.696499 236.322917,551.696499 C167.451311,531.696499 99.1133093,476.363165 31.3089109,385.696499 C1.56369638,324.022597 1.56369638,261.714419 31.3089109,198.771964 C61.0541254,135.829509 97.5617448,97.1831144 140.831769,82.8327805 Z" id="Blob-Shadow" fill-opacity="0.1" fill="#000000"></path>
                <path d="M131.831769,85.8327805 C264.282866,11.4984348 383.310392,-12.8050392 488.914347,12.9223585 C594.518302,38.6497561 672.530132,109.57447 722.949839,225.696499 C771.210424,368.363165 763.213231,453.62076 698.958261,481.469282 C602.575805,523.242066 330.630325,584.696499 227.322917,554.696499 C158.451311,534.696499 90.1133093,479.363165 22.3089109,388.696499 C-7.43630362,327.022597 -7.43630362,264.714419 22.3089109,201.771964 C52.0541254,138.829509 88.5617448,100.183114 131.831769,85.8327805 Z" fill="#FFFFFF"></path>
            </g>
        </g>
    </g>
</svg>