<?xml version="1.0" encoding="UTF-8"?>
<svg width="101px" height="134px" viewBox="0 0 101 134" version="1.1" xmlns="http://www.w3.org/2000/svg" xmlns:xlink="http://www.w3.org/1999/xlink">
    <!-- Generator: Sketch 59.1 (86144) - https://sketch.com -->
    <title>Shape</title>
    <desc>Created with Sketch.</desc>
    <g id="Register" stroke="none" stroke-width="1" fill="none" fill-rule="evenodd">
        <g id="User-type" transform="translate(-816.000000, -155.000000)" fill="#0E92CC" fill-rule="nonzero">
            <path d="M864.948177,155.023176 C837.307318,155.847597 816,179.842157 816,207.356861 L816,276.430206 C816,280.162344 820.531849,282.028413 823.183099,279.390268 L829.737578,274.540582 C831.489297,273.245064 833.945911,273.496316 835.395156,275.118985 L846.691901,287.773184 C848.335781,289.408939 851.000182,289.408939 852.644063,287.773184 L863.354271,275.773287 C865.029714,273.896749 867.972917,273.896749 869.645729,275.773287 L880.355937,287.773184 C881.999818,289.408939 884.664219,289.408939 886.308099,287.773184 L897.604844,275.118985 C899.054089,273.496316 901.510703,273.242447 903.262422,274.540582 L909.816901,279.390268 C912.468151,282.028413 917,280.159727 917,276.430206 L917,205.250009 C917,176.984166 893.546432,154.169967 864.948177,155.023176 Z M849.5,214 C844.806406,214 841,210.193594 841,205.5 C841,200.806406 844.806406,197 849.5,197 C854.193594,197 858,200.806406 858,205.5 C858,210.193594 854.193594,214 849.5,214 Z M883.5,214 C878.806406,214 875,210.193594 875,205.5 C875,200.806406 878.806406,197 883.5,197 C888.193594,197 892,200.806406 892,205.5 C892,210.193594 888.193594,214 883.5,214 Z" id="Shape"></path>
        </g>
    </g>
</svg>