<?xml version="1.0" encoding="UTF-8"?>
<svg width="119px" height="119px" viewBox="0 0 119 119" version="1.1" xmlns="http://www.w3.org/2000/svg" xmlns:xlink="http://www.w3.org/1999/xlink">
    <!-- Generator: Sketch 59.1 (86144) - https://sketch.com -->
    <title>Shape</title>
    <desc>Created with Sketch.</desc>
    <g id="Register" stroke="none" stroke-width="1" fill="none" fill-rule="evenodd">
        <g id="User-type" transform="translate(-809.000000, -552.000000)" fill="#0E92CC" fill-rule="nonzero">
            <path d="M868.5,552 C835.631048,552 809,578.631048 809,611.5 C809,644.368952 835.631048,671 868.5,671 C901.368952,671 928,644.368952 928,611.5 C928,578.631048 901.368952,552 868.5,552 Z M916,611.655068 C916,617.016263 915.061111,622.186838 913.4,627 L908.512963,627 C907.477778,627 906.490741,626.594932 905.768519,625.856278 L898.064815,618.088502 C896.981481,616.992436 896.981481,615.205371 898.088889,614.109304 L901.098148,611.130862 L901.098148,609.057867 C901.098148,608.343041 900.809259,607.652042 900.303704,607.151664 L898.040741,604.911876 C897.535185,604.411498 896.837037,604.125567 896.114815,604.125567 L892.262963,604.125567 C890.77037,604.125567 889.542593,602.910363 889.542593,601.433056 C889.542593,600.71823 889.831481,600.027231 890.337037,599.526853 L892.6,597.287065 C893.105556,596.786687 893.803704,596.500756 894.525926,596.500756 L902.22963,596.500756 C903.722222,596.500756 904.95,595.285552 904.95,593.808245 L904.95,591.568457 C904.95,590.09115 903.722222,588.875946 902.22963,588.875946 L893.394444,588.875946 C891.275926,588.875946 889.542593,590.591528 889.542593,592.688351 L889.542593,593.76059 C889.542593,595.40469 888.483333,596.858169 886.918519,597.382375 L879.311111,599.884266 C878.516667,600.146369 877.987037,600.861195 877.987037,601.695159 L877.987037,602.219365 C877.987037,603.267776 877.12037,604.125567 876.061111,604.125567 L872.209259,604.125567 C871.15,604.125567 870.283333,603.267776 870.283333,602.219365 C870.283333,601.170953 869.416667,600.313162 868.357407,600.313162 L867.611111,600.313162 C866.888889,600.313162 866.214815,600.71823 865.877778,601.361573 L863.614815,605.817322 C862.964815,607.104009 861.640741,607.914145 860.172222,607.914145 L854.851852,607.914145 C852.733333,607.914145 851,606.198563 851,604.10174 L851,598.073374 C851,597.072617 851.409259,596.095688 852.131481,595.380862 L856.97037,590.591528 C858.077778,589.495461 858.703704,587.994327 858.703704,586.42171 C858.703704,585.611573 859.233333,584.87292 860.027778,584.610817 L869.657407,581.441755 C870.066667,581.29879 870.427778,581.084342 870.716667,580.798411 L877.168519,574.412632 C877.674074,573.912254 877.962963,573.221256 877.962963,572.50643 C877.962963,571.029123 876.735185,569.813918 875.242593,569.813918 L870.259259,569.813918 L866.407407,573.626324 L866.407407,575.532526 C866.407407,576.580938 865.540741,577.438729 864.481481,577.438729 L860.62963,577.438729 C859.57037,577.438729 858.703704,576.580938 858.703704,575.532526 L858.703704,570.76702 C858.703704,570.171331 858.992593,569.59947 859.474074,569.242057 L866.431481,564.071483 C866.888889,564.047655 867.346296,564 867.803704,564 C894.405556,564 916,585.373298 916,611.655068 Z M840,586.410417 C840,585.722917 840.275,585.058333 840.75625,584.577083 L846.577083,578.75625 C847.058333,578.275 847.722917,578 848.410417,578 C849.83125,578 851,579.16875 851,580.589583 L851,584.25625 C851,584.94375 850.725,585.608333 850.24375,586.089583 L848.089583,588.24375 C847.608333,588.725 846.94375,589 846.25625,589 L842.589583,589 C841.16875,589 840,587.83125 840,586.410417 Z M869.695558,659 L869.695558,657.293829 C869.695558,655.179137 867.979415,653.448935 865.881907,653.448935 L861.067172,653.448935 C858.492958,653.448935 854.703142,652.175314 852.629469,650.613326 L847.338028,646.600218 C844.596966,644.533588 843,641.289459 843,637.853086 L843,632.109776 C843,628.264883 845.002167,624.708356 848.267606,622.737848 L858.492958,616.561988 C860.185265,615.552703 862.115926,615 864.070423,615 L871.507042,615 C874.105092,615 876.607801,615.937193 878.562297,617.619334 L888.859155,626.534681 L893.221018,626.534681 C895.247021,626.534681 897.177681,627.35172 898.607801,628.793555 L902.731311,632.950847 C903.541712,633.767886 904.661972,634.224468 905.806067,634.224468 L909,634.224468 C901.277356,648.378482 886.64247,658.134899 869.695558,659 Z" id="Shape"></path>
        </g>
    </g>
</svg>