<?xml version="1.0" encoding="UTF-8"?>
<svg width="122px" height="134px" viewBox="0 0 122 134" version="1.1" xmlns="http://www.w3.org/2000/svg" xmlns:xlink="http://www.w3.org/1999/xlink">
    <!-- Generator: Sketch 59.1 (86144) - https://sketch.com -->
    <title>Combined Shape</title>
    <desc>Created with Sketch.</desc>
    <g id="Register" stroke="none" stroke-width="1" fill="none" fill-rule="evenodd">
        <g id="User-type" transform="translate(-806.000000, -349.000000)" fill="#0E92CC" fill-rule="nonzero">
            <path d="M866.5,349 C886.658393,349 903,365.361957 903,385.545455 L903,385.545455 L903,404 L909.7,404 C919.806811,404 928,412.162193 928,422.230769 L928,464.769231 C928,474.837807 919.806811,483 909.7,483 L824.3,483 C814.193189,483 806,474.837807 806,464.769231 L806,422.230769 C806,412.162193 814.193189,404 824.3,404 L830,404 L830,385.545455 C830,365.563792 846.016409,349.327621 865.896406,349.004896 Z M866.5,361.181818 C853.061071,361.181818 842.166667,372.08979 842.166667,385.545455 L842.166667,385.545455 L842.166,404 L890.833,404 L890.833333,385.545455 C890.833333,372.224346 880.155728,361.400232 866.902396,361.185082 Z" id="Combined-Shape"></path>
        </g>
    </g>
</svg>