<?xml version="1.0" encoding="UTF-8"?>
<svg width="50px" height="41px" viewBox="0 0 50 41" version="1.1" xmlns="http://www.w3.org/2000/svg" xmlns:xlink="http://www.w3.org/1999/xlink">
    <title>Logo</title>
    <g id="Symbols" stroke="none" stroke-width="1" fill="none" fill-rule="evenodd">
        <g id="Sidebar" transform="translate(-25.000000, -45.000000)" fill="#FFFFFF">
            <path d="M27.5532507,45 C25.937762,45 24.8016773,46.3463703 25.0289483,47.9919645 L28.5377314,73.4243513 C28.7647322,75.0699455 30.2723955,76.4163158 31.8878842,76.4163158 L60.3794517,76.4163158 C61.9952106,76.4163158 64.3827722,77.3682169 65.6855944,78.5320799 L73.0082604,85.0720645 C74.3110826,86.2356522 75.1915212,85.841183 74.9642503,84.1955888 L74.3040564,79.4082803 C74.0767854,77.7626861 73.8632966,76.2145392 73.8292465,75.9676175 C73.7951964,75.7206958 73.5814373,74.1722736 73.3544366,72.5266793 L69.9694229,47.9919645 C69.7424222,46.3463703 68.2347588,45 66.6192701,45 L27.5532507,45 Z" id="Logo"></path>
        </g>
    </g>
</svg>