<?xml version="1.0" encoding="UTF-8"?>
<svg width="704px" height="204px" viewBox="0 0 704 204" version="1.1" xmlns="http://www.w3.org/2000/svg" xmlns:xlink="http://www.w3.org/1999/xlink">
    <!-- Generator: Sketch 59.1 (86144) - https://sketch.com -->
    <title>logo/full</title>
    <desc>Created with Sketch.</desc>
    <defs>
        <polygon id="path-1" points="182.7937 1 294.4137 1 294.4137 158.0357 182.7937 158.0357"></polygon>
        <polygon id="path-3" points="0 9.1437 166.2994 9.1437 166.2994 157.14382 0 157.14382"></polygon>
    </defs>
    <g id="Register" stroke="none" stroke-width="1" fill="none" fill-rule="evenodd">
        <g id="Home" transform="translate(-368.000000, -96.000000)">
            <g id="logo/full" transform="translate(368.000000, 95.000000)">
                <path d="M366.3354,46.7524 C376.7254,46.7524 386.1454,49.1834 394.6064,54.0444 C403.0634,58.9084 409.7224,65.6004 414.5854,74.1234 C419.4464,82.6494 421.8784,92.1044 421.8784,102.4944 L421.8784,149.4454 C421.8784,151.5774 421.1434,153.3754 419.6814,154.8404 C418.2124,156.3064 416.3494,157.0374 414.0854,157.0374 C411.8194,157.0374 409.9564,156.3384 408.4914,154.9394 C407.0244,153.5414 406.2944,151.7114 406.2944,149.4454 L406.2944,137.4574 C401.6304,143.8504 395.7044,148.8804 388.5134,152.5424 C381.3194,156.2074 373.3934,158.0364 364.7374,158.0364 C354.6134,158.0364 345.4574,155.6074 337.2664,150.7444 C329.0744,145.8834 322.6124,139.2244 317.8864,130.7644 C313.1564,122.3074 310.7934,112.8834 310.7934,102.4944 C310.7934,92.1044 313.2224,82.6494 318.0854,74.1234 C322.9464,65.6004 329.6054,58.9084 338.0654,54.0444 C346.5214,49.1834 355.9464,46.7524 366.3354,46.7524 Z M366.3354,60.7374 C358.7434,60.7374 351.8504,62.5704 345.6574,66.2314 C339.4634,69.8964 334.6004,74.8914 331.0724,81.2164 C327.5414,87.5444 325.7784,94.6364 325.7784,102.4944 C325.7784,110.3544 327.5414,117.4474 331.0724,123.7714 C334.6004,130.0994 339.4634,135.0594 345.6574,138.6564 C351.8504,142.2534 358.7434,144.0514 366.3354,144.0514 C373.9274,144.0514 380.7864,142.2534 386.9134,138.6564 C393.0384,135.0594 397.8684,130.0994 401.3994,123.7714 C404.9274,117.4474 406.6944,110.3544 406.6944,102.4944 C406.6944,94.6364 404.9274,87.5444 401.3994,81.2164 C397.8684,74.8914 393.0384,69.8964 386.9134,66.2314 C380.7864,62.5704 373.9274,60.7374 366.3354,60.7374 Z" id="Combined-Shape" fill="#FFFFFF" fill-rule="evenodd"></path>
                <path d="M500.6937,48.7501 C503.9557,50.2171 505.5887,52.2801 505.5887,54.9431 C505.5887,55.7421 505.5197,56.3421 505.3887,56.7411 C504.8547,58.6081 504.0207,59.8731 502.8907,60.5371 C501.7577,61.2061 500.1937,61.5361 498.1967,61.5361 C496.9977,61.5361 494.9307,61.4051 492.0027,61.1371 C490.9347,61.0061 489.3367,60.9381 487.2077,60.9381 C477.2177,60.9381 469.0577,63.6041 462.7327,68.9291 C456.4057,74.2581 453.2427,81.1851 453.2427,89.7071 L453.2427,149.4451 C453.2427,151.8431 452.5747,153.7091 451.2457,155.0391 C449.9127,156.3721 448.0477,157.0371 445.6507,157.0371 C443.2537,157.0371 441.3857,156.3721 440.0567,155.0391 C438.7237,153.7091 438.0587,151.8431 438.0587,149.4451 L438.0587,55.3431 C438.0587,52.9451 438.7237,51.0821 440.0567,49.7491 C441.3857,48.4191 443.2537,47.7511 445.6507,47.7511 C448.0477,47.7511 449.9127,48.4191 451.2457,49.7491 C452.5747,51.0821 453.2427,52.9451 453.2427,55.3431 L453.2427,64.1341 C457.1047,58.5401 462.0337,54.2131 468.0277,51.1471 C474.0207,48.0851 480.4797,46.5521 487.4077,46.5521 C493.0017,46.5521 497.4277,47.2861 500.6937,48.7501" id="Fill-3" fill="#FFFFFF" fill-rule="evenodd"></path>
                <path d="M528.5638,150.7442 C520.3028,145.8832 513.8098,139.2242 509.0848,130.7652 C504.3548,122.3072 501.9918,112.8832 501.9918,102.4942 C501.9918,91.8402 504.2538,82.2842 508.7848,73.8242 C513.3108,65.3672 519.5728,58.7392 527.5648,53.9442 C535.5558,49.1492 544.5468,46.7522 554.5368,46.7522 C571.1848,46.7522 584.7058,53.1452 595.0938,65.9312 C596.1588,67.1312 596.6928,68.5292 596.6928,70.1282 C596.6928,72.2602 595.5598,74.1232 593.2958,75.7222 C592.0978,76.5202 590.8308,76.9212 589.5008,76.9212 C587.5018,76.9212 585.5698,75.9222 583.7068,73.9242 C579.7098,69.5282 575.3148,66.2312 570.5198,64.0342 C565.7248,61.8362 560.3958,60.7372 554.5368,60.7372 C547.2098,60.7372 540.6818,62.5042 534.9578,66.0322 C529.2288,69.5622 524.7988,74.5232 521.6708,80.9162 C518.5398,87.3092 516.9758,94.5022 516.9758,102.4942 C516.9758,110.3542 518.6398,117.4472 521.9708,123.7712 C525.2978,130.0992 529.9618,135.0592 535.9568,138.6562 C541.9498,142.2532 548.8078,144.0512 556.5348,144.0512 C567.1888,144.0512 575.7808,141.1872 582.3078,135.4602 C584.0378,133.9952 585.8348,133.2622 587.7028,133.2622 C589.2998,133.2622 590.7648,133.7962 592.0978,134.8602 C593.9608,136.4592 594.8948,138.2572 594.8948,140.2552 C594.8948,141.9872 594.2268,143.4512 592.8968,144.6502 C583.3068,153.5752 571.1848,158.0362 556.5348,158.0362 C546.1458,158.0362 536.8208,155.6072 528.5638,150.7442" id="Fill-5" fill="#FFFFFF" fill-rule="evenodd"></path>
                <path d="M703.181,54.1446 C703.181,55.3426 702.912,56.5416 702.381,57.7406 L637.649,199.9926 C636.451,203.0546 634.518,204.5876 631.855,204.5876 C630.522,204.5876 629.324,204.3196 628.258,203.7886 C625.193,202.5896 623.663,200.5916 623.663,197.7946 C623.663,196.5956 623.929,195.3976 624.462,194.1986 L644.242,150.4446 L644.242,150.2446 L599.689,57.9406 C599.155,56.8756 598.889,55.6766 598.889,54.3436 C598.889,51.5466 600.353,49.5486 603.285,48.3506 C604.349,47.8196 605.548,47.5506 606.881,47.5506 C609.678,47.5506 611.676,48.9496 612.874,51.7476 L651.834,133.8616 L688.995,51.9466 C690.326,49.0186 692.324,47.5506 694.989,47.5506 C696.188,47.5506 697.387,47.8196 698.585,48.3506 C701.648,49.5486 703.181,51.4816 703.181,54.1446" id="Fill-7" fill="#FFFFFF" fill-rule="evenodd"></path>
                <mask id="mask-2" fill="white">
                    <use xlink:href="#path-1"></use>
                </mask>
                <g id="Clip-10"></g>
                <path d="M218.1927,138.5567 C211.9997,134.8947 207.1357,129.8997 203.6087,123.5727 C200.0777,117.2467 198.3137,110.1547 198.3137,102.2937 C198.3137,94.4367 200.0777,87.3437 203.6087,81.0167 C207.1357,74.6917 211.9997,69.7277 218.1927,66.1317 C224.3127,62.5777 231.1167,60.7877 238.6007,60.7457 C246.0857,60.7877 252.8587,62.6137 258.9137,66.2317 C265.0387,69.8967 269.8687,74.8917 273.3997,81.2157 C276.9267,87.5437 278.6947,94.6367 278.6947,102.4937 C278.6947,110.3547 276.9267,117.4477 273.3997,123.7717 C269.8687,130.0997 265.0387,135.0597 258.9137,138.6567 C252.8597,142.2097 246.0887,143.9997 238.6057,144.0427 C231.1197,143.9997 224.3137,142.1787 218.1927,138.5567 L218.1927,138.5567 Z M294.4137,55.3427 C294.4137,54.5437 294.3447,53.9447 294.2137,53.5447 L294.2137,8.7907 C294.2137,6.5287 293.5147,4.6637 292.1157,3.1977 C290.7177,1.7337 288.8847,0.9997 286.6217,0.9997 C284.3557,0.9997 282.4917,1.7337 281.0277,3.1977 C279.5607,4.6637 278.8297,6.5287 278.8297,8.7907 L278.8297,63.6647 C275.2847,59.9197 271.2237,56.6997 266.6067,54.0437 C258.1457,49.1837 248.7257,46.7517 238.3357,46.7517 C238.1057,46.7517 237.8797,46.7597 237.6507,46.7627 C237.5237,46.7617 237.4007,46.7517 237.2737,46.7517 C227.1497,46.7517 217.9927,49.1837 209.8017,54.0437 C206.6287,55.9287 203.7217,58.0897 201.0677,60.5127 C196.7327,64.3637 193.0677,68.8947 190.0857,74.1227 C185.2227,82.6497 182.7937,92.1047 182.7937,102.4937 C182.7937,112.8827 185.1567,122.3077 189.8857,130.7647 C194.6127,139.2247 201.0747,145.8827 209.2657,150.7447 C217.4577,155.6077 226.6137,158.0357 236.7377,158.0357 C236.9927,158.0357 237.2407,158.0187 237.4947,158.0157 C237.9527,158.0257 238.4097,158.0357 238.8717,158.0357 C249.2607,158.0357 258.6817,155.6077 267.1417,150.7447 C271.2947,148.3567 275.0077,145.5227 278.2947,142.2517 L278.2947,149.4457 C278.2947,151.7107 279.0247,153.5407 280.4917,154.9397 C281.9567,156.3377 283.8197,157.0367 286.0857,157.0367 C288.3487,157.0367 290.2127,156.3067 291.6807,154.8397 C293.1437,153.3747 293.8787,151.5777 293.8787,149.4457 L293.8787,110.4837 C294.2307,107.8207 294.4137,105.0927 294.4137,102.2937 L294.4137,55.3427 Z" id="Fill-9" fill="#FFFFFF" fill-rule="evenodd" mask="url(#mask-2)"></path>
                <mask id="mask-4" fill="white">
                    <use xlink:href="#path-3"></use>
                </mask>
                <g id="Clip-13"></g>
                <path d="M10.8694,9.1437 C4.8904,9.1437 -0.0006,14.0347 -0.0006,20.0127 L-0.0006,112.4017 C-0.0006,118.3797 4.8904,123.2707 10.8694,123.2707 L116.3014,123.2707 C122.2794,123.2707 130.6284,126.7287 134.8554,130.9567 L158.6134,154.7147 C162.8404,158.9417 166.2994,157.5087 166.2994,151.5307 L166.2994,134.1397 L166.2994,121.6407 L166.2994,109.1407 L166.2994,20.0127 C166.2994,14.0347 161.4084,9.1437 155.4304,9.1437 L10.8694,9.1437 Z" id="Fill-12" fill="#FFFFFF" fill-rule="evenodd" mask="url(#mask-4)"></path>
            </g>
        </g>
    </g>
</svg>