<?xml version="1.0" encoding="UTF-8"?>
<svg width="440px" height="319px" viewBox="0 0 440 319" version="1.1" xmlns="http://www.w3.org/2000/svg" xmlns:xlink="http://www.w3.org/1999/xlink">
    <title>Group</title>
    <g id="Onboarding" stroke="none" stroke-width="1" fill="none" fill-rule="evenodd">
        <g id="Success" transform="translate(-500.000000, -243.000000)">
            <g id="Group" transform="translate(500.000000, 243.000000)">
                <g id="Blobs">
                    <path d="M26.1158131,84.1524843 C58.3179744,14.3348206 132.610902,-9.96863823 233.715883,3.60571987 C334.820865,17.180078 382.064285,119.254896 420.475991,159.555637 C458.887697,199.856379 439.86425,305.478249 370.080781,305.478249 C300.297311,305.478249 165.293591,327.507648 82.6316404,274.318454 C-0.0303096547,221.129261 -6.08634824,153.970148 26.1158131,84.1524843 Z" id="Blob-Shadow" fill-opacity="0.1" fill="#000000"></path>
                    <path d="M18.1158131,93.1524843 C50.3179744,23.3348206 124.610902,-0.968638228 225.715883,12.6057199 C326.820865,26.180078 374.064285,128.254896 412.475991,168.555637 C450.887697,208.856379 431.86425,314.478249 362.080781,314.478249 C292.297311,314.478249 157.293591,336.507648 74.6316404,283.318454 C-8.03030965,230.129261 -14.0863482,162.970148 18.1158131,93.1524843 Z" id="Blob" fill="#FFFFFF"></path>
                </g>
                <g id="a-person/bust" transform="translate(149.000000, 64.000000)">
                    <g id="HEAD" transform="translate(30.000000, 0.000000)">
                        <path d="M41.1133666,13.8722258 C68.3510903,12.5313425 80.6422631,31.7292797 81.437298,40.3040891 C81.9891765,46.2563461 78.4761105,53.1170032 78.4761105,58.4358383 C78.4761105,61.1507726 81.7967061,66.9794156 80.2508477,70.9364254 C76.8101143,79.74384 69.5249052,89.5184339 60.2413406,89.5184339 C50.9577759,89.5184339 38.8758236,92.0885232 28.617887,77.3854481 C27.6554004,76.0058808 15.4815746,68.1650743 14.2988779,60.7145144 C11.3528779,42.1557846 21.6780971,14.8290028 41.1133666,13.8722258 Z" id="ðŸŽ¨-Background" fill="#FFFFFF"></path>
                        <polygon id="Path-5" fill="#7B7B7B" points="24.8871227 72.6572054 13.9600788 60.3700904 24.8871227 48.5272197 33.6271175 32.308884 82.7072322 34.2990987 80.6076651 66.0823891 71.381365 82.9313948 66.5836788 87.9460452 60.7969698 84.0543966 34.8483961 81.4057311"></polygon>
                        <path d="M39.8292632,1.92457566 C40.803259,0.809231746 42.4475507,0.36309418 43.9085444,0.449443386 C46.0308488,0.575369312 47.8765888,1.88679788 49.988111,1.98394074 C52.2018848,2.08648042 54.3385655,1.31833228 56.5579101,1.67452275 C57.9182696,1.89399365 59.2660497,2.52542222 60.1376142,3.59039577 C63.1566416,2.72510476 66.4344429,3.87103069 68.3572759,6.37335873 C70.7293689,6.00457566 73.3099186,7.57703069 74.0359228,9.86510476 C77.0495592,9.96224762 79.8942738,12.3854222 80.2303203,15.422036 C81.4345169,15.7404487 82.4802146,16.5717397 83.1217579,17.6707132 C83.8675296,18.944364 83.9915254,20.4051048 83.8567474,21.8406603 C85.2746121,22.5656339 85.9952252,24.1235175 86.1839144,25.7713481 C87.4795803,26.7391788 88.0420539,28.4787556 87.777889,30.1211894 C88.7698552,30.6806603 89.2821913,31.9830942 89.2766205,33.1452106 C89.2712294,34.2299725 88.9838827,35.1907873 89.3882167,36.2375915 C89.7484053,37.1699493 89.8777148,37.9469868 89.6795889,38.9236088 L89.6593901,39.0187556 C89.6243478,39.1779619 89.5948763,39.3306921 89.5684598,39.4812635 C89.8367579,39.7169249 90.0637241,40.0123111 90.2340835,40.355909 C90.8555,41.6115704 90.7629524,43.0437079 90.2890729,44.3171788 C90.4966311,45.1281418 90.4702146,45.9847979 90.1634598,46.7642794 C90.7379736,47.5926921 91.040056,48.6087344 90.9512822,49.6629143 C90.8517262,50.8432 90.313333,51.9000783 89.4969376,52.6815386 C89.7143795,54.2937503 89.0595381,56.0356656 87.8754683,57.1707979 C88.0434915,58.1359302 87.8984704,59.1474751 87.3710391,60.0624169 C86.9950983,60.7145333 86.4890518,61.2002476 85.9051934,61.5388085 C85.9244218,62.0772317 85.8516416,62.6278878 85.6726564,63.1796233 C85.4241258,63.9452529 85.003259,64.650618 84.4494112,65.2187238 C84.7798869,67.3339196 83.5147706,69.6809989 81.2880581,70.2744698 C81.1009863,70.3243005 80.9225402,70.3471471 80.7516416,70.350745 C80.530426,72.3851683 80.0473816,74.3913481 79.2994535,76.2966074 C77.398185,81.1481735 73.9406797,85.3900783 69.4319059,88.0363217 C67.2017791,89.3441524 64.6967051,90.2400254 62.1395169,90.6142053 C60.2993478,90.8840466 58.5292632,90.8174857 56.6820856,90.6339937 C54.3637241,90.4019302 52.03476,90.0547344 49.7812717,89.4574857 L49.4188137,89.3610282 C48.4846266,89.1105002 47.4996734,88.8214214 46.6903626,88.3169566 C45.7846543,87.7520889 45.3140095,86.8814011 45.1055529,85.8560042 C44.9892432,85.2852899 45.3503611,84.6714565 45.9744828,84.6596385 L46.0146755,84.6597079 C46.1512505,84.6625862 46.2866755,84.6574053 46.4238026,84.6487704 L46.5270116,84.6417185 L46.532223,84.6417185 C46.5394112,84.6399196 46.543185,84.6399196 46.5501934,84.6399196 C46.6112928,84.6309249 46.6705951,84.6129354 46.7298975,84.6039407 C47.4165106,84.4882328 48.0170038,84.6029736 48.6617493,84.817653 L48.7425825,84.8449989 C49.8279947,85.2191788 50.9044218,85.5663746 52.0257748,85.8236233 C53.1848658,86.0880677 54.358333,86.2985439 55.5353943,86.4640466 L55.6522019,86.4784381 L55.6881427,86.4838349 L55.7061131,86.4856339 L55.7061131,86.4856339 C55.7097072,86.4856339 55.7133013,86.4856339 55.7168953,86.4874328 L56.0637241,86.5306074 L56.0637241,86.5306074 C56.3370539,86.5629884 56.6100243,86.5917714 56.8831744,86.6205545 C57.3863457,86.6709249 57.8895169,86.7105016 58.3926882,86.7392847 C67.0777833,87.2285968 74.3719693,80.3836233 76.5733436,72.1768508 C77.3712294,69.2067979 77.4233436,66.2439407 77.1879313,63.2792847 C77.1124556,63.0634116 77.0675296,62.8241524 77.0693266,62.5615069 C77.0693266,62.4247873 77.0766945,62.2898667 77.0855,62.1531471 C76.7927622,59.2856339 76.2841998,56.4163217 75.965944,53.5380148 C75.5941364,50.1757926 75.387297,46.7939619 75.4627727,43.4099725 C75.5005106,41.7387556 75.6784175,40.0837291 75.9120328,38.4288825 L75.9964937,37.8343323 L75.9964937,37.8343323 C74.9407326,37.6279937 73.9591892,37.1268085 73.1776564,36.4012952 C71.4816099,37.3817185 69.2865254,37.4686074 67.6124027,36.4333164 C65.7362928,37.6110836 63.11513,37.7179407 61.2259017,36.5664381 C60.0840624,37.3824381 58.645352,37.734491 57.2330581,37.4247132 C56.5978044,37.2854751 55.9661448,36.9841524 55.4252357,36.5669778 C55.0390518,36.6351577 54.6478362,36.6616021 54.258777,36.6412741 L54.1784493,36.6862476 L54.1784493,36.6862476 C53.2817262,37.1593693 52.2883224,37.4707661 51.2659863,37.4360466 C50.5090729,37.4105016 49.7293372,37.2610095 49.0074662,36.9782159 C48.2363562,37.4441418 47.3924662,37.7621947 46.4896332,37.8762476 C45.1711448,38.0426497 43.7482484,37.7506815 42.6516945,37.0019619 C40.647815,38.1446497 38.1829947,38.3205862 36.0200772,37.5527979 C35.5771068,38.3038561 34.9641364,38.9514751 34.2463985,39.4506815 C34.3748869,39.9115704 34.4158594,40.4030413 34.3716522,40.8756233 C34.2990518,41.6534857 34.1042526,42.3509354 33.7856374,42.977327 C34.1215042,43.6767556 34.2224979,44.5355704 34.0345275,45.3976233 C33.7665888,46.6270201 33.0520856,47.696491 32.1269693,48.5294011 C32.0453837,50.491327 30.970574,52.3309249 29.2213351,53.3529037 C29.132741,53.4045333 29.044686,53.4466286 28.9568108,53.4845862 C28.8795381,53.590364 28.7871702,53.6833693 28.6816839,53.7618032 C27.5693161,54.790618 25.8089355,54.7087661 24.4146121,54.127528 C24.3876564,54.1287873 24.3608805,54.1311259 24.3335655,54.1316656 C23.8356057,54.1442582 23.4961448,53.9499725 23.2946966,53.6639407 C23.0918108,53.6749143 22.8903626,53.6963217 22.6874767,53.7340995 C21.9469165,53.872618 21.1346543,54.1388614 20.4643584,54.4844381 C18.7248235,55.3801312 17.9197495,56.9632 17.6789461,58.8664804 C17.4167579,60.9424593 18.0131956,63.0580148 19.6181321,64.4629884 C20.3978679,65.1465862 21.3952252,65.5747344 22.4087558,65.7546286 C23.5283118,65.9543111 24.7251406,65.4632 25.5517791,66.4256339 C25.7171068,66.6163217 25.8303203,66.8825651 25.7404683,67.1398138 C25.46013,67.9421418 24.9982907,68.2497608 24.2758805,68.3612952 C25.3199609,69.6007661 26.3909968,70.7988614 27.5770433,71.9124063 C28.86013,73.1194963 30.1863457,74.2888085 31.3438192,75.6200254 C32.5674239,77.0285968 33.6726036,78.5217185 34.4399397,80.2307132 C34.8784175,81.2129354 35.2306374,82.2257397 35.6099926,83.2313481 L35.6777381,83.406547 C36.1006981,84.4749822 36.6633122,85.5049004 36.0123499,86.6205545 C35.7535761,87.0594963 35.167741,87.4840466 34.628629,87.4138878 C33.1103097,87.2196021 32.6017474,86.1924063 32.1343372,84.8539937 C31.7821173,83.8429884 31.5125613,82.8032 31.1335655,81.8011894 C31.0625825,81.6157185 30.9853097,81.4320466 30.9042632,81.249454 C30.0287452,81.4937503 29.0660708,81.2998243 28.2847178,80.8000783 C27.4498129,81.1704804 26.5248763,81.3552317 25.6315677,81.339581 C24.4354577,81.3185333 23.3426776,80.985909 22.403185,80.3859619 C22.3284281,80.3661735 22.2533118,80.3471048 22.1787347,80.3256974 C20.7495486,80.873655 19.0757854,80.7757926 17.7817368,79.887655 C16.943777,79.3125333 16.3708805,78.5449249 16.0452569,77.6902476 C14.9625402,77.6695598 13.8915042,77.2853058 13.115722,76.5164381 C12.4033753,75.8105333 11.9870011,74.8997291 11.8633647,73.9533058 C10.9314197,73.7685545 10.0576987,73.3175598 9.37248732,72.5578667 C8.80030973,71.9233799 8.45258245,71.1152952 8.33505603,70.2762688 C7.20004545,69.9520995 6.17645137,69.2102159 5.61739218,68.1758243 C5.09714905,67.2128508 5.02203277,66.1682053 5.27649366,65.2180042 L5.21054228,65.1230201 L5.21054228,65.1230201 C4.04138795,64.5104804 3.14915751,63.5077503 3.05750846,62.0754328 C3.03163108,61.6676127 3.07547886,61.2596127 3.18599683,60.8735598 C3.14610254,60.4419937 3.17162051,60.0106074 3.28465433,59.5932529 C1.71224419,58.0623534 1.14258245,55.6032 1.99617653,53.5703958 C0.459707188,51.9153693 0.0535761099,49.297909 1.1803203,47.3336444 C0.407593023,46.3980148 0.0104471459,45.2053164 0.0769376321,43.9316656 C0.15960148,42.341581 0.887402748,40.952618 1.75896723,39.6663746 C1.11203277,38.9503958 0.767001057,37.9519831 0.792339323,36.9877503 C0.828100423,35.5899725 1.57027801,34.3864804 2.49952748,33.3898667 C1.68888266,30.9289143 2.59459091,28.2592847 4.58391438,26.7014011 C4.18137738,26.0375915 4.03222304,25.2154751 4.16358668,24.3825651 C4.39342812,22.9272212 5.4842315,21.9360042 6.66129281,21.1516656 C6.41509831,20.3495175 6.47979175,19.4840466 6.87154651,18.6547344 C7.3944852,17.5483852 8.38106025,16.8467979 9.41076427,16.2531471 C9.67672622,13.7993905 12.4154154,11.7036233 14.7120328,12.9700783 C14.142371,11.1441524 15.7832484,9.17251217 17.6701406,8.96383492 C18.5936395,6.1610836 21.7797918,4.39452275 24.6442738,5.09071323 C26.1088615,3.08669206 28.8349715,2.31512593 31.1495592,3.17484021 C33.6943478,1.22298836 36.8515677,0.93335873 39.8292632,1.92457566 Z M21.702519,56.9560942 C23.490574,56.8589513 24.831166,58.3196921 25.7729947,59.6563058 C26.6569588,60.9101683 24.3890941,62.2341894 23.7277833,60.8526021 C23.490574,60.3596921 23.221018,59.8379989 22.8598129,59.4062529 C22.7991628,59.4912529 22.7455885,59.5792886 22.692267,59.6696011 L22.638777,59.7606444 C22.5992421,59.8272053 22.5579101,59.8955651 22.5237664,59.9657238 C22.5273605,59.9783164 22.4734493,60.143819 22.4716522,60.1510148 C22.3242949,60.5989513 22.0026247,60.886782 21.5643266,61.041491 C20.9980793,61.2393746 20.4625613,60.8130254 20.2810603,60.3129196 C19.9919165,59.5141894 20.6638298,58.8179989 21.3628784,58.5013852 C20.6764091,58.3898508 20.000722,58.6237132 19.5047389,59.1526021 C19.4366311,59.2263587 19.3214408,59.1669937 19.3180264,59.0752476 C19.2603414,57.8213852 20.5703837,57.0172582 21.702519,56.9560942 Z" id="ðŸ–-Ink" fill="#000000"></path>
                    </g>
                    <g id="BODY" transform="translate(0.000000, 68.000000)">
                        <path d="M142.941609,19.56137 C141.087576,14.482752 142.480302,8.0528502 138.658661,3.85048458 C137.528307,3.1672472 136.928806,3.54737954 136.463545,4.73871105 C136.182664,6.30642183 135.524578,11.7042295 137.891314,11.7017274 C138.189088,15.0728775 138.002912,18.4685119 137.274022,21.7769321 C135.527416,21.4982514 134.253966,22.3909928 132.97974,23.0549337 C132.029658,23.5499783 131.079146,23.9178229 129.931749,23.578048 C125.194863,22.7477261 123.844881,27.6946061 123.787375,31.7325516 C123.717828,33.7027344 123.531678,38.295388 122.659023,40.2071302 C118.709431,32.0724412 110.414534,28.3689307 102.510858,26.5402922 C101.271961,26.1994778 100.214747,25.7337397 99.4200842,24.9377315 C92.7608764,22.3229143 95.9600133,13.7559075 92.8963752,8.83223765 C88.1010842,2.97887885 82.3422065,1.2946442 75.0870916,2.29778608 C68.7393153,2.99585703 64.4243801,9.40842319 64.8157811,15.4614095 C64.9331295,16.6965269 64.1877065,17.9956251 63.7492224,19.2666647 C59.367616,24.4807506 52.5497273,26.8135514 46.6857211,29.964164 C27.1269938,39.4708679 20.3488202,46.7359171 12.7481295,66.9649621 C9.19245465,74.5760085 4.93718203,81.9627643 3.52396932,90.3451558 C1.86330061,100.222877 1.85808912,110.334362 2.43620526,120.309306 C1.35688741,120.438161 2.53144976,128.106219 3.47814413,130.762498 C3.80251455,131.672886 4.5797456,132.329315 5.54818447,132.314124 C7.49620403,133.255787 12.0699242,137.050143 14.1074376,136.924326 C20.6906313,136.521093 27.0896922,137.144567 33.4322357,136.822194 C40.2940194,136.473429 47.0896532,135.20037 53.9807309,135.365497 C65.9980294,135.65346 57.394227,136.362888 69.8272794,136.924326 C77.6759652,137.284263 106.310035,133.02131 114.136438,133.717236 C120.502364,135.04904 123.406603,132.803811 122.435468,126.190008 C122.076414,123.654721 120.929886,118.016717 124.701568,117.777235 C126.485695,117.983118 127.962524,119.756175 129.299362,120.792201 C141.105726,129.533815 153.167094,123.239381 154.117562,108.868699 C155.906901,96.8156265 158.415785,93.968119 152.961869,81.9318461 C135.706621,37.1246633 161.703697,43.2123209 144.151034,22.2251558 C142.780412,23.4120194 143.128863,20.2442499 142.941609,19.56137 Z" id="ðŸŽ¨-Background" fill="#FFFFFF"></path>
                        <path d="M135.158658,60.361345 L125.955282,39 C124.510011,35.9233487 123.787375,33.5008659 123.787375,31.7325516 C123.787375,29.9642372 124.510011,27.6633864 125.955282,24.8299992 L130.55697,23 L136,21.6908902 L138.305275,19.8394266 L138.305275,5.18619788 L142.292254,12.5517979 L143,21.6908902 L150.029224,27.5 L151,36.5 L146.845701,49.4903442 L146.845701,60.361345 L135.158658,60.361345 Z" id="Path-2" fill="#7B7B7B"></path>
                        <path d="M64.8483961,13.4057311 L63.6271175,19.9460452 L60.0918729,23.8568563 L79.4401408,36.1434322 L99.0436432,27.5 C97.4687928,25.3494433 96.4078954,23.4130733 95.8609511,21.6908902 C95.3140068,19.968707 94.8828483,17.2069873 94.5674756,13.4057311 C95.2246606,11.8084367 94.8058113,9.97993341 93.3109276,7.9202213 C91.8160439,5.8605092 88.3896275,3.35524943 83.0316783,0.404442005 C76.0967527,1.44158735 71.5130973,2.75825255 69.2807122,4.35443762 C67.0483272,5.95062268 65.5708885,8.9677205 64.8483961,13.4057311 Z" id="Path-6" fill="#7B7B7B"></path>
                        <path d="M136.384259,3.51496016 C137.325921,2.59456453 138.822877,2.82350177 139.741178,3.64184966 C140.675652,4.47288649 141.238134,5.77931214 141.71795,6.90541173 C143.870836,11.9684813 143.369454,17.5121225 144.458476,22.8093121 C146.451422,23.8798306 148.250465,25.2774022 149.524405,27.1575113 C151.459845,30.0134186 152.378146,33.3395318 151.40773,36.7242644 C150.906349,38.4756969 150.05454,40.0984527 149.447131,41.8123544 C148.798391,43.6370611 148.401239,45.5332548 148.21075,47.4600093 C148.023855,49.3508415 147.998696,51.252218 148.052608,53.1501989 C148.081361,54.1331457 148.133476,55.114484 148.185591,56.0954649 C148.232315,56.9748879 148.389022,57.8924275 148.177513,58.7540873 L148.151447,58.8532562 C148.234112,58.8405673 148.31498,58.8244827 148.395848,58.8067896 C149.089695,58.6529138 149.700518,58.4134322 150.424735,58.5081525 C150.989014,58.5814267 151.281936,59.0496668 151.042926,59.5786709 C150.938696,59.8092166 150.800322,60.0022317 150.633195,60.1666518 C152.088818,70.8720147 154.631667,81.4054513 156.304735,92.0766791 C157.063097,96.9183176 157.524943,101.774075 157.264369,106.67612 L157.237018,107.16228 C156.971343,111.662998 156.318652,116.622835 154.018867,120.558903 C152.944222,122.40166 151.467034,124.036747 149.677156,125.214496 C148.857514,125.754223 147.978928,126.175997 147.024686,126.386884 C142.079161,128.345629 136.849699,127.864878 132.186312,125.275439 C130.089136,124.111809 127.997351,122.755342 126.284748,121.071822 C125.452706,120.253296 124.649597,119.211372 124.157021,118.072941 C124.158818,118.328507 124.112375,118.589825 124.16421,118.841605 L124.267947,119.339563 C125.044588,123.038945 128.004809,136.711042 128.044075,137.858766 C128.065424,138.478023 122.824172,138.463196 122.255349,138.481913 L122.239552,138.482491 C113.750765,138.834418 105.25686,138.646455 96.7727975,138.297679 L96.1030238,138.269817 C87.8751571,137.923462 78.9216351,137.457903 70.6849627,137.219136 L70.7020778,137.082258 C70.8006152,136.346259 71.2804882,133.074503 71.3339455,132.823826 L71.3359003,132.815239 C71.5693392,131.879652 72.0196436,128.969532 71.7826106,128.004099 C71.1721114,125.517476 68.4207674,126.085413 66.4849879,126.348999 L66.0772453,126.402101 C65.7639545,126.44511 65.0014209,126.556419 65.0085703,126.563993 C64.802931,126.350798 65.2921954,125.746199 65.4126762,125.584508 L65.5091434,125.451334 C66.0292819,124.727423 66.4997946,123.975466 66.4483796,123.042899 C66.3233038,120.764428 63.0495886,120.893105 61.4408551,121.050912 C61.3274603,121.061993 61.281096,121.238208 61.4117427,121.264659 L61.729091,121.330429 C62.749716,121.548279 65.016717,122.103619 64.9654407,122.943353 C64.9363282,123.420529 64.4254224,123.772245 64.113272,124.072848 C63.7691339,124.404369 63.4271522,124.761268 63.1732268,125.168208 C62.6844248,125.951528 62.5733661,127.008285 63.0569566,127.823773 C63.6148424,128.764311 64.6042976,128.874178 65.5952882,128.788539 L65.6513808,128.783487 C65.8694847,128.763113 66.0875687,128.742282 66.3056393,128.72122 L67.6139566,128.593867 C67.9379676,128.562592 68.9790079,128.291477 69.2830715,128.478416 C69.7140079,128.743454 69.1957341,129.91888 69.0985128,130.305982 L69.0933574,130.333574 C69.0098342,130.894173 68.9597865,136.76757 68.9513331,137.155513 C62.532393,137.007356 56.1125544,135.587981 49.693794,135.921468 C44.5944395,136.186327 39.5089224,136.644202 34.4190923,137.041848 L34.2906244,135.955129 C32.8799455,124.123337 30.6680225,108.510965 31.7296033,96.8078701 C31.8126278,95.8917637 30.3744358,95.897304 30.2919505,96.8078701 C29.1943026,108.909554 31.5969798,125.165706 32.9945581,137.151045 C30.8278356,137.314571 28.6602145,137.463264 26.4900776,137.576571 L25.9366863,137.604723 C18.5520704,137.971731 10.9301158,137.993589 3.70328056,136.309285 C3.48044438,136.257457 3.4049676,136.035847 3.45169132,135.851768 C3.37980868,135.892873 3.27198472,135.86964 3.2414346,135.769558 C2.39955854,133.009628 1.97194754,125.98283 1.59042685,122.941886 L1.564772,122.743011 C1.17301161,119.78863 0.948378362,116.80065 0.786642421,113.828398 C0.459576406,107.882464 0.499111858,101.92938 0.941190098,95.9905945 C2.34829279,77.0483162 7.95154462,57.9112357 19.7115446,42.6880707 C22.5545031,39.0082753 25.7910189,35.6412357 29.6744786,33.0373203 C33.4842586,30.4818374 37.7576815,28.6819724 42.0940018,27.2202412 C44.9603221,26.2532003 47.8715691,25.4257378 50.782816,24.6000625 C50.8930361,24.5452558 51.0032561,24.4912433 51.1140086,24.4380781 L51.2806033,24.3589724 C52.3157133,23.8708947 53.3346498,23.3365291 54.3949187,22.9022453 L54.6292386,22.8074689 C56.1656595,22.1946044 57.9557393,21.6521811 59.6189896,21.670881 C62.3127916,20.3215632 64.5752977,18.2825741 64.3560556,15.0118633 C64.2662023,13.667907 66.3867402,13.6696941 66.462217,15.0118633 C66.6598943,18.5826409 64.4478857,21.1150693 61.6281094,22.8146737 L61.6415874,22.8283009 L61.6550654,22.8432685 C62.0953466,23.3401034 62.5661779,23.8011948 63.0747476,24.2301171 C66.1189774,26.8072248 69.9700899,28.9466532 73.8194053,30.3547692 C78.3354322,32.007907 82.8478649,32.5029547 87.5184395,31.1663258 C89.9606522,30.4673613 92.2662879,29.3896941 94.3850287,27.9956969 C95.0319725,27.570349 95.6519603,27.1147978 96.2467891,26.6267201 C95.6843075,25.8618087 95.235041,25.0379206 94.8576571,24.1639915 C94.0994749,22.4054104 93.4721192,20.0231048 94.2466546,18.1662289 C94.4371436,17.7087119 95.1937084,17.4263381 95.4578771,18.0089574 C96.1856889,19.6031184 96.489393,21.3259561 97.3376082,22.8845523 C97.6610801,23.477716 98.0330727,24.0406764 98.4499921,24.5714677 C98.4499921,24.6000625 101.634393,25.1415768 101.634393,25.1415768 C105.483708,25.1397896 109.108391,26.6106355 112.513831,28.4478524 C114.526844,29.5341724 116.505127,30.6892714 118.477747,31.8461099 L122.332999,34.1078387 C122.616936,34.2740461 122.935017,34.434892 123.253097,34.6066396 C122.881105,32.779967 122.699601,30.9177296 122.821801,29.0715768 C123.006899,26.2871566 124.095921,23.2419874 126.980212,22.2499261 C128.344185,21.7798988 129.922009,21.92466 131.246447,22.4465154 C131.857449,22.6877842 132.522364,23.0076887 133.090237,23.4348237 C133.365367,22.2052467 134.524295,21.2830638 135.688794,20.8757664 C136.066178,20.7433367 136.452547,20.6593394 136.844307,20.6182344 C136.832806,20.4209302 136.831656,20.2213383 136.834416,20.0157988 L136.837119,19.8604718 C136.85509,18.949012 136.847902,18.0375523 136.828134,17.1278797 C136.792193,15.4032548 136.709528,13.7143735 136.533415,11.9951102 C136.386382,10.5718683 136.130932,9.16487335 135.941234,7.74740512 L135.862697,7.13804531 C135.702689,5.93769071 135.434229,4.44276818 136.384259,3.51496016 Z M20.5912084,119.893716 L20.2698821,119.704012 C19.2175404,119.086419 18.1335609,118.516919 16.8587023,118.802824 C15.6442451,119.075011 14.7827317,120.055634 14.3300507,121.160645 C14.1161999,121.682679 14.0046021,122.209181 13.9221167,122.76535 C13.8757524,123.076676 13.8444835,123.390683 13.7894933,123.700758 L13.7710979,123.796794 C13.7461999,123.920216 13.7081,124.092219 13.6734028,124.241379 C13.3420238,124.09626 13.0083087,123.866251 12.7371314,123.729711 L12.5184208,123.620368 C12.005164,123.366232 11.4711658,123.124394 10.9118515,123.006798 C9.70026956,122.752125 8.35624389,123.120462 7.66365465,124.199917 C7.07128042,125.122798 7.08339038,126.210904 7.31001172,127.245383 L7.32616565,127.317466 C7.42446516,127.746746 7.93249572,129.465831 8.67144927,129.21509 C9.39009597,128.97114 9.48605929,128.021077 9.54051039,127.38806 L9.54455459,127.327648 C9.56906828,126.85031 9.47391571,125.847324 10.0174517,125.666116 C10.696563,125.439859 12.0032097,126.473741 12.5946241,126.743962 C13.6521974,127.226854 14.8140006,127.369473 15.6746155,126.429776 C16.4462339,125.587343 16.511326,124.354119 16.7110345,123.285672 L16.7626058,123.016511 C16.8685474,122.473733 17.0735347,121.606374 17.6776253,121.628349 C18.1712793,121.646578 18.7132744,122.155208 19.1201302,122.396656 C19.569217,122.663303 20.0355556,122.885449 20.5229199,123.074889 C21.660283,123.517037 22.9248784,123.658223 24.1348429,123.52776 C24.8358784,123.452341 25.2923331,123.11939 25.5401485,122.463854 C25.6240715,122.271375 25.6880471,122.07282 25.7322549,121.867473 C26.1250935,120.399665 23.9786779,119.351844 23.18725,120.665061 C22.2741608,120.630569 21.4241485,120.386083 20.5912084,119.893716 Z M152.692453,110.078188 C152.037961,109.61388 151.149133,109.713783 150.564188,110.236889 L150.529351,110.269314 C150.367215,110.425035 150.001633,110.830496 149.764853,111.186773 L149.690724,111.129539 C149.678886,111.120268 149.667362,111.111142 149.656237,111.102178 L149.624142,111.07579 C149.140372,110.669207 148.634858,110.296581 148.012354,110.130552 C146.390322,109.696983 144.916189,110.776974 144.207965,112.161678 C143.872094,112.818465 143.728328,113.496698 143.560842,114.204956 L143.546612,114.270202 C143.479069,114.600333 143.391259,115.269458 143.100254,115.432925 C142.993328,115.492974 142.750724,115.374305 142.510636,115.236514 C141.96307,114.922329 141.471573,114.521822 140.934969,114.190659 C139.675944,113.413595 138.2453,113.092618 136.831369,113.652719 C135.431634,114.206922 134.428871,115.514956 134.405329,117.039417 C134.387898,118.163015 135.144463,120.123726 136.568278,119.986828 C136.853472,119.959305 137.220613,119.784698 137.266798,119.457824 C137.389537,118.590329 136.70162,117.524635 137.490532,116.808157 C138.253387,116.115447 139.043737,116.698067 139.734349,117.178459 L140.229156,117.523784 C141.032873,118.078914 141.860594,118.58726 142.878136,118.647876 C144.165554,118.724367 145.354134,118.01736 146.001976,116.927361 C146.58764,115.94227 146.596266,114.827966 147.054158,113.816245 C147.154255,113.595172 147.412314,113.391612 147.326414,113.289743 C147.673427,113.469533 148.121076,113.987457 148.337263,114.132397 C149.413706,114.854773 150.852796,114.849412 151.796436,113.891843 C152.172382,113.510817 152.411751,113.040432 152.690117,112.591672 C152.790752,112.429397 152.916367,112.279274 153.008197,112.112352 C153.04186,112.0511 153.097045,111.823107 153.142421,111.619899 L153.212164,111.297042 L153.219452,111.244288 C153.279143,110.755639 153.10558,110.371014 152.692453,110.078188 Z M111.231444,105.811841 C109.994883,105.166135 108.470432,105.411693 107.356431,106.194118 C106.10729,107.071443 105.494311,108.419153 105.077392,109.843532 C104.774047,110.88063 104.628664,112.310728 103.756908,113.0617 C102.742284,113.935629 101.041361,113.007906 99.9703099,112.663338 C98.6744456,112.246747 97.1172879,112.076072 95.8528722,112.692469 C94.6137952,113.296713 94.0166302,114.528971 93.8886791,115.849158 C93.7691742,117.081237 93.9467243,118.703814 94.6535104,119.734836 C94.7230568,119.836348 94.85586,119.810255 94.8998881,119.702667 C95.3644297,118.565129 95.2749358,117.263708 95.65214,116.086495 C96.0548625,114.829932 96.9986815,114.564 98.1969652,114.902133 C99.4468246,115.254565 100.591376,115.91439 101.876817,116.149225 C103.24726,116.399608 104.604224,116.14154 105.68462,115.240803 C106.593576,114.483041 107.144018,113.379281 107.51601,112.279631 C107.878479,111.207505 107.937602,109.772223 108.709622,108.88221 C108.904424,108.657562 109.243889,108.386268 109.559095,108.357495 C110.02741,108.314603 110.196694,108.6606 110.574976,108.925996 C111.572887,109.626211 113.165806,109.64033 113.776809,108.408608 C113.976822,108.005243 114.07602,107.432631 113.776809,107.037844 C113.252245,106.346028 112.821488,106.351747 112.129259,106.501334 C112.107262,106.48289 112.082621,106.459071 112.055058,106.427039 L112.033834,106.401431 C111.850713,106.170706 111.495074,105.949633 111.231444,105.811841 Z M62.2547463,98.5421457 C62.2137732,97.6162098 61.0929432,96.7276259 60.2087867,97.3745836 C60.0660996,97.477525 59.9257488,97.5835045 59.7880935,97.6932371 L59.7316656,97.7538224 L59.7316656,97.7538224 C59.5671982,97.7532505 59.4137719,97.7103583 59.2513286,97.658819 L58.9671377,97.568067 C58.2210559,97.332782 57.5037471,97.1432158 56.7073833,97.3168578 C55.3371204,97.6160311 54.4676999,98.7916355 54.0213087,100.03962 C53.6052879,101.202536 53.7418649,102.389042 53.5467035,103.581446 C53.3616866,104.711975 52.7775285,105.153337 51.6806005,104.911141 L51.624382,104.898237 C49.4425642,104.378705 46.9566828,102.925552 45.0438857,104.917717 C42.9774395,107.069656 44.3291925,110.487451 46.5911595,111.870189 C46.6899982,111.930596 46.7992598,111.831229 46.7767965,111.728288 C46.476327,110.338222 45.5995385,109.012495 45.8933588,107.537002 C46.0969664,106.51438 46.8114798,106.030413 47.8311351,106.193404 C49.9757537,106.536541 51.9816388,108.236146 54.1812476,107.002637 C55.2799737,106.386061 55.8854053,105.228329 56.1590984,104.042359 C56.4056559,102.974878 56.33575,101.771215 56.8081987,100.76432 C57.3250348,99.6625263 58.1955336,100.461394 59.1336021,100.611695 C60.4607353,100.824548 62.325371,100.132375 62.2547463,98.5421457 Z M134.205165,65.6164663 C134.209449,64.6964281 132.771796,64.6953558 132.767483,65.6164663 C132.71447,77.2726068 127.231262,88.046776 126.24629,99.5871075 C126.168298,100.503929 127.60631,100.498746 127.683943,99.5871075 C128.669274,88.0433804 134.152123,77.2913722 134.205165,65.6164663 Z M15.4907757,84.6965359 C14.7338515,83.8440529 13.6250617,84.108555 12.7243722,84.53569 C11.371541,85.1771075 10.0769346,85.898233 8.83588081,86.7317719 C8.53055929,86.9365823 8.72302506,87.3821252 9.08243826,87.3136764 C9.9926522,87.1396055 10.8786057,86.9446246 11.761684,86.6622508 C12.4253405,86.4502917 13.1161326,86.1423613 13.8081828,86.0331648 C13.7648735,86.1915086 13.7122194,86.3466355 13.6502207,86.4989029 C13.5366461,86.8113012 13.4047414,87.117087 13.2927842,87.4305577 C13.0700507,88.0546396 12.8693661,88.68765 12.6747738,89.3212607 L12.5779114,89.6380775 C12.1733918,90.9663067 11.7803735,92.899495 13.6471656,93.3084008 C14.3397897,93.4598726 15.0262803,93.1598143 15.670593,92.923825 L15.8032855,92.8760829 L18.1534884,92.0477269 C18.4334713,91.9490748 18.9521045,91.8802685 19.1842855,91.7072698 L19.1471653,91.8847522 C19.0990614,92.1201504 19.0518776,92.3512251 18.949948,92.5858456 L18.8930726,92.7153146 C18.3092854,94.0315555 17.5732557,95.348448 18.2541241,96.8034022 C18.8374517,98.0499574 20.2163405,98.6415127 21.5450911,98.2876518 C22.8078894,97.951484 23.7216974,96.5372917 23.0679248,95.3071784 C22.8243366,94.8485322 22.1115094,94.6242384 21.6585665,94.9106964 L21.5369425,94.9911694 C21.3942805,95.0838756 21.1486992,95.2427345 21.142728,95.2721498 C21.1089432,95.280907 21.073541,95.2896641 21.0375996,95.2984213 C21.1137952,95.0753817 21.1651913,94.7326014 21.2320422,94.5806914 L21.4780042,94.02529 C21.9355574,92.9816168 22.3321416,91.9196707 21.9830361,90.7489861 C20.9833282,87.3969588 17.5931632,89.3028033 15.0923661,90.2592999 C15.1288466,90.1177555 15.1649676,89.9778196 15.1955177,89.8407432 C15.3033417,89.3553909 15.4212741,88.8727529 15.537943,88.3896625 L15.7771806,87.392639 C15.9925172,86.4739112 16.1601378,85.4507114 15.4907757,84.6965359 Z M143.439719,80.9552617 C143.441876,80.8759111 143.343756,80.8151471 143.274928,80.8612562 C141.676079,81.9301662 140.606465,84.1619915 141.207224,86.0633681 C141.498888,86.9866232 142.119235,87.7963926 142.990094,88.2446164 C144.072882,88.8015451 145.268443,88.5895867 146.406049,88.3512199 L146.889237,88.248481 C147.229782,88.177297 147.565819,88.1250543 147.912437,88.2201321 C148.031403,88.2528374 148.169417,88.3559574 148.282453,88.3781184 C148.235729,88.4571116 148.18613,88.594188 148.160971,88.6449438 L148.078579,88.8098527 C147.995832,88.9770569 147.915133,89.1506699 147.864455,89.326394 C147.694453,89.9152685 147.736504,90.5475714 148.011815,91.097128 C148.524697,92.1208224 149.600421,92.6979015 150.720353,92.7958387 C151.387603,92.8546368 153.068759,92.2736259 153.46627,92.9775945 C154.255182,94.3748087 156.501694,93.4351116 156.065007,91.8879533 C155.769749,90.8419192 154.932136,90.1660093 153.894331,89.8830993 C153.341373,89.7324404 152.769008,89.7528142 152.206706,89.8144718 C151.986458,89.8386344 151.766899,89.8725192 151.546375,89.8958126 L151.380774,89.9109793 C151.423904,89.9075836 150.923781,89.8956095 150.722869,89.8823844 L150.765732,89.7678198 C150.772028,89.7515235 150.777799,89.7373849 150.782891,89.7265427 C151.006446,89.2509752 151.172135,88.7771948 151.158657,88.2458674 C151.134037,87.2877623 150.510455,86.4519001 149.691173,85.99063 C148.935866,85.5651034 148.036435,85.3953217 147.177796,85.4902207 C146.233977,85.5945918 144.892647,86.338057 143.964463,85.946308 C143.265224,85.6510666 143.027832,84.6214745 143.01705,83.9468156 C143.000876,82.9306273 143.411326,81.9675181 143.439719,80.9552617 Z M78.3180006,74.2903462 C75.7456803,73.1422644 73.5367268,75.1031539 72.0271913,76.9793312 C71.9493784,77.0761962 72.0473185,77.2391866 72.1700581,77.1637678 L72.3705443,77.0394381 C73.6030269,76.2707339 74.9696267,75.3624577 76.4968539,75.6242944 C77.8796676,75.861362 78.2220753,76.7611386 77.9468679,77.9873216 L77.8660331,78.3321704 C77.5735935,79.5949217 77.3493435,80.901723 78.0777329,82.0759997 C78.76547,83.1847637 80.1073392,83.6692671 81.3640275,83.6989342 C82.81367,83.7330647 84.0648941,83.0625553 85.3903245,82.5948451 L85.4951229,82.5583585 C86.0579639,82.3651648 88.1114713,81.8601089 88.1398649,83.0103353 C88.1531632,83.5359438 87.5870874,84.1537705 87.3694627,84.6262999 C87.0846278,85.2446628 86.8950373,85.8941225 86.8984517,86.5807555 C86.9068979,88.2930488 88.3434725,89.6838292 90.0433172,88.8531498 C90.7040984,88.5300284 90.8744603,87.6033776 90.529783,87.0078906 C90.0444378,86.1685767 89.8479041,86.212211 90.1880224,85.3308769 L90.2861929,85.0827991 C90.7046275,84.0207225 91.0379309,82.9273411 90.5677011,81.8127487 C89.6285544,79.5864636 86.812552,79.3167787 84.8007366,80.0539888 L84.7272466,80.0816619 C83.4750285,80.564107 79.7248086,82.4970334 79.9833417,79.7635727 C80.0850556,78.6867992 80.4135593,77.6541689 80.1838943,76.5656 C79.9704028,75.5547733 79.2611009,74.7112262 78.3180006,74.2903462 Z M65.9230972,65.1473326 C65.4535238,64.3250529 63.8771375,64.6192221 64.0077842,65.6631116 L64.0496107,65.9880167 C64.1030486,66.4327274 64.1147734,66.8505286 63.805794,67.2460134 C63.430926,67.7260488 62.7891938,67.8711675 62.2067647,67.7977146 C60.973618,67.642409 60.1872219,66.5054076 58.8300776,66.770982 C57.7284762,66.9865154 56.9677781,67.8829629 56.5273172,68.8603694 C56.0609786,69.8955018 56.0708625,71.0176696 55.7234896,72.0835413 C55.3234627,73.3093653 54.4703955,73.2528906 53.4050947,72.8239683 L53.1758033,72.7302562 C52.1566807,72.3089045 51.134155,71.8407514 49.9985764,72.0420789 C48.1125556,72.3768169 46.4883674,75.2607828 48.2554224,76.6533503 C48.5744016,76.9046273 49.1318515,76.7734486 49.1183735,76.2980598 L49.1166112,76.2079754 C49.1076588,75.3428804 49.3271286,74.226538 50.3240251,74.0226273 C51.381239,73.806379 52.5757488,74.7657351 53.5574859,75.0420325 C56.1001546,75.7572603 57.5485899,73.8540966 57.9804248,71.6031484 L57.9961981,71.5169059 C58.1340794,70.7289797 58.2429762,69.271082 59.0716033,68.9021894 C59.5135018,68.7054213 59.9848722,69.1895673 60.3541693,69.3845482 C60.9279725,69.6872958 61.5436473,69.8795959 62.1927476,69.9287432 C64.5939872,70.1108565 67.3224725,67.5993381 65.9230972,65.1473326 Z M126.012312,62.0381825 C125.221064,61.6973681 124.041111,61.8869874 123.847746,62.9138988 L123.730523,63.5601102 C123.500621,64.8082744 123.134554,66.3689077 121.900805,66.8185209 C121.129145,67.0996437 120.243012,66.6069192 119.550961,66.306495 C118.719818,65.9453067 117.909521,65.6355891 116.999307,65.5498046 C115.152463,65.3757337 113.776809,66.4383885 113.123575,68.0990325 L113.066594,68.2469302 C112.53974,69.6422834 111.827683,72.3109963 112.981248,73.4428674 C113.149633,73.6081812 113.489098,73.6887828 113.695761,73.5345495 C114.377323,73.0259738 114.54981,72.1901871 114.783792,71.4064063 L114.804012,71.3393613 C115.052366,70.5253026 115.255974,69.6288551 115.704342,68.8953981 C116.537821,67.532319 118.71245,69.0887705 119.758523,69.4481716 C121.476338,70.0384759 123.25777,69.6935509 124.570526,68.4309111 C125.399693,67.6332944 125.889932,66.6237187 126.227062,65.5551662 C126.44235,65.6657924 126.665726,65.761585 126.906353,65.8262808 C127.822856,66.0730898 128.910081,65.9429834 129.607882,65.2524186 C130.917584,63.9565372 130.207204,61.6319574 128.210304,62.0078005 C127.817106,62.0817896 127.559047,62.4553094 127.512323,62.8368715 L127.485547,62.8970993 L127.485547,62.8970993 C126.983087,62.7319643 126.433724,62.2195809 126.012312,62.0381825 Z M33.4785079,50.4601416 C31.612794,48.5512589 28.3750202,49.5860338 27.0989236,51.6109042 C26.8342158,52.0307119 27.2714419,52.5629329 27.7361632,52.4353285 C28.8469297,52.1309724 30.4143307,50.9328497 31.5881742,51.6954377 C32.4583136,52.2607214 31.9849664,53.7381798 31.9053564,54.5647487 L31.8938863,54.6880053 C31.7931631,55.8131686 31.7703261,57.3526603 32.6514982,58.1948606 C33.1587792,58.6796735 33.9366658,58.6141734 34.605577,58.5448962 L34.8182207,58.5229861 C35.6067732,58.4441716 36.3901143,58.3058442 37.1454211,58.0645754 C37.8398075,57.8430206 38.4977505,57.5418233 39.1502048,57.2228326 L39.3132219,57.1427501 C39.6020104,57.0003121 40.5650581,56.4353858 40.8534872,56.790319 C41.0039016,56.9754704 40.6311901,57.7864909 40.5537366,57.9673531 C40.2611742,58.6475523 39.8891815,59.2880761 39.6208796,59.9804281 C39.1480715,61.2001757 39.1085361,62.5763012 39.772552,63.7402889 C40.4159016,64.8681757 41.8098857,65.7819588 43.0453686,64.9155359 C43.7526938,64.4194158 43.750717,63.516892 43.0453686,63.0204145 C42.672118,62.7576996 42.2958123,62.5845222 42.1416241,62.1438046 C41.9403527,61.5691463 42.1993381,60.9596307 42.4500741,60.4276444 L42.7502085,59.7949048 C43.4151536,58.3818326 44.0794418,56.7565963 43.1504969,55.3121457 C42.1912231,53.8207473 40.2415862,53.7971566 38.7667341,54.418379 C37.9249884,54.7729547 37.1569224,55.2485222 36.2797744,55.5228538 C35.6729053,55.7128306 35.0636999,55.8397201 34.4420947,55.9092412 C34.303541,55.1654186 34.4996009,54.3327733 34.5015776,53.593776 C34.5048123,52.4712508 34.2945556,51.2951102 33.4785079,50.4601416 Z M129.686594,23.9066382 C126.538134,23.447334 125.014222,26.2478387 124.796777,28.9446873 C124.600897,31.3931184 124.999845,33.8486982 125.623427,36.2293954 C125.857046,37.1120816 126.119417,37.9842235 126.394369,38.8420679 C126.836447,40.2201593 127.316263,41.5961061 127.90031,42.9221907 C128.078219,43.3225181 128.257926,43.7246327 128.459197,44.1106628 C129.148617,44.6728108 129.73853,45.4300713 130.274842,46.157805 L130.627191,46.6385371 L130.627191,46.6385371 L130.721704,46.7681935 C131.632816,48.0084936 132.410946,49.2952603 133.047107,50.6946191 C133.652975,52.0273418 134.103994,53.4168002 134.454496,54.8352054 L134.540686,55.1893071 C134.810316,56.2807886 135.207854,57.5836687 134.727364,58.5994772 C135.670823,58.888821 136.608892,59.1515359 137.611655,59.2909356 C138.995395,59.4839506 140.434845,59.4964608 141.831166,59.4464199 C143.180313,59.3972726 144.52795,59.2925614 145.871309,59.1501821 L146.839123,59.0442259 C146.939426,59.0328873 147.039662,59.0211316 147.139699,59.0085618 C147.10196,58.9620952 147.069613,58.9102671 147.046251,58.8532562 C146.701407,58.0310467 146.745905,57.0777213 146.707629,56.1934258 L146.703012,56.0954649 C146.652694,55.114484 146.622144,54.1331457 146.609564,53.1501989 C146.586202,51.3058333 146.63652,49.4561061 146.839589,47.6206764 C147.015521,46.0141839 147.290652,44.407334 147.720151,42.8471293 C148.153244,41.2654786 148.814564,39.7803353 149.425567,38.2612357 C150.029381,36.7600079 150.527348,35.2178538 150.473256,33.5806218 C150.439112,32.5404854 150.209087,31.5289438 149.819124,30.5728046 C149.800974,30.587102 149.777971,30.5978251 149.750836,30.5960379 C148.527034,30.5513585 147.367926,30.1992849 146.185457,29.9026136 C144.931105,29.5864622 143.646202,29.327143 142.363097,29.1734458 L142.090379,29.1416755 C141.020948,29.0222655 139.855954,28.9641111 138.867804,29.4200761 C137.79855,29.9153026 137.12465,31.016203 136.718513,32.0722453 L136.673237,32.1939724 C135.951667,34.1961932 136.117107,36.868704 138.348452,37.8162289 C139.040322,38.111113 140.619943,38.2916177 140.975762,37.3587119 C141.135701,36.933364 140.806838,36.3044568 140.68284,35.9023422 C140.537278,35.4232003 140.442034,34.9513858 140.452816,34.4509765 C140.461537,34.0121197 140.798683,33.6810129 141.227644,33.6455749 L141.266887,33.643173 C142.046814,33.6093954 143.655188,32.7158074 143.811532,34.0023954 C143.842083,34.2526 143.649796,34.5153149 143.446728,34.6370216 C143.036997,34.8781116 142.609295,35.0391362 142.163623,35.1372521 C142.224723,35.4053285 142.310982,35.6680434 142.395624,35.9289711 C142.445762,35.9039506 142.501471,35.8880447 142.560774,35.8825045 C143.220298,35.8288892 143.872633,35.9327241 144.532156,35.9396941 L144.892668,35.9421948 C145.404524,35.9472434 145.850803,35.9745772 146.347193,36.2381525 C146.805444,36.4812085 146.724576,37.0906355 146.347193,37.3515632 C145.357009,38.0342644 143.680347,37.633937 142.648831,36.9405127 C142.693757,37.2925864 142.672193,37.6518087 142.521239,38.0289029 C142.075567,39.1478538 140.797853,39.7052739 139.655098,39.7535277 C138.639576,39.7964199 137.669161,39.4783026 136.858684,38.9207037 C136.693354,39.5086846 136.427388,40.0734322 136.312376,40.6830379 C136.161422,41.4835141 136.341129,42.4199943 136.060966,43.1723954 C135.780444,43.9303367 134.696814,44.437716 134.069638,43.6942508 C133.151337,42.6076477 133.43707,40.8865973 134.243953,39.7856969 C134.673452,39.2030775 135.453378,38.5346737 136.247682,38.4292303 C135.695982,37.9129151 135.253904,37.2747146 134.975359,36.5705673 C134.955591,36.5795031 134.932229,36.5812903 134.90707,36.5741416 C132.324686,35.8719602 130.919381,33.5448783 130.833122,31.1018087 C130.642633,31.2376341 130.445135,31.3593408 130.238293,31.4681798 C129.7441,31.7328606 129.109735,31.500349 128.956985,30.9516859 C128.816814,30.4405536 129.224748,29.8098592 129.798012,29.8525727 C130.125078,29.8793804 130.453941,29.8811675 130.77921,29.8275523 C130.824136,29.8204035 130.867266,29.8116464 130.912193,29.8025318 C130.940946,29.6148783 130.978684,29.4272248 131.025408,29.2413585 C130.049601,29.3521634 129.028867,29.1931048 128.085408,28.9857924 C127.273134,28.8088619 127.461826,27.5238824 128.279491,27.5542644 L128.410848,27.5599676 C129.48368,27.6111967 131.067488,27.7834518 131.986838,27.1074704 C132.148574,26.8751375 132.328281,26.6553149 132.522364,26.4480025 C132.547523,26.3961744 132.569087,26.3409506 132.588855,26.2835823 C133.083048,24.8681389 130.741471,24.0603353 129.686594,23.9066382 Z M101.423777,43.8191744 C100.197998,43.4931935 98.9080642,43.9373067 98.0650605,44.8577023 C97.3566843,45.631351 96.9898361,46.5814006 96.6619177,47.5525607 L96.4747836,48.1112937 C96.202225,48.9023128 95.8892404,49.5299947 94.9153429,49.2284199 C93.6671009,48.8418538 92.5850874,48.1684458 91.2277634,48.221525 C89.9938979,48.2699574 88.7864493,48.7977105 87.9274517,49.6823626 C87.0488266,50.5871526 86.6292915,51.8479248 86.8158276,53.0900808 L86.8280067,53.1661048 C86.925228,53.7383585 87.766794,55.7807432 88.6588576,54.84051 C89.0569077,54.4212385 88.9783759,53.9571089 89.0729016,53.4243517 C89.1627549,52.9167937 89.355041,52.4190652 89.6700666,52.0074786 C90.2285947,51.2779533 91.126948,50.9936136 92.0051742,51.2516819 C93.163563,51.5921389 94.1866326,52.2939629 95.4345153,52.3104049 C96.747272,52.3279192 97.8618123,51.650937 98.5858502,50.5881034 C99.1704358,49.7300802 99.3788955,48.725866 99.7902439,47.7929602 L99.8298479,47.7039698 C100.175219,46.9363257 100.410654,46.6592076 101.201748,47.0262432 L101.47813,47.1580689 C102.662476,47.717758 103.994809,48.2300072 105.21936,47.4408865 C106.357083,46.7079656 106.842111,45.2349752 105.885173,44.1624909 C105.357195,43.5703995 104.13501,43.6711962 103.79195,44.430746 C103.731749,44.5613885 103.67586,44.6938183 103.62087,44.8266055 C103.516101,44.7947937 103.414207,44.7561907 103.317525,44.702218 C102.675613,44.4144827 102.118163,44.0039683 101.423777,43.8191744 Z M65.6407781,35.1477965 C64.2425871,34.3984961 63.075303,35.8723407 63.2986551,37.2031575 L63.309471,37.2615077 C63.3177159,37.3016116 63.33661,37.3893322 63.3601216,37.4897119 C63.2887781,37.4811334 63.2181534,37.4686232 63.1477084,37.4507514 L62.8228613,37.4112465 C62.3122592,37.3522213 61.8171998,37.3215386 61.3060752,37.4845291 C60.0997048,37.8694868 59.5064933,39.0356191 59.4773808,40.2307037 C59.448448,41.4216778 60.0680764,42.3822849 60.2501192,43.5200011 C60.4363606,44.683513 59.2253746,44.3512826 58.434798,44.266158 L58.4038136,44.2629302 C57.3040092,44.152304 56.1477769,44.1503381 55.2337891,44.8632426 C54.2897903,45.5993804 53.8716131,46.8714922 54.0049554,48.0361948 C54.1253588,49.0881266 54.7872182,50.7071293 55.9862207,50.8733367 C56.1046473,50.8897787 56.2394273,50.8638647 56.3001681,50.7462685 C56.7850165,49.808716 56.1103979,48.7734049 56.1865935,47.784203 C56.2705165,46.696349 56.9679578,46.515308 57.9295678,46.5857228 C58.8627842,46.6539929 59.7936644,46.8509397 60.7153796,46.5741061 C61.7152671,46.2735031 62.4409224,45.4203053 62.6461473,44.4137678 C62.8723979,43.3044677 62.4565568,42.2723735 62.1868172,41.2181184 C62.0971436,40.8680106 62.0531155,40.5157583 62.1149346,40.1577869 C62.1282329,40.0804022 62.1958026,40.0089151 62.2202427,39.9783544 C62.3737121,39.9497596 62.6033771,40.0228551 62.7347427,40.0367951 L62.9211048,40.0550735 C63.9337407,40.1460569 64.9092859,40.0850385 65.632871,39.2529397 C66.0037084,38.8265833 66.1406064,38.3055044 66.1036669,37.7555635 L66.0850377,37.5334305 C66.0652695,37.3198419 66.0274069,37.0379138 65.9157292,36.9203176 L65.9142916,36.9145986 L65.9142916,36.9145986 C65.9517604,36.8646024 65.9873086,36.8131987 66.0198748,36.7598599 L66.0514077,36.7058565 C66.3615813,36.1916859 66.181695,35.4376764 65.6407781,35.1477965 Z M137.273986,22.1033776 C135.88126,22.1033776 134.565628,22.5555332 133.512547,23.7868974 C133.888134,24.1425454 134.188244,24.5553831 134.353754,25.0397078 C134.869332,24.7591211 135.41564,24.5394772 135.974528,24.3838142 C137.679943,23.9102126 140.012535,23.9173613 141.446594,25.0808128 C142.197767,25.6884527 141.372914,26.77863 140.564234,26.5909765 C139.840017,26.422982 139.211043,26.1120134 138.450884,26.0762698 C137.791361,26.0441007 137.144417,26.1298851 136.51185,26.3193258 C135.546826,26.609027 134.669858,27.1575113 134.024711,27.9134868 C133.809063,28.1672658 133.620371,28.4424909 133.462229,28.7393408 C132.258195,31.0124499 133.165713,34.2722589 134.827999,36.1434322 C134.175664,33.988098 134.826202,31.4467337 136.125481,29.6615236 C137.68971,27.5119394 140.02931,27.2682589 142.494032,27.6037598 L142.575331,27.6150284 C144.959858,27.949409 147.912437,28.5336368 149.695127,30.2761334 C149.517217,29.8740188 149.312351,29.4844145 149.082147,29.1073203 C147.730933,26.8947965 145.489992,25.1683844 143.164589,23.9370202 C142.774625,23.7279206 142.381068,23.5349056 141.989307,23.356188 C140.49954,22.6752739 138.839051,22.1033776 137.273986,22.1033776 Z M138.035762,5.21813888 L138.030304,5.24329173 C138.029173,5.24792515 138.027975,5.25269095 138.026777,5.25745675 C137.944439,5.9841875 138.138822,6.81839251 138.237939,7.55178488 L138.25141,7.65584693 C138.45987,9.3250693 138.734821,10.9960789 138.824674,12.6778115 C138.912159,14.2950433 138.878475,15.9725258 138.682985,17.5827999 L138.653953,17.8123681 C138.538941,18.6898715 138.470652,19.7192849 138.172519,20.6200216 C139.318867,20.7290393 140.465395,21.0954104 141.507694,21.4851935 C141.881483,21.6262016 142.253476,21.7745372 142.623672,21.9319874 C142.160029,19.4815905 141.912034,16.9956286 141.408855,14.5525591 L141.309833,14.0663572 C140.76284,11.3638077 140.249375,8.64385177 138.835457,6.22610614 C138.646765,5.90441446 138.443696,5.63455089 138.213672,5.34681555 C138.163354,5.28086876 138.104051,5.23797653 138.035762,5.21813888 Z" id="ðŸ–-Ink" fill="#000000"></path>
                    </g>
                    <g id="FACE" transform="translate(64.355634, 32.655577)" fill="#000000">
                        <path d="M16.7629661,33.4514256 C19.8412964,33.078215 22.8251928,34.0196425 25.8345345,34.4941991 C27.4234253,34.7446149 29.0142872,34.9315778 30.6221723,35.0011079 C30.9456129,35.0152284 31.2692327,35.0234505 31.5928525,35.0300639 C31.6229567,34.7455086 31.7824371,34.4841897 32.1279183,34.3276128 C32.836083,34.0069519 33.4028656,33.8623506 34.1803774,33.8932728 C34.892126,33.9213351 35.6063832,33.99444 36.3072011,34.1225971 C37.5798189,34.3556751 38.8581709,34.8845689 39.7890706,35.8034751 C41.9434897,37.929775 41.6155693,41.3451532 39.9508805,43.6610971 C36.5115886,48.4466911 30.2344004,48.6687977 24.8582409,48.6063653 L24.3621181,48.5998827 C19.4669654,48.529995 12.4634458,49.2590785 10.2395004,43.6955941 C9.4216705,41.6497275 9.5352779,39.278374 10.5365999,37.3161581 C11.730911,34.9757267 14.2449674,33.7567148 16.7629661,33.4514256 Z M32.053733,41.4195094 L32.0098311,41.4212968 C29.7529145,41.5081648 27.4963562,41.5692941 25.2381853,41.6091533 C25.3057404,42.1884521 25.3747292,42.7679296 25.4535734,43.3459772 C25.5153945,43.8008724 25.5816953,44.2552313 25.650684,44.7090541 C25.6798922,44.9012004 25.7870487,45.1995187 25.7567654,45.3898776 L25.7458347,45.4651275 L25.7458347,45.4651275 C25.8617716,45.5174985 25.966957,45.6018641 26.0452637,45.7243015 C26.0725008,45.7666631 26.0922118,45.8093821 26.1119229,45.8519224 C27.8651323,45.8656855 29.7518393,45.8317247 31.5390951,45.5133875 L31.5426789,45.4746007 L31.5426789,45.4746007 C31.5751126,45.2465275 31.6700841,45.0929892 31.7962349,44.9877109 C31.9218481,44.2604148 31.9103798,43.4853949 31.9589407,42.7638185 C31.9892241,42.3155368 32.0220161,41.8676124 32.053733,41.4195094 Z M23.5134673,41.6398967 C21.8867273,41.667542 20.2592793,41.688832 18.6328854,41.6689935 L17.8945602,41.6575921 L17.8945602,41.6575921 C18.0504568,42.4932051 18.2201511,43.3259582 18.3611748,44.1671121 C18.508291,45.0438355 17.7357966,45.6011492 17.0672332,45.5786278 C17.1423144,45.5909609 17.2172164,45.6036515 17.2922977,45.6141972 C19.3811327,45.9092982 21.5500663,45.8310098 23.6699015,45.8286861 C23.5558461,45.1637348 23.6020555,44.4134486 23.5849919,43.8584244 L23.5817393,43.7724526 C23.5493056,43.0612431 23.5265483,42.3505699 23.5134673,41.6398967 Z M12.4638042,41.4865372 C12.5202495,41.9210559 12.6300939,42.3462802 12.7944125,42.7421909 C13.4887794,44.4148468 15.0807165,45.1954077 16.7651163,45.5241119 C16.4728551,45.4233021 16.2408021,45.1811084 16.1822065,44.7662511 C16.0361654,43.7347383 15.9836623,42.6860663 15.9797201,41.6386455 C14.8058368,41.6277424 13.624069,41.6027187 12.4638042,41.4865372 Z M38.1754514,41.1294132 C37.3397023,41.3263855 36.3684845,41.2361214 35.5485044,41.2732995 C34.7803105,41.3081539 34.0117583,41.3385398 33.2435644,41.3696407 C33.2797611,41.8935298 33.3150618,42.4172402 33.3534088,42.9407719 C33.4028656,43.6174844 33.4075246,44.3326261 33.5372592,45.0064787 C35.0833233,44.4793722 36.4686526,43.6341072 37.5079631,42.2824697 C37.7668948,41.9457221 37.9987686,41.5505264 38.1754514,41.1294132 Z M16.4097797,36.1958111 C15.018537,36.5248728 13.7018381,37.2199955 12.9942109,38.491736 C12.5741861,39.2463794 12.3894397,40.1407981 12.4249196,41.0221687 C13.6007741,40.885432 14.7968772,40.8335972 15.9872462,40.7906994 C15.9911884,40.576568 15.9962455,40.3626749 16.0026832,40.149232 L16.0210224,39.6021731 C16.0534694,38.5587837 16.0697731,37.2485448 16.4097797,36.1958111 Z M23.6107683,36.3230745 L22.9983251,36.2543581 C21.2972127,36.0607423 19.5970136,35.8574931 17.8958146,35.9739938 C17.6496055,35.9909742 17.3996334,36.0177853 17.1491237,36.0544271 C17.449807,37.138311 17.424541,38.4113026 17.5501542,39.4842833 C17.5987151,39.8991406 17.6599986,40.3106018 17.7279121,40.7204543 L18.0230405,40.7066913 L18.0230405,40.7066913 C19.8484641,40.6078477 21.6756795,40.5470758 23.5025366,40.4746858 C23.5024022,40.1320398 23.5042837,39.7891927 23.5097687,39.4462199 L23.5165136,39.103208 C23.5372998,38.2271996 23.4806753,37.240372 23.6107683,36.3230745 Z M32.1531843,36.1840142 C30.3714834,36.4712505 28.5301118,36.5323799 26.7799487,36.5345248 C26.0809228,36.5354185 25.3822552,36.4925207 24.683946,36.4306764 C24.7294607,36.8020997 24.7531139,37.1778127 24.7873395,37.5440525 C24.8562924,38.2841822 24.935108,39.0231679 25.0207586,39.7614673 L25.0971616,40.4074793 L25.0971616,40.4074793 C27.3426099,40.3057758 29.5878791,40.1958502 31.8327899,40.0819924 L32.1496005,40.065012 L32.1496005,40.065012 L32.2383998,38.8234854 C32.298847,37.9956112 32.365347,37.1679224 32.4592433,36.3438084 L32.3888211,36.3184272 L32.3888211,36.3184272 C32.3060346,36.2844665 32.2275487,36.2376364 32.1531843,36.1840142 Z M32.9269331,36.4921632 C33.02513,37.6627364 33.079425,38.8381355 33.1516392,40.0106748 L34.6315749,39.9316979 C34.8782088,39.9182659 35.124836,39.9045624 35.3714632,39.8903823 C36.330496,39.8351514 37.5627957,39.5450552 38.5108978,39.8156687 C38.5832912,38.9546745 38.3369029,38.1158442 37.5590327,37.5374391 C36.1934145,36.5214767 34.4545404,36.883248 32.9269331,36.4921632 Z M27.8705842,26.0278979 C30.0743588,24.7671673 35.6037285,23.4786318 35.9539046,27.4403898 C36.1149479,29.2634914 34.758136,30.7740701 33.1737642,31.4481218 L33.1142461,31.4730055 C31.6282426,32.0832795 28.9943799,32.7724837 27.7084257,31.4491471 C26.638144,30.347712 28.0577039,28.3728425 29.3876546,29.2751582 C30.0711301,29.7386975 31.5097566,29.3971505 32.2724066,29.1765879 L32.3201546,29.1626826 C33.1431581,28.9210486 34.2403764,28.147712 33.9000771,27.1354322 C33.5989257,26.2399331 32.3174609,26.0763324 31.5149292,26.0472717 C30.316968,26.0043982 29.1511511,26.2822684 27.964144,26.3726794 C27.7761264,26.3870303 27.7181229,26.1150799 27.8705842,26.0278979 Z M36.9994046,19.6573875 C39.9904468,19.5174658 41.8510489,22.7797945 41.1632673,25.4528376 C41.044387,25.9140411 40.5279222,26.3668134 40.0294151,26.3149706 L39.9038086,26.3034239 C39.8399968,26.2972975 39.7758877,26.2892466 39.7169504,26.2729941 C39.2435842,26.1420417 38.8192426,25.6501631 38.8537215,25.1403457 L38.862881,24.9917927 C38.9326676,23.7290652 38.795677,22.2742302 37.2933729,21.9684279 C36.0192708,21.7090346 35.3079644,22.9340672 35.2928799,24.0616928 C35.2900067,24.2618885 35.0648165,24.4016308 34.8875736,24.2939987 C33.9665208,23.7341324 33.807056,22.6203196 34.1588482,21.6611383 C34.6047391,20.4457926 35.7206335,19.7171233 36.9994046,19.6573875 Z M14.8030912,20.3570678 C16.9797496,19.6316275 19.3280842,20.7906458 20.3820243,22.712955 C20.7517743,22.8198695 21.1209856,23.1045564 21.0696264,23.5404664 C20.9954609,24.1676027 20.8837637,24.5629713 20.448468,25.0385258 C19.7676158,25.7824614 18.492457,25.4020876 18.2094673,24.4862962 L18.1974644,24.4449348 C17.8760208,23.2611611 16.5715701,22.4801109 15.383306,22.8944945 C13.9951722,23.3784801 14.0353975,24.8429941 13.0617285,25.6961579 C12.9473377,25.7964351 12.8101405,25.8124005 12.6729433,25.7462068 C11.6387567,25.2469733 11.8246194,23.7444292 12.1932919,22.8844488 C12.676894,21.7559263 13.6168025,20.752257 14.8030912,20.3570678 Z M11.8387162,13.7543232 C13.6025261,11.9565085 18.2018641,10.2168151 19.4084451,13.536727 C19.6383042,14.1690656 19.1489556,15.0216911 18.4899063,15.1528229 C17.4106458,15.3673695 16.4531387,14.8993493 15.3810613,14.9833023 C14.5131634,15.0516487 13.6079134,15.3413584 12.9140261,15.8784426 C10.992188,17.3659181 10.5694627,19.8818183 9.23035352,21.7750669 C9.1651669,21.8672717 9.03856479,21.8285241 9.0265331,21.7198157 C8.72161056,18.9635372 9.90682183,15.723273 11.8387162,13.7543232 Z M34.8417275,11.9845108 C36.0122134,11.5715623 37.3376746,11.6069015 38.5142662,11.9732094 C39.6994775,12.3423875 40.7875373,13.0434312 41.6258049,13.9593803 C42.00615,14.375199 42.3581218,14.8340705 42.6404176,15.3225408 C42.7903648,15.581396 42.9480338,16.1161481 43.1184528,16.4345597 C44.040492,16.966335 44.434592,18.1781101 43.6090982,19.0402007 L43.5718859,19.0780039 L43.4614458,19.1874299 C43.0177099,19.62621 42.3486042,19.8163601 41.7428894,19.6410992 C40.3874387,19.2493183 40.2227662,18.1828637 39.7535303,17.0509328 C39.4435796,16.3032485 38.912569,15.6416699 38.2687838,15.155711 C36.7472239,14.0076354 34.2523542,13.6418656 32.4204845,14.1828963 C32.3229739,14.2117776 32.2084035,14.0876419 32.2779,13.9975897 C32.6250232,13.5484051 32.8250725,13.1797652 33.289819,12.8174038 C33.761569,12.4496608 34.2764176,12.1839889 34.8417275,11.9845108 Z" id="ðŸ–-Ink"></path>
                    </g>
                    <g id="FACIAL-HAIR" transform="translate(57.890833, 59.922313)" fill="#000000">
                        <path d="M21.1407118,17.0763756 C22.5946146,13.6738987 25.7678421,11.1732659 29.4213399,10.259031 C32.1042541,9.58938214 34.9198792,9.610752 37.6548017,9.87652841 C39.0877218,10.014804 40.6246586,10.1281181 41.9750826,10.6596709 C43.1282336,11.1138254 44.0679709,11.9722114 44.7745673,12.9798272 C45.615668,14.1738457 46.18776,15.5404393 46.5894798,16.9411529 C46.6465096,17.1403056 46.7001321,17.340895 46.7501677,17.5425618 C46.5754913,18.5993822 46.2046179,19.4988917 45.2247086,20.1633328 C44.2684721,20.8121505 43.1275162,21.0775677 41.9901471,21.1718465 C41.8785981,21.1183321 41.7708153,21.063381 41.6719994,21.0069933 C39.8995903,19.9934514 38.6521069,17.5982312 36.41503,17.9223707 C34.4186262,18.2118515 33.1044287,20.7211041 31.9172033,22.1925716 C28.1062457,22.6361309 24.2981575,21.4922148 21.197383,19.3153623 C21.0399232,18.5702905 21.0307769,17.8189334 21.1407118,17.0763756 M49.3403635,14.4952915 C49.0354869,13.6406767 48.6515217,12.8129987 48.1963589,12.0332681 C46.6917031,9.45469814 44.3818145,7.4001387 41.6397184,6.22569427 C35.1530201,3.45120398 26.7599464,5.40699516 21.5214489,9.95733881 C19.7320026,11.5128492 17.9226496,13.7987059 17.3754857,16.2574969 C17.2121077,16.2898211 17.057876,16.3747618 16.9309039,16.4943612 C13.1461298,14.114046 9.24855134,11.8238794 6.19870921,8.52430111 C3.98387031,6.126926 2.44334674,3.28976276 1.50002264,0.172097654 C1.42290679,-0.0845202504 1.00863328,-0.0469883105 1.02118702,0.23692555 C1.02477381,0.303369654 1.02836059,0.36963418 1.03194737,0.436078284 C0.992492754,0.313964795 0.805980004,0.376817326 0.79163287,0.495339241 C0.284102985,4.28265317 -0.35075772,8.298032 0.233888014,12.1050996 C0.583599419,14.3767696 1.61659311,16.0398476 2.99750481,17.8356342 C4.47705306,19.7605378 6.15208102,21.5509371 7.86477021,23.2678886 C8.95156565,24.3577515 10.0867827,25.6148021 11.4174794,26.4139272 C12.9651765,27.3423488 14.7209071,28.0482725 16.372621,28.7646118 C18.0530291,29.495497 19.7585448,30.1707127 21.4963414,30.7561392 C24.9701414,31.9305836 28.5605118,32.7422791 32.213651,33.0978449 C35.138673,33.3815792 38.4815554,33.690634 41.2846268,32.5914331 C43.4331102,31.7492091 45.1673201,30.2265617 46.5428516,28.3946798 C48.0403338,26.3995609 49.2241517,24.1269929 49.8785604,21.7305157 C50.5586146,19.2411963 49.4836555,14.8966498 49.3403635,14.4952915" id="ðŸ–-Ink"></path>
                    </g>
                </g>
            </g>
        </g>
    </g>
</svg>