<?xml version="1.0" encoding="UTF-8"?>
<svg width="646px" height="405px" viewBox="0 0 646 405" version="1.1" xmlns="http://www.w3.org/2000/svg" xmlns:xlink="http://www.w3.org/1999/xlink">
    <title>Group</title>
    <g id="Onboarding" stroke="none" stroke-width="1" fill="none" fill-rule="evenodd">
        <g id="Checking--Error" transform="translate(-427.000000, -118.000000)">
            <g id="Group" transform="translate(427.000000, 118.637823)">
                <path d="M141.583487,125.809331 C243.612237,93.955815 256.750749,88.0928219 307.518163,46.6666641 C358.285576,5.24050635 528.179604,-0.622486745 568.575602,46.6666641 C608.971601,93.955815 679.20709,223.864456 626.029713,278.944047 C572.852335,334.023638 435.784042,383.248181 356.892021,398.27428 C278,413.300379 64,398.27428 34.2882955,309.270267 C-14.7768124,220.266254 39.5547368,157.662847 141.583487,125.809331 Z" id="Blob-Shadow" fill-opacity="0.1" fill="#000000"></path>
                <path d="M125.583487,112.447154 C227.612237,80.5936382 240.750749,74.7306451 291.518163,33.3044873 C342.285576,-8.12167049 512.179604,-13.9846636 552.575602,33.3044873 C592.971601,80.5936382 663.20709,210.50228 610.029713,265.581871 C556.852335,320.661461 419.784042,369.886004 340.892021,384.912103 C262,399.938202 48,384.912103 18.2882955,295.90809 C-30.7768124,206.904077 23.5547368,144.300671 125.583487,112.447154 Z" id="Blob" fill="#FFFFFF"></path>
                <g transform="translate(229.000000, 72.362177)" id="a-person/bust">
                    <g id="BODY" transform="translate(26.178082, 113.794521)">
                        <path d="M72.8638603,-5.21845767 C82.4190384,-5.90269553 95.5194767,-4.00869231 98.2831342,6.88632893 C99.1402438,10.8508784 100.828997,12.590986 103.666203,15.1838498 C121.675299,38.234124 58.8413123,42.1084404 55.6112575,19.6314851 C48.8063808,22.1098635 41.398874,22.6346777 34.5899014,25.1396267 C30.897011,26.5038226 27.5483534,28.6563989 24.3394904,30.9070546 C11.254189,40.2008843 -1.64590685,49.7600636 -14.6845507,59.1205873 C-9.63894795,61.4440002 -0.0460164384,70.3150184 -3.95492055,76.2761086 C-4.86549257,77.4372828 -6.21713542,78.2377722 -7.41278325,79.0865185 L-8.0432769,79.5366848 C-9.39965557,80.5086713 -11.6829531,82.165378 -12.9455781,83.0657027 L-13.1784347,83.2352314 C-13.2697351,83.3013044 -13.3727344,83.3755078 -13.4657562,83.4419711 C-4.3604137,96.7542048 6.29584658,109.037318 18.1162301,120.004026 C19.1227507,120.939704 18.7104904,123.031828 17.2537781,123.275421 L15.518324,123.530112 C9.9146854,124.346251 4.20457175,125.080785 -1.4423589,124.637656 C-6.94207123,124.039371 -10.2561808,119.171064 -14.0158521,115.644484 C-21.5236192,107.97057 -28.5124548,99.7848596 -34.8781808,91.1374625 L-35.0107284,90.9550244 C-36.9919422,88.2476328 -39.621629,85.4806772 -39.8140849,81.9846889 C-40.1650849,80.9336339 -39.2413726,79.4274903 -38.353811,78.7109754 L-38.0508012,78.2736558 C-33.290414,71.4272927 -27.9027978,64.8247875 -21.1528521,59.8667044 C-21.1779616,59.1278987 -20.8364,58.3512878 -20.1600438,57.8617823 L8.0496,37.4471702 L8.0496,37.4471702 C15.3281753,32.4381639 22.0933397,26.5514357 29.982737,22.5066394 C38.0498603,18.6225151 47.1536,18.4698679 55.4207096,15.2282531 C55.5959425,12.8918224 60.5079836,12.2954994 60.352874,12.6562534 C65.5356,9.52805416 68.2036274,5.80602844 69.0265452,2.38519577 C69.8492849,-1.03563689 68.826737,-4.1552765 72.8638603,-5.21845767 Z M142.624122,68.0748482 C151.346944,54.9498571 159.661423,69.4714995 163.292875,78.2237524 C167.58341,90.201214 158.698177,104.934708 152.958232,115.260334 C150.84404,118.12782 148.063464,124.176112 144.336916,124.614616 C134.948423,124.576276 125.54693,123.91522 116.152738,123.718348 C110.086903,122.213453 118.597451,113.097949 124.4763,116.427479 C126.257478,117.093884 127.147355,119.116104 128.88419,119.764855 C129.517002,119.899949 129.560646,119.617687 129.818058,118.987519 L129.85456,118.899438 C130.313478,117.808972 130.758505,116.712623 131.210478,115.619304 C135.035149,106.200646 139.078505,96.8649097 143.098889,87.5332748 C143.957779,85.5073102 142.753232,83.837998 141.187355,82.6321559 C139.988327,81.6452983 134.834095,79.2359322 139.690396,80.2964385 C137.820355,75.9559773 140.067396,71.550427 142.624122,68.0748482 Z M120.967725,50.1081029 C121.80756,50.0032471 122.886204,50.8495835 123.015492,51.6695277 C124.086769,58.4661403 122.893178,65.1856784 121.462281,71.8341648 L121.198889,73.0515445 C120.671087,75.476475 120.081333,77.9490212 118.765026,80.0744045 C117.421752,82.2435651 115.389656,83.8782819 113.056779,84.8720942 C105.572875,87.8544226 96.2655877,84.9050846 90.7601767,79.3293574 C87.2380671,74.505097 90.3343822,68.444679 90.925437,63.1571271 C90.3667041,61.7324031 90.1608097,60.0844416 89.8377184,58.6154367 L89.7983548,58.4400408 L88.5430534,52.9600748 C88.2663137,51.7513794 89.1471082,50.0974034 90.5945603,50.2634251 C100.686834,51.4209409 110.887738,51.3688696 120.967725,50.1081029 Z" id="ðŸŽ¨-Background" fill="#FFFFFF"></path>
                        <path d="M156.213663,66.357663 C156.183389,66.2224986 156.345444,66.1190329 156.450512,66.2207178 C158.225992,67.9319096 159.47969,70.1187589 160.856266,72.1453342 C162.166951,74.0757452 163.593389,75.9313616 164.57106,78.0614027 C165.479279,80.0414986 166.06517,82.0502658 166.23969,84.2264301 C166.414211,86.3867452 166.188047,88.5522247 165.806951,90.6801288 C165.057225,94.8721836 163.454485,98.8416356 161.695033,102.697293 C159.984416,106.44541 158.051527,110.086835 156.01035,113.662097 L155.278818,114.938517 C154.386487,116.492579 153.484348,118.043718 152.518458,119.549211 C151.316403,121.422636 150.219416,123.356608 148.634485,124.92017 C147.509005,126.033184 145.388047,124.92017 145.900923,123.329718 C146.123526,122.637156 146.298047,121.985197 146.643526,121.342321 C146.905307,120.852595 147.200923,120.377115 147.478732,119.89469 C148.034348,118.929485 148.584622,117.960718 149.140238,116.995512 C150.306677,114.967156 151.535444,112.976197 152.691197,110.940718 C154.696403,107.411129 156.589416,103.815471 158.263389,100.115101 L158.460403,99.6783204 C160.000671,96.2516684 161.460255,92.7022957 162.136677,88.9954712 C162.849005,85.0903068 162.211471,81.4093479 160.824211,77.7388959 C160.10654,75.8405397 159.299827,73.9849233 158.46106,72.1364301 L158.299846,71.7833831 C157.489803,70.0190259 156.631043,68.2642555 156.213663,66.357663 Z M69.9951521,-1.19256301 C70.0111795,-1.26183699 70.1287137,-1.26717945 70.1393986,-1.19256301 C70.6380288,2.12368356 69.5285767,5.63172466 67.7210425,8.39021781 C66.7344671,9.89679315 65.5181658,11.2573411 64.0846041,12.3507658 L63.972978,12.4350273 C62.5085044,13.5298436 60.5297719,14.5870818 58.7118644,13.8771082 C58.6548781,13.8553822 58.6014534,13.8306288 58.5515904,13.8023137 C58.7563849,14.1191219 58.9451521,14.4521356 59.1374808,14.7851493 C59.7091247,15.7770671 60.2220014,16.8046014 60.7793986,17.8054233 C61.7766589,19.5951493 62.9644671,21.1961082 64.4657,22.5976151 C70.4687616,28.2006489 78.8979064,29.5323801 86.8139259,29.4686021 L87.3731111,29.4633099 C90.8502849,29.4388435 95.3979,29.616356 98.0822753,27.099711 C99.5247411,25.7480671 100.318988,23.8263822 101.036659,22.0224096 C101.741864,20.2540534 102.224467,18.428711 102.810358,16.6300808 C101.586933,15.7914918 100.465015,14.7675192 99.5835082,13.5706288 C98.6646041,12.3240534 97.9700836,10.9207658 97.5693986,9.42309452 L97.5102956,9.19933257 C97.2004373,8.00504953 96.888911,6.42518767 97.3877548,5.29693014 C97.4447411,5.16693014 97.6584397,5.17583425 97.7189877,5.29693014 C97.9878918,5.83651918 98.0395356,6.44556027 98.2051521,7.02254658 C98.3974808,7.69391644 98.6147411,8.36172466 98.9014534,8.99747808 C99.455289,10.2298068 100.187207,11.4015877 101.065152,12.4273411 C101.789947,13.2766151 102.575289,14.0567932 103.472823,14.7121356 C104.001727,13.798574 105.228714,13.6756973 106.256248,13.9766562 C107.633602,14.3790106 108.992175,14.8956229 110.320226,15.4413865 L110.585426,15.5509027 C111.897892,16.0958342 113.381316,16.5962452 114.610084,17.3388479 C115.356248,17.6950123 116.072138,18.0529575 116.745289,18.3699438 C120.099408,19.9456151 123.403885,21.6174665 126.69347,23.3217917 L127.398166,23.6874781 C128.776522,24.4051493 130.142412,25.1299438 131.340905,26.1307658 C132.560768,27.1493959 133.508166,28.5419986 134.398577,29.8473411 C136.434056,32.8319986 138.352001,35.9021356 140.36433,38.9028205 C144.428166,44.9576151 148.492001,51.0124096 152.578988,57.0529575 C153.567344,58.5151904 154.682138,59.9414507 155.568988,61.4658342 C156.41844,62.9227247 156.395289,64.418437 156.229673,66.0443274 L156.198646,66.3429537 C155.881102,69.3253519 155.335126,72.1897141 153.661727,74.7472041 C151.027892,78.7683 146.878577,81.2721356 142.488851,82.9957932 C143.024878,83.3948753 143.528851,83.8258342 144.168166,84.1002589 C145.151179,84.5203548 146.200084,84.7377932 147.263234,84.8248753 C148.397618,84.9158753 149.676248,84.6325466 150.595152,85.4036425 C150.963782,85.7115466 150.974467,86.4525466 150.595152,86.7606288 C149.711725,87.4816871 148.569835,87.27502 147.493358,87.1542049 L147.428851,87.1470671 C146.42981,87.0366562 145.445015,86.8514507 144.506522,86.4846014 C144.275015,86.3936014 144.045289,86.2922726 143.822686,86.1800808 C143.82981,86.1996699 143.833371,86.2229986 143.82981,86.2477521 C143.669458,87.4746609 143.321956,88.6347301 142.954956,89.8072689 L142.722138,90.5502178 C142.24844,92.0674781 141.771179,93.5811767 141.279673,95.0948753 C140.34433,97.9765192 139.325531,100.83085 138.303114,103.681679 L137.420679,106.141615 C136.514179,108.665289 135.596291,111.185458 134.582001,113.667067 C133.955152,115.198396 133.324741,116.730081 132.696111,118.259807 C132.081727,119.753916 131.570632,121.367341 130.80844,122.790218 C130.18159,123.961999 128.472001,123.123053 128.746248,121.919396 C129.105974,120.339985 129.784467,118.772684 130.302686,117.235834 C130.82981,115.675834 131.346248,114.114053 131.882275,112.557437 C132.814476,109.853591 133.846997,107.185727 134.884779,104.520342 L135.9133,101.878128 C136.922265,99.2893969 137.943097,96.7029712 139.034056,94.1476562 L139.153282,93.8675861 C140.286857,91.1947277 141.457,88.189186 143.516385,86.1179301 C143.543097,86.089437 143.580495,86.0750123 143.617892,86.0714507 C143.112138,85.7972041 142.63844,85.4641904 142.221727,85.0706288 L142.201419,85.0501187 C142.036709,84.8757366 141.356248,84.0163863 141.137207,83.5017247 C140.852275,83.6032315 140.567344,83.7011767 140.282412,83.797163 C139.785563,83.9647384 139.374193,83.8436425 139.083919,83.5783 L138.530996,83.920414 C137.939878,84.2813616 137.304284,84.6239123 136.651316,84.6414507 C135.828577,84.6628205 135.182138,84.208711 134.742275,83.5391219 C134.346933,82.9407658 134.111864,82.2943274 133.611453,81.7583 C133.119472,81.2314142 132.549925,80.7867469 131.967968,80.3621844 L131.282024,79.8631078 C130.024072,78.9448367 128.804556,78.0169655 127.791727,76.8040534 C127.282412,76.1914507 126.600358,75.4648753 126.290495,74.7292178 C126.229947,74.5871082 126.192549,74.4535466 126.185426,74.3233685 C126.117755,74.7828205 126.048303,75.2440534 125.978851,75.7035055 C125.006522,82.1696699 124.221179,88.6803548 123.970084,95.2195329 C123.847207,98.4444233 123.792001,101.673232 123.936248,104.899903 C124.007481,106.511725 124.125015,108.121588 124.28707,109.727889 C124.367207,110.532821 124.450905,111.335971 124.548851,112.137341 L124.57146,112.322957 C124.599782,112.568528 124.618303,112.806075 124.596933,113.031314 C125.380495,113.417574 125.831042,114.393642 126.144467,115.155834 C126.383097,115.736382 126.197892,116.300903 125.813234,116.708711 C126.272686,117.127204 126.682275,117.618711 127.025974,118.181273 C127.095426,118.295423 126.945837,118.384464 126.856796,118.313232 C126.292275,117.864464 125.685015,117.495834 125.051042,117.212684 C124.718029,117.339122 124.354741,117.372958 124.019947,117.280355 C123.656659,117.180629 123.343234,116.938437 123.11707,116.630533 C121.316659,116.334738 119.445015,116.696245 117.824467,117.823505 C117.487892,118.058574 117.183371,118.323916 116.893097,118.612232 C116.843234,118.662451 116.79159,118.726382 116.739947,118.788711 L117.093484,118.924547 C117.239958,118.980058 117.360181,119.023525 117.405974,119.032684 C117.71465,119.095606 118.028074,119.129244 118.341499,119.156286 L118.811042,119.194738 C120.615015,119.344327 122.413645,119.39419 124.091179,120.149259 C124.443782,120.307752 124.320905,120.850903 123.987892,120.941547 C122.762924,121.273967 121.547263,121.248193 120.30037,121.159302 L120.032686,121.139396 C118.873371,121.050355 117.628577,121.055697 116.497755,120.735149 C116.76844,121.475793 116.39981,122.442958 115.268988,122.594327 C111.87296,123.046656 108.455563,122.833136 105.055974,122.533779 C101.622549,122.23104 98.1909055,121.944327 94.7485767,121.764642 C83.6137414,121.178858 72.4618411,121.291314 61.317021,121.450347 L55.019031,121.541541 C49.9964628,121.612366 44.9730128,121.66754 39.9505916,121.629024 L37.5996919,121.607115 C36.6061185,121.59748 35.6120233,121.585394 34.6195803,121.556203 L34.0243301,121.536519 C32.8418644,121.493779 31.2765219,121.671862 30.2489877,120.971821 C29.4013164,120.395012 29.2125493,119.337204 29.7236452,118.484368 C29.8714534,118.238437 30.0744671,118.019396 30.2863849,117.805697 C30.7209055,114.092862 30.9648781,110.361862 31.2141932,106.632821 C32.0796726,93.5831356 31.5739192,80.6007658 29.5776178,67.6826836 C24.2209055,69.319437 18.946111,71.3725466 13.8066589,73.5754233 C11.0267959,74.7667932 8.26117945,76.0026836 5.52761781,77.2991219 C3.0326863,78.4833685 0.527069863,79.9632315 -2.13882055,80.7325466 C-2.38116073,80.9475808 -2.71999611,81.0499283 -3.02053325,80.9544811 L-3.05950548,80.9409027 L-3.0612863,80.9409027 C-3.33553288,81.0050123 -3.64005342,80.9658342 -3.93923151,80.7859712 C-3.99977945,80.7492863 -4.0603274,80.7124431 -4.12087534,80.6745445 L-4.21169726,80.6167932 C-5.15019041,80.0255603 -6.09402603,79.2972041 -6.7582726,78.4067932 C-7.56498493,79.1547384 -8.43224521,79.8405329 -9.2852589,80.5348753 C-10.2112863,81.2899438 -11.1337521,82.048574 -12.0490945,82.8143274 C-12.4123822,83.1188479 -12.8130671,83.4091219 -13.1336151,83.7599438 L-13.1801803,83.8114426 C-13.1876333,83.819819 -13.1947566,83.8281493 -13.2012863,83.8365192 C-11.814026,84.7340534 -10.5995055,86.0963822 -9.51142329,87.2806288 C-8.34302603,88.5516014 -7.21501781,89.8631073 -6.09624137,91.1797051 L-5.01318023,92.456783 C2.64548219,101.50045 10.3824945,110.87196 20.2977548,117.518985 C21.8648781,118.56967 20.3707685,121.128711 18.8143301,120.054875 C15.8688507,118.026519 13.0818644,115.773779 10.405289,113.403327 C5.71460411,109.25241 1.49405616,104.59556 -2.45758767,99.7428205 C-4.45745068,97.286889 -6.39854658,94.7709438 -8.30046438,92.238437 L-8.94597671,91.3794397 C-9.80618493,90.2337301 -10.6618342,89.0846014 -11.4810123,87.9092589 L-11.6524095,87.6629259 C-12.3709494,86.62609 -13.1350661,85.4612883 -13.5984096,84.2674781 C-13.7764918,84.4473411 -13.9777247,84.5985329 -14.2715603,84.7126836 C-14.7737521,84.908574 -15.3899164,84.4972041 -15.5127932,84.0074781 C-15.8119712,82.8196699 -14.7790945,82.1126836 -13.9385466,81.4820945 C-12.9181356,80.7200808 -11.8781356,79.9846014 -10.8363548,79.2526836 L-10.4642322,78.9895874 C-9.16146317,78.0656934 -7.85185211,77.1174007 -6.43238219,76.3873411 C-6.38964247,76.3303548 -6.33799863,76.2769301 -6.27923151,76.2306288 C-6.21156027,76.1772041 -6.14566986,76.1255603 -6.07799863,76.0739164 C-7.7733411,73.3243274 -9.63251918,70.6815877 -11.7071767,68.1846973 C-13.2671767,66.3062863 -14.9233411,64.5128205 -16.6756699,62.8139164 L-17.4628654,62.0517354 C-18.653589,60.9017847 -19.8916724,59.735361 -21.2132041,58.7358342 L-21.6269104,59.2048885 C-22.1793356,59.8296863 -22.7372315,60.4496973 -23.3270397,61.0366562 C-24.4881356,62.1906288 -25.6332041,63.3679301 -26.7729301,64.5448753 C-28.6656894,66.5032706 -30.4943391,68.5218505 -32.3171947,70.5433087 L-33.2284096,71.5540123 C-35.1267658,73.6607247 -37.1604644,75.728437 -38.8860808,77.9792178 L-38.972259,78.0931463 C-39.7256256,79.1035567 -40.2619115,80.2218068 -39.9118342,81.5054233 C-39.5740525,82.7428073 -38.7709593,83.8400975 -38.0787468,84.9086588 L-38.0099164,85.0154233 C-35.1837521,89.4176151 -32.1563548,93.7076151 -28.9134781,97.8125877 C-22.4188205,106.034642 -15.0106014,113.827341 -6.17060137,119.543779 C-4.94539589,120.336245 -6.09046438,122.305834 -7.31745068,121.504464 C-12.4800534,118.129807 -17.2223822,114.076834 -21.5853959,109.724327 C-25.5904644,105.729944 -29.2197795,101.331314 -32.6211493,96.8169301 C-34.2790945,94.6140534 -35.8675877,92.3648753 -37.3901904,90.0660123 C-38.8664918,87.8344644 -40.5743,85.539163 -41.644574,83.077889 C-42.2050013,81.7832315 -42.4121082,80.3817247 -41.9526562,79.0176151 C-41.5313029,77.7639164 -40.6980156,76.7228829 -39.8311363,75.7435025 L-39.7497795,75.6518616 C-37.7570397,73.4133685 -35.7286836,71.2015877 -33.6825192,69.0111767 C-31.6292315,66.8136425 -29.4815603,64.6944644 -27.2893685,62.6376151 C-25.5673137,61.0188479 -23.7722452,59.5922315 -21.8525192,58.2710397 C-22.0252589,58.148163 -22.1979986,58.0306288 -22.3743,57.9166562 C-22.9103274,57.5676151 -23.0456699,56.8214507 -22.5755329,56.3477521 C-21.2915603,55.0511356 -19.8116973,53.9238753 -18.4190945,52.7435466 C-17.1101904,51.6339164 -15.8012863,50.5226836 -14.4923822,49.4114507 C-11.8282726,47.1533685 -9.16416301,44.8935055 -6.50005342,42.6336425 C-1.71498493,38.5751493 3.04337123,34.488163 7.81241233,30.4118616 C9.8009968,28.7126607 11.8081315,27.0344834 13.8101134,25.3515655 L17.3669836,22.3582594 L17.3669836,22.3582594 L19.1066365,20.8977455 C19.9979674,20.1512068 20.908267,19.4129635 21.9218644,18.8436425 C24.3068108,17.5039611 27.1740561,16.9243692 29.801708,16.2145885 L29.9765219,16.1670671 C32.9237822,15.3605329 35.8870699,14.6017247 38.8663849,13.9250123 C41.8492616,13.2483 44.8446041,12.6321356 47.8524123,12.0745603 C50.5557,11.5725466 53.3230973,11.1415877 56.0798096,11.0774781 C56.7636452,10.8174781 57.6220014,10.7266562 58.2951521,11.0044644 C58.5729603,11.1202178 58.8632342,11.2893959 59.1214534,11.5030945 C60.4695356,11.0293959 61.7998096,10.8032315 63.0588507,10.0018616 C64.316111,9.20245068 65.4291247,8.15158767 66.365837,6.99405342 C68.3015904,4.59706712 69.3148781,1.76556027 69.9951521,-1.19256301 Z M100.983234,79.9756973 C99.9147411,79.9010808 98.9530973,80.3425466 97.9985767,80.8126836 C98.5363849,81.0459712 99.0741932,81.2774781 99.6120014,81.5072041 L103.191453,83.0351493 L103.191453,83.0351493 C104.373919,83.5391219 105.625837,83.9772041 106.749536,84.5985329 C106.829673,84.6430534 106.893782,84.6966562 106.941864,84.7589849 C108.110084,84.0112178 109.345974,83.3434096 110.530221,82.6326836 C110.800905,82.4706288 111.073371,82.308574 111.345837,82.1465192 C109.935426,82.618437 108.489399,82.8552863 106.957892,82.4118616 C104.915289,81.8224096 103.14159,80.1270671 100.983234,79.9756973 Z M103.910905,76.3926836 L103.718971,76.2622032 C102.682576,75.5513383 101.445934,74.6375264 100.187207,75.2761082 C99.5941932,75.5770671 99.1080288,76.0632315 98.5239192,76.3873411 C97.9362479,76.7150123 97.2898096,76.9661082 96.6344671,77.1174781 C95.5463849,77.368574 94.2998096,77.4059712 93.1298096,77.1636014 L93.1476178,78.7451493 L93.1476178,78.7451493 C94.0326863,79.1102178 94.9124123,79.4843685 95.7921384,79.8617247 C96.3632965,79.6664818 96.9129965,79.431899 97.4909823,79.1745575 L97.8810425,78.9998068 C98.9940562,78.4992178 100.117755,78.1647795 101.348303,78.3230945 C103.665152,78.6204918 105.4157,80.3425466 107.631042,80.9159712 C110.346796,81.6213548 112.797207,79.5946014 115.363371,79.0941904 C115.786495,79.0108479 116.2226,78.9621247 116.656109,78.9545116 L116.800495,78.9535055 L116.864604,78.9161082 C117.416659,78.5919986 118.24296,78.2823137 118.627618,77.7372041 C119.046111,77.1459712 119.081727,76.1558342 119.218851,75.4613137 C119.233097,75.3918616 119.247344,75.3206288 119.25981,75.2511767 C119.017618,75.2511767 118.771864,75.2634644 118.522549,75.3099438 C117.738988,75.4541904 117.001727,75.7319986 116.27159,76.0420397 C114.891453,76.6277521 113.54159,77.2955603 112.08844,77.6855603 C110.665563,78.0682589 109.178577,78.2500808 107.71296,78.038163 C106.28296,77.8314096 105.095152,77.1869301 103.910905,76.3926836 Z M104.133865,70.8327049 L103.919334,70.6945439 C103.353345,70.3334214 102.704221,69.9593219 102.010768,70.0921356 C101.391042,70.2114507 100.858577,70.7047384 100.318988,71.0092589 C99.1347411,71.6770671 97.8062479,72.0421356 96.4510425,72.1347384 C95.3237822,72.2113137 94.1537822,72.0741904 93.0692616,71.7393959 L93.1066589,75.2406699 L93.1066589,75.2406699 C93.5037822,75.3669301 93.9151521,75.4577521 94.3478918,75.4898068 C95.6621384,75.5877521 96.9443301,75.2725466 98.0466589,74.5477521 L98.6043152,74.1775287 C99.5585705,73.5505435 100.45398,73.0529397 101.716933,73.2817658 C102.96707,73.5095329 104.015974,74.3109027 105.038166,75.0089849 L105.205783,75.12154 C106.379691,75.8965076 107.569604,76.3968118 109.009399,76.408711 C110.564056,76.4209986 112.100905,75.988437 113.548714,75.4559712 C114.985837,74.929026 116.351727,74.2966562 117.888577,74.1025466 C118.358714,74.0437795 118.932138,74.0259712 119.471727,74.118574 C119.54296,73.7214507 119.610632,73.3262863 119.674741,72.9289849 C119.813645,72.0759712 119.93296,71.2247384 120.036248,70.3717247 C117.30981,69.638026 114.791727,72.0118616 112.259399,72.7437795 C110.790221,73.1676151 109.191042,73.1624507 107.721864,72.7526836 C106.362429,72.3733184 105.293794,71.5858317 104.133865,70.8327049 Z M104.140632,64.9366562 C103.558303,64.8244644 102.983097,65.0933685 102.488029,65.3693959 C101.225426,66.069437 100.135563,67.0433685 98.705563,67.4119986 C96.865974,67.8856973 94.8536452,67.477889 93.0265219,66.7032315 C93.0336452,67.7840123 93.0425493,68.8651493 93.0514534,69.9461082 C93.3951521,70.0762863 93.7477548,70.1811767 94.1074808,70.2648753 C95.386111,70.5569301 96.7413164,70.5177521 98.0003575,70.1491219 C99.2843301,69.7731904 100.269125,68.7583 101.556659,68.4413137 C102.873237,68.1161032 104.114282,68.7487854 105.175297,69.4679869 L105.494645,69.6858666 C106.707469,70.5088796 107.883682,71.224026 109.401179,71.3636425 C111.0057,71.5114507 112.400084,71.0092589 113.833645,70.3434096 L114.167349,70.18894 C115.982333,69.3552697 118.338391,68.406221 120.150221,69.3548753 C120.292686,68.008574 120.395974,66.6624507 120.465426,65.3141904 C120.216111,65.2215877 119.957892,65.1539164 119.660495,65.1521356 C118.949947,65.1487521 118.203782,65.3729575 117.541316,65.6062452 C116.093508,66.1173411 114.745426,66.8793548 113.311864,67.4262452 C111.953097,67.9462452 110.448303,68.2169301 108.998714,67.9838205 C107.655974,67.768163 106.648029,67.0665192 105.720221,66.1048753 L105.585453,65.9627301 C105.178566,65.5298301 104.743262,65.0536562 104.140632,64.9366562 Z M105.203782,59.937889 C104.532412,59.5836836 103.715015,59.2540534 102.938577,59.3573411 C102.197755,59.4550319 101.704044,59.9576278 101.247847,60.4947938 L101.000787,60.7888429 C100.184716,61.7543765 99.3814471,62.5661751 98.1232342,62.9635055 C96.8196726,63.3730945 95.4377548,63.2128205 94.2250151,62.6126836 C93.7940562,62.3989849 93.3933712,62.1336425 92.9909055,61.8718616 L93.0122753,64.7120945 L93.0122753,64.7120945 C93.8172068,65.1127795 94.6363849,65.4744644 95.5357,65.6935055 C97.195426,66.0977521 98.605837,65.798574 100.025152,64.8832315 L100.174165,64.7862329 C101.243205,64.0842089 102.33931,63.2483578 103.65981,63.1700808 C104.948453,63.0929679 105.915549,63.8073539 106.764201,64.6817197 L106.863508,64.7852863 C107.933782,65.9141493 109.014741,66.4646014 110.606796,66.3346014 C112.150297,66.2084249 113.594819,65.5269601 115.00875,64.9398855 L115.137207,64.8867932 C116.430084,64.3559301 117.920632,63.8093959 119.339947,64.0124096 C119.680084,64.0604918 120.119947,64.1655603 120.511727,64.3489849 C120.568714,63.0203137 120.595426,61.6902178 120.600768,60.358163 C119.794056,59.6584781 118.538577,59.5425466 117.528851,59.8292589 C115.947481,60.278026 114.652823,61.4355603 113.142686,62.0641904 C111.803508,62.6215877 110.407344,62.7462452 109.041453,62.2189438 C107.631042,61.6741904 106.525152,60.6359712 105.203782,59.937889 Z M120.511727,54.3425466 C118.148577,54.4244644 115.83707,55.9613137 113.580768,56.5472041 C111.060296,57.2012293 109.003224,56.3096554 106.757934,55.319863 L106.468166,55.1921767 C105.315974,54.6864233 104.078303,54.2321356 102.801453,54.438711 C101.556659,54.6419027 100.456111,55.3309027 99.385837,55.9541904 L99.1807219,56.0722943 C97.2309862,57.1822416 95.2456977,57.9420646 92.9695356,57.7526425 C92.9820014,58.4669301 92.9766589,59.1792589 92.9784397,59.8773411 C93.3524123,60.0910397 93.7121384,60.3332315 94.0540562,60.5540534 L94.1767692,60.6318273 C95.2619297,61.3103546 96.3805543,61.7563349 97.6744671,61.3376151 C98.9246041,60.9315877 99.5122753,59.8435055 100.370632,58.9477521 C101.159536,58.1250123 102.188851,57.6247795 103.342823,57.6726836 C104.584056,57.7223685 105.757618,58.2692589 106.783371,58.9370671 C107.809125,59.6048753 108.801042,60.4683959 110.001316,60.8033685 C112.693919,61.5511356 115.000084,58.7037795 117.546659,58.2603548 C118.615152,58.0733685 119.794056,58.3102178 120.600768,58.9546973 C120.591864,57.4198068 120.558029,55.8811767 120.511727,54.3425466 Z M100.171179,53.697889 C99.8381658,53.7103548 99.5051521,53.7246014 99.1721384,53.7388479 C97.9398096,53.7922726 96.7074808,53.8528205 95.4751521,53.9222726 C94.6221384,53.9683959 93.5732342,54.2303548 92.7362479,53.9703548 C92.7148781,54.0558342 92.6863849,54.1379301 92.6489877,54.217889 C92.775426,54.8483 92.8537822,55.5000808 92.9018644,56.1589849 C93.6747411,56.2426836 94.4600836,56.2141904 95.2222753,56.0556973 C97.0511795,55.6763822 98.5363849,54.5224096 100.171179,53.697889 Z M120.476111,53.1689849 C115.976111,53.4789164 111.441535,53.372291 106.934126,53.4697013 L106.393371,53.4824096 C106.372001,53.4824096 106.350632,53.4843685 106.329262,53.4843685 C106.846145,53.684711 107.359022,53.9140029 107.870146,54.1476022 L108.380768,54.3817247 C109.588166,54.9373411 110.816933,55.3914507 112.168577,55.2935055 C113.616385,55.188437 114.980495,54.5973822 116.333919,54.1199438 C117.625015,53.6640534 119.112001,53.3577521 120.488577,53.5572041 C120.485015,53.4272041 120.481453,53.2989849 120.476111,53.1689849 Z" id="ðŸ–-Ink" fill="#000000"></path>
                    </g>
                    <g id="HEAD" transform="translate(66.246575, 32.054795)">
                        <path d="M71.6008384,39.9296801 C69.9890988,33.1352258 66.4653485,26.8122039 60.823937,21.7020932 C43.8477178,4.9185589 12.6721151,14.0283534 12.8133342,39.3199425 C12.2044712,42.2739699 11.9572932,45.3113397 12.1588822,48.3239562 C12.2422247,49.6093534 12.7985534,51.4031753 12.0511425,52.5599973 C10.3652384,54.7242301 9.38543014,56.3194904 9.95921096,59.1983671 C10.4386082,61.7119973 12.1492658,63.4928192 14.4579233,64.4395041 C15.8425123,64.8368055 17.1562247,65.7022849 17.6691014,67.0215178 C20.7509918,72.663874 23.0341836,77.3570521 27.8928,81.2023808 C29.1464986,82.1923397 42.0050785,88.1299562 46.2418548,88.1299562 C58.6454988,88.1299562 74.2785808,83.6369425 74.5380466,69.7821479 C74.5829233,66.7390795 74.0488548,63.6605726 73.7138822,60.6415452 C72.8984727,53.7518912 73.1861526,46.6127355 71.6008384,39.9296801 Z" id="ðŸŽ¨-Background" fill="#FFFFFF"></path>
                        <path d="M71.3217397,36.5312288 C71.3256575,36.447174 71.4460411,36.4282973 71.4693699,36.5112836 C71.9304247,38.1469685 72.1916712,39.8132836 72.5522877,41.4744342 C72.8995479,43.0745027 73.2273973,44.6792014 73.5002192,46.2933384 C74.0150685,49.3396945 74.4488894,52.3939411 74.8523858,55.4562181 L74.9526575,56.2219548 C75.6539452,61.6101877 76.8121918,67.2235164 75.7994384,72.6432699 C74.9352055,77.2678863 72.0376301,80.9951466 68.3034247,83.7278178 C64.7676027,86.315174 60.4806301,87.9756123 56.2241096,88.919626 C51.655589,89.9330918 46.2404658,90.2354753 42.5233562,86.8853932 C41.0353014,85.5439 43.0638356,82.8822836 44.6781507,84.0928863 C48.4688064,86.9348644 53.2909839,86.0970503 57.5682927,84.9661863 L57.6977397,84.9318315 C61.4518904,83.9319 65.2309726,82.4162425 68.2113562,79.8593384 C71.506411,77.0322836 73.1356849,73.1087767 73.3239178,68.8055986 C73.4295269,66.387923 73.2041232,63.9730624 72.9609897,61.5696392 L72.9339178,61.3026397 C72.654863,58.5541192 72.3620959,55.8068452 72.0919452,53.0572562 C71.8454557,50.5499776 71.6327844,48.0281169 71.5203887,45.5096277 L71.4679394,44.239385 C71.3587128,41.6783713 71.2116617,39.0799334 71.3217397,36.5312288 Z M26.8648562,15.2518493 C33.0332671,12.0404932 40.122363,10.8911507 46.9870753,11.9689041 C53.5864452,13.0049863 59.6430205,16.410274 64.1700479,21.2931096 C66.380226,23.6770959 68.3419795,26.4346986 69.5956781,29.4473151 C70.2184315,30.9439178 70.7060205,32.5051644 70.9656644,34.1086164 C71.099226,34.9329589 71.2304726,35.7870411 71.2555822,36.6227808 C71.2787329,37.3965479 71.0515,38.1222329 71.0783904,38.9088219 C71.0824863,39.0318767 70.8938973,39.0555616 70.865226,38.9376712 C70.6508151,38.0606164 70.1341986,37.3974384 69.810089,36.5643699 C69.5678379,35.9423288 69.2930527,35.3350465 69.0133,34.7296196 L68.7729384,34.2108356 C68.0752123,32.7030137 67.2412534,31.2571644 66.4161986,29.8164795 C64.7548699,26.9148082 62.623226,24.2777671 60.127226,22.0526301 C55.7448014,18.145863 50.1225685,15.6240411 44.2545822,15.1699315 C38.1639932,14.6983699 31.9863219,16.1500959 26.7848973,19.3659041 C21.5838288,22.5815342 17.6510616,27.5803014 15.6091712,33.3357397 C14.5789658,36.2400822 14.0099932,39.2662329 13.8776781,42.343137 C13.8107192,43.9006438 13.873226,45.4711507 13.9823904,47.0256301 L14.0366141,47.7669083 C14.1001522,48.6558686 14.1437019,49.541405 14.0108836,50.4088356 C14.9490205,50.1162466 15.9323904,49.9949726 16.9193219,50.1397534 C18.3858288,50.3548767 19.2619932,50.9560822 19.9198288,52.266411 C19.9541986,52.3347945 19.8852808,52.4031781 19.8170753,52.3691644 C18.9642397,51.9435479 17.5844589,52.1675753 16.681226,52.3907123 C15.7413082,52.6229315 14.8947055,53.0268219 14.0960068,53.5728219 C12.6184589,54.5823699 11.4602123,56.1468219 11.1759932,57.9417123 C10.9012123,59.6755205 11.6130068,61.4310548 12.8086507,62.6737123 C13.4241027,63.3137397 14.1597603,63.8670411 14.9833904,64.2118082 C15.9829658,64.6304795 16.9723904,64.6174795 17.8567466,65.3086164 C18.4034589,65.7358356 18.2713219,66.466863 17.9005548,66.941274 C19.7663219,68.9870822 21.4208836,71.2252192 23.2864726,73.2790411 C24.1512397,74.2310289 25.0091122,75.1841424 25.837702,76.1667731 L26.1470068,76.5366986 C26.9743767,77.5352055 28.2907603,78.5899863 28.6688288,79.8458219 C28.9040753,80.6270685 28.0674452,81.6489041 27.2217329,81.2929178 C25.9244685,80.7466829 24.9983968,79.3255183 24.1217947,78.2355097 L24.0646918,78.1649041 C23.1454315,77.0353288 22.3292808,75.8428904 21.5831164,74.5932877 L21.337772,74.1816247 C19.9885103,71.91244 18.6508507,69.559011 17.7905,67.0661096 C17.7336918,67.1245205 17.6735,67.1777671 17.6101027,67.2228219 C16.3706507,68.1041507 14.5688151,67.4265479 13.3309658,66.8541918 C12.1623904,66.3140685 11.0910479,65.5013014 10.2560205,64.5216712 C8.43993836,62.3914521 7.60277397,59.6326027 8.20932192,56.8678767 C8.72308904,54.5259178 10.3463082,52.2478904 12.4743904,51.0632877 C11.492089,49.9324658 11.0853493,48.4080822 10.8146644,46.9177123 C10.4691849,45.0152603 10.4002671,43.0656164 10.4941164,41.1364521 C10.6812808,37.2939726 11.6701712,33.5063425 13.1988288,29.9877945 C15.9338151,23.6920548 20.7691027,18.4258082 26.8648562,15.2518493 Z M13.8824329,57.2633973 C15.1770904,57.0208493 16.3835973,56.9622603 17.6323096,57.5100411 C18.9868027,58.1046575 19.9400767,59.0862466 20.8262137,60.2363014 C21.8344812,61.5444575 19.2504003,62.9735688 18.5988535,61.23694 L18.5797068,61.1833425 C18.4051863,60.6692192 18.0926521,60.1721918 17.6967753,59.7146986 C17.5779945,59.8966986 17.4191452,60.0569726 17.2325151,60.1486849 C17.0065288,60.2598082 16.6614055,60.1828767 16.6070904,59.8942055 C16.5468986,59.5738356 16.6135014,59.1856164 16.7983507,58.9143973 L16.8236384,58.8773562 L16.8236384,58.8773562 C15.9253918,58.1545205 14.8449671,57.6265068 13.8824329,57.4566164 C13.7862685,57.4395205 13.787337,57.2812055 13.8824329,57.2633973 Z" id="ðŸ–-Ink" fill="#000000"></path>
                    </g>
                    <g id="FACE" transform="translate(94.561644, 65.178082)" fill="#000000">
                        <path d="M33.8927452,36.2249274 C33.9460425,36.2831617 33.8286356,36.3615164 33.7700466,36.3191329 C33.0917315,35.8274479 32.0233229,36.1065416 31.3684301,36.3291055 C31.2088803,41.4714948 31.2173689,44.1036134 31.3938959,44.2254612 C31.6586864,44.4082329 35.3907726,44.2996917 35.3907726,44.7573795 C35.3907726,46.2534499 33.1464027,46.8151192 31.9281425,46.7260781 C30.0100192,46.5862836 28.0330726,46.3127487 26.1176205,46.534283 C24.2021684,46.7558172 20.1330466,47.9781677 18.0501973,46.2888863 C15.5659161,44.2740261 15.9018137,40.9628041 17.9688137,38.8010644 C19.2717849,37.438496 21.1891575,36.6209949 23.0796492,36.0152983 C25.8461081,35.1289497 32.3661033,34.5568715 33.8927452,36.2249274 Z M28.7901945,41.8879359 C27.7869985,42.278416 22.7999733,43.9254627 21.6150551,44.2254612 C22.9999422,44.1260798 27.7286809,44.016267 28.7901945,43.5025239 C28.9093567,43.0215622 28.9853225,41.8119165 28.7901945,41.8879359 Z M29.5516356,36.5408452 C26.8371165,36.9816862 20.9751979,38.9697897 20.1330466,40.0280507 C21.4127452,39.8268178 28.5522611,38.9697897 29.3577041,38.9697897 C29.4747041,38.3468582 29.3971706,37.2547099 29.5516356,36.5408452 Z M30.4189856,24.462644 C31.7637516,25.2800493 33.8127621,27.1860792 32.3661033,29.2125268 C30.6632476,30.9993125 28.2115199,28.9506406 27.0033509,28.0241061 C25.88308,27.3060367 24.6243929,29.1528575 25.6637809,29.9913247 C34.3940351,36.4548599 37.9369572,24.6763841 31.0991495,23.5015756 C30.3462823,23.3721168 30.0666655,24.2097707 30.4189856,24.462644 Z M33.4005082,12.5352055 C34.1899466,12.5287411 34.6510014,13.0410836 35.2429466,13.4973301 C35.8525219,13.967289 36.5874671,14.3421521 37.299974,14.6292205 C38.0429329,14.9282205 38.8371795,15.1656041 39.6193164,15.3349603 C40.4301247,15.5101932 41.176111,15.4280973 41.9810425,15.5764397 C44.1148233,15.9698233 43.6097822,19.5277274 41.4701247,19.3517822 C39.5443438,19.1934671 37.4769877,18.010289 36.0165356,16.7834808 C35.318621,16.19736 34.7295523,15.5255822 34.1562397,14.8235261 L34.0489055,14.6915493 C33.5399466,14.0636315 33.0646452,13.4209329 33.3200151,12.5965904 C33.3310562,12.560974 33.3627548,12.5356863 33.4005082,12.5352055 Z M15.6028559,22.9189279 C15.605349,21.7833358 16.2667481,19.1905316 17.9015622,19.1905316 C18.9228595,19.1905316 19.5429176,20.9551132 19.6502594,22.7741435 L19.6539877,22.8483101 C19.7013894,23.9792256 19.3910427,26.4512099 17.9015622,26.4512099 C16.3963189,26.4512099 15.6185622,24.1099329 15.6030855,22.9590473 L15.6028559,22.9189279 Z M39.6720656,22.9189279 C39.6695725,21.7833358 39.0081734,19.1905316 37.3733593,19.1905316 C36.3775944,19.1905316 35.7632576,20.867987 35.6336723,22.6378451 L35.6246621,22.7741435 C35.5601794,23.8668769 35.8504073,26.4512099 37.3733593,26.4512099 C38.8786026,26.4512099 39.6563593,24.1099329 39.671836,22.9590473 L39.6720656,22.9189279 Z M20.9527945,12.7046863 C21.9723151,12.2646452 23.1407123,12.3896589 23.7545616,13.4392753 C24.3356438,14.4326178 23.9401233,15.6298644 23.0197945,16.2410425 C22.116021,16.841383 20.9027614,17.167839 19.8635123,17.5111792 L19.7487808,17.5494123 C18.7415479,17.8883027 17.7336027,18.1653986 16.6932466,18.3819466 C15.7210797,18.5843127 14.7415541,18.7341372 13.756409,18.8536302 L13.4606986,18.8885904 C12.692274,18.9772753 11.6203973,19.2759192 10.928726,18.8385493 C10.8672877,18.7999055 10.8436027,18.7199466 10.8806438,18.655837 C11.2832877,17.9586452 12.352137,17.680837 13.0379315,17.3277 C13.9185479,16.8739466 14.7865205,16.3908096 15.6466575,15.8994808 C16.5162329,15.4026315 17.3834932,14.8975904 18.2438082,14.3847137 C19.1374247,13.8520699 20.0025479,13.1146315 20.9527945,12.7046863 Z" id="ðŸ–-Ink"></path>
                    </g>
                    <g id="FACIAL-HAIR" transform="translate(88.150673, 92.246515)" fill="#000000">
                        <path d="M20.9646812,16.9521838 C22.4064779,13.5744522 25.5532831,11.0920058 29.1763596,10.1844198 C31.8369342,9.51964118 34.6291147,9.54085562 37.3412646,9.80469912 C38.7622533,9.94196904 40.2863926,10.0544591 41.6255721,10.5821461 C42.7691212,11.0329976 43.7010337,11.8851407 44.4017465,12.8854285 C45.2358438,14.0707632 45.8031722,15.427418 46.201547,16.8179445 C46.258102,17.0156488 46.3112779,17.2147794 46.3608969,17.4149795 C46.187675,18.464114 45.8198897,19.3570816 44.8481397,20.0166903 C43.8998654,20.6607894 42.7684098,20.9242763 41.6405112,21.0178695 C41.529891,20.9647442 41.4230057,20.9101928 41.3250126,20.8542152 C39.5673616,19.8480444 38.3302656,17.4702441 36.1118159,17.7920262 C34.1320354,18.0794016 32.8287807,20.5704051 31.6514409,22.0311711 C27.8722157,22.4715045 24.095836,21.3359078 21.0208805,19.174887 C20.8647318,18.4352338 20.8556617,17.6893411 20.9646812,16.9521838 M48.9295251,14.3898712 C48.6271871,13.5414718 48.246419,12.7198132 47.7950462,11.9457534 C46.3029191,9.3859367 44.012264,7.34631951 41.2930003,6.18041649 C34.8603144,3.42610431 26.5371266,5.36767156 21.342248,9.8849218 C19.5677017,11.4291193 17.7734145,13.6983517 17.2308067,16.1392606 C17.0687891,16.1713497 16.9158416,16.2556726 16.7899267,16.3744022 C13.036667,14.0113984 9.17154218,11.7378875 6.14709492,8.46230619 C3.95069814,6.08236654 2.42300192,3.26583721 1.48753252,0.170846035 C1.41105879,-0.0839055577 1.00023478,-0.0466465774 1.01268399,0.235202455 C1.01624091,0.301163329 1.01979782,0.366945931 1.02335474,0.432906805 C0.984228645,0.311681415 0.799268917,0.374076836 0.785041245,0.491736774 C0.281737368,4.2515066 -0.347837094,8.23768267 0.231940518,12.0170625 C0.578740009,14.2722113 1.60313235,15.9231941 2.97254573,17.7059205 C4.43977435,19.6168248 6.10085499,21.394203 7.79928327,23.0986676 C8.87702938,24.1806042 10.0027939,25.4285127 11.3224104,26.2218259 C12.8572205,27.1434954 14.5983318,27.8442851 16.2362924,28.5554146 C17.9027085,29.2809843 19.5940229,29.9512894 21.3173496,30.5324581 C24.7622246,31.6983612 28.3226993,32.5041535 31.9454202,32.8571333 C34.8460867,33.138804 38.1611341,33.4456112 40.9408654,32.3544045 C43.0714592,31.5183058 44.791229,30.0067321 46.155307,28.188173 C47.6403202,26.2075641 48.814281,23.9515239 49.4632406,21.5724756 C50.1376323,19.1012604 49.071624,14.7883106 48.9295251,14.3898712" id="ðŸ–-Ink"></path>
                    </g>
                </g>
            </g>
        </g>
    </g>
</svg>