<?xml version="1.0" encoding="utf-8"?>
<!-- Generator: Adobe Illustrator 24.2.3, SVG Export Plug-In . SVG Version: 6.00 Build 0)  -->
<svg version="1.1" id="Layer_1" xmlns="http://www.w3.org/2000/svg" xmlns:xlink="http://www.w3.org/1999/xlink" x="0px" y="0px"
	 viewBox="0 0 748 456" style="enable-background:new 0 0 748 456;" xml:space="preserve">
<style type="text/css">
	.st0{fill-rule:evenodd;clip-rule:evenodd;fill-opacity:0.1;}
	.st1{fill-rule:evenodd;clip-rule:evenodd;fill:#FFFFFF;}
	.st2{fill-rule:evenodd;clip-rule:evenodd;fill:#D8D8D8;}
	.st3{fill-rule:evenodd;clip-rule:evenodd;}
</style>
<g id="Onboarding">
	<g id="Checking" transform="translate(-341.000000, -152.000000)">
		<g id="Group" transform="translate(341.000000, 152.000000)">
			<path id="Blob-Shadow" class="st0" d="M71.7,100.9c-107.5,133.5-94.1,231.7,40.2,294.3c201.5,94,228-27.1,385.8,42.6
				S735,352.9,735,307.4s42.1-174.1-236.1-263.5C313.4-15.7,171,3.3,71.7,100.9z"/>
			<path id="Blob" class="st1" d="M81.7,90.9c-107.5,133.5-94.1,231.7,40.2,294.3c201.5,94,228-27.1,385.8,42.6S745,342.9,745,297.4
				s42.1-174.1-236.1-263.5C323.4-25.7,181-6.7,81.7,90.9z"/>
			<g id="a-person_x2F_bust" transform="translate(315.000000, 110.000000)">
				<g id="HEAD" transform="translate(17.000000, 0.000000)">
					<path id="_xD83C__xDFA8_-Background" class="st1" d="M81,34.1c-11.7-9.5-30.4-12.6-42.9-3c-9.7,9-13.7,34.6-12,47.5
						c0.5,8.3,6.8,17.6,16,15c1.6-0.2,3.1-0.8,4.7-0.9c1.9-0.2,3.8-0.2,5.7,0c4.1,0.6,7.8,2.8,11.8,3.8c7.4,1.9,15.7,0.6,22.1-3.7
						C107.3,79,97.8,47.6,81,34.1L81,34.1z"/>
					<path id="Oval" class="st2" d="M66.5,123c4.1,0,10.8-9.8,12.6-17c1.1-4.4-3.1-5.7-0.4-9.4c8-10.8,24.2-15.1,24.2-28.4
						c0-25.1-22.3-36.2-36.4-36.2S41,52.4,41,77.5S52.4,123,66.5,123z"/>
					<path id="_xD83D__xDD8D_-Ink" class="st3" d="M79.4,96.8c0.2-0.1,0.4-0.2,0.6-0.2c0,0,0,0.1,0.1,0.1c0,0.1,0.1,0.1,0.1,0.2
						C80,97,79.7,96.9,79.4,96.8 M79,4.6c-0.1-0.2-0.2-0.4-0.3-0.6C79,4,79.3,4.2,79.5,4.3C79.4,4.4,79.2,4.5,79,4.6 M32.9,32.7
						C32.8,32.7,32.8,32.7,32.9,32.7c0.1-0.4,0.4-0.8,0.7-1.1c0.1-0.1,0.1-0.1,0.2-0.1C33.4,31.9,33.1,32.3,32.9,32.7 M117.3,77
						c-0.2-1.5-0.4-3-0.6-4.4c-0.2-1.4-0.5-2.9-1.2-4.2c-0.7-1.2-1.4-2.5-2.3-3.6c0.1-0.6,0.3-1.1,0.4-1.5c0.8-2.4,1.6-5.5-0.1-7.8
						c-0.4-0.5-0.9-0.9-1.4-1.3c-0.2-0.2-0.6-0.3-0.8-0.5c-0.1-0.2-0.1-0.1-0.1-0.1c0-0.4,0.9-1.3,1.1-1.6c0.4-0.6,0.7-1.3,1-1.9
						c0.9-2.7,0.3-5.6-0.3-8.3c-0.3-1.4-0.6-2.9-0.7-4.3c-0.1-1.4,0.1-2.7,0.2-4.1c0.1-1.3,0.1-2.7-0.5-4c-0.3-0.6-0.7-1.1-1.2-1.6
						c-0.5-0.4-1.1-0.6-1.6-1.1c-0.5-0.4-0.4-1-0.2-1.5c0.2-0.8,0.4-1.5,0.4-2.3c0-1.4-0.5-2.7-1.4-3.7c-0.9-1.1-2.2-1.8-3.6-2
						c-0.6-0.1-1.3,0.1-1.9,0c-0.6,0-0.8-0.4-0.9-0.9c-0.3-1.3-0.2-2.6-0.8-3.8c-0.6-1.1-1.6-1.8-2.7-2.2c-2-0.8-4.4-0.6-6.6-0.2
						c-1.3-3.8-5.3-6.2-9.2-6.3c-0.6-1-1.6-1.8-2.8-2.3c-2-0.8-4-0.3-6.1-0.3h0c-0.2,0-0.4,0-0.6,0c-0.2,0-0.4,0-0.6,0
						c-2.3-0.3-4.6-1.2-6.9-0.3c-1,0.4-1.8,1.1-2.4,1.9c-0.8,0.2-1.5,0.5-2.3,0.7c-3.3,0.1-6.5,1.8-8.1,4.7
						c-2.3-0.3-4.8,0.2-6.4,2.1c-0.4,0.5-0.7,1.1-0.9,1.7c-1.6,0.5-3,1.4-4,2.8c-0.9,1.2-1,2.8-0.4,4.2c-1.4,1-2.5,2.5-3,4.2
						c-0.3,1-0.4,2.1-0.2,3.1c-1.4,0.3-2.8,0.9-4,1.8C32.6,29,31,30.4,31,32.1c0,0.1,0,0.2,0,0.4c-2.8-0.2-5.6,0.3-7.5,2.5
						c-1.4,1.7-2,3.9-1.7,5.8c-3.3,0.7-6.5,2.4-8.7,5c-1.6,1.9-3,4.3-2.9,6.8c0,0.8,0.2,1.5,0.5,2.3v0c-0.1,0.3-0.3,0.5-0.4,0.8
						c-2.1,1.4-3.6,3.7-4.4,6.2c-0.7,2-1.1,4.6-0.4,6.7C5.7,69,5.8,69.3,6,69.5c-0.1,0.1-0.3,0.3-0.4,0.4c-1.4,1.6-2.8,3.7-2.7,5.9
						c0,0.9,0.4,1.8,0.9,2.6c-1.9,2-3.5,4.4-3.3,7.2c0.1,2.4,1.4,4.8,3.5,6c-0.3,1.8,0.1,3.8,1.5,5.2C6.2,97.5,7.1,98,8,98.2
						c0.2,2.2,2.1,3.9,4.2,4.4c0.4,0.1,0.8,0.2,1.1,0.2c1.8,0.9,4,0.8,5.9,0c0.6,0.7,1.3,1.3,2.1,1.7c0.3,0.2,0.7,0.3,1.1,0.4
						c2.6,0.8,5.4-0.3,7.7-1.5c0.1,0,0.2-0.1,0.3-0.1c0.3,0.4,0.9,0.7,1.2,0.9c1,0.6,2.3,0.9,3.5,0.8c1.4-0.1,2.6-0.6,3.7-1.2
						c0.2,0,0.3,0,0.5,0.1c1.1,0.1,2-0.3,2.9-0.8c0.6,0.1,1.1,0.1,1.7,0c1.3,0.3,2.5-0.2,3.6-1c0.4-0.4,0.8-0.8,1.2-1.2
						c0.4-0.4,0.7-0.5,1.2-0.8c1.2-0.7,1.3-2.4,0.8-3.7c0.1-0.2,0.2-0.5,0.2-0.7c0-2.4-1.1-4.5-2.4-6.4c-0.6-0.8-1.2-1.7-2-2.4
						c-0.6-0.6-1.4-1.6-2.2-1.8c-0.1,0-0.1-0.1-0.2-0.1c0.2-0.6,0.3-1.2,0.2-1.8c0-0.6-0.2-1.2-0.6-1.7c1.1-2.1,1.5-4.3,1.3-6.7
						c0.9-1.2,1.5-2.6,1.9-4.1c0.2-0.9,0.3-1.9,0.3-2.8c0-0.5-0.2-1-0.2-1.5c0,0.1,0.2-0.4,0.3-0.5c0.9-1.6,2-2.8,2.1-4.7
						c0.1-1.1-0.2-2.3-0.8-3.2c0.4-1.7,0.4-3.5-0.2-5c-0.2-0.4-0.4-0.8-0.6-1.2c0.1-0.3,0.2-0.7,0.3-1c0-0.1,0.1-0.2,0.1-0.4
						c0.5-0.4,0.9-0.9,1.3-1.3c0.8-1,1.5-2.2,1.6-3.5c0-0.7-0.1-1.3-0.3-1.9c-0.1-0.3-0.1-0.6-0.2-0.9c-0.1-0.2-0.2-0.3-0.2-0.5
						c0,0,0-0.1,0-0.1c0,0,0-0.1,0-0.1c0-0.6,0.1-1.3,0.1-1.9c0.6,0.6,1.3,1,2.1,1.3c1.6,0.5,3.3,0.3,4.7-0.5c1.5,1.1,3.3,2,5.1,2.4
						c1.1,0.2,2.2,0.1,3.2,0.3c1.1,0.1,2.1,0.6,3.1,1c2.2,0.8,4.5,1.6,6.7,2.4c1.8,0.6,3.8,1.1,5.7,0.8c0.5,0.8,1.2,1.5,2.1,2
						c0.6,0.4,1.3,0.6,2.1,0.7c0.6,0.1,1.4,0.1,1.9,0.5c0.5,0.4,0.8,1.1,1.3,1.5c0.5,0.5,1.1,1,1.8,1.3c0.5,0.3,1.1,0.5,1.6,0.6
						c0,1.2-0.1,2.4-0.1,3.6c0,2.6,0,5.3-0.1,7.9c0,2.6-0.1,5.3-0.3,7.9c-0.1,2.5-0.3,5-0.9,7.4c-1.9,8-9.3,13.7-17.4,14
						c-2.4,0.1-4.8-0.3-7.2-1c-2.4-0.7-4.6-2.3-7-2.7c-0.6-0.1-1.3,0.5-0.9,1.2c0.6,1.1,1.4,1.7,2.5,2.4c1.1,0.7,2.3,1.2,3.6,1.6
						c2.2,0.8,4.6,1.3,7,1.4c1.8,0.1,3.6,0,5.4-0.4c0.1,0.4,0.3,0.8,0.5,1.1c0,0.1,0.1,0,0.1,0c0-0.1,0-0.2-0.1-0.2
						c0.6,0.8,1.5,1.3,2.5,1.6c0.7,0.2,1.4,0.2,2.1,0.2c0.2,0,0.4-0.1,0.6-0.1c0.7,0.6,1.6,1,2.5,1.2c-0.2,0.9,0.3,2,1.4,2.2
						c0.5,0.1,0.9,0.1,1.3,0.1c0.3,0.2,0.7,0.3,1.1,0.4c0.5,0.1,1.1,0,1.5-0.4c0.2,0.2,0.4,0.3,0.6,0.5c0.8,1,2.6,0.2,2.7-0.9
						c0.3,0,0.5,0,0.8,0c0.1,0,0.1,0.1,0.2,0.1c1.1,0.5,2.3,1,3.6,0.6c0.2-0.1,0.4-0.2,0.6-0.3c0.9,0.1,1.8,0.1,2.7-0.2
						c0.5-0.2,1-0.4,1.5-0.8c1.4,0.4,2.9,0.6,4.2,0.1c1-0.4,1.9-1,2.5-1.8c0.9,0,1.8-0.2,2.6-0.6c1.4-0.7,2.4-2.1,3.1-3.5
						c1.5-3.1,2.4-6.4,2.8-9.8C118.1,83.6,117.6,80.3,117.3,77"/>
				</g>
				<g id="BODY" transform="translate(0.000000, 85.000000)">
					<path id="_xD83C__xDFA8_-Background_1_" class="st1" d="M173.6,42.4c-2.5,0.3-5.1,0.5-7.6,0.8c-12.1,0.9-24.2,2.9-36.3,4.1
						c-0.3-0.5-0.9-0.4-1.2-0.1c-1.2-0.1-2.5-1-3.6-0.1c0,0-0.1,0-0.1,0c-1.9-3.7-3.3-7.7-4.6-11.7c-0.8-2.5-1.9-4.8-4-6.5
						c-3.5-2.5-11.6-7.5-15.7-7.2c-0.1-0.7-0.4-1.5-1-2c1.2-2.1-3.7-3.5-4.1-3.3c0.2-7.2-3.1-13.4-10.5-14.8
						c-6.6-1.4-16-1.6-19.5,5.3c-0.4,0-4.4-0.1-4.8,0c-0.6-0.8-7.2,6.5-4.5,9c-24.2,10.8-37.9,9.5-44.6,39.8c-0.9,2.8-1,6-1.9,8.7
						c-3.4,8-6.1,16.5-6.8,25.2c-1.7,0.4-1.8,3.4,0.1,3.8c0.7,0.2,1.3,0.4,1.9,0.8c-0.4,7.1,1.3,23.4,2.4,23.4c2.2,7,12,9,18.9,6.6
						c-1.2,2.3,0,3.7,0,4.9c25,1,52.3,0.4,77.2,1.7c3.2,0,6.6,0.8,9.7,0.3c1.9-0.5,1.9-3.5,0-3.9l8.5-1.9c-0.2-0.1,3.5-2.6,6.3-7.2
						c2.6-5.2,0.8-11.4,2-17.1c9.2-0.8,18.6-1.1,27.7-2.7c1.2,3.7,6.6-0.7,8.3-2.5c0,0,0,0,0,0c0.8-0.2,1.5-1,1.5-1.9
						c0.6-0.8,0.7-2,0.1-2.8c2.5-14.8,6.4-30,7.8-44.9c0.5-0.1,1-0.3,1.4-0.7l0,0c0.7-0.8,0.8-2.1-0.3-2.7
						C175.3,42.2,174.5,42.3,173.6,42.4z"/>
					<path id="Rectangle" class="st2" d="M65,1h31c-1.5,5.4-2.4,9.1-2.6,11c-0.6,5.5,0.5,8.1,0,10.4c-0.5,2.1-1.9,4-2.3,5.4
						c-1.4,4.8-3.5,8.4-6.3,10.8l-4.3-2.1c1.5-5.5,1.3-9.6-0.7-12.2s-6.8-6.6-14.4-11.7L65,1z"/>
					<polygon id="Path-4" class="st2" points="4.9,90.7 4.9,104.5 7.1,117.5 14.3,124.7 22.2,124.7 67.5,103.7 79.8,97 89,94.2 
						96.3,97 97.6,97 97.9,95 102.3,91.1 103.1,86.7 102.8,83.1 96.7,78.4 93.8,78.7 78.1,83.7 52.3,90.9 29.3,97 14.3,91.9 					
						"/>
					<path id="_xD83D__xDD8D_-Ink_1_" class="st3" d="M65.8,5.2c0.8-1.9,3.3-1.2,3,0.8c-0.2,1.2-0.8,2.5-1.4,3.5
						c-0.5,0.9-1,1.7-1.8,2.3c1.3,1.2,2.7,2.4,4.1,3.6c1.5,1.2,3.1,2.4,4.8,3.4c1.5,0.9,3,1.7,4.3,2.8c1.3,1,2.4,2.1,3,3.7
						c0.6,1.6,0.4,3.3-0.1,4.9l-0.1,0.2c-0.5,1.6-1.3,3.5-0.2,5.1c0.6,0.8,1.4,1.3,2.1,1.9c0.6,0.5,1.2,1.1,1.8,1.8
						c1.2,1.4,2.2,3,2.8,4.7l0.1,0.2c0.5,1.5,0.9,3.4,0.2,5c-0.2,0.4-0.9,0.3-1-0.1c-0.3-1-0.2-2-0.5-2.9c-0.2-1-0.6-2-1.1-2.9
						c-1-1.8-2.3-3.3-3.8-4.5l-0.5-0.4c-1.2-1-2.3-2-2.5-3.7c-0.3-1.8,0.4-3.4,0.9-5.1c0.3-1.2,0.4-2.3,0.1-3.3
						c-0.4,0.7-1,1.3-1.4,1.9c-0.9,1.1-1.8,2.3-2.7,3.4c-0.9,1.2-1.8,2.4-2.7,3.6c-0.4,0.5-0.8,1.1-1.1,1.6c-0.3,0.4-0.7,0.8-1,1.2
						c0.1,0.2,0.1,0.5-0.1,0.7c-1.6,2.2-3.9-2.4-4.5-3.6c-1.2-2.4-2.1-4.9-3.4-7.3c-1.3-2.5-2.7-4.9-4.4-7.1c-1-1.4-2.1-2.6-3-4
						c-2.1,1.9-4.9,3.2-7.5,4.4c-2.8,1.3-5.7,2.3-8.6,3.5l-0.9,0.3c-5,2-10,4.1-14.2,7.6C20,36.3,17.2,42,15,47.9
						c-2.5,6.8-4.5,13.7-6.4,20.7c-1,3.6-1.9,7.1-2.8,10.7c-0.8,3.2-1.4,6.3-2.3,9.5c1.8-0.1,3.8,0.6,5.4,0.8
						c7,0.9,13.8,2.4,20.4,4.9c0.8,0.3,1,1.1,0.9,1.8c0.5-0.1,0.9-0.3,1.4-0.4c-0.5-0.8-0.3-2.2-0.2-3.1l0-0.1
						c0-1.2,0.2-2.3,0.2-3.5c0.2-2.2,0.4-4.4,0.6-6.7l0.1-0.6c0.3-2.4,0.5-4.8,0.9-7.2l0-0.3c-0.2-0.6-0.3-1.2-0.5-1.8
						c-0.5-1.6-1.3-3.1-1.9-4.7c-0.1-0.2,0.2-0.3,0.3-0.2c1.1,1,2,2.2,2.7,3.6c0-0.1,0-0.1,0-0.2l0.1-0.4c0.2-1,0.4-2,1-2.7
						c0.1-0.1,0.2-0.1,0.2,0c0.6,1,0.6,2.2,0.7,3.2C36,72.5,36,73.8,36,75c0,2.4-0.2,4.8-0.3,7.2c-0.1,2.4-0.4,4.7-0.7,7l-0.1,0.4
						c-0.2,1.1-0.3,2.2-0.5,3.3l-0.1,0.3c-0.1,0.5-0.2,1.3-0.4,2c5.9-1.7,11.8-3.3,17.7-4.9c4.3-1.1,8.5-2.3,12.8-3.4
						c0.2-0.4,0.5-0.8,0.9-1.1c1.2-1.1,2.7-1.6,4.1-0.8c0.1,0.1,0.1,0.3,0,0.3c-0.3,0.1-0.5,0.3-0.8,0.5l2.6-0.7
						c1.9-0.5,3.8-1.2,5.8-1.5c3.6-1.8,7.5-3.1,11.3-4.4l0.4-0.2c1.9-0.7,4-1.4,6-1.8c1.5-0.3,3.2,0.1,3.8,1.6
						c0.7,0.5,1.5,1.1,2.1,1.7c0.5,0.4,1,0.9,1.4,1.3l0.1,0.1c0.4,0.3,0.7,0.6,0.8,1.1c0,0.3-0.1,0.7-0.5,0.6
						c-1.1-0.1-1.9-1.3-2.6-2.1c-0.6-0.6-1.1-1.2-1.6-1.8c-0.3,0.2-0.7,0.1-0.9-0.2c-1-1.9-3.6-0.6-5.1-0.1L90,80.1
						c-1.1,0.3-2.1,0.6-3.2,1c-2.9,0.9-5.8,1.9-8.7,2.7c0.3,0.3,0.2,0.8-0.3,1c-2.3,0.9-4.8,1.4-7.2,2c-1.5,0.4-3,0.8-4.5,1.2
						c-0.3,0.4-0.4,0.9-0.5,1.4c-0.3,2,0.3,4.4,0.8,6.3l0.1,0.3c0.4,1.6,1.1,3.5,2.4,4.5c0.3,0.2,0.7,0.4,1.2,0.5
						c2.6-1.4,5.3-2.7,7.9-4.1c0.5-0.3,0.9,0.1,1.1,0.5c0.9-0.2,1.9-0.4,2.7-0.7c1.4-0.5,2.5-1.4,3.9-2.1c2.6-1.2,5.2,0.3,7.5,1.4
						l0.5,0.3c1,0.5,3.2,1.5,3.7,0.1c0.5-1.3-1-2.8-2-3.4c-1.2-0.7-2.5-1.1-3.9-1.4c-0.8-0.2-1.5-0.3-2.3-0.4
						c-0.9-0.1-1.8-0.1-2.6-0.4c-0.4-0.1-0.5-0.8,0-0.9c1.3-0.3,2.8,0,4.2,0.4l0.7,0.2c1.4,0.3,2.7,0.8,4,1.4
						c0.9,0.5,1.9,1.2,2.5,2.1c0.5-0.5,1.2-0.5,1.9-0.3l0.4,0.1c0.6,0.2,1.1,0.3,1.7,0.2c0.1-0.4,0.2-0.9,0.3-1.3
						c0.9-4.4,1.8-8.8,2.9-13.1c1.8-7.5,3.9-15,6.3-22.3l0.2-0.7c0.5-1.7,1-3.5,1.9-5.1c0.8-1.5,2.2-2.3,3.7-2.8
						c1.8-0.5,3.7-0.8,5.5-1.1c0.4-0.1,0.8-0.1,1.2-0.2c-0.3-0.6-0.6-1.3-0.8-1.9l0-0.1c-0.5-1.1-0.9-2.3-1.4-3.5l-0.3-0.9
						c-0.8-2.1-1.6-4.2-2.7-6.2c-1.2-2.1-2.7-3.8-4.6-5.2c-3.9-2.9-8.6-4.4-12.4-7.5c-0.2-0.1,0-0.3,0.2-0.3c2.6,1.3,5.3,2.2,8,3.2
						l0.5,0.2c2.1,0.8,4.2,1.8,6.1,3.1c2,1.5,3.6,3.4,4.8,5.6c1.2,2.2,1.9,4.7,2.8,7l0.2,0.6c0.3,0.9,0.7,1.9,1.1,2.8
						c0.3,0.7,0.9,1.6,1.2,2.4c0.7-0.1,1.5-0.3,2.2-0.4c15.9-2.7,32-4.3,48.2-4.7c0.6,0,1,0.6,0.9,1.1c-1.5,9.2-2.9,18.5-4.4,27.7
						c-0.7,4-1.3,8.1-2,12.1c-0.3,2-0.8,4.1-1.1,6.1c-0.3,1.7-0.5,3.3-0.9,4.9c-0.4,1.4-1,2.8-2.1,3.9c-1.1,1.2-2.7,1.8-4.2,2
						c-4,0.7-8.1,1-12.1,1.4l-21.4,2.4c0.3,2.9,0.3,5.7,0.2,8.6l-0.1,1.6c-0.1,1.3-0.1,2.5-0.3,3.8c-0.2,1.6-0.9,2.9-2,4.1
						c-1,1.1-2.1,2-3.3,2.9c-1.2,0.9-2.4,1.8-3.8,2.4l-0.2,0.1c-1.2,0.5-3.5,1.2-5.2,1c0.2,1.1,0.6,2.3,0.3,3.4
						c-0.2,0.5-0.8,0.8-1.2,0.3c-0.8-0.9-0.9-2-1.1-3.1c-0.2-1.2-0.4-2.3-0.5-3.5c-0.3-2.3-0.5-4.5-0.6-6.8c-0.1-2.3,0-4.7,0.1-7
						c0.1-1.2,0.1-2.4,0.3-3.6c0.1-0.5,0.1-1,0.2-1.5c0-0.2,0.1-0.4,0.1-0.6l-1.9,0.2c-2.9,0.3-5.9,0.6-8.8,0.7
						c-0.4,0-0.6-0.2-0.8-0.4c-0.2,0.3-0.5,0.5-1,0.5c-4.1,0-8-1.4-11.7-3c-1.9-0.8-3.8-1.7-5.7-2.5c-1.8-0.7-3.7-1.3-5.4-2.1
						l-4.5,2.4c0,0.1-0.1,0.2-0.1,0.3c-0.3,0.6-0.9,0.9-1.5,1.2c-0.6,0.2-1.2,0.3-1.7,0.3c-3.4,1.8-6.9,3.6-10.3,5.5l-3.4,1.8
						c-6.9,3.6-13.7,7.3-20.6,10.8l-0.5,0.3c-2.4,1.2-5,2.4-7.6,3.3c0,0.7,0,1.3,0,2l0,0.2c0.1,0.8,0.2,1.9-0.4,2.5
						c-0.4,0.3-1,0.3-1.2-0.2c-0.4-0.9,0-2.2,0.1-3.1c0-0.3,0.1-0.7,0.2-1c-3,0.9-6.2,1.4-9.3,0.8c-3-0.5-5.3-2.4-7.2-4.7
						c-2-2.5-3.4-5.3-4.1-8.4c-0.9-3.5-0.9-7.1-0.9-10.7c0-3.8,0.2-7.7,0.6-11.5c-0.5-0.1-1.1-0.2-1.6-0.2C2.8,90.8,2.3,91,1.9,91
						c-1,1.1,1.5,2.2,2.3,2.4c0.3,0.1,0.2,0.5-0.1,0.5l-0.2,0c-1.2-0.1-2.5-0.3-3.2-1.4c-0.6-0.9-0.4-2,0.3-2.7
						c0.4-4.3,1.5-8.4,2.5-12.6c1-4.1,2.1-8.2,3.2-12.2l0.5-1.8c1.8-6.3,3.7-12.7,6.2-18.8c1.3-3,2.7-6,4.6-8.7
						c1.8-2.5,4-4.6,6.4-6.4c4.6-3.4,10-5.4,15.3-7.3l0.2-0.1c2.8-1,5.5-2,8.2-3.1c2.4-1,4.7-2.2,7.1-3.2c-0.1-0.1-0.2-0.3-0.2-0.4
						l0,0c0,0,0,0,0,0c-0.2,0.2-0.6,0.1-0.8-0.1c-0.6-0.5-0.4-1.1,0-1.7l0-0.1c0.5-0.6,0.9-1.3,1.3-2l0.3-0.4
						c0.7-1.1,1.5-2.2,2.4-3.2c0.4-0.4,0.9-0.7,1.4-1c0-0.1,0.3-0.3,0.4-0.2c1.6-0.6,3.5-0.5,5.2-0.3 M128.7,103.7l-2.2,0.3
						c-2.5,0.3-4.9,0.6-7.4,0.8l-5.3,0.6c0,0.3-0.1,0.6-0.1,0.8c0,1.2-0.1,2.4-0.1,3.6c0,2.4,0,4.8,0.2,7.2c0.2,2.3,0.4,4.6,0.7,6.9
						l0.1,0.5l0,0.2c0.3,0,0.5,0.1,0.7,0.4c0.5,0.5,2.1,0,2.7-0.2c1.1-0.4,2-1,3-1.7c0.9-0.6,1.7-1.4,2.5-2.1l0.6-0.6
						c0.6-0.6,1.3-1.3,1.6-2.1c0.5-1.1,0.6-2.4,0.7-3.6c0.2-1.4,0.4-2.9,0.7-4.3 M63.7,88.6l-0.2,0.1c-8.4,2.3-16.8,4.6-25.3,6.7
						c-4.2,1.1-8.4,2.1-12.6,3.1l-0.7,0.2c-3.3,0.8-6.6,1.9-9.2,4.3c-0.1,0.1-0.2,0-0.1-0.1c2.7-2.9,6.6-4.2,10.3-5.2
						c0.7-0.2,1.4-0.4,2.1-0.6c-5.1-1.8-10.2-3.4-15.5-4.5c-1.4-0.3-2.7-0.5-4.1-0.8c-0.9-0.2-1.9-0.5-2.8-0.7l-0.7-0.2l0,2.3
						c0,3.3,0,6.6,0.2,10l0,0.6c0.2,3.7,0.5,7.5,1.8,10.9c1.1,2.8,2.7,5.5,4.9,7.6c1.1,1,2.3,1.9,3.8,2.3c1.4,0.4,2.8,0.4,4.2,0.3
						c6.8-0.5,12.8-4.2,18.7-7.3c9.6-5,19.3-10,28.9-15.1c-0.3-0.2-0.5-0.4-0.7-0.6c-1.3-1.3-2-3.2-2.4-5c-0.5-1.9-0.8-3.9-0.8-5.9
						 M76,104.3c0.1,0,0.2,0,0.2,0.1c0,0.7-0.4,1.5-0.7,2.1l0,0.1c-0.4,0.8-0.8,1.6-1.2,2.4c-0.8,1.6-1.7,3.2-2.6,4.8
						c-1.8,3.2-3.8,6.2-6.2,8.9c-0.5,0.6-1.4-0.2-1.1-0.8c1.7-3.2,3.6-6.3,5.6-9.3c1-1.5,2-3,3-4.5c0.4-0.6,0.9-1.3,1.3-1.9l0.3-0.4
						 M176,43.5c-8.5,0.3-16.9,0.8-25.3,1.7c-7.8,0.8-15.6,1.9-23.4,3.2c-1.6,0.3-3.2,0.6-4.9,0.9l-1,0.2c-1.6,0.3-3.6,0.4-5,1.3
						c-1.5,0.9-1.9,2.8-2.4,4.4c-0.6,1.9-1.2,3.7-1.7,5.6c-2.2,7.4-4.3,14.9-6.1,22.5c-0.9,3.7-1.7,7.5-2.6,11.3
						c-0.8,3.3-1.6,6.6-2.4,9.9c0.1-0.1,0.2-0.1,0.4-0.2c4.3-0.9,8.7-1.3,13-1.8l0.4,0c4.5-0.5,9-1.1,13.5-1.6l29.9-3.4
						c1.8-0.2,3.7-0.2,5.4-0.7c2.9-0.8,3.6-4.1,4.1-6.7l0-0.1c1.5-7.9,2.7-15.9,4-23.8 M101.8,95.3c-1.2-0.1-2.7-1.1-3.6-1.1
						c0.5,0.8,0.7,1.7,0.4,2.6c-0.7,2.7-4.1,1.3-5.7,0.5c-1.3-0.7-2.6-1.5-4.1-1.8c-1.7-0.4-2.8,0.3-4.2,1.1
						c-1.2,0.6-2.4,1.1-3.7,1.3C80.3,98,79.6,98,79,98c0,0-0.1,0.1-0.1,0.1l-0.3,0.2c1.6,0.1,3.1,0.6,4.6,1c1.5,0.5,3,1,4.4,1.6
						l1.4,0.6c3.6,1.4,7.2,2.7,11.1,2.7c0.3,0,0.5,0.1,0.7,0.2 M95.3,87c1.1-0.1,2.2,0,3.1,0.8c1.1,0.9,1.8,2.4,3.4,2.5
						c0.5,0,0.6,0.7,0.1,0.8c-1.2,0.4-2.1-0.3-2.9-1.1l-0.5-0.6c-0.8-0.8-1.5-1.5-2.9-1.4c-1.4,0.1-2.9,0.4-4.3,0.6
						c-1.6,0.2-3.3,0.4-4.9,0.5c-0.1,0-0.1-0.1,0-0.1l1.8-0.5 M94.2,82.2l0.2,0c1.7-0.2,3.2-0.2,4.7,0.7l0.3,0.2
						c1.3,0.8,2.8,1.8,3.6,3.1c0.1,0.2-0.1,0.5-0.3,0.4c-1.6-0.4-2.8-1.6-4.1-2.5c-1.5-1-3.1-0.8-4.8-0.7c-1.7,0.2-3.4,0.4-5,0.6
						c-1.6,0.3-3.1,0.7-4.7,0.8l0,0c-0.2,0-0.3-0.3-0.1-0.4c1.6-0.8,3.5-1.2,5.2-1.6 M37.2,36.6c0-0.1,0.2-0.2,0.2-0.1
						c1.1,1.9,1.6,4.3,2.2,6.4c0.6,2.2,1.1,4.5,1.5,6.7c0.9,4.6,1.4,9.1,1.4,13.8c0,0.7-1.1,0.8-1.2,0.2c-0.7-4.5-1.4-9.1-2.1-13.6
						c-0.4-2.3-0.8-4.5-1.2-6.8 M47.9,39.9c-0.1-0.3,0.3-0.4,0.4-0.1c2.2,5.4,2.9,11.5,1.5,17.2c-0.2,0.9-1.5,0.5-1.3-0.4 M76,35.1
						c0-0.2,0.2-0.2,0.3-0.1c1,1.5,1.5,3.4,3.3,4.2c0.9,0.4,1.9,0.3,2.7,0.9c0.5,0.4,0.9,1.1,0.5,1.7c-0.1,0.2-0.5,0.3-0.7,0.1
						c-0.3-0.3-0.4-0.7-0.7-1c-0.5-0.3-1.2-0.4-1.7-0.5c-0.7-0.2-1.4-0.6-1.9-1.1 M93.2,10.7c0.1-0.1,0.2,0,0.3,0.1
						c0.1,0.1,0.1,0.3,0,0.4c0.2,0.3,0.3,1.1,0.4,1.3c0.1,0.5,0.2,1,0.3,1.4c0.2,1,0.5,1.9,0.7,2.9c0.3,1,0.6,2,0.9,3
						c0,0.1,0,0.1,0.1,0.2l0,0.1l0,0c0.1-0.1,0.2,0,0.2,0.1c0,0.1,0,0.2-0.1,0.3l0,0.1c0.2,0.6,0.4,1.2,0,1.8
						c-0.2,0.2-0.3,0.3-0.5,0.4c-0.3,1.1-0.8,2.2-1.2,3.3l-0.1,0.3c-0.7,1.5-1.4,3.1-2.4,4.4c-1.2,1.4-2.8,2.4-3.8,4
						c-0.5,0.7-0.8,1.5-1.1,2.3l-0.1,0.3c-0.2,0.6-0.4,1.2-1,1.5c-0.2,0.1-0.4,0.1-0.6-0.1c-1.1-1.2,0.1-3.4,0.7-4.6
						c0.9-1.6,2.3-2.6,3.6-3.8c1.5-1.3,2.4-3,3.3-4.8c0.6-1.1,1.1-2.1,1.6-3.2c-0.6-0.5-0.8-1.6-1-2.3l0-0.1
						c-0.3-1.2-0.6-2.3-0.8-3.5c-0.2-1.1-0.2-2.3-0.2-3.4l0-0.3 M95.4,16.2c-0.1-0.2,0.1-0.4,0.3-0.3c1.1,0.2,2.1,0.9,3.1,1.4
						l0.1,0.1c0.8,0.4,1.6,0.9,2,1.8c0.4,0.9,0.4,1.9,0.3,2.9l0,0.1c-0.1,1.2-0.1,2.4-0.3,3.5c-0.1,0.6-0.6,0.7-1.1,0.6
						c-0.5,1.7-2,2.9-3.1,4.3c-1.4,1.7-1.1,4-1,6.1c0.1,0.8-1,1.1-1.5,0.6l-1.2-1c-0.2-0.2-0.4-0.3-0.6-0.5
						c-0.2-0.1-0.3-0.3-0.5-0.4l-0.3-0.2c-0.1-0.1-0.6-0.7-0.8-0.7c-0.4-0.1-1.2,0.9-1.5,1.2l0,0c-0.5,0.5-1,1.1-1.5,1.7
						c-0.1,0.1-0.2,0-0.2-0.1c0.4-0.9,0.9-1.7,1.4-2.5l0.1-0.2c0.4-0.5,0.9-1.4,1.5-1.6c0.8-0.2,1.6,0.6,2.2,1.1l0,0
						c0.3,0.2,0.6,0.4,0.8,0.6c0-1.5,0.2-3.1,0.9-4.4c0.6-0.9,1.4-1.6,2.1-2.4c0.8-0.9,1.2-2,1.9-2.9c0.1-0.1,0.2-0.2,0.4-0.2
						c0-0.7,0.1-1.5,0.2-2.2l0-0.2c0.1-0.8,0.3-1.8-0.1-2.5C98.8,19,98,18.5,97.4,18l-0.5-0.4 M60.3,7.7c-0.3,0.2-0.6,0.4-0.9,0.7
						c-0.9,0.9-1.5,2.1-2.1,3.2c-0.3,0.6-0.6,1.2-1,1.8c-0.1,0.3-0.3,0.5-0.4,0.8c-0.1,0.1-0.3,0.4-0.4,0.5c0.1,0.2,0.2,0.3,0.3,0.5
						c0,0.1,3.2,3.5,4.2,4.8c1.7,2.1,3.2,4.2,4.4,6.5c1.2,2.3,2.2,4.7,3.3,7c0.6,1.2,1.2,2.3,2,3.3c0,0,0.1,0.1,0.1,0.1
						c0.3-0.9,1.1-1.8,1.5-2.3l0,0c0.9-1.2,1.8-2.4,2.8-3.6c0.9-1.1,1.8-2.1,2.7-3.1l0.3-0.4c0.6-0.7,1.5-1.8,2.4-2.3
						c-0.1-0.2-0.2-0.4-0.4-0.5c-0.9-1.2-2.1-2-3.4-2.8l-0.8-0.5c-3-1.9-6-3.8-8.6-6.2c-1.4-1.3-2.8-2.6-3.9-4.1l-0.4-0.5 M65.3,6.8
						c-1.4,0.1-2.9,0.1-4.2,0.6c1.2,1.1,2.3,2.3,3.4,3.4c0.1-0.8,0.3-1.5,0.5-2.3"/>
				</g>
				<g id="FACE" transform="translate(73.000000, 45.000000)">
					<path id="_xD83D__xDD8D_-Ink_2_" class="st3" d="M19.5,40.5c1.3-0.2,2.8-0.9,4-0.3c0.6,0.3,0.9,1.3,0.5,1.8
						c-0.6,0.8-1.2,1-2.2,1.1c-0.7,0.1-1.5,0.1-2.2,0l-0.2,0c-1.3-0.2-2.7-0.5-3.7-1.4c-0.2-0.2-0.1-0.6,0.2-0.6
						C17,40.7,18.3,40.7,19.5,40.5z M17.9,37.4C17.9,37.4,18,37.4,17.9,37.4c0,0.8,0.3,1.5,0.7,2.1c0,0,0,0,0,0
						C18.2,38.9,18,38.2,17.9,37.4z M22.1,21.6c1.3,0.8,3.4,2.7,1.9,4.7c-1.7,1.8-4.1-0.3-5.3-1.2c-1.1-0.7-2.4,1.1-1.3,2
						c8.7,6.4,12.2-5.3,5.4-6.5C22.1,20.5,21.8,21.4,22.1,21.6z M29,12.5c0.3,0,0.6,0.1,0.9,0.3c0.3,0.2,0.5,0.5,0.7,0.8
						c0.4,0.7,0.6,1.6,0.6,2.6s-0.2,1.9-0.6,2.6c-0.2,0.4-0.4,0.6-0.7,0.8C29.6,19.9,29.3,20,29,20s-0.6-0.1-0.9-0.3
						c-0.3-0.2-0.5-0.5-0.7-0.8c-0.4-0.7-0.6-1.6-0.6-2.6s0.2-1.9,0.6-2.6c0.2-0.4,0.4-0.6,0.7-0.8C28.4,12.6,28.7,12.5,29,12.5z
						 M14.5,13.5l0.1,0c0.7-0.1,1-0.1,1.6,0.4c0.4,0.4,0.3,1.1,0,1.4c-0.6,0.6-1.1,0.5-1.9,0.6l-0.1,0c-0.6,0-1.3,0-1.9,0.1
						c-0.2,0-0.3,0-0.5,0c0,1.6-0.9,2.9-2.1,3.8c-0.8,0.6-1.8-0.1-2.1-0.9c-0.2-0.6-0.3-1.4-0.2-2.1c0-0.3,0.1-0.5,0.3-0.8l0-0.1
						l0-0.1c0,0,0,0,0-0.1c-1.1-0.1-2.3-0.2-3.4-0.3l-0.4,0c-1-0.1-2.4-0.2-3.2-0.8c0,0,0-0.1,0-0.1c0.4-0.2,0.9-0.2,1.3-0.2l0.1,0
						c0.5,0,1,0,1.6-0.1l0.5,0c1.3,0,2.7-0.1,4-0.2c0.2,0,0.5,0,0.7,0c0.2-0.1,0.5-0.2,0.8-0.2c0.2,0,0.4,0,0.6,0.1
						c0.5,0,1-0.1,1.5-0.1l0.5,0C13.1,13.7,13.8,13.7,14.5,13.5z M22.9,1.4c1.5-0.7,3.3-0.7,4.8-0.1l0.1,0c1.5,0.6,3.4,2.1,3,3.9
						c-0.4,1.7-3,1.4-3.1-0.2c-0.8-1.2-2.7-1.4-3.9-0.7c-0.7,0.5-1.2,1.2-1.6,2c-0.3,0.7-0.3,1.5-0.8,2c0,0,0,0-0.1,0
						C20,8.1,19.9,6,20.2,4.9C20.5,3.4,21.5,2,22.9,1.4z"/>
				</g>
				<g id="ACCESORIES" transform="translate(45.505282, 50.972603)">
					<path id="_xD83D__xDD8D_-Ink_3_" class="st3" d="M65.3,17.5c-1.2,1.6-3.4,2.1-5.5,1.9C55.4,19,54,14,53.9,10.1
						c3,0.8-0.3-5.1,9.9-5.7c3.6-0.3,2.6,1.9,4.2,3.4C67.9,11.1,67.3,14.7,65.3,17.5 M44.3,13.7C41.6,25.9,27.4,23,25.9,12
						c1.4-1,1-3.4,2.7-4.3c2.7-1.7,6.1-1.7,9.2-1.6c4,0.3,5.1,1.9,7.1,3.7C44.9,11,44.6,12.4,44.3,13.7 M70.9,2.4
						c-0.1,0-0.3,0-0.4-0.1c-0.1-0.1-0.2-0.1-0.4-0.1C69.7,2.1,69.4,2,69,2C64,0.8,52.2,2.4,51.7,6.8c-1.6,0.5-3,0.1-4.9,0.1
						c-1.4-6-26.1-5.1-27.3-1.5c0,0,0,0,0,0C18.4,5,16.8,5.1,15.5,5C12.7,5,9.9,5.2,7.2,5.8C2.1,6.6-4.9,7.6-1.3,13.9c0,0,0,0,0,0
						l0,0c0.6,0.6,1.6,0.1,1.7-0.7c-1.2-3,1.5-3.4,3.6-4.3c5.2-1.9,10.4-2.1,15.7-1.5c0.4,0.5,1,0.9,1.7,1.1
						c3.6,0.6,1.7,3.2,3.9,3.6c-0.4,9.2,10.8,14.3,17.3,8.2c2.6-2.5,3.2-6.3,3.8-9.7c0.3-0.1,0.5-0.2,0.6-0.5
						c0.8-0.8,1.2-1.5,2.8-1.7c1.5-0.2,2.7,0.2,2.8,0.3c0,0.1,0.1,0.2,0.1,0.2c0.1,0.1,0.2,0.2,0.3,0.3c-1.5,9.2,5.6,15,12.8,10.2
						c3.1-2.9,3.8-7.5,3.9-11.5c0.4-0.3,0.7-0.8,0.5-1.4c-0.2-0.9,0.3-1.6,1-2C72.2,4.3,72.1,2.5,70.9,2.4"/>
				</g>
			</g>
		</g>
	</g>
</g>
</svg>
