<?xml version="1.0" encoding="UTF-8"?>
<svg width="748px" height="456px" viewBox="0 0 748 456" version="1.1" xmlns="http://www.w3.org/2000/svg" xmlns:xlink="http://www.w3.org/1999/xlink">
    <title>Group</title>
    <g id="Onboarding" stroke="none" stroke-width="1" fill="none" fill-rule="evenodd">
        <g id="Checking" transform="translate(-341.000000, -152.000000)">
            <g id="Group" transform="translate(341.000000, 152.000000)">
                <path d="M71.7112055,100.876562 C-35.8270495,234.422254 -22.4168815,332.532392 111.94171,395.206976 C313.479596,489.218851 339.978604,368.121963 497.711205,437.776963 C655.443807,507.431963 734.989764,352.911583 734.989764,307.383905 C734.989764,261.856227 777.112356,133.331622 498.855022,43.9097314 C313.350132,-15.7048623 170.96886,3.28408128 71.7112055,100.876562 Z" id="Blob-Shadow" fill-opacity="0.1" fill="#000000"></path>
                <path d="M81.7112055,90.876562 C-25.8270495,224.422254 -12.4168815,322.532392 121.94171,385.206976 C323.479596,479.218851 349.978604,358.121963 507.711205,427.776963 C665.443807,497.431963 744.989764,342.911583 744.989764,297.383905 C744.989764,251.856227 787.112356,123.331622 508.855022,33.9097314 C323.350132,-25.7048623 180.96886,-6.71591872 81.7112055,90.876562 Z" id="Blob" fill="#FFFFFF"></path>
                <g id="a-person/bust" transform="translate(315.000000, 110.000000)">
                    <g id="HEAD" transform="translate(17.000000, 0.000000)">
                        <path d="M80.9856338,34.1349346 C69.3055493,24.6127899 50.5881116,21.5209787 38.0852533,31.1277353 C28.370378,40.1434549 24.3500989,65.7632538 26.0693463,78.6371021 C26.5474182,86.894342 32.8367628,96.2534972 42.0691264,93.6419257 C43.6368896,93.4871303 45.1591899,92.8843367 46.7413378,92.7580422 C48.6339129,92.539476 50.5408727,92.5357353 52.4297184,92.8034654 C56.5455408,93.3873772 60.1941243,95.5792732 64.1888304,96.604058 C71.6012533,98.5054231 79.8717903,97.226446 86.2522385,92.943476 C107.336949,79.0389646 97.7861666,47.5926947 80.9856338,34.1349346 L80.9856338,34.1349346 Z" id="ðŸŽ¨-Background" fill="#FFFFFF"></path>
                        <path d="M66.5,123 C70.5964331,123 77.2866359,113.170711 79.1052414,106 C80.2291078,101.568626 75.9573867,100.253385 78.6665057,96.5995335 C86.644825,85.8389909 102.909534,81.549116 102.909534,68.2465146 C102.909534,43.1175584 80.5832611,32 66.5,32 C52.4167389,32 41,52.3710439 41,77.5 C41,102.628956 52.4167389,123 66.5,123 Z" id="Oval" fill="#D8D8D8"></path>
                        <path d="M79.4301421,96.8328845 C79.6469793,96.7578915 79.8634613,96.6796922 80.078345,96.5995335 C80.0925522,96.6494101 80.1156389,96.6973272 80.142455,96.7438192 C80.1726452,96.818634 80.2028355,96.8914894 80.2364,96.9645229 C79.966641,96.9664824 79.6965268,96.918209 79.4301421,96.8328845 M78.9970004,4.5575388 C78.9011019,4.34217901 78.7908186,4.13554762 78.6665057,3.93586332 C78.9684085,4.03401323 79.2704888,4.16939242 79.5439772,4.34396032 C79.3592837,4.406306 79.1779645,4.4775582 78.9970004,4.5575388 M32.8609328,32.7308386 C32.8485015,32.7287011 32.8362478,32.7269198 32.8239941,32.7247822 C32.9824042,32.3017222 33.2645945,31.9023536 33.5762647,31.6139603 C33.6322055,31.5621243 33.6927636,31.5142072 33.7513683,31.4646869 C33.4205184,31.8599586 33.1203915,32.2815935 32.8609328,32.7308386 M117.278091,76.969373 C117.121812,75.4837646 116.922912,74.0036781 116.665406,72.532142 C116.418556,71.1233078 116.210776,69.6163236 115.495089,68.3658474 C114.78473,67.1207152 114.072595,65.9110309 113.227444,64.8157063 C113.348028,64.2563765 113.508036,63.7308915 113.646379,63.3069409 C114.445533,60.8665529 115.232434,57.767082 113.571791,55.4994806 C113.186421,54.9739956 112.715986,54.5714206 112.177711,54.2080344 C111.94862,54.0530608 111.568755,53.9123377 111.392764,53.6985811 C111.268451,53.5471702 111.31125,53.6291102 111.305745,53.5542954 C111.275554,53.1517205 112.216781,52.3020379 112.436992,51.9831843 C112.849178,51.3933942 113.156231,50.7291455 113.390649,50.0504683 C114.317668,47.3642601 113.687225,44.4055123 113.12977,41.7137822 C112.834971,40.2871349 112.509981,38.8567469 112.40325,37.3996393 C112.3038,36.031597 112.490269,34.6956182 112.600375,33.3347011 C112.707106,31.9914189 112.678692,30.6057416 112.104899,29.3622125 C111.824307,28.7565688 111.400045,28.2221772 110.883081,27.8053519 C110.378903,27.3976111 109.750058,27.1606975 109.258311,26.75456 C108.767986,26.3500256 108.908282,25.803343 109.036324,25.2440132 C109.21196,24.4851772 109.433948,23.7316852 109.455258,22.9479109 C109.494328,21.5816499 108.938472,20.2508369 108.070235,19.217858 C107.175005,18.1508563 105.896358,17.4292496 104.514709,17.2671508 C103.882489,17.192336 103.260924,17.3189868 102.632256,17.2744541 C102.010692,17.2317028 101.875901,16.9199744 101.758514,16.3499568 C101.488755,15.0442601 101.598683,13.7545952 100.957762,12.5361825 C100.389474,11.453149 99.3788101,10.7190732 98.26177,10.2863942 C96.2143366,9.4919321 93.8328567,9.65581217 91.6731865,10.1241173 C90.3982689,6.36217901 86.4184803,3.89507143 82.5026241,3.86478924 C81.8915374,2.82450705 80.8561886,2.04785802 79.6753937,1.59166578 C77.7219053,0.834611111 75.6528059,1.27655291 73.6178038,1.27655291 L73.6089243,1.27655291 C73.4045184,1.26390564 73.2002901,1.25873986 72.9962393,1.26052116 C72.8042647,1.2496552 72.6124677,1.23362346 72.4206706,1.21242593 C70.1048989,0.937926808 67.8139899,-0.0132901235 65.519529,0.918510582 C64.4966114,1.33355467 63.6832499,1.97304321 63.1684169,2.78888095 C62.3923493,3.00067813 61.6267594,3.24311376 60.8757319,3.52455996 C57.6203323,3.60988448 54.3953006,5.36090741 52.7492203,8.19870459 C50.4316727,7.93507143 47.9170004,8.38217901 46.3842224,10.2810503 C45.9850004,10.7751843 45.6758165,11.3557116 45.4708778,11.9720432 C43.9080871,12.4790026 42.4619729,13.3823025 41.5155966,14.7428633 C40.6519772,15.984433 40.4861082,17.5897451 41.0702013,18.9225176 C39.6750554,19.9362584 38.5848313,21.3874877 38.0596981,23.1011032 C37.7405691,24.142276 37.6931526,25.2180062 37.8984465,26.242791 C36.4700913,26.5605758 35.1038926,27.1496534 33.8934402,28.0337152 C32.6249159,28.9598157 31.0406368,30.4338457 30.9571696,32.1303607 C30.9509539,32.2548739 30.9557488,32.3793871 30.9656939,32.5035441 C28.1730934,32.3067099 25.3256178,32.7812496 23.4380152,35.0269409 C22.0206706,36.7118774 21.4046114,38.8816852 21.7828778,40.8571526 C18.4601717,41.5340485 15.3184296,43.2761649 13.1269708,45.8519321 C11.5341674,47.7240838 10.1187763,50.1039074 10.2038419,52.6527769 C10.2304803,53.4206975 10.4100237,54.193784 10.7208059,54.9080873 L10.7208059,54.9096905 C10.5876135,55.1610326 10.4506918,55.4406975 10.3192753,55.7381755 C8.26100888,57.1826358 6.76570233,59.4468527 5.92392643,61.9424612 C5.24393488,63.9640644 4.81594334,66.5898862 5.54210825,68.6472937 C5.65239154,68.9608034 5.79268753,69.2565 5.95607019,69.5306429 C5.81914841,69.676888 5.68968541,69.822955 5.56359662,69.9708034 C4.17644228,71.5969568 2.77170655,73.6454577 2.86778266,75.8845582 C2.90685243,76.7860767 3.24054376,77.692761 3.7859222,78.4371684 C1.86777421,80.3878757 0.322920085,82.8496393 0.475469767,85.5981931 C0.606886258,87.9904859 1.91590106,90.4201861 3.96688626,91.5691279 C3.62431543,93.4127787 4.08249725,95.3579638 5.51369387,96.7972584 C6.22778266,97.5169056 7.06938097,97.9907328 7.96105962,98.2436781 C8.15996025,100.415089 10.0813049,102.162549 12.1218123,102.664699 C12.5020321,102.759287 12.8820744,102.816288 13.2601632,102.84283 C15.0964423,103.74613 17.2861252,103.642636 19.1596981,102.814329 C19.7120025,103.518123 20.4312414,104.091703 21.2694655,104.503184 C21.6086622,104.670627 21.9675712,104.809569 22.3421082,104.921613 C24.988197,105.707168 27.7019476,104.642126 30.0157658,103.398775 C30.0903535,103.359586 30.2270977,103.30971 30.3478588,103.254489 C30.6675205,103.612532 31.2500152,103.967011 31.5536939,104.141579 C32.5838926,104.734754 33.8430047,105.010678 35.0257531,104.932479 C36.4127298,104.839851 37.6361463,104.380274 38.7691696,103.726535 C38.9345057,103.755036 39.1012626,103.771068 39.2683746,103.779974 C40.3339137,103.836798 41.2838419,103.498528 42.1382266,102.964137 C42.7027848,103.038951 43.2817277,103.031826 43.8677742,102.928511 C45.15903,103.257874 46.4163662,102.734348 47.4266748,101.902479 C47.8743789,101.533749 48.2524677,101.100892 48.6575501,100.687629 C49.0782605,100.258156 49.3980998,100.158581 49.8898461,99.8700097 C51.0532372,99.1877698 51.1933556,97.4581226 50.6890004,96.2074683 C50.7848989,95.9885459 50.8401294,95.7445071 50.8401294,95.4737487 C50.8364,93.1117381 49.7515036,90.9456711 48.4195797,89.0557063 C47.8244761,88.213149 47.1782266,87.3882266 46.4694655,86.6402566 C45.8994021,86.0397787 45.0986495,85.0655829 44.2550977,84.821366 C44.2035966,84.7841367 44.1501421,84.7465511 44.0968651,84.7111032 C44.2604254,84.1373448 44.3561463,83.5532549 44.3154782,82.9565176 C44.2726791,82.3435705 44.0755543,81.7628651 43.759622,81.2678404 C44.8196558,79.2068704 45.2673598,76.9463942 45.054252,74.5879462 C45.9171611,73.3604489 46.5708693,72.0050538 46.9081125,70.5194453 C47.1158926,69.6002919 47.2350554,68.6330432 47.2188947,67.6905547 C47.2117911,67.2382813 47.0466326,66.6663042 47.0432584,66.1979991 C47.0681209,66.3458474 47.259918,65.7936429 47.3345057,65.6563042 C48.1903112,64.0622143 49.2895924,62.8188633 49.4726875,60.9395864 C49.5790638,59.840343 49.3197827,58.6256711 48.6627002,57.7243307 C49.0835882,56.0605917 49.0782605,54.2737646 48.4158503,52.6867998 C48.2382605,52.2628492 48.0342097,51.8478051 47.7997911,51.4541367 C47.9079433,51.1228139 48.0075712,50.7879286 48.1352584,50.4867099 C48.1851611,50.3673624 48.2347087,50.2464118 48.2844338,50.1252831 C48.7657023,49.699373 49.2134063,49.2346305 49.5898968,48.7784383 C50.4243915,47.7686164 51.0621167,46.6107681 51.1420321,45.2763924 C51.1811019,44.608403 51.0248228,43.9689145 50.8312499,43.334948 C50.7458292,43.0481578 50.6943281,42.7293042 50.5931019,42.4496393 C50.5364507,42.2944877 50.399529,42.1361296 50.3517573,41.9900626 C50.3409243,41.9579991 50.3320448,41.9312795 50.3249412,41.9099039 C50.3320448,41.8885282 50.3375501,41.8439956 50.3375501,41.7600961 C50.3391484,41.1206076 50.4226156,40.4953695 50.426345,39.879216 C51.0106156,40.4706093 51.7138715,40.9121949 52.5130258,41.1706623 C54.1235882,41.689022 55.8037658,41.4538898 57.2296347,40.6540838 C58.7641886,41.7086164 60.4884085,42.6632178 62.2964507,43.0463765 C63.3706918,43.2742055 64.4470638,43.1799744 65.5248567,43.3206975 C66.5957235,43.4614206 67.6312499,43.9299039 68.6397827,44.2950714 C70.884696,45.1091279 73.1239264,45.9443818 75.3757658,46.7372407 C77.1942858,47.3767293 79.1619814,47.8844012 81.0659222,47.5245776 C81.6004677,48.350925 82.294844,49.0493748 83.1845691,49.5623907 C83.8219391,49.9275582 84.5216431,50.1749815 85.2444338,50.2980697 C85.8837573,50.4067293 86.6333641,50.363978 87.1517488,50.8039603 C87.6578799,51.2314735 87.9739899,51.8690026 88.4286199,52.3501332 C88.9349285,52.8880873 89.5598672,53.3547892 90.2151738,53.6896746 C90.7408397,53.9586517 91.2773387,54.1526358 91.8223619,54.2792866 C91.7745903,55.495918 91.7282393,56.7107681 91.7140321,57.9291808 C91.6875712,60.5762002 91.698049,63.2230414 91.6627087,65.870239 C91.6271907,68.5081737 91.5437235,71.1464647 91.4052034,73.781015 C91.2736093,76.2534665 91.0889159,78.7346464 90.5010934,81.1467116 C88.5511569,89.1501155 81.2468863,94.8805741 73.0706495,95.1727081 C70.6431738,95.2599921 68.2402055,94.9179815 65.9191061,94.2017187 C63.5147171,93.4590926 61.3674782,91.9305547 58.9025311,91.4604683 C58.2578799,91.3391614 57.6505226,91.9895159 58.0199095,92.6145758 C58.6558588,93.688881 59.428197,94.3444012 60.4848567,94.9908369 C61.591419,95.6661296 62.823715,96.1666764 64.0402055,96.6048774 C66.2778376,97.4098492 68.6452879,97.8767293 71.0196643,98.0067646 C72.8309032,98.1063395 74.6494233,97.9818263 76.4235459,97.6398157 C76.5480364,98.0227963 76.7682478,98.3950891 76.9350047,98.7495688 C76.9598672,98.8012266 77.0435121,98.7656005 77.027529,98.7121614 C77.0007129,98.6230961 76.9831315,98.5447187 76.9760279,98.4805917 C77.5725522,99.2608034 78.4942436,99.8003607 79.4409751,100.062391 C80.1085353,100.247646 80.8172964,100.30447 81.5045691,100.226271 C81.7265564,100.201154 81.9377108,100.163925 82.1474444,100.117611 C82.8469708,100.732161 83.7420237,101.141862 84.6406283,101.346712 C84.4863027,102.287241 84.9496347,103.313272 86.0242309,103.580468 C86.4751315,103.69269 86.9084507,103.694472 87.3419476,103.653502 C87.6917996,103.817382 88.0682901,103.945636 88.4678672,104.03292 C88.9880279,104.146923 89.6095924,104.000678 90.002066,103.62322 C90.2169497,103.774631 90.4176262,103.879728 90.6165268,104.120026 C91.4353937,105.110609 93.2004592,104.321491 93.2785987,103.176112 C93.5378799,103.176112 93.798937,103.179675 94.0601717,103.188581 C94.1221505,103.217082 94.184307,103.245583 94.2482393,103.275865 C95.3901421,103.808297 96.5728905,104.273396 97.8357319,103.854789 C98.068197,103.778015 98.2813049,103.680221 98.4748778,103.566218 C99.364603,103.646377 100.241897,103.648158 101.144231,103.356024 C101.677,103.183059 102.177626,102.908916 102.594962,102.549093 C103.987267,102.958793 105.456112,103.144049 106.841313,102.636198 C107.87826,102.256959 108.71311,101.65844 109.300755,100.869144 C110.199537,100.901385 111.112172,100.684066 111.934413,100.254772 C113.340924,99.5244365 114.326548,98.1366217 115.013821,96.7456005 C116.527064,93.6764118 117.422117,90.379216 117.773567,86.9787046 C118.119867,83.629851 117.626167,80.2988104 117.278091,76.969373" id="ðŸ–-Ink" fill="#000000"></path>
                    </g>
                    <g id="BODY" transform="translate(0.000000, 85.000000)">
                        <path d="M173.567032,42.4362793 C171.035841,42.6868413 168.50465,42.937046 165.973459,43.187608 C153.85089,44.1214075 141.733112,46.0715739 129.703344,47.2419955 C129.403825,46.7505221 128.817561,46.8314812 128.461615,47.1730105 C127.261229,47.067031 125.915873,46.1419887 124.828517,47.1042042 C124.793206,47.0992001 124.757896,47.0933025 124.72223,47.0899068 C122.786175,43.3434498 121.447917,39.347503 120.149052,35.3461947 C119.320049,32.8861469 118.204657,30.5047349 116.143506,28.8530269 C112.625922,26.391192 104.566213,21.3990733 100.435749,21.6088877 C100.367257,20.8632779 100.022489,20.0947922 99.4564537,19.5983147 C100.704039,17.4538823 95.7156495,16.0547022 95.3637847,16.3032984 C95.5893118,9.13886726 92.2466845,2.91699277 84.8761541,1.49029018 C78.2730546,0.103084175 68.8812976,-0.129963574 65.3300002,6.82733383 C64.9396307,6.78301187 60.9492801,6.76206617 60.5631692,6.80567326 C59.9628874,6.03915348 53.3706142,13.3026087 56.0725033,15.831284 C31.9166182,26.6047383 18.1815311,25.3192438 11.4955668,55.6063366 C10.591684,58.4515207 10.5258536,61.56496 9.57140021,64.3466995 C6.17571819,72.3409164 3.42148418,80.8534143 2.73603089,89.5519573 C1.08050947,89.9796285 0.890115639,92.9225712 2.80771691,93.3482765 C3.54019198,93.5110883 4.15271716,93.733413 4.68681357,94.1550078 C4.26929568,101.283338 5.97929138,117.567013 7.0567111,117.516794 C9.25360398,124.565952 19.0529075,126.555403 25.9904826,124.078199 C24.7945326,126.346661 25.9904826,127.772964 25.9904826,128.98501 C50.9537227,129.937218 78.2483904,129.388825 103.20471,130.694714 C106.397045,130.648963 109.754755,131.485182 112.90344,131.003896 C114.823703,130.539766 114.826896,127.495669 112.87913,127.11929 L121.389955,125.2556 C121.199739,125.183219 124.898165,122.703019 127.693388,118.068336 C130.2952,112.883738 128.524429,106.625441 129.703344,100.985829 C138.911095,100.226637 148.271091,99.9020296 157.378055,98.3298509 C158.619785,102.075593 163.994995,97.5958577 165.703571,95.7938482 C165.701442,95.7909887 165.699313,95.7883079 165.697183,95.7854484 C166.524057,95.5574048 167.187153,94.7760514 167.209333,93.8510091 C167.789209,93.0156831 167.910933,91.8382915 167.354834,91.0310241 C169.903592,76.2031824 173.789188,61.0636572 175.19363,46.0964157 C175.690109,45.9856108 176.157666,45.7661456 176.554068,45.4280119 L176.521951,45.395664 C177.193564,44.6407608 177.324161,43.3377308 176.20451,42.6963134 C175.301337,42.1783898 174.547214,42.3390569 173.567032,42.4362793 Z" id="ðŸŽ¨-Background" fill="#FFFFFF"></path>
                        <path d="M65,1 L96,1 C94.4922456,6.43343099 93.6371896,10.0882911 93.4348321,11.9645803 C92.8411338,17.4694379 93.9143194,20.1011806 93.4348321,22.3457046 C92.9760086,24.493499 91.5383838,26.3563201 91.1153169,27.7720728 C89.6900089,32.5417283 87.577807,36.1346905 84.7787112,38.5509595 L80.5,36.4432091 C82.0283253,30.9638669 81.8100175,26.8846034 79.8450764,24.2054187 C77.8801353,21.5262339 73.0720347,17.6115527 65.4207746,12.4613752 L65,1 Z" id="Rectangle" fill="#D8D8D8"></path>
                        <polygon id="Path-4" fill="#D8D8D8" points="4.92651895 90.6853486 4.91272631 104.455361 7.0567111 117.516794 14.2623169 124.70513 22.2180955 124.70513 67.4605165 103.674544 79.8450764 96.983911 88.9547672 94.1814136 96.2887296 96.983911 97.5570416 96.983911 97.8978165 95.0444828 102.302976 91.1473257 103.062053 86.6600281 102.761281 83.0650089 96.7453869 78.385295 93.8145228 78.7455856 78.1121669 83.7405614 52.2502457 90.8717989 29.2782157 96.983911 14.2623169 91.9142078"></polygon>
                        <path d="M65.7901803,5.21151228 C66.5423013,3.30584652 69.0847647,4.04663097 68.8013233,6.04862551 C68.631684,7.2478206 67.9802476,8.51439222 67.395107,9.56543042 C66.9186278,10.4209516 66.3751436,11.2559202 65.6382671,11.8971589 C66.9500031,13.1310252 68.3115495,14.3198547 69.707662,15.4486351 C71.2310483,16.680178 72.8329615,17.8153922 74.4887622,18.8587456 C75.9407121,19.7737797 77.4582488,20.5844427 78.8268857,21.6285109 C80.0994468,22.5991262 81.2587378,23.7665095 81.8486644,25.2904345 C82.4770955,26.9132521 82.2039891,28.5891756 81.7412257,30.2108978 L81.6880654,30.3942517 C81.2153087,32.0009229 80.3968918,33.9376855 81.5317207,35.4514236 C82.1094163,36.2220539 82.9492818,36.7678574 83.674459,37.383897 C84.3189823,37.9314877 84.9239762,38.5269748 85.478805,39.166605 C86.6886155,40.5609598 87.6725947,42.1299216 88.2935422,43.8781371 L88.3490718,44.0369605 C88.8813003,45.5845498 89.2702714,47.4803988 88.5511033,48.9998261 C88.3447708,49.4353608 87.6793307,49.2938165 87.5637561,48.8697196 C87.3024725,47.9089338 87.3161216,46.9027538 87.0970263,45.9283854 C86.8690678,44.9150566 86.489728,43.9531985 85.9942818,43.0431685 C85.035679,41.2826637 83.7374374,39.7788533 82.2036272,38.5074856 L81.7444788,38.1310336 C80.5479309,37.1410051 79.4485662,36.0907146 79.2056938,34.4522135 C78.9458282,32.6991726 79.6424664,31.0292353 80.0904065,29.3700211 C80.4025642,28.2137183 80.5044896,27.1053117 80.1671608,26.0603499 C79.7550275,26.7385832 79.1927537,27.382324 78.7480043,27.9565437 C77.862228,29.100515 76.9681204,30.2375164 76.0763172,31.3766623 C75.1620018,32.5447606 74.2701987,33.7312667 73.4209383,34.9485123 C73.0410666,35.4930648 72.665272,36.0408342 72.2907182,36.5891398 C72.0090495,37.0012626 71.6162378,37.413028 71.3092207,37.8333718 C71.3838478,38.0581985 71.3781754,38.317339 71.2429248,38.5014181 C69.6147769,40.7193035 67.2984994,36.09159 66.6943918,34.9224195 C65.4641962,32.5413649 64.54864,30.011796 63.3143674,27.6312776 C62.0354248,25.163545 60.5790434,22.7615805 58.9558588,20.5086664 C57.9740067,19.1459447 56.8735666,17.8659693 55.975382,16.459998 C53.8594101,18.3944372 51.0749847,19.6912121 48.5174542,20.8671739 C45.7074355,22.1590469 42.7880855,23.2144128 39.9070167,24.3350904 L39.0559678,24.668352 C34.0918008,26.6216284 29.0063218,28.7675372 24.8801498,32.2370089 C20.0315128,36.3140935 17.1630654,41.9965982 15.0275947,47.8810539 C12.5693307,54.6553445 10.5356082,61.6124632 8.63979523,68.5651139 C7.66964242,72.1224877 6.74912286,75.6959461 5.88373166,79.2808424 C5.1211522,82.4391398 4.48903729,85.6288915 3.60627445,88.7546623 C5.39661675,88.6908602 7.43849328,89.389646 8.96702017,89.5914181 C15.9332243,90.5107415 22.8056571,91.9762258 29.3825947,94.5134795 C30.1949847,94.8269502 30.4300336,95.6449407 30.2531265,96.3079829 C30.721629,96.1746596 31.1897769,96.0395491 31.6582793,95.9069407 C31.1449901,95.1140032 31.3899769,93.6963535 31.4303313,92.8174715 L31.4328026,92.757043 C31.4742818,91.5859065 31.6003148,90.4135191 31.6820324,89.2445273 C31.8376408,87.0161113 32.0402225,84.8039893 32.3095753,82.5883414 L32.378316,82.0343445 C32.6835605,79.6238015 32.9092145,77.1991398 33.2422891,74.7927074 L33.2816412,74.5173035 C33.1219285,73.9016214 32.9359811,73.2934454 32.740816,72.6879502 C32.2207304,71.0750239 31.4866901,69.5568179 30.8434077,67.9946473 C30.7675397,67.8107469 31.0274053,67.7051248 31.1488295,67.8153936 C32.2382793,68.8035232 33.1036705,70.0570484 33.7988906,71.3681207 C33.8109444,71.3062844 33.8215801,71.2442694 33.8341656,71.1824332 L33.9134973,70.7887544 C34.1091262,69.8286749 34.3470802,68.8185409 34.9312378,68.0398629 C34.9934566,67.9571166 35.1164762,67.939781 35.175327,68.0398629 C35.7344101,68.9936787 35.7969835,70.201631 35.8829554,71.2869829 C35.980272,72.5147729 35.9925031,73.7581112 35.9753087,74.9892967 C35.9418062,77.3953718 35.773585,79.8082381 35.6395752,82.2103813 C35.5081096,84.5709675 35.2499284,86.9014746 34.9171993,89.2388543 L34.8539517,89.6772026 C34.6912994,90.7897345 34.558139,91.9160823 34.3436028,93.0210056 L34.2829921,93.3217906 C34.1683038,93.8697387 34.0977537,94.6423349 33.8694407,95.2841098 C39.7435361,93.6322231 45.6266718,92.0180457 51.5209749,90.4322844 C55.7811033,89.2859898 60.0456632,88.156852 64.3084505,87.0205655 C64.5333955,86.6118383 64.8134688,86.2300975 65.1630287,85.8889256 C66.3146974,84.7644345 67.8409199,84.2627742 69.2407549,85.1283035 C69.3545568,85.198897 69.364129,85.3786869 69.2407549,85.4467783 C68.9725581,85.5945778 68.7038295,85.7461303 68.4398869,85.9041166 L70.9995446,85.2051521 C72.9127292,84.6824031 74.8487806,84.0291903 76.8069896,83.6647851 C80.4137317,81.8702817 84.2929248,80.5713622 88.0923502,79.2876337 L88.5400708,79.1349482 C90.4854698,78.4662622 92.4976939,77.7176762 94.5076253,77.3469393 C95.979074,77.075646 97.7063111,77.4030566 98.2980104,78.9228711 C99.047118,79.4205996 99.7519101,80.0055423 100.432063,80.5808342 C100.923787,80.9965314 101.395125,81.4385 101.874441,81.868852 L101.962805,81.9470625 C102.354653,82.289839 102.665064,82.5194087 102.761281,83.0650089 C102.810914,83.3468465 102.633298,83.7278724 102.288524,83.6905205 C101.23364,83.5766774 100.375871,82.3438834 99.6604432,81.6077456 C99.1077414,81.0387087 98.5506082,80.4503704 98.0461216,79.8250375 C97.7520446,79.9864195 97.3489517,79.9574673 97.1617634,79.6000321 C96.1910789,77.7469093 93.5319774,79.0309952 92.060706,79.4704618 L89.9530767,80.0994105 C88.8993302,80.4143338 87.8459921,80.7308141 86.7944407,81.0528274 C83.9043674,81.9376583 81.0284749,82.9279325 78.1121669,83.7405614 C78.373096,84.0297265 78.3371119,84.5440757 77.8414884,84.7397715 C75.5587133,85.6428315 73.0543612,86.1098206 70.6827781,86.7294345 C69.1854493,87.1210048 67.6890067,87.5148984 66.193096,87.9111153 C65.9365984,88.3300293 65.7520691,88.8039884 65.6744285,89.3556896 C65.3889577,91.3842292 65.9395298,93.7247226 66.4758377,95.6867002 L66.5566245,95.9794294 C66.9974879,97.5568319 67.6460939,99.4905264 68.9959566,100.486579 C69.3254859,100.729456 69.7450642,100.898523 70.1680104,100.936769 C72.8104493,99.5654686 75.4527109,98.1943472 78.0965678,96.8257278 C78.5863417,96.5721276 79.0388906,96.9154441 79.1487928,97.3236351 C80.0810116,97.1694018 81.0111033,96.9263458 81.8582366,96.6364659 C83.2816473,96.149103 84.3930776,95.2195928 85.7275031,94.5767456 C88.3095099,93.3332142 90.9462438,94.860699 93.2580199,96.0219826 L93.7908263,96.2860029 C94.8275142,96.7931222 96.9842726,97.7673439 97.4817207,96.3803636 C97.9628087,95.0385518 96.4417268,93.6045218 95.4593429,93.0006351 C94.2883527,92.2805819 92.9248564,91.8952667 91.6014211,91.5742899 C90.8457549,91.3909256 90.080871,91.241339 89.3113784,91.1321426 C88.4385422,91.0082913 87.5369896,91.0268779 86.6965923,90.7414659 C86.2789639,90.5999216 86.2147952,89.9311603 86.6965923,89.8207128 C87.990263,89.5238823 89.5343085,89.8476606 90.8843032,90.1785295 L91.5898991,90.3538274 C92.9500275,90.6903527 94.3232732,91.1126623 95.5621546,91.7839256 C96.4629982,92.2721821 97.4138295,93.0138602 98.0349542,93.9217456 C98.5743476,93.4165797 99.2456787,93.4336583 99.9449887,93.6210161 L100.324557,93.7273967 C100.951331,93.902517 101.45937,94.0230529 102.069251,93.9017292 C102.150792,93.454399 102.233395,93.0068902 102.321849,92.5593813 C103.190963,88.1604263 104.144098,83.7782708 105.195792,79.4195273 C107.009864,71.9012815 109.108975,64.4655507 111.475454,57.1060181 L111.712992,56.3703186 C112.258781,54.6869775 112.698035,52.8529775 113.577961,51.3065341 C114.410205,49.8442667 115.743567,49.0019707 117.327754,48.5558915 C119.125541,48.0497633 121.014618,47.7849038 122.848567,47.4430171 C123.257686,47.3668834 123.66787,47.2945027 124.077344,47.2196201 C123.7313,46.5897001 123.473008,45.8746543 123.240349,45.3259103 L123.199545,45.2308506 C122.69972,44.0819288 122.250723,42.9123061 121.817148,41.7364442 L121.492816,40.8524581 C120.709972,38.7237893 119.901833,36.6300789 118.801152,34.6391521 C117.64257,32.543867 116.105535,30.8308588 114.189514,29.4130921 C110.283023,26.5221562 105.574422,25.0475573 101.785455,21.9580662 C101.630174,21.8315341 101.829239,21.6151071 101.986825,21.6951726 C104.545241,22.9912326 107.307155,23.8724891 109.968206,24.9276378 L110.49314,25.1364574 C112.596414,25.9770845 114.732439,26.8922116 116.552943,28.2532149 C118.582589,29.7708847 120.181134,31.6556405 121.382613,33.8969379 C122.566721,36.1062449 123.32416,38.5791603 124.159594,40.9389475 L124.383036,41.567723 C124.720008,42.5105841 125.068059,43.4506284 125.466898,44.3681808 C125.783487,45.0966337 126.3743,45.9282067 126.642851,46.7603158 C127.377601,46.6318179 128.112173,46.5029625 128.847631,46.3791112 C144.777601,43.6976323 160.885541,42.122058 177.029288,41.6611453 C177.660871,41.6430948 177.987564,42.2507347 177.894502,42.8061889 C176.345235,52.0424932 174.968444,61.3104304 173.457821,70.5537046 C172.798408,74.587897 172.125877,78.6190512 171.43757,82.6482394 C171.088897,84.6895518 170.685804,86.7230007 170.355565,88.7673513 C170.088964,90.4183445 169.895394,92.0822053 169.437705,93.6949529 C169.027167,95.140957 168.397179,96.5353117 167.362503,97.6385355 C166.247173,98.8277224 164.690461,99.4033718 163.123469,99.6753799 C159.145541,100.365587 155.065333,100.647425 151.055144,101.107265 L129.704514,103.556233 C130.016519,106.415468 130.039837,109.230219 129.896682,112.122741 L129.815095,113.701774 C129.748397,114.971853 129.668663,116.243842 129.487723,117.500852 C129.260828,119.077677 128.5454,120.412877 127.49158,121.590626 C126.523909,122.672224 125.34831,123.595122 124.204795,124.479417 C123.017851,125.397668 121.791378,126.283928 120.395798,126.851714 L120.214658,126.924199 C118.990336,127.406139 116.693634,128.152433 115.020162,127.879698 C115.238903,128.984709 115.662204,130.172823 115.286941,131.266218 C115.11287,131.773954 114.454343,132.027197 114.050895,131.595237 C113.251623,130.739001 113.189227,129.608076 112.999911,128.491091 C112.802974,127.328711 112.633157,126.162222 112.482307,124.992872 C112.190535,122.731916 111.963463,120.450229 111.894153,118.170149 C111.822894,115.828591 111.85037,113.483817 111.975517,111.144761 C112.039862,109.9436 112.11963,108.743153 112.270834,107.549677 C112.335358,107.04069 112.401299,106.531344 112.476635,106.023608 C112.504111,105.838456 112.5346,105.654198 112.567393,105.470298 L110.65105,105.688279 C107.712637,106.019013 104.772826,106.317675 101.81364,106.364065 C101.463194,106.369426 101.193579,106.20858 101.017381,105.974282 C100.829661,106.28257 100.50279,106.503107 100.034642,106.50132 C95.9021424,106.485771 92.0537928,105.123407 88.2951375,103.517808 C86.4005654,102.708218 84.5354187,101.831786 82.6380104,101.029166 C80.8669896,100.279982 78.9736583,99.7454372 77.2453576,98.9015327 L72.703915,101.30314 C72.6705899,101.421272 72.6278698,101.532971 72.5824908,101.62644 C72.2868185,102.234973 71.703805,102.565065 71.1083833,102.813661 C70.5368918,103.052785 69.9450153,103.127132 69.3683833,103.066725 C65.9241458,104.886428 62.4791106,106.704421 59.0317822,108.518142 L55.5836339,110.330344 C48.7136828,113.936687 41.8708527,117.602185 34.9576498,121.123815 L34.4486984,121.382124 C32.0608515,122.589299 29.4967867,123.812967 26.8468674,124.726047 C26.7997158,125.402314 26.8294957,126.059995 26.8856877,126.775759 L26.8992146,126.931682 C26.9782225,127.777523 27.1476282,128.837372 26.474618,129.439545 C26.1245263,129.752658 25.4991473,129.753909 25.261085,129.281737 C24.8290984,128.425501 25.2169468,127.075647 25.3537928,126.145422 C25.4023625,125.814616 25.4615678,125.474516 25.5491351,125.144604 C22.5112256,126.056421 19.3813172,126.498568 16.2898747,125.986542 C13.2799725,125.488456 10.948805,123.576714 9.06947738,121.238373 C7.08609719,118.770819 5.6766901,115.895074 4.92049205,112.812374 C4.05988692,109.304505 4.00369499,105.6819 4.02390281,102.088782 C4.04535147,98.2626173 4.18574267,94.4175082 4.64733191,90.6170784 C4.14160452,90.4971589 3.58074878,90.3935027 3.06970355,90.4292462 C2.81657396,90.837616 2.32555929,91.0095423 1.88187347,90.9564632 C0.917038509,92.0293049 3.36431235,93.1257374 4.14639059,93.4002476 C4.41795538,93.4956828 4.38888447,93.9403322 4.0756632,93.9269284 L3.87836698,93.9174731 C2.66991047,93.8526546 1.42141198,93.6446316 0.710883252,92.5123786 C0.141518949,91.6048506 0.312576406,90.5296855 0.991311125,89.789616 C1.43960575,85.5161207 2.51132946,81.3546814 3.50878056,77.1859147 C4.48761919,73.0941753 5.57618276,69.0287074 6.72997861,64.983792 L7.24723237,63.1733672 C9.06386231,56.8309353 10.9626931,50.4373294 13.4685789,44.3469134 C14.7198686,41.3058547 16.16136,38.3207347 18.1153148,35.6691016 C19.9366779,33.1972585 22.0870385,31.0821357 24.5587744,29.2756583 C29.1666927,25.9075963 34.573608,23.8725337 39.8861314,21.9336589 L40.1239395,21.8469038 C42.8769896,20.8428683 45.6233038,19.8268588 48.3449786,18.7390048 C50.7520141,17.7769679 53.0580104,16.5572203 55.4537011,15.5807074 C55.3758833,15.4382694 55.3007243,15.2942231 55.2284016,15.1485682 L55.1841124,15.1861254 C55.1765427,15.1921952 55.1687826,15.198073 55.1606877,15.2036132 C54.9197891,15.3719652 54.5650886,15.289219 54.3665556,15.1003145 C53.8059784,14.5670175 53.9957626,13.9750204 54.3699445,13.4219487 L54.4186705,13.3515628 C54.87636,12.7051412 55.2845935,12.0217251 55.7070079,11.3518915 L55.9715273,10.933002 C56.6805659,9.81394055 57.4256775,8.68741072 58.3710727,7.76252729 C58.8089089,7.33396248 59.2882243,7.01334311 59.7960789,6.77439768 C59.7526498,6.68182196 60.1334077,6.49256003 60.24136,6.58781651 C61.8503637,5.99411664 63.7015067,6.11850409 65.4556877,6.28220941 M128.671433,103.674544 L126.434392,103.931003 C123.973292,104.213341 121.511234,104.48635 119.04887,104.756709 L113.700449,105.342694 C113.6868,105.650088 113.649752,105.950691 113.643017,106.182845 C113.608096,107.379717 113.582039,108.577125 113.557399,109.774354 C113.507943,112.174174 113.562185,114.576317 113.718884,116.97149 C113.870776,119.292362 114.070808,121.613547 114.38164,123.918701 L114.445303,124.379514 L114.482173,124.621855 C114.735834,124.646518 114.985064,124.768046 115.192283,125.017714 C115.644655,125.562267 117.282729,125.032905 117.922466,124.803432 C118.974514,124.42598 119.965229,123.788316 120.879367,123.148864 C121.772099,122.524488 122.575956,121.796419 123.348428,121.02947 L123.980462,120.399243 C124.609174,119.769349 125.238567,119.09831 125.623774,118.305975 C126.146164,117.231525 126.213701,115.912589 126.366855,114.742346 C126.555461,113.302954 126.780052,111.863741 127.017405,110.431499 M63.7307549,88.5654004 L63.4987194,88.6268793 C55.0697524,90.8849761 46.653371,93.2097347 38.1985238,95.3681071 C34.0144407,96.4364809 29.8105043,97.4271126 25.6212806,98.4749338 L24.9430344,98.6459582 C21.6381844,99.488091 18.2936604,100.50163 15.7628759,102.918389 C15.669459,103.007391 15.5338539,102.870672 15.6217757,102.77613 C18.3493001,99.848736 22.2284933,98.6095082 25.9531143,97.5352367 C26.6415984,97.3366814 27.3309688,97.1427729 28.0196302,96.9452899 C22.9542023,95.1246937 17.8088295,93.5407196 12.5446913,92.4110457 C11.1891718,92.1200935 9.81787592,91.9065259 8.46341993,91.6145014 C7.51881051,91.4107097 6.59631271,91.1161527 5.66168224,90.8717989 L4.92651895,90.6853486 L4.91675545,93.0279118 C4.90452042,96.3458156 4.91036282,99.6610145 5.07825489,102.978439 L5.11003659,103.592971 C5.30592165,107.284796 5.61168173,111.053276 6.91113998,114.534319 C7.96708741,117.363061 9.65018643,120.027919 11.8512439,122.088354 C12.9649786,123.130814 14.1623808,123.94237 15.6425153,124.343055 C17.0168246,124.714967 18.4567207,124.758574 19.8694957,124.659385 C26.64603,124.182746 32.6782427,120.471317 38.5647463,117.398447 C48.1930654,112.372372 57.822448,107.348799 67.4605165,102.342025 C67.1999419,102.162414 66.9546119,101.955459 66.7314395,101.722947 C65.4390251,100.377204 64.7572769,98.5349829 64.3095141,96.7508452 C63.8328576,94.851792 63.5478209,92.8163772 63.514673,90.8558452 M75.9942628,104.282201 C76.0793484,104.236092 76.1779059,104.293818 76.1818056,104.390683 C76.2115856,105.132842 75.8047818,105.864838 75.5008302,106.533426 L75.4686822,106.604815 C75.0994462,107.432993 74.6951125,108.250089 74.2769523,109.054319 C73.4411638,110.661169 72.5725819,112.250862 71.666066,113.818036 C69.8431076,116.970793 67.8173619,119.990763 65.422912,122.735866 C64.8820868,123.356016 63.992588,122.560901 64.3396663,121.893212 C66.0130159,118.674508 67.96378,115.635416 69.9717995,112.622773 C70.9770501,111.114396 71.9815917,109.60459 72.9967689,108.103005 C73.4202765,107.476451 73.8492004,106.852131 74.2896955,106.237284 L74.5554303,105.869571 M175.961818,43.5046173 C167.503426,43.7621494 159.05496,44.3183186 150.636806,45.1899243 C142.80787,46.0004086 135.00765,47.0793267 127.251391,48.4243554 C125.631367,48.7052399 124.013313,48.9976666 122.397332,49.3016354 L121.427992,49.4854018 C119.811721,49.7942258 117.837204,49.9216514 116.398194,50.7921849 C114.881012,51.7098997 114.471006,53.627897 113.966164,55.2095477 C113.372693,57.0696405 112.794288,58.9350948 112.231482,60.8050171 C109.996568,68.2294823 107.955046,75.7182858 106.13386,83.2565941 C105.229826,86.9984045 104.427717,90.7611248 103.582534,94.5165177 C102.831653,97.8531753 102.003133,101.152123 101.137564,104.455361 C101.244276,104.371721 101.375095,104.308098 101.533035,104.274141 C105.831241,103.35221 110.218781,102.951391 114.581232,102.442072 L115.003322,102.392424 C119.516226,101.857343 124.029129,101.326194 128.544691,100.814347 L158.441458,97.4246105 C160.204679,97.2248042 162.093579,97.1976392 163.809471,96.7206419 C166.7268,95.909239 167.410604,92.6208827 167.900075,90.0020885 L167.91485,89.9229393 C169.390553,82.010575 170.565266,74.0294045 171.941525,66.0970239 M101.833316,95.2574809 C100.672607,95.1802749 99.0839884,94.1085055 98.2033527,94.185354 C98.665651,94.9674222 98.8742879,95.8594018 98.6078637,96.8119666 C97.8663784,99.462706 94.5131204,98.0912271 92.8979126,97.2814577 C91.5735911,96.6171644 90.2948258,95.8043568 88.828695,95.4932094 C87.1677537,95.1411357 86.0424969,95.8070375 84.639294,96.5746296 C83.486739,97.2049666 82.2315495,97.6576583 80.9407304,97.891957 C80.2543735,98.0167019 79.6024053,98.029927 78.9516779,97.9813158 C78.9125031,98.013485 78.8683649,98.0433308 78.8180226,98.0699598 L78.4737806,98.252073 C80.0303148,98.3239175 81.6157427,98.8082422 83.0643246,99.2516405 C84.5653759,99.7108733 86.038973,100.264583 87.5047195,100.830784 L88.9466843,101.389563 C92.5035136,102.762799 96.1853178,104.066818 100.034642,104.055391 C100.311348,104.054676 100.538065,104.131882 100.716568,104.257878 M95.3392127,86.9517592 C96.4859181,86.8103936 97.5443472,86.9619461 98.4606125,87.7145259 C99.5656614,88.6220539 100.308033,90.1272135 101.896652,90.2260443 C102.359836,90.2548179 102.467434,90.9114263 102.007086,91.0486814 C100.824573,91.4016487 99.8671834,90.7566569 99.0615293,89.9191862 L98.5198511,89.3485921 C97.7236862,88.5174235 96.9893963,87.874859 95.6384303,87.9245191 C94.191621,87.9777769 92.7423301,88.3148383 91.3049156,88.4862285 C89.6765905,88.6803158 88.0486198,88.8458083 86.415154,88.9886037 C86.3392861,88.9952162 86.326346,88.8747606 86.3974279,88.8570675 L88.2269811,88.3980031 M94.2323203,82.2253578 L94.4214417,82.2062744 C96.0865935,82.0432594 97.6094344,82.0369343 99.0965562,82.9400495 L99.3817843,83.1139513 C100.722576,83.9355796 102.181948,84.9035602 103.020419,86.2338149 C103.15762,86.4516716 102.930902,86.7077739 102.701348,86.6523715 C101.089863,86.2624097 99.9117824,85.0703633 98.5566174,84.178205 C97.0357127,83.1770291 95.464643,83.3421641 93.7304927,83.4976484 C92.0514707,83.6483074 90.373335,83.8552623 88.7107983,84.1374574 C87.1485917,84.4023169 85.5814218,84.8205161 84.0034389,84.9538394 L84.0037934,84.9506225 C83.8235183,84.9502651 83.7207066,84.6773633 83.9045269,84.5847876 C85.5059083,83.7785925 87.3605966,83.3970304 89.1025465,83.0286935 M144.816545,65.6323581 C144.655592,64.8561876 145.602523,64.4962503 146.041423,65.1119325 L146.134764,65.2417793 C147.082972,66.5514871 148.454285,68.1949321 148.384467,69.8606378 C149.217951,69.8790457 150.082101,70.3896419 150.406845,71.1479407 C150.556985,71.4987633 150.607859,71.9144604 150.574711,72.3448124 C151.332328,72.4041467 152.158544,72.9056282 152.621729,73.3938847 C153.389449,74.2032967 153.450072,75.3470894 152.89932,76.2928629 C151.698488,78.3544902 149.075167,79.1044704 146.860583,79.2718926 L146.781667,79.2776255 C144.494284,79.4370416 141.198281,79.3939707 139.62987,77.4153881 C138.116943,75.5068629 139.789051,73.9616705 141.503703,73.1225914 C141.057358,72.7117196 140.826209,72.1224877 141.043532,71.5010866 C141.425176,70.4089434 142.772542,69.9869911 143.53388,69.2277988 C144.461987,68.3020735 145.075306,67.0322542 144.830739,65.7048191 M146.073685,67.3106951 C145.821441,68.4158847 145.201735,69.4267115 144.338648,70.2277237 C144.008587,70.5340457 143.647505,70.8067688 143.263911,71.0410675 L143.217797,71.0680518 C142.877366,71.2607316 142.040579,71.621721 142.104974,72.0540389 C142.17127,72.4983308 143.534589,73.193721 143.90613,73.1940784 C143.990683,73.1940784 144.038544,73.3272231 143.952218,73.3658261 C143.278801,73.6657142 142.690647,73.7942121 142.03212,73.4773458 C141.592156,73.9302162 141.164779,74.3988138 140.741478,74.8633008 C139.992902,75.6852231 140.249045,76.5530757 141.133581,77.1650048 C142.554864,78.148309 144.715329,78.1243608 146.373611,78.0528738 C148.042707,77.9810293 149.826845,77.6057224 151.130604,76.4848056 L151.187389,76.4349355 C151.895962,75.7995777 152.543158,74.7229541 151.458006,74.1110784 C151.03311,73.8714181 150.574002,73.8855368 150.170555,73.769013 C149.792988,74.5151589 149.180549,75.1127906 148.433214,75.2280634 C147.829239,75.3212051 147.413293,74.5558267 147.962706,74.1897489 L148.086135,74.1124373 C148.77603,73.6684963 149.364724,72.9847147 149.349125,72.0942503 C149.338476,71.4761041 148.482271,70.6953621 147.924476,71.2761817 L147.898947,71.3039611 C147.432199,71.8344003 146.610079,71.1659693 146.917071,70.5782161 L146.931808,70.55156 M37.2139061,36.5749497 C37.2118325,36.4421625 37.3970709,36.392479 37.4617714,36.5073944 C38.5451944,38.4291447 39.1115452,40.7848214 39.688709,42.9020888 C40.2931711,45.1199742 40.7811724,47.360378 41.2195403,49.6172239 C42.1074438,54.1872116 42.580555,58.7309278 42.6126801,63.3886659 C42.6170709,64.0536741 41.542511,64.2306045 41.4373949,63.5491543 C40.7395159,59.0184844 40.0708851,54.4831679 39.3676883,49.9537491 C39.0138741,47.6756359 38.6020954,45.4062798 38.2080428,43.1349578 M47.9397054,39.9222409 C47.8599377,39.6572027 48.2424682,39.5685588 48.3403166,39.8108999 C50.5146076,45.191908 51.2509523,51.29011 49.8550171,56.9670745 C49.6414169,57.8354633 48.379846,57.4592628 48.5409768,56.6017757 M75.985577,35.140866 C75.9745868,34.9424895 76.2300208,34.9112139 76.3262738,35.0477542 C77.3565183,36.5112726 77.7838961,38.4712685 79.5914328,39.2276014 C80.4938716,39.6052317 81.5094034,39.5394636 82.3067262,40.1773067 C82.8397518,40.6039056 83.2485171,41.2773135 82.8484377,41.9233776 C82.7193912,42.1321198 82.358132,42.2366696 82.1829976,42.0098769 C81.9273863,41.6794281 81.7921357,41.2837473 81.4448802,41.0360447 C80.9551064,40.6866518 80.2946296,40.665027 79.7330648,40.5007855 C79.0066467,40.288469 78.3663778,39.9169151 77.8420379,39.3648565 M93.1973606,10.7309194 C93.3035403,10.6764105 93.4054658,10.7112604 93.473357,10.8038362 C93.5703191,10.9357297 93.5584425,11.064049 93.4396773,11.1544801 C93.5983264,11.4813546 93.7856919,12.3002386 93.8124584,12.4194432 C93.9209425,12.9026956 94.0363399,13.3830885 94.157055,13.863124 C94.4006125,14.8312372 94.6140355,15.8068566 94.8577702,16.7753273 C95.1162176,17.8018812 95.424121,18.8175333 95.7667677,19.8185306 C95.7888663,19.8833455 95.8131709,19.9495107 95.8386834,20.0166556 L95.8777335,20.1180613 L95.8873056,20.1026915 C95.9569694,19.9917079 96.1019694,20.0692714 96.0847751,20.1865101 C96.0688215,20.2933832 96.0473729,20.3997202 96.0292922,20.5065933 L96.0651967,20.602337 C96.2893305,21.2105423 96.4428258,21.8510947 96.0315966,22.3877748 C95.8777335,22.5884746 95.7084487,22.7073218 95.4975073,22.7427079 C95.1592922,23.8668416 94.7349279,24.9700653 94.2806064,26.0295033 L94.1474487,26.3389058 C93.4791519,27.8848447 92.7664044,29.4104716 91.7023362,30.7265592 C90.5405636,32.1634487 88.9425501,33.1446083 87.9305636,34.7191104 C87.4597567,35.4514951 87.1321773,36.2215892 86.8662848,37.0486943 L86.7662616,37.3626433 C86.577533,37.9476591 86.3597893,38.5146931 85.815478,38.8578525 C85.6417616,38.9672277 85.3815416,38.9323778 85.2415049,38.7831486 C84.1252885,37.5927106 85.2937971,35.3698211 85.9668594,34.2172714 C86.9024462,32.6145319 88.2565477,31.5892291 89.6124218,30.3800258 C91.0739438,29.0766383 92.0061626,27.3330694 92.9078924,25.6154146 C93.4602396,24.5631254 93.9934425,23.488139 94.5548301,22.4312031 C93.9683183,21.9085645 93.7805734,20.8704095 93.5818663,20.1488097 L93.5637604,20.0841049 C93.2352946,18.9285169 92.9743655,17.7429044 92.8095122,16.552109 C92.6508527,15.4071389 92.5846783,14.2786332 92.6266542,13.1272562 L92.6387675,12.8339588 M95.3780862,16.1803407 C95.2485079,16.0012656 95.4629945,15.7984211 95.6407879,15.8357731 C96.7217659,16.0611299 97.7786178,16.7208252 98.7488002,17.2542628 L98.8524138,17.3109082 C99.6268698,17.7319668 100.406112,18.2477458 100.81275,19.0657363 C101.255023,19.9547751 101.218588,20.9787584 101.158271,21.9449068 L101.152561,22.0353079 C101.078642,23.1939341 101.066766,24.3977759 100.823563,25.5354921 C100.699125,26.117754 100.176026,26.2818168 99.7287952,26.1442042 C99.1966559,27.8382683 97.7018087,29.0864321 96.6098771,30.4232397 C95.2176644,32.1274907 95.4796571,34.4284798 95.6251889,36.4810514 C95.6840397,37.3120883 94.6587586,37.5483529 94.1306962,37.1049546 L92.9137493,36.0858671 C92.7110867,35.9157677 92.5086934,35.7453307 92.3068515,35.5742383 C92.1339623,35.4275708 91.9626488,35.2797912 91.7927534,35.1301582 L91.5389542,34.9042261 C91.426393,34.8027145 90.9298833,34.2435071 90.784706,34.2202738 C90.4330662,34.1639182 89.5976413,35.0982564 89.3117256,35.3913044 L89.2755006,35.4278686 C88.7373344,35.9599109 88.2511057,36.5323434 87.7982023,37.1394471 C87.7148894,37.2509668 87.5519859,37.1583911 87.6115458,37.0295357 C88.0173642,36.1530935 88.4892401,35.3151348 89.0495207,34.5308274 L89.1627622,34.3746858 C89.5355434,33.8682001 90.0359529,32.9738973 90.693948,32.8243106 C91.4973974,32.6417916 92.2996571,33.4541225 92.8842251,33.9049792 L92.9212402,33.9332533 C93.1993637,34.143604 93.4742965,34.3577076 93.7486974,34.5732411 C93.7199811,33.0450269 93.9114236,31.5009068 94.6940336,30.1839368 C95.245849,29.2551415 96.0725972,28.5672574 96.7800483,27.7691046 C97.5676216,26.880342 97.9788686,25.7880201 98.6918148,24.8624416 C98.7836363,24.7434157 98.9102011,24.6792561 99.0472243,24.6588823 C99.0746193,23.9147672 99.1833202,23.1632671 99.2673164,22.4272083 L99.2916681,22.2068768 C99.3765764,21.4071156 99.5772366,20.4302452 99.1888564,19.6812397 C98.8219898,18.9737861 97.9802301,18.4744165 97.3568959,17.9944136 L96.8479328,17.5963755 M60.2954248,7.72374557 C59.9699725,7.91354366 59.6657916,8.1496296 59.3897952,8.44469236 C58.5210361,9.37384516 57.8999114,10.530148 57.2954493,11.6424864 C56.9699969,12.2415477 56.6562439,12.8472217 56.3281326,13.4448533 C56.185437,13.7048874 56.0386644,13.9620621 55.8902965,14.2188793 C55.8216962,14.3371903 55.6178454,14.5723827 55.5168062,14.7173226 C55.6290753,14.8759197 55.7451521,15.0320822 55.8635578,15.1865557 C55.908734,15.2454932 59.0251255,18.6681773 60.1114273,20.007721 C61.7748502,22.0595778 63.2617207,24.2268861 64.5328637,26.5466405 C65.7775947,28.8183199 66.7252353,31.2235014 67.8783221,33.5391453 C68.4554859,34.6984864 69.1000092,35.8496064 69.9216167,36.852927 C69.9533466,36.8920662 69.986849,36.9290607 70.0192879,36.9676637 C70.3328526,36.1136002 71.1363354,35.1991567 71.5309622,34.6740805 L71.5678454,34.6244973 C72.4628392,33.4081453 73.4079982,32.2284304 74.3737194,31.0687319 C75.2557732,30.0097706 76.1602364,28.9736851 77.0866109,27.9547016 L77.4350275,27.5733731 C78.080437,26.8704768 78.900272,25.8187237 79.8450764,25.3165273 C79.74386,25.1345928 79.6266901,24.9546241 79.4919713,24.7769789 C78.6067268,23.6107125 77.3553656,22.7643134 76.1205999,22.0005967 L75.3198461,21.5094987 C72.301451,19.6549847 69.3300774,17.7145214 66.7096363,15.3049461 C65.3232732,14.0299748 63.9560544,12.6944181 62.7907366,11.207309 L62.3786138,10.6815009 M65.3317818,6.80567326 C63.9182977,6.92523533 62.3918979,6.89681924 61.0856571,7.36112756 C62.2468979,8.46792565 63.350706,9.66301023 64.4846485,10.788395 C64.5855104,10.0272367 64.7918429,9.27537176 64.9666229,8.53315757" id="ðŸ–-Ink" fill="#000000"></path>
                    </g>
                    <g id="FACE" transform="translate(73.000000, 45.000000)" fill="#000000">
                        <path d="M19.5089235,40.5339536 C20.8428647,40.3472505 22.2772176,39.5874826 23.5513353,40.204916 C24.1469235,40.4934894 24.4296294,41.4804246 24.0269235,42.028998 C23.4119235,42.8668546 22.7769824,43.0054621 21.7786882,43.0860355 C21.0302765,43.1463768 20.2778059,43.1508137 19.5313353,43.0640287 L19.341458,43.0406604 C18.0095142,42.8677585 16.6251374,42.4938841 15.5932176,41.5936532 C15.3821588,41.4094348 15.4903353,41.0115372 15.7612176,40.9540355 C16.9866294,40.6947454 18.2685118,40.707701 19.5089235,40.5339536 Z M17.9389353,37.4449229 C17.9384059,37.4340969 17.9548176,37.4340969 17.9553471,37.4449229 C17.9876412,38.2116123 18.2018765,38.9223973 18.5978765,39.5783427 C18.6033471,39.5877488 18.5890529,39.5960901 18.5835824,39.5868614 C18.1874059,38.9303836 17.9712294,38.2123222 17.9389353,37.4449229 Z M22.1437006,21.6214745 C23.4762969,22.4360901 25.5067642,24.3356148 24.0731974,26.3551461 C22.3857522,28.1358336 19.956212,26.0941538 18.7589767,25.1707815 C17.648844,24.4551628 16.4015478,26.2956805 17.4315295,27.131286 C26.0827769,33.5727614 29.5936363,21.8344852 22.8177092,20.6636863 C22.0716553,20.5346693 21.794569,21.3694643 22.1437006,21.6214745 Z M28.9642353,12.5051549 C29.2771525,12.5051549 29.5764376,12.6119709 29.8489992,12.8096215 C30.1172565,13.0041509 30.3601053,13.2880626 30.5623714,13.6421667 C30.9451334,14.3122621 31.1844118,15.2374859 31.1844118,16.2605133 C31.1844118,17.2835407 30.9451334,18.2087645 30.5623714,18.8788599 C30.3601053,19.2329641 30.1172565,19.5168757 29.8489992,19.7114051 C29.5764376,19.9090557 29.2771525,20.0158717 28.9642353,20.0158717 C28.6513181,20.0158717 28.352033,19.9090557 28.0794714,19.7114051 C27.8112141,19.5168757 27.5683653,19.2329641 27.3660992,18.8788599 C26.9833372,18.2087645 26.7440588,17.2835407 26.7440588,16.2605133 C26.7440588,15.2374859 26.9833372,14.3122621 27.3660992,13.6421667 C27.5683653,13.2880626 27.8112141,13.0041509 28.0794714,12.8096215 C28.352033,12.6119709 28.6513181,12.5051549 28.9642353,12.5051549 Z M14.4729471,13.5486334 L14.590748,13.5261689 C15.2780567,13.4004487 15.6253743,13.4427653 16.2238882,13.9138758 C16.6737118,14.2679372 16.5448882,14.9652341 16.2238882,15.3375754 C15.6647733,15.9864178 15.1184674,15.8714975 14.3525649,15.896252 L14.2987706,15.8982171 C13.6604765,15.9243058 13.0216529,15.9425857 12.3828294,15.9523468 C12.2081235,15.9551863 12.0332412,15.9544765 11.8585353,15.9555413 C11.8770647,17.5813843 10.9449471,18.8192683 9.71741765,19.760415 C8.92400588,20.3689747 7.92041765,19.666886 7.63735882,18.9094253 C7.40318235,18.2825857 7.35288824,17.5118143 7.4743,16.8255208 C7.51927059,16.5725458 7.61302672,16.2979473 7.75638395,16.0637873 L7.79671176,16.0009747 L7.79018235,15.9111727 C7.78859412,15.8889884 7.79018235,15.867514 7.78947647,15.8453297 C6.64991765,15.7756887 5.51693412,15.6607652 4.38435082,15.5163433 L4.00682941,15.4671317 C3.04012353,15.3384628 1.62041765,15.2971113 0.838123529,14.66477 C0.813417647,14.6445379 0.822241176,14.6003468 0.848358824,14.5863263 C1.27840963,14.3533911 1.71473133,14.3665741 2.19569486,14.3451003 L2.26471176,14.3417666 C2.78777059,14.314613 3.30963824,14.2919517 3.83239926,14.2739325 L4.35553529,14.2574662 C5.69353529,14.2189543 7.03277059,14.1536437 8.36953529,14.0821215 C8.60194706,14.0696983 8.83435882,14.0549679 9.06712353,14.0405925 C9.31047647,13.9380123 9.56918235,13.8766061 9.82471176,13.8652478 C10.0364765,13.8556642 10.2401235,13.8851249 10.4315941,13.9463536 C10.9198441,13.9084184 11.4077963,13.8670891 11.8953763,13.822665 L12.3828294,13.7772205 C13.0707118,13.7113775 13.7938882,13.6826266 14.4729471,13.5486334 Z M22.9203471,1.36320546 C24.3908765,0.636447782 26.1788765,0.618700341 27.6933471,1.22016109 L27.7937152,1.26103402 C29.3232678,1.89939314 31.1663414,3.37389121 30.7672882,5.21049556 C30.4021706,6.89153311 27.7803471,6.60668669 27.6474647,5.01775836 C26.8009353,3.83826348 24.9026412,3.5795058 23.7093471,4.32951263 C22.9856412,4.784557 22.4888765,5.55071399 22.1493471,6.32343754 C21.8599353,6.98151263 21.8054059,7.79416792 21.3608765,8.36741024 C21.3464059,8.38604505 21.3174647,8.38941706 21.2964647,8.38444778 C19.9708176,8.07599727 19.9401118,5.95748532 20.1661706,4.92990853 C20.4945824,3.43592901 21.5486412,2.04151263 22.9203471,1.36320546 Z" id="ðŸ–-Ink"></path>
                    </g>
                    <g id="ACCESORIES" transform="translate(45.505282, 50.972603)" fill="#000000">
                        <path d="M65.2825592,17.5087384 C64.085318,19.1194918 61.8658074,19.6325466 59.8186014,19.4553548 C55.4032299,19.0297384 54.0135908,14.0076425 53.8688479,10.1042589 C56.8296771,10.9383959 53.6184817,5.03069726 63.7396419,4.38105342 C67.307538,4.0833 66.3238549,6.2413 67.9002018,7.81803973 C67.8678391,11.127163 67.3178514,14.7228205 65.2825592,17.5087384 M44.2519764,13.7063274 C41.6451806,25.9322041 27.3703954,23.0241219 25.8708655,12.0033274 C27.2555257,11.0245877 26.8908232,8.60783425 28.6110239,7.73220411 C31.3373127,5.98771096 34.7453514,6.0623274 37.8413215,6.1032863 C41.7986366,6.37557397 42.9263514,8.0173137 44.9591542,9.80846438 C44.8613549,11.0048205 44.5793373,12.422711 44.2519764,13.7063274 M70.9373144,2.3562589 C70.7909711,2.33186164 70.64445,2.30888904 70.4979289,2.2873411 C70.3835926,2.2223411 70.2493408,2.1723 70.0932176,2.14220411 C69.7366947,2.05156027 69.3826613,1.99047808 69.0291613,1.95753288 C63.9556894,0.814067123 52.2185292,2.43764247 51.734156,6.77358767 C50.1185116,7.31371096 48.7205151,6.83003973 46.8479254,6.87812192 C45.4225451,0.911478082 20.7801454,1.75362877 19.5949958,5.35088904 C19.5905504,5.34964247 19.5861049,5.34857397 19.5814817,5.34714932 C18.4427423,4.99419041 16.7639729,5.0793137 15.460575,5.02339589 C12.6775627,4.96498493 9.89134965,5.21340959 7.16843944,5.8012589 C2.06953979,6.61277945 -4.88932465,7.56284795 -1.34312218,13.9396151 C-1.34241092,13.9406836 -1.34187746,13.9419301 -1.34098838,13.9429986 L-1.34045493,13.9424644 C-0.729298239,14.5698479 0.307907746,14.0646288 0.346494014,13.2153548 C-0.84576831,10.1943685 1.84709085,9.83161507 3.91901338,8.96346438 C9.0744588,7.10856027 14.3232581,6.85140959 19.6552757,7.42519041 C20.0564306,7.89817671 20.6650979,8.31061507 21.3084394,8.52645068 C24.8734905,9.11910822 22.9946771,11.7675466 25.2481507,12.1527384 C24.834193,21.3848753 36.0261665,26.4242452 42.5109711,20.3553822 C45.100163,17.8202041 45.7173655,14.0646288 46.3176754,10.6794644 C46.6350785,10.6080534 46.8369007,10.4342452 46.9547933,10.204163 C47.7181613,9.44090274 48.1977335,8.73605342 49.7072211,8.52645068 C51.2167088,8.31702603 52.3787423,8.73747808 52.5359324,8.86623151 C52.5755856,8.94619041 52.6180838,9.0263274 52.6675169,9.10646438 C52.7365099,9.22595753 52.8303972,9.32123151 52.9370873,9.39620411 C51.4464482,18.5895192 58.5728162,24.4035466 65.7671102,19.6353959 C68.8931313,16.6904507 69.5537211,12.1817658 69.6842387,8.15746438 C70.1079764,7.90138219 70.3763021,7.40506712 70.2296032,6.78106712 C70.0274254,5.92093014 70.5014852,5.17619041 71.2564958,4.80221781 C72.2375116,4.31658767 72.0639623,2.54306712 70.9373144,2.3562589" id="ðŸ–-Ink"></path>
                    </g>
                </g>
            </g>
        </g>
    </g>
</svg>