<?xml version="1.0" encoding="UTF-8"?>
<svg width="610px" height="370px" viewBox="0 0 610 370" version="1.1" xmlns="http://www.w3.org/2000/svg" xmlns:xlink="http://www.w3.org/1999/xlink">
    <title>Group</title>
    <g id="Onboarding" stroke="none" stroke-width="1" fill="none" fill-rule="evenodd">
        <g id="Checking--Success" transform="translate(-420.000000, -220.000000)">
            <g id="Group" transform="translate(420.000000, 220.000000)">
                <path d="M115.690112,25.1746307 C251.582491,-15.5859041 348.749158,-6.84955005 407.190112,51.3836929 C465.631067,109.616936 515.702273,150.902637 557.40373,175.240795 C632.594651,240.927979 626.523446,292.39971 539.190112,329.65599 C408.190112,385.54041 203.015196,352.837142 128.458045,311.045422 C53.9008944,269.253702 -1.24973397,169.775787 11.9614715,110.57974 C20.7689417,71.1157086 55.3451553,42.6473389 115.690112,25.1746307 Z" id="Blob-Shadow" fill-opacity="0.1" fill="#000000"></path>
                <path d="M105.690112,35.1746307 C241.582491,-5.58590411 338.749158,3.15044995 397.190112,61.3836929 C455.631067,119.616936 505.702273,160.902637 547.40373,185.240795 C622.594651,250.927979 616.523446,302.39971 529.190112,339.65599 C398.190112,395.54041 193.015196,362.837142 118.458045,321.045422 C43.9008944,279.253702 -11.249734,179.775787 1.96147145,120.57974 C10.7689417,81.1157086 45.3451553,52.6473389 105.690112,35.1746307 Z" id="Blob" fill="#FFFFFF"></path>
                <g id="a-person/bust" transform="translate(233.000000, 57.000000)">
                    <g id="BODY" transform="translate(0.000000, 93.000000)">
                        <path d="M72.9918479,0.0463072469 C78.1558779,0.303235671 86.1964503,2.53526152 86.5984378,3.96178883 C87.2261349,6.18928822 85.8772731,14.5402988 88.1333515,19.0384532 C89.0950879,20.9559572 92.7470447,20.7840493 94.1621034,21.4085345 C98.8966612,23.4979611 112.913032,27.4606421 115.802967,32.45038 C116.960759,34.4494129 124.07594,59.2535588 127.856681,71.9079086 C128.282925,73.3345728 128.764346,74.65404 129.28773,75.8760958 L129.480077,74.9265208 C131.021593,67.2782189 131.792351,62.648116 131.792351,61.0362121 C131.792351,58.5176123 129.799632,47.8911457 131.792351,45.1887913 C133.765144,42.5134605 138.519462,40.3259775 140.658481,40.2824953 L140.722494,40.2818357 C142.126961,40.2818357 143.345605,39.839221 144.378426,38.9539918 L145.892724,38.1861894 C153.596293,34.2888633 158.097052,32.1510409 159.395002,31.772722 C161.466198,31.1690217 164.991155,32.4552044 163.228676,34.386079 C162.053691,35.6733287 159.101093,37.950488 154.370884,41.217557 L152.587337,42.6463139 L152.802809,42.759797 C155.107867,43.9832386 156.46321,45.0130007 156.868837,45.8490833 C157.286944,46.7108915 157.086321,47.7303112 156.266967,48.9073423 L156.391256,49.0295101 C157.42739,50.0547002 157.945457,50.7423678 157.945457,51.0925131 L157.945457,52.8029769 C158.976244,54.3249791 159.233941,55.5942732 158.718547,56.6108594 C158.203153,57.6274455 157.38596,58.5083453 156.266967,59.2535588 C155.442424,61.4403434 154.460494,62.9967219 153.32118,63.9226944 C152.181865,64.8486668 150.212819,65.619498 147.41404,66.235188 L144.881389,72.3405839 L142.829195,80.9180354 L141.79512,90.4889403 L142.095355,90.7080857 C143.487008,91.7299983 144.378426,92.4875414 144.378426,93.2704069 C144.378426,94.4899087 138.763358,123.170305 130.027279,124.453963 C128.13791,124.731583 118.339468,123.369928 115.122256,120.73131 L115.169747,121.016299 C115.926728,125.625902 115.766591,128.019733 114.689338,128.197791 C101.45015,130.386088 63.8499609,131.062214 1.88876922,130.226168 C1.52012667,97.0702095 3.18704857,74.9888461 6.88953495,63.9820777 C16.3588483,35.8316596 26.7992123,26.2168608 30.4517563,25.3933805 C33.6512068,24.6720518 44.7457656,20.2200519 47.8471369,19.0384532 C49.8716045,18.2671466 50.3053237,15.9545999 52.6123039,15.9545999 L52.798798,15.9555619 C55.029868,15.9781516 57.008336,16.3804282 58.1199043,15.2235831 C61.036982,12.187686 60.2215287,7.98543531 61.4316972,3.96178883 C62.0984884,1.74479825 66.6549433,-0.268975756 72.9918479,0.0463072469 Z" id="ðŸŽ¨-Background" fill="#FFFFFF"></path>
                        <polygon id="Path-3" fill="#DDDDDD" points="54.4657696 29.8885907 54.0193545 19.5 61.4316972 3.96178883 86.1153169 10.3561644 86.1153169 19.5 94.8870252 28.0562841 78.9137207 41.4684185"></polygon>
                        <polygon id="Path-4" fill="#DDDDDD" points="128.288106 79.3929948 131.321188 68.7428161 131.321188 53.3548569 131.321188 45.7406713 135.502334 41.4684185 143.204159 41.4684185 158.120212 32.7590724 162.325462 32.7590724 162.325462 34.9379411 152.728639 41.4684185 152.728639 44.0926947 156.772635 45.7406713 156.266967 48.9073423 158.718547 56.6108594 156.772635 58.5339776 154.967852 62.970581 148.408163 66.3166814 145.306784 69.7731882 141.602855 91.1649443 137.0205 91.1649443"></polygon>
                        <path d="M58.8045666,7.99567149 C59.107684,7.39017626 59.9122744,7.46863329 60.443173,7.74332224 C62.0355141,8.91696071 60.3694322,11.191857 59.928937,12.6240999 C58.7958808,15.4020862 56.8279224,18.1169853 54.1112109,19.4153686 C54.3363331,22.176913 54.5914126,24.9323809 54.6855385,27.7025037 C58.1589798,32.0462349 64.0151718,33.6316387 69.2137231,34.8508502 C77.3785703,37.127355 86.593338,32.4631831 89.3490471,24.3263495 C86.2127573,22.5297015 85.1977573,17.8254969 86.1335214,14.5435269 C86.2148845,14.3129812 86.5694077,14.2111121 86.6954407,14.4684655 C87.5542732,16.2493864 87.4397622,18.4220562 88.4161192,20.181531 C97.7875862,21.0860207 109.882146,24.6510794 116.021602,32.2919716 C118.742391,36.1147411 119.820141,41.0866647 121.160239,45.5170739 C124.019469,54.650973 126.297635,63.969666 129.101737,73.1128584 L129.432385,71.382845 C130.338266,66.6172354 131.161449,61.7869832 130.549609,56.9405241 L130.538661,56.7086256 C130.338771,52.8523078 129.141713,45.6860872 132.108094,43.0825828 C134.791303,41.0153563 138.678295,39.3541763 142.04538,40.3070985 C148.037354,37.6188284 153.209139,33.0919116 159.590734,31.3286838 C161.554793,30.9212076 164.380343,31.4037452 163.916095,34.0900494 C162.62953,38.7883563 157.241663,40.6119907 153.558521,43.0346865 C155.919469,43.6796783 158.797666,46.5743673 156.953081,49.0985746 C156.937128,49.143254 156.922947,49.1772104 156.908766,49.204018 C158.404677,49.8724218 158.6142,51.5523673 158.247091,52.9928311 C158.209866,53.3734996 158.1106,53.0464464 158.332354,53.3913714 C160.020239,54.9962554 159.274145,59.470093 156.731504,59.6212881 C156.897953,61.7410576 155.547397,63.7998843 153.836822,64.9561872 C151.993124,66.2018488 149.327287,66.2554641 147.800887,67.96043 C144.217189,74.331355 142.980966,81.8525064 142.590282,89.1481162 C144.952647,90.0395596 147.072164,92.70549 144.925881,94.9671613 C144.883515,94.9721653 144.84115,94.9771694 144.798252,94.9807438 C143.554053,98.3283031 143.073674,101.896757 142.415679,105.392831 C141.403338,111.358246 138.765153,116.835404 135.396296,121.804826 C131.500441,128.382884 121.024457,127.340067 115.746847,123.094809 C115.767941,124.208577 115.949988,125.315733 115.596174,126.39197 C115.073961,127.553456 113.800691,127.051617 113.674658,125.907824 C110.884738,127.489654 110.227629,122.26824 113.328998,123.096418 C113.090404,119.321723 112.95214,115.541667 112.839933,111.760539 C109.328735,112.906298 109.177354,107.03328 112.768851,108.207633 L112.764593,106.584003 C112.738186,94.134201 112.874625,81.6418133 114.504243,69.2900889 C114.654915,68.366119 114.910172,67.472531 115.059072,66.5539225 C115.075025,66.4590235 115.222152,66.4860098 115.222684,66.5769771 C115.474927,83.869692 114.353925,101.199401 115.523497,118.498193 C116.497195,118.797366 116.885398,119.923823 117.606321,120.580074 C119.206816,122.069864 121.386425,122.795279 123.517818,123.047985 C129.486217,123.891711 132.063069,122.053958 134.72093,116.823609 C133.522164,117.631296 131.902268,116.204979 132.632967,114.926783 L132.655832,114.888097 C133.414689,113.533596 135.557605,114.345332 135.286217,115.862108 C137.958436,111.547865 139.35703,106.682993 140.389933,101.746992 L140.529671,101.157292 C141.031768,99.0617673 141.683381,96.6604483 142.889145,94.7644955 C135.535979,92.875093 128.343057,87.1184205 127.192452,79.2203536 C125.325532,85.1339402 122.796364,90.914561 120.385783,96.6660508 C119.641284,98.6659007 119.331076,100.815695 118.263961,102.670962 C118.015795,103.099884 117.386517,102.989079 117.246125,102.536745 C116.286431,98.210707 119.194585,94.095913 120.704499,90.2016565 C121.937531,88.0007492 125.476737,77.9502076 127.671058,77.925902 C125.205349,67.0298475 121.916614,56.2152881 118.784579,45.4548802 C115.756064,30.9254969 109.584347,28.1237411 96.5098845,23.5491067 C98.868173,35.665445 109.635043,47.3937874 103.905771,60.1022172 L103.766442,60.4317915 C103.180442,61.8330762 102.693659,63.2449499 103.102776,64.7828311 C103.499842,66.2751231 104.403876,67.5708256 105.127281,68.9129948 C109.170263,76.4943741 106.387256,85.3484014 104.823986,93.2436087 C102.849292,102.502431 100.898528,111.769832 98.85736,121.014536 C98.4549762,122.858723 98.1942243,124.75867 97.5863943,126.545846 C97.2726412,127.468029 95.7074211,127.380457 95.8086375,126.304577 C96.0016754,124.217156 96.5830935,122.181562 97.0088759,120.131671 C99.5504529,106.860103 102.989506,93.7449116 105.176205,80.4152595 C106.582776,70.5479034 101.0453,69.0316633 101.251987,62.6560917 C102.00464,59.3953891 103.996883,56.4855091 103.88255,53.0107029 C104.325349,42.3741462 96.6407035,33.5989334 95.6919994,23.2540439 L94.0168459,22.6515883 C93.1796209,22.3494255 92.3433148,22.0448049 91.5096889,21.7329784 C95.8978001,52.6734628 94.5653246,84.289857 92.3717121,115.383145 C91.9235947,116.81789 92.3499089,126.840194 90.4711131,125.950717 C90.3762781,126.510817 90.0811375,127.061446 89.4394505,127.058587 C83.6128612,127.112381 77.7844994,127.205314 71.9579101,127.275371 C69.1552268,127.01498 65.3029774,128.093719 62.9191632,126.463457 C60.1668221,125.67156 59.8504101,118.156485 59.1145972,115.477865 L58.8277044,113.529839 C54.1508417,81.6985368 49.9656006,49.210652 53.32736,17.0641599 C48.6501351,17.2453795 47.6847683,22.3347206 47.3378674,26.0402513 C46.4705263,34.2189048 41.2292549,41.2621653 40.9778979,49.5346456 C40.9566265,51.5416442 41.3324211,53.485913 42.1281485,55.3286701 C44.2393344,59.8434341 47.8905691,65.0628816 45.1616265,70.1052199 C41.9342243,74.0305733 42.2135886,75.0637397 43.3978735,79.9146715 C46.72986,95.9513591 52.2632586,111.368433 57.5270422,126.830365 C56.3833502,132.840101 49.5041815,110.529711 48.8569994,108.847442 C45.8118221,110.391205 44.1483991,105.268086 47.641162,104.903145 C45.397739,97.33231 43.333173,89.7048216 41.6142671,81.9933359 L41.5687374,81.7759736 C40.8094417,78.2130651 39.3159568,74.0409568 41.8379713,70.8804969 C48.3409908,64.2502527 37.5416815,56.83937 38.903937,48.8072649 C37.727629,49.6865555 35.9470361,48.7615132 35.9738026,47.284591 C35.9204468,45.6218025 38.1358625,44.7700344 39.2019138,46.0387506 C40.2979905,39.5221241 44.1113495,33.8331648 45.2653156,27.3356929 L45.3174395,27.0305255 C45.7084786,24.7341831 45.8187353,22.3179211 46.9374334,20.2249593 C45.4145789,21.2222035 43.7928123,22.0282199 42.1247806,22.739516 C45.1072072,25.2510344 39.3318466,27.5432663 39.8097439,23.6634859 C23.4541693,28.4341735 19.7573784,35.0871149 13.7522867,50.3656824 C14.8739982,49.2669266 16.7955141,50.6888038 16.1240471,52.0901285 C15.5883625,53.5663359 13.2515226,53.1347329 13.2524089,51.5613031 L12.9787097,52.2192948 C9.33728934,60.997805 6.02298857,69.9894414 4.35742115,79.3840589 C7.62470721,78.9190357 6.79281846,84.1835201 3.83254951,82.6992704 C2.64454218,91.0543181 2.62575244,99.5276769 2.77092971,107.950101 C5.52681601,106.493195 5.60977445,111.44403 2.79751895,110.03234 C2.90033068,116.934414 3.05100306,123.836487 3.16445049,130.738561 C3.1874945,132.20762 0.939817237,132.200471 0.904364914,130.738561 C0.641840465,120.13328 0.163411369,109.508697 0.39083802,98.9001995 C0.176883252,80.4876401 5.42701773,62.7409825 13.2495727,46.2471353 C20.171107,27.2557097 29.7318894,25.0959075 47.3220911,19.5742486 C48.9458075,17.1442254 52.4148172,14.8459171 55.2451534,16.3718079 C56.8286314,13.7947001 57.6328674,10.7414887 58.8045666,7.99567149 Z M28.6670966,74.185164 C28.7326834,73.9510439 29.0641626,74.009842 29.0747983,74.2405664 C29.2219254,77.2197888 29.0907518,80.2184914 28.8886736,83.2104027 C28.7661858,85.0368966 28.6156907,86.8614246 28.4880623,88.6755869 C28.1494927,93.4616442 27.8765098,98.253063 27.6691137,103.048056 C27.741791,103.017674 27.8162408,102.990688 27.8942359,102.96942 C28.2523044,102.870947 28.6105501,102.870947 28.9684413,102.96942 C29.2877486,103.059327 29.566908,103.216489 29.8073609,103.443376 L29.8582946,103.493063 C30.055055,103.676963 30.1950917,103.895178 30.276632,104.147169 C30.3928066,104.371364 30.4515861,104.611091 30.4514373,104.867334 L30.4501711,104.93174 C30.4485758,105.299719 30.3581724,105.64107 30.1738203,105.959366 C29.9947861,106.264973 29.7537103,106.508029 29.4505929,106.690142 C29.1350672,106.8744 28.7963203,106.965546 28.4313386,106.967154 C28.3923411,106.970908 28.3531663,106.974482 28.314346,106.976269 C28.0429584,106.986992 27.7896516,106.929802 27.555489,106.806487 L27.5202139,106.795764 L27.5202139,106.795764 C27.4315831,109.228111 27.3589059,111.662244 27.3057274,114.096378 C27.2578667,116.217756 27.1940526,118.339134 27.1515098,120.460333 L27.1317484,121.521578 L27.1317484,121.521578 L27.0931745,123.866794 C27.0806363,124.831316 27.0867684,125.754821 26.761552,126.664357 L26.7225367,126.769243 C26.4885513,127.376704 26.3061491,128.222217 25.6800611,128.559993 C25.1803606,128.829678 24.5067665,128.729775 24.2196027,128.204167 C23.9785269,127.7647 24.1875183,127.131861 24.5439914,126.83519 C24.536901,126.81571 24.5262653,126.797838 24.5174022,126.778179 C24.4624511,126.617154 24.3789609,126.465423 24.3295049,126.30279 C24.1733374,125.788083 24.2160575,125.23942 24.2142848,124.704876 C24.2142848,123.761426 24.2460147,122.817797 24.2710086,121.875777 C24.3259597,119.870565 24.3897738,117.86732 24.4675917,115.863895 C24.7310689,109.14322 25.2271839,102.422545 25.7953978,95.7207448 L25.9882161,93.4587461 C26.2451278,90.4508166 26.5110045,87.439576 26.88739,84.4471285 C26.9049389,84.3041544 26.9228423,84.1611804 26.9423411,84.0180276 C26.7402628,83.9163372 26.5523655,83.7751503 26.4032885,83.6178789 C25.8061195,82.9856015 25.44387,82.0405046 25.1042194,81.226171 L25.026143,81.0407711 C24.6574389,80.1722035 24.3170966,79.292913 24.1416076,78.3600071 L24.1248148,78.2741575 C24.0447612,77.8769225 23.8867687,77.1728116 24.3046883,76.9803072 C24.52272,76.8802254 24.6608068,76.9517124 24.7318888,77.1715351 C24.7409291,77.2001299 24.7334841,77.232299 24.7177078,77.2573195 C24.8896516,77.52343 25.1590892,77.7720262 25.3292604,78.0186565 L25.9116895,78.8583115 L25.9116895,78.8583115 L26.1996149,79.280224 C26.5647738,79.8219171 26.9547494,80.3401981 27.3571333,80.8513304 C27.6742543,78.6066374 28.0626345,76.3708802 28.6670966,74.185164 Z M52.5513441,124.206486 C53.2798894,123.630837 54.4657696,123.943593 54.4657696,125.005354 C54.4657696,126.072119 53.2781167,126.379692 52.5513441,125.804043 L52.5151606,125.777079 L52.5151606,125.777079 L52.4804395,125.748641 C52.0846586,125.436908 52.0713939,124.625349 52.4505032,124.286968 L52.4804395,124.261889 C52.5033062,124.242051 52.5265275,124.224358 52.5513441,124.206486 Z M20.813801,122.131865 L20.8763955,122.133166 C21.2061021,122.133166 21.5127647,122.217163 21.7981559,122.385336 C21.922239,122.480056 22.0445495,122.576385 22.1686326,122.673071 C22.3955275,122.901651 22.5515177,123.173481 22.6383759,123.486237 L22.70414,123.975744 L22.70414,123.975744 C22.7128258,124.229523 22.6614199,124.46543 22.5461999,124.685432 C22.47175,124.914011 22.3458943,125.112388 22.1686326,125.278774 C22.0020067,125.459279 21.8070189,125.586168 21.5803013,125.659264 C21.3802764,125.76575 21.166995,125.819839 20.9389552,125.819839 L20.8763955,125.818501 C20.5450935,125.818501 20.2382537,125.734504 19.9528625,125.566331 C19.8287793,125.471789 19.7064688,125.375103 19.5823857,125.278774 C19.3572634,125.050016 19.1995006,124.778186 19.1128197,124.46543 C19.091371,124.302797 19.0702769,124.138377 19.0470556,123.975744 C19.0383698,123.721965 19.091371,123.486237 19.2048185,123.266235 C19.2792683,123.037477 19.4051241,122.839279 19.5823857,122.673071 C19.7491889,122.492567 19.9439994,122.365498 20.1708943,122.292224 C20.3707567,122.185902 20.5855141,122.13199 20.813801,122.131865 L20.813801,122.131865 Z M103.792252,118.733921 L104.256855,118.796651 L104.256855,118.796651 C104.701782,118.89852 105.059673,119.229148 105.298976,119.606242 C105.426782,119.808193 105.495737,120.026228 105.506372,120.260348 C105.557955,120.492681 105.547142,120.726801 105.474465,120.960921 C105.421287,121.189501 105.31688,121.389665 105.162485,121.559625 C105.109483,121.643622 105.047265,121.720471 104.976537,121.788384 C104.831006,122.033227 104.611378,122.193894 104.384306,122.358493 C104.193041,122.481808 103.985468,122.547933 103.762118,122.558656 C103.614991,122.597974 103.466091,122.597974 103.317191,122.558656 C103.095614,122.547933 102.888218,122.481808 102.696776,122.358493 C102.583506,122.270921 102.470058,122.181562 102.358206,122.093991 C102.259117,121.977824 102.166763,121.858083 102.079905,121.732981 C102.021586,121.595369 101.964685,121.459365 101.908139,121.323539 C101.803377,120.996486 101.854783,120.707142 101.911684,120.380089 C101.92037,120.324686 101.934728,120.274646 101.954227,120.220852 L101.992495,120.117044 C102.094528,119.845522 102.149037,119.753383 102.329844,119.516883 L102.398797,119.423927 C102.433266,119.377612 102.46864,119.332339 102.509056,119.291699 C102.622326,119.173745 102.783811,119.075272 102.911262,118.973581 C103.184245,118.814523 103.478499,118.735887 103.792252,118.733921 Z M43.6096072,117.589594 L43.6686938,117.590289 C43.9257231,117.592077 44.1669762,117.656415 44.3901485,117.786879 L44.6808576,118.01385 L44.6808576,118.01385 C44.8581192,118.194355 44.9804297,118.405063 45.0495617,118.650263 C45.0655153,118.778583 45.0834187,118.907438 45.1009676,119.034328 C45.1080581,119.232704 45.0674652,119.418392 44.9768845,119.591926 C44.920338,119.770644 44.8208943,119.924162 44.6808576,120.056592 C44.5516339,120.195992 44.397239,120.296074 44.2199774,120.355051 C44.0652763,120.436286 43.8988555,120.479119 43.7220467,120.479522 L43.6686938,120.478366 C43.4098918,120.478366 43.168816,120.41224 42.9454664,120.281598 L42.6547573,120.056592 L42.6547573,120.056592 C42.4774957,119.876087 42.3551852,119.663414 42.2860532,119.418392 C42.2700996,119.289894 42.2523735,119.163004 42.2346473,119.034328 C42.2275568,118.835951 42.268327,118.650263 42.3587304,118.478516 C42.4172268,118.299798 42.5147207,118.144314 42.6547573,118.01385 C42.7841583,117.872663 42.9383759,117.772581 43.1156375,117.715392 C43.2703869,117.63336 43.4337512,117.591862 43.6096072,117.589594 L43.6096072,117.589594 Z M31.9110018,116.998716 C32.2813013,116.995142 32.6572732,117.100585 32.9603906,117.316834 C33.2546449,117.527542 33.4778172,117.754692 33.6215764,118.096042 C33.660574,118.189154 33.6993943,118.280121 33.7332512,118.373055 C33.8856962,118.782318 33.9140581,119.193368 33.7031167,119.593696 C33.4992659,119.981513 33.0596571,120.151295 32.665959,120.267282 C32.3328845,120.367543 31.9553172,120.383628 31.623838,120.263887 C31.4589847,120.20491 31.2976767,120.142359 31.1487769,120.051213 C30.8704762,119.877857 30.7198038,119.672153 30.5336791,119.418374 C30.3883246,119.168348 30.3156473,118.896518 30.3156473,118.607175 C30.3156473,118.315686 30.3883246,118.046001 30.5336791,117.79401 C30.818893,117.302536 31.3473099,117.002291 31.9110018,116.998716 Z M13.1211999,117.343659 C13.5893478,117.343659 14.0004175,117.561695 14.2824407,117.929674 C14.5676546,118.303373 14.672239,118.768038 14.5463833,119.231096 C14.413437,119.720603 14.0112304,120.149525 13.512948,120.272841 C13.1444211,120.363986 12.8428991,120.360412 12.4759676,120.297682 C12.1657598,120.244246 11.9284065,120.058201 11.6906987,119.865186 C11.4194884,119.641789 11.3361754,119.234491 11.3804908,118.905651 C11.4230336,118.576811 11.5738833,118.362349 11.8025507,118.167368 L11.8041461,118.162186 L11.7190605,118.228311 C11.7511449,118.199716 11.7828747,118.169334 11.814959,118.138952 C11.8254175,118.121081 11.8342806,118.101422 11.8431436,118.081763 C11.9743172,117.856579 12.1515789,117.679648 12.3731559,117.547397 C12.6053686,117.411572 12.8535348,117.343659 13.1211999,117.343659 Z M122.241623,111.930357 C122.498653,111.860657 122.757455,111.860657 123.014484,111.930357 C123.204331,111.975036 123.369007,112.062608 123.509221,112.192893 C123.651208,112.286183 123.767206,112.405531 123.85489,112.553672 L123.883066,112.604122 C124.085322,112.950834 124.117051,113.347408 124.030193,113.733438 C123.922241,114.210614 123.486177,114.645077 123.014484,114.75749 L122.998619,114.760484 L122.998619,114.760484 L122.982754,114.764818 C122.791312,114.825582 122.597919,114.834518 122.406654,114.789838 C122.213262,114.780902 122.034227,114.723713 121.869551,114.616482 C121.660383,114.480657 121.484894,114.305514 121.350175,114.094627 C121.243641,113.926632 121.187094,113.746127 121.178054,113.551147 C121.144551,113.422649 121.144551,113.293972 121.178054,113.165295 C121.187094,112.970314 121.243641,112.78981 121.350175,112.621994 L121.576892,112.326931 L121.576892,112.326931 L121.600114,112.307451 L121.600114,112.307451 C121.780921,112.12498 121.99523,111.999878 122.241623,111.930357 Z M104.395013,102.472568 C106.718913,102.472568 106.715367,106.107684 104.395013,106.107684 C102.07129,106.107684 102.074658,102.472568 104.395013,102.472568 Z M19.3128417,102.013263 C19.55764,101.957861 19.802261,101.968584 20.0451094,102.045433 C20.1922366,102.107984 20.3375911,102.170535 20.4829456,102.23112 L20.855195,102.521 L20.855195,102.521 C20.924327,102.579798 20.9580067,102.644137 21.0218209,102.728134 L21.1015971,102.833337 C21.2169051,102.988967 21.2196449,103.021874 21.3462097,103.353645 C21.4312952,103.671763 21.4312952,103.989701 21.3462097,104.308176 C21.3052622,104.461695 21.2433979,104.606456 21.1636302,104.740494 C21.0906997,104.869171 21.0034436,104.982091 20.9052107,105.086008 L20.855195,105.137247 C20.6885691,105.317752 20.4918087,105.444641 20.2649138,105.519703 C20.1213319,105.603879 19.9671143,105.644805 19.802261,105.644805 C19.55764,105.700208 19.3128417,105.689484 19.0701705,105.612457 C18.9230434,105.550085 18.7776889,105.487534 18.6321571,105.42677 L18.260085,105.137247 L17.9729211,104.76194 L17.8813434,104.541827 L17.8813434,104.541827 L17.7885691,104.320508 L17.7229823,103.829034 C17.7141192,103.573468 17.7655251,103.337561 17.8805678,103.115951 C17.9248833,102.960288 18.0030556,102.822854 18.1163258,102.708296 C18.1980434,102.569075 18.3077683,102.45827 18.4462097,102.37606 C18.5594798,102.261502 18.6961485,102.183045 18.8503661,102.138366 C18.993948,102.054368 19.1481656,102.013263 19.3128417,102.013263 Z M134.2528,99.4164074 C134.446192,99.4094374 134.626999,99.4503637 134.793625,99.5397225 C134.852121,99.5595602 134.909022,99.5844019 134.963796,99.6131754 C135.178282,99.7398862 135.348454,99.9114551 135.474309,100.126095 C135.577121,100.290515 135.633845,100.467446 135.642708,100.658495 C135.681222,100.830876 135.677691,101.004439 135.631317,101.177035 L135.616119,101.228783 C135.577121,101.369969 135.518625,101.500255 135.440807,101.619995 C135.433362,101.634293 135.424676,101.64859 135.41404,101.6611 C135.295275,101.85072 135.137512,102.006025 134.942524,102.122371 C134.726265,102.247294 134.494053,102.311632 134.242341,102.313598 C133.740691,102.313598 133.308172,102.04016 133.044053,101.619995 C133.006828,101.561019 132.985556,101.485957 132.959144,101.425193 C132.935923,101.368004 132.898698,101.294908 132.879022,101.228783 C132.81184,100.975004 132.81184,100.721225 132.879022,100.467446 C132.923337,100.281401 133.006828,100.118946 133.132683,99.981155 C133.233545,99.8258494 133.366491,99.7025342 133.531522,99.6131754 C133.736055,99.4927473 133.955842,99.4286627 134.189072,99.4179699 L134.2528,99.4164074 Z M36.135022,97.6382924 C36.3804612,97.5706546 36.624541,97.5654517 36.8683768,97.6226837 L36.9293313,97.6382924 C37.1241418,97.6847589 37.2927176,97.7741177 37.4378949,97.9063688 C37.5992029,98.0135993 37.7287812,98.1547862 37.8225526,98.3297508 C37.9574487,98.5640495 38.0248081,98.8178285 38.0264034,99.0893005 C38.0248081,99.36113 37.9574487,99.614909 37.8225526,99.8488503 C37.6896064,100.076 37.5105721,100.254718 37.2856271,100.388756 L37.0906394,100.483477 L37.0906394,100.483477 C36.9275587,100.587133 36.7538423,100.642535 36.5657677,100.651292 C36.4400892,100.685427 36.3140562,100.685427 36.1901504,100.651292 C36.0623447,100.651292 35.9435795,100.619302 35.8338545,100.554964 C35.7133166,100.521007 35.6103276,100.460065 35.5216968,100.370706 C35.3674792,100.270624 35.2471186,100.138552 35.1584878,99.9723442 L35.0147286,99.6308149 L35.0147286,99.6308149 L34.9652726,99.2519336 L34.9652726,99.2519336 L35.0147286,98.8750181 L35.0147286,98.8750181 L35.092901,98.6891518 L35.092901,98.6891518 C35.1636284,98.433407 35.291434,98.2119759 35.4773814,98.0243224 C35.6635061,97.8382774 35.8833105,97.7096007 36.135022,97.6382924 Z M124.042743,94.6233622 C124.301368,94.5411521 124.558575,94.5302503 124.815604,94.5876187 C124.989143,94.5876187 125.152224,94.6322981 125.303073,94.7216569 C125.467927,94.7679447 125.609559,94.8501548 125.730274,94.9718615 C125.941038,95.1092954 126.106068,95.2915873 126.228379,95.5185587 L126.423189,95.9851903 L126.423189,95.9851903 C126.540182,96.2870443 126.497639,96.7322299 126.426912,97.0360498 C126.368416,97.2860757 126.254968,97.5042899 126.08657,97.6899775 C126.001484,97.8347387 125.888037,97.9492967 125.744278,98.0350812 C125.580163,98.1856359 125.390876,98.2927907 125.176143,98.3564081 L125.116949,98.3726787 L125.095677,98.3780402 C125.091955,98.3798274 125.088587,98.3798274 125.085042,98.3798274 C125.083269,98.3817933 125.079546,98.3817933 125.077774,98.3817933 C124.992866,98.4030607 124.906007,98.4155709 124.815604,98.4191453 C124.558575,98.4763349 124.301368,98.4657906 124.042743,98.3835805 C123.890298,98.3190634 123.736081,98.2529379 123.581863,98.1869911 C123.450689,98.0869093 123.321111,97.9848615 123.190115,97.8829925 C123.089076,97.7509202 122.988037,97.6184905 122.886998,97.4882053 C122.745011,97.2648083 122.668966,97.0217524 122.65833,96.7624332 C122.612065,96.5892558 122.612065,96.4176869 122.65833,96.2441521 C122.65833,96.0674004 122.702645,95.9047674 122.789326,95.7526787 C122.867499,95.5098015 123.000445,95.3007019 123.190115,95.1237715 C123.321111,95.0217237 123.450689,94.9198547 123.581863,94.8197729 C123.736081,94.7536473 123.890298,94.6877005 124.042743,94.6233622 Z M10.9852861,88.2252007 C11.2527738,88.1519265 11.5206161,88.1519265 11.7882812,88.2252007 L12.147945,88.3771106 L12.147945,88.3771106 C12.3252066,88.4736181 12.4654205,88.6039033 12.5717775,88.7702894 C12.7064963,88.9166591 12.7967225,89.0901939 12.8428105,89.2885704 C12.9475721,89.5602211 12.9351638,89.9909306 12.8518509,90.2679428 C12.7579022,90.5824858 12.6125477,90.8326905 12.3874254,91.0685977 C12.0134034,91.458202 11.4388985,91.5707941 10.930335,91.4528405 C10.790121,91.4206714 10.6571748,91.3581202 10.5366369,91.2812716 C10.1521565,91.04179 9.89335452,90.6235909 9.89512714,90.1607123 C9.89512714,90.1106714 9.89867237,90.0606304 9.90576284,90.0107682 C9.88094621,89.9087205 9.87190587,89.8032771 9.87562836,89.6922935 L9.92880685,89.2885704 L9.92880685,89.2885704 L9.93217482,89.2778473 C10.0032567,89.0221025 10.1308851,88.8006714 10.3168325,88.6130179 C10.4888036,88.441449 10.6893211,88.3170869 10.9185244,88.242743 L10.976423,88.2252007 L10.9852861,88.2252007 Z M144.745074,48.0943604 C144.260795,44.0916224 142.440141,39.7852431 136.887067,42.135737 L136.474592,42.2915298 C135.100553,42.8160008 133.499351,43.5050116 132.6631,44.7164191 C132.086999,45.5510303 132.28181,47.1684246 132.202219,48.1424355 C131.840074,51.3093113 132.034353,54.4717192 132.411565,57.6251913 C132.898503,65.0167724 131.357036,72.675179 128.288106,79.3929948 C131.359518,84.4033427 135.470037,89.0766292 141.077354,91.1649443 C141.31453,85.4683209 142.42082,79.8762472 143.598191,74.317415 L143.644544,74.0750653 C144.115366,71.5684642 144.351049,68.9958695 145.983955,66.911179 C149.305483,63.2755269 153.87387,65.3332813 156.059683,59.4927902 C155.600575,59.2586701 155.854059,58.4580153 156.407293,58.6118911 C158.324377,58.9548502 158.635826,55.3717411 157.323735,54.5083563 C155.956517,53.6678475 157.332953,52.1172936 156.751003,50.998164 C156.426614,50.5158052 155.726431,50.4997206 155.408955,49.9437302 C154.567672,47.8975924 158.77799,46.5863413 153.826718,44.2796333 C152.813314,43.9163004 151.680612,44.1416633 150.658521,44.1375528 C149.154988,44.2790971 147.960068,45.3471135 146.58505,45.6831026 C148.082201,49.5914778 144.304579,53.3550917 140.894952,50.2334314 C139.039554,52.0014846 136.964707,56.0317452 141.474774,54.152887 C143.682213,52.6675651 145.582635,50.7476019 148.145129,49.8329252 L148.19929,49.8158891 C149.15051,49.5016658 153.313057,47.4626867 153.106682,49.22743 C151.547488,50.7445637 148.975954,50.726692 147.17019,51.9582349 C144.666724,53.1254396 143.065875,55.9538243 140.068913,55.9146851 C139.377947,60.1443945 144.138662,57.5708611 145.911455,56.4043714 L146.402987,56.1354889 C148.903585,54.7735927 151.4418,53.5117995 154.357971,53.4950276 C155.162739,53.489666 155.159194,54.7406892 154.357971,54.7514123 C150.557482,54.7753604 147.464267,57.170355 144.280649,58.9510971 C143.96725,61.4200808 147.55343,60.3391967 148.914267,59.9749703 C150.341046,59.7728407 152.632507,58.2169252 153.881315,59.0388475 C154.369671,60.3039894 152.220373,60.2098052 151.472152,60.5936906 C154.888338,62.2479007 151.895276,63.2896456 150.979365,60.7473877 L150.711081,60.839539 C148.42352,61.6145884 142.876573,63.2099733 143.536327,59.3033495 C142.69912,59.6768693 141.678271,59.9002663 140.753142,59.6929539 C138.446083,63.1332677 134.765954,61.8020003 140.115001,59.4570467 C138.909622,58.8917629 138.507061,56.7092636 139.664933,55.8969921 C135.454438,55.6378516 138.580447,51.1840303 140.323106,49.6997806 C140.158607,49.5321435 139.999249,49.3611108 139.850704,49.1879334 C138.845807,49.6704709 137.789506,49.9635678 136.659994,50.067224 C135.578876,50.16534 135.337977,48.31043 136.404915,48.1585201 C137.548252,47.995887 138.601364,47.6884928 139.608032,47.109269 C141.1339,46.4449757 141.654695,49.2994532 143.181804,49.4006074 C144.014756,49.5668147 144.578271,48.8304982 144.745074,48.0943604 Z M109.296421,84.9260202 C109.665125,84.9260202 109.992881,85.0816832 110.260546,85.3281348 C110.528211,85.5747651 110.643432,85.9448892 110.659385,86.2985714 C110.666476,86.488012 110.627478,86.6649424 110.542392,86.8293626 C110.487441,86.9991443 110.393493,87.1456928 110.260546,87.2709738 C110.01238,87.5192126 109.645449,87.6730884 109.296421,87.6730884 C108.927716,87.6730884 108.599782,87.5174254 108.33194,87.2709738 C108.064452,87.0223776 107.949055,86.6542194 107.933101,86.2985714 C107.926011,86.1109179 107.965186,85.9339874 108.050094,85.7695673 C108.09955,85.6167637 108.180594,85.4813315 108.293226,85.3658764 L108.33194,85.3281348 C108.580284,85.0779302 108.947038,84.9260202 109.296421,84.9260202 Z M120.468489,76.4501583 L120.527539,76.4511602 C120.83952,76.4531261 121.128633,76.5315831 121.397894,76.6888546 C121.514886,76.7800005 121.631879,76.8693593 121.747276,76.960684 C121.961586,77.1785408 122.108713,77.434107 122.19043,77.7291697 C122.273743,78.036564 122.273743,78.3457454 122.19043,78.652961 C122.162068,78.8300701 122.096482,79.001639 121.99367,79.1499746 C121.841048,79.4053621 121.639147,79.611066 121.383713,79.7627973 C121.119593,79.9184603 120.834202,79.9951302 120.527539,79.9969173 C120.221054,79.9951302 119.935485,79.9184603 119.671366,79.7627973 C119.416109,79.611066 119.214031,79.4053621 119.063358,79.1499746 C118.958774,79.001639 118.893187,78.8300701 118.864825,78.652961 C118.781512,78.3457454 118.781512,78.036564 118.864825,77.7291697 C118.940541,77.4551829 119.072809,77.2152518 119.263048,77.0079455 L119.307979,76.960684 C119.463969,76.7909023 119.648322,76.6711615 119.862808,76.6012829 C120.051296,76.5015138 120.25319,76.4510013 120.468489,76.4501583 Z M35.206118,76.5458626 C35.3374688,76.5101191 35.4668698,76.5101191 35.5980434,76.5458626 C35.7930312,76.5547985 35.9754334,76.6137753 36.1440092,76.7211846 C36.2432757,76.7996416 36.3425422,76.8766689 36.4418087,76.9535175 L36.5283496,77.0582304 C36.713338,77.2854261 36.7180177,77.3241778 36.8599688,77.670175 C36.9186424,77.86319 36.9275055,78.056205 36.8849627,78.2492201 C36.8849627,78.3796839 36.851283,78.5012119 36.7872916,78.613804 C36.7520165,78.7371191 36.6917476,78.8443497 36.6013441,78.9337085 C36.5373527,79.0425475 36.4524444,79.1301191 36.3441375,79.1946362 C36.2060507,79.3215256 36.04297,79.4090973 35.8550727,79.4537767 L35.473783,79.5054261 L35.473783,79.5054261 C35.424327,79.4984561 35.3729211,79.4913074 35.3232879,79.4859458 C35.2634621,79.4840693 35.2053314,79.4772669 35.148447,79.4662171 L35.0908979,79.453598 L35.0908979,79.453598 L35.0384866,79.4394964 C34.9690625,79.419034 34.9014762,79.3918689 34.8358185,79.3572692 C34.7117353,79.3215256 34.6036057,79.2589745 34.5112524,79.1660413 C34.3518943,79.0623851 34.2242659,78.9228067 34.1320899,78.7496293 L34.1072732,78.6924397 L34.1072732,78.6924397 C34.0735935,78.631497 34.0452317,78.5691246 34.023783,78.5012119 C33.9636913,78.3939813 33.9335568,78.279602 33.9317842,78.1562869 C33.8965269,77.9922241 33.898888,77.829609 33.9410644,77.6670083 L33.9566009,77.6128067 L34.0930923,77.2857535 C34.1639969,77.1751273 34.2384468,77.0623565 34.3339908,76.9712105 C34.3915831,76.9197398 34.5323094,76.8090618 34.6115682,76.7535668 L34.6601522,76.7211846 L34.6601522,76.7211846 C34.828728,76.6137753 35.0113075,76.5547985 35.206118,76.5458626 Z M13.8356174,73.9903261 C14.0908741,72.9769973 15.4097005,72.6570928 16.12761,73.380899 C16.8453423,74.104884 16.5282213,75.4343643 15.5233252,75.6917176 L15.4079279,75.7203124 L15.4079279,75.7203124 C14.4365342,75.9687299 13.5608619,75.0840778 13.8072555,74.104884 L13.8356174,73.9903261 L13.8356174,73.9903261 Z M135.502618,65.7245835 C135.495528,65.6245016 135.623156,65.5889368 135.68697,65.6479136 C136.541371,66.4199737 137.085564,67.3457308 138.122545,67.9442561 C139.16502,68.5449259 140.239048,68.4964935 141.325662,68.8843106 C141.694366,69.0165617 141.696139,69.5135753 141.325662,69.6438604 C139.269427,70.3678454 135.658608,67.9138741 135.502618,65.7245835 Z M38.8861577,65.5674014 C39.1150024,65.4959143 39.3454425,65.4851913 39.57411,65.5370194 C39.7301002,65.5370194 39.8752775,65.5763372 40.0082237,65.6547943 C40.1553509,65.696078 40.2813839,65.7711394 40.3893362,65.8781913 C40.5189144,65.9552186 40.6217262,66.0606619 40.699544,66.1909471 C40.8521663,66.3591203 40.954978,66.5557097 41.0079792,66.7808939 L41.0682482,67.2437724 L41.0682482,67.2437724 L41.0079792,67.706651 L41.0079792,67.706651 C40.9494829,67.8440849 40.8909866,67.9836633 40.8342628,68.1212759 L40.6758758,68.3376477 C40.5475207,68.5102448 40.526968,68.5120717 40.2156198,68.7450003 C40.0172641,68.8717111 39.8027775,68.9415896 39.57411,68.9505255 C39.4214878,68.9934177 39.2690428,68.9934177 39.1150024,68.9505255 C38.9607848,68.9505255 38.8152531,68.9112076 38.6807115,68.8325719 C38.5351797,68.7914668 38.4077286,68.7164055 38.2994218,68.6091749 C38.1117017,68.4858598 37.9645746,68.3232267 37.8562677,68.1212759 C37.7977714,67.9836633 37.7394523,67.8440849 37.6827286,67.706651 L37.6205098,67.2437724 L37.6205098,67.2437724 L37.6827286,66.7808939 L37.6827286,66.7808939 L37.6860966,66.7665965 L37.6860966,66.7665965 C37.7676369,66.4770739 37.9131687,66.2250821 38.1221601,66.0122295 L38.4662249,65.7441531 L38.4662249,65.7441531 C38.6007665,65.6567602 38.7408032,65.6120808 38.8861577,65.5674014 Z M121.633758,65.9141492 C122.124595,65.7781452 122.663648,65.9211192 123.023312,66.2840947 C123.38333,66.6468914 123.525139,67.188227 123.390421,67.6834535 C123.257474,68.165991 122.872817,68.5572038 122.392438,68.6878464 C122.248856,68.7269855 122.103501,68.7486104 121.956374,68.7414617 C121.709803,68.7396745 121.47954,68.6769446 121.265054,68.552021 L120.988526,68.335594 L120.988526,68.335594 C120.85363,68.2106704 120.759858,68.0623348 120.70473,67.8907659 C120.617872,67.7263457 120.578874,67.5494153 120.585965,67.3581874 L120.584369,67.3242311 C120.578874,67.2563184 120.587737,67.188227 120.609186,67.1222802 C120.609186,67.0524016 120.619822,66.9844889 120.637548,66.9183634 C120.766949,66.4360046 121.156924,66.0462216 121.633758,65.9141492 Z M15.7801773,61.074566 C15.9379401,61.0690258 16.0850672,61.101195 16.2215587,61.1744692 C16.3651406,61.2209357 16.4874511,61.2995715 16.5902628,61.4139508 C16.7037103,61.517607 16.7817054,61.6427093 16.8277934,61.7856834 C16.9004707,61.9234746 16.9323778,62.0718102 16.9270599,62.2306902 C16.9270599,62.4397898 16.8738814,62.634592 16.7710697,62.8133095 C16.7108007,62.892124 16.6505318,62.970581 16.5902628,63.0474296 C16.4484535,63.1921909 16.280055,63.2904855 16.0850672,63.345888 L15.9716198,63.3852059 L15.9716198,63.3852059 C15.8049939,63.4459698 15.6419132,63.4495442 15.4681968,63.4264896 C15.2856174,63.4012905 15.1170416,63.3512495 14.9683191,63.2368703 C14.8227873,63.1510858 14.7077445,63.0349194 14.6226589,62.8883709 L14.525165,62.6560381 L14.525165,62.6560381 C14.5038936,62.577581 14.4950306,62.4596274 14.4897127,62.3772386 C14.4897127,62.3647284 14.4897127,62.354184 14.4879401,62.3414951 C14.4879401,62.2717952 14.5092115,62.1021922 14.5267604,62.0323136 C14.5659352,61.8857652 14.6455257,61.7463655 14.7361064,61.6284119 C14.8141015,61.5052754 14.9204584,61.4085892 15.051632,61.3371022 L15.0633091,61.3281663 L15.0633091,61.3281663 L15.0764487,61.3192304 C15.1170416,61.2906356 15.1597616,61.2620408 15.2023044,61.2314801 C15.379566,61.1280026 15.5727812,61.074566 15.7801773,61.074566 Z M107.316373,59.8054924 C107.599991,59.8054924 107.864111,59.8787666 108.108732,60.0217407 C108.117418,60.0251363 108.126281,60.0288894 108.133372,60.0326424 C108.367534,60.1718634 108.553482,60.3596956 108.691923,60.5954241 C108.833732,60.8402673 108.90446,61.104948 108.90446,61.3873218 C108.90446,61.6713041 108.833732,61.934019 108.691923,62.1788621 C108.553482,62.414948 108.367534,62.6024228 108.133372,62.7420012 C108.126281,62.747184 108.117418,62.7505797 108.108732,62.7543327 C107.864111,62.8973068 107.599991,62.9687939 107.316373,62.970581 C107.034527,62.9687939 106.770407,62.8973068 106.525609,62.7543327 C106.04718,62.4719589 105.74743,61.944742 105.74743,61.3873218 C105.74743,60.8293655 106.04718,60.3023273 106.525609,60.0217407 C106.770407,59.8787666 107.034527,59.8054924 107.316373,59.8054924 Z M33.7027609,57.7389068 L33.7510306,57.7378906 C33.9389279,57.7305632 34.1142396,57.769881 34.2755477,57.8576314 C34.4439462,57.9128551 34.5910733,58.0077542 34.7153337,58.1417924 L34.9741357,58.3596491 L34.9741357,58.3596491 L35.0492421,58.4209956 C35.0616242,58.4314142 35.0738158,58.4419784 35.0856333,58.452761 C35.2595269,58.6295127 35.3782922,58.8368251 35.4456516,59.0763067 C35.466923,59.214098 35.4844719,59.3497446 35.4988301,59.4873572 C35.5376504,59.8447924 35.3286589,60.2113422 35.0982188,60.4651211 C34.9741357,60.5991593 34.8268313,60.693701 34.6568374,60.7508906 C34.4937567,60.8368538 34.3164951,60.8759929 34.1284205,60.8688442 C33.7437628,60.8350666 33.3787812,60.7526778 33.1022531,60.4524322 C33.0701687,60.4166887 33.0400342,60.379158 33.0083044,60.3416273 L32.7867274,60.0842739 L32.7867274,60.0842739 C32.6183289,59.9128838 32.5011589,59.7107542 32.437522,59.4784213 C32.4196186,59.3551061 32.4038423,59.2335782 32.3878888,59.1120502 C32.3717579,58.7456791 32.5490196,58.4025413 32.7867274,58.1417924 C33.0061941,57.9000981 33.3784033,57.752423 33.7027609,57.7389068 Z M24.7550391,53.9757064 C26.5983826,53.9757064 26.5948374,56.8586 24.7550391,56.8586 C22.9131137,56.8586 22.9166589,53.9757064 24.7550391,53.9757064 Z M117.441731,49.9339291 L117.499858,49.934973 C117.804925,49.9367602 118.090139,50.0136087 118.354436,50.169093 L118.698146,50.4353823 L118.698146,50.4353823 C118.907492,50.6498434 119.052669,50.900048 119.134387,51.1895705 C119.153708,51.3413018 119.173384,51.4933905 119.194656,51.6435132 C119.203519,51.8794205 119.153708,52.0992431 119.047529,52.3029812 C118.980169,52.5138679 118.863177,52.6977683 118.698146,52.8534314 C118.544106,53.0196387 118.363122,53.1375924 118.152358,53.205505 C117.950279,53.3127356 117.732248,53.3627765 117.499858,53.3538407 C117.193372,53.3518748 116.907804,53.2752049 116.643684,53.1197206 C116.528641,53.0303618 116.415194,52.941003 116.299974,52.8534314 C116.106895,52.6554673 115.96819,52.4270471 115.885254,52.1653597 L115.865683,52.0992431 L115.803641,51.6435132 C115.794778,51.4093932 115.844234,51.1895705 115.950591,50.9858325 C116.018128,50.7731585 116.13512,50.5908666 116.299974,50.4353823 C116.454191,50.2689962 116.636771,50.1510426 116.845939,50.0833086 C117.031015,49.9850139 117.229795,49.9346242 117.441731,49.9339291 Z M109.13848,44.5377551 C109.303334,44.5322149 109.455779,44.5661712 109.599538,44.6414113 C109.746488,44.6894864 109.874116,44.7734836 109.982246,44.8896501 C110.21109,45.0739079 110.35095,45.4418874 110.35095,45.7403458 C110.35095,46.0388042 110.21109,46.4071412 109.982246,46.5910416 C109.833346,46.7393772 109.657857,46.8430334 109.455779,46.9002231 L109.13848,46.943294 L109.13848,46.943294 C108.830045,46.9575914 108.516292,46.7949584 108.296488,46.5910416 C108.252172,46.5501153 108.20963,46.5090102 108.165314,46.4695136 C107.965186,46.2836473 107.878328,46.0066351 107.865742,45.7403458 C107.860424,45.5993377 107.890736,45.4670866 107.954373,45.3437715 C107.99532,45.2150948 108.066048,45.1058984 108.165314,45.011178 C108.20963,44.9718602 108.252172,44.9309338 108.296488,44.8896501 C108.535968,44.6662531 108.815864,44.5538397 109.13848,44.5377551 Z M161.746235,34.9244819 C162.911021,33.4940262 162.232818,32.475872 160.48236,32.8297329 C157.46714,33.2409621 154.629359,35.1621763 151.973803,36.5399102 C149.075398,38.0833154 146.088362,39.3563209 143.131816,40.8066142 C144.35173,41.5615173 145.258955,42.7437342 145.952048,44.0926947 C147.335575,43.0334355 149.104114,42.5269498 150.830465,42.461003 C153.962501,39.4367438 159.149353,38.7442131 161.746235,34.9244819 Z M24.1346944,39.6731514 C24.4505273,39.6746527 24.7464407,39.7494805 25.0237318,39.8989428 L25.0828667,39.9321132 L25.4622066,40.2287844 C25.6465587,40.4003533 25.7759597,40.6039127 25.8521822,40.8382115 C25.9691748,41.0633956 26.0223533,41.3082387 26.0134902,41.5691664 C26.0223533,41.8300941 25.9691748,42.0731501 25.8521822,42.2983342 C25.7759597,42.5342415 25.6465587,42.7361924 25.4622066,42.9077613 C25.3576222,43.0453738 25.2229034,43.1526044 25.0615954,43.2314188 C24.9107457,43.2937913 24.7620232,43.3581296 24.6113509,43.4224679 C24.4429523,43.4760832 24.2479645,43.4832319 24.0653851,43.4921678 C23.7339059,43.4903806 23.4256479,43.4063834 23.1381296,43.2383888 L22.7660575,42.949045 L22.7660575,42.949045 C22.5870232,42.7808718 22.4592176,42.5824952 22.3847677,42.3519495 C22.2793118,42.148971 22.2258516,41.9321766 22.2258516,41.7006028 L22.2271822,41.6370791 C22.2271822,41.6229604 22.2271822,41.6066971 22.229132,41.5906126 C22.2502262,41.422618 22.2734474,41.2546235 22.2961369,41.0868076 C22.3548105,40.8399986 22.4664853,40.6237503 22.6331112,40.4414584 C22.675654,40.3556739 22.7323778,40.2859741 22.8052323,40.2287844 C23.0390403,39.9928772 23.3153912,39.8320314 23.6346394,39.7407067 C23.8012653,39.7194393 23.9678912,39.6960273 24.1346944,39.6731514 Z M106.383075,34.9379411 L106.436996,34.9387435 C106.676299,34.9387435 106.897876,34.9995075 107.103677,35.1192483 C107.193903,35.1891269 107.282534,35.258648 107.371164,35.3283479 C107.536195,35.4945553 107.649642,35.6911446 107.711507,35.9163288 L107.759545,36.2700109 L107.759545,36.2700109 C107.764685,36.4542688 107.72746,36.6240505 107.644147,36.7832879 C107.591146,36.9475293 107.500565,37.0905034 107.371164,37.2120314 C107.252399,37.3423165 107.110767,37.4336412 106.945914,37.4872565 C106.789746,37.5712538 106.619575,37.6087844 106.436996,37.6018145 C106.199465,37.6018145 105.976116,37.5408718 105.770492,37.4193438 C105.681861,37.3514311 105.591458,37.2817312 105.502827,37.2120314 C105.353336,37.0596746 105.245551,36.8817886 105.180838,36.6797498 L105.164257,36.6240505 L105.116574,36.2700109 C105.109483,36.0861105 105.146708,35.9163288 105.229844,35.7572701 C105.283023,35.5912415 105.375376,35.4480887 105.502827,35.3283479 C105.623365,35.1977053 105.765351,35.1067381 105.928432,35.0531228 C106.070259,34.9775252 106.222281,34.9395656 106.383075,34.9379411 L106.383075,34.9379411 Z M34.495632,33.0022599 L34.5574645,33.0031783 C34.9102152,33.0049655 35.2381491,33.0943243 35.5430391,33.2730419 C35.6742127,33.3750896 35.8055636,33.4769587 35.9365599,33.5806149 C36.1794083,33.8252793 36.3460342,34.1148018 36.4401601,34.4490037 L36.5091149,34.9708591 L36.5091149,34.9708591 C36.5197506,35.2425098 36.4630269,35.4945016 36.3407164,35.7286217 C36.2628985,35.9736435 36.1280024,36.1843516 35.9365599,36.3630692 C35.7612482,36.5544757 35.5519022,36.6901224 35.3090538,36.7689368 C35.0768411,36.8920733 34.8269022,36.9494416 34.5574645,36.9385398 C34.2047139,36.9385398 33.87678,36.849181 33.57189,36.6704634 C33.4408936,36.5685944 33.30972,36.4651169 33.1767738,36.3630692 C32.9355208,36.1164389 32.7688949,35.8269164 32.6749462,35.4945016 L32.6058142,34.9708591 L32.6058142,34.9708591 C32.5951785,34.7009955 32.6519022,34.4473952 32.7742127,34.2130965 C32.8522078,33.9702192 32.9869267,33.7573666 33.1767738,33.5806149 C33.3540355,33.3875999 33.5630269,33.2515958 33.8058753,33.17296 C34.0202255,33.0591307 34.2496796,33.0031677 34.495632,33.0022599 Z M100.13196,28.0885873 C100.293268,28.0455164 100.454399,28.0455164 100.615707,28.0885873 C100.856782,28.0991317 101.082082,28.1724059 101.291251,28.3064441 L101.658182,28.5925709 L101.658182,28.5925709 C101.663323,28.5977538 101.668818,28.603294 101.674136,28.6104427 C101.895713,28.8354482 102.049753,29.1019161 102.134839,29.4075232 L102.19883,29.8882735 L102.19883,29.8882735 C102.207693,30.136691 102.156287,30.3688452 102.044612,30.583485 C101.977992,30.78974 101.868027,30.9691141 101.716493,31.1242229 L101.658182,31.1820102 C101.493152,31.3607278 101.299936,31.4876173 101.074814,31.5608915 C100.933182,31.6450675 100.778787,31.6861726 100.615707,31.6861726 C100.374808,31.7413963 100.13196,31.730852 99.8907066,31.6538247 C99.747302,31.5912735 99.6017702,31.5305095 99.4565929,31.4699243 L99.4103276,31.4429379 C98.8625892,31.1410839 98.5240196,30.5084236 98.5240196,29.8882735 C98.5240196,29.2679447 98.8625892,28.6334973 99.4103276,28.3314645 C99.4264584,28.3244945 99.4404621,28.3153799 99.4565929,28.3064441 C99.6657616,28.1724059 99.8907066,28.0991317 100.13196,28.0885873 Z" id="ðŸ–-Ink" fill="#000000"></path>
                    </g>
                    <g id="HEAD" transform="translate(14.000000, 0.000000)">
                        <path d="M88.5922681,61.4204878 C88.1703146,55.9440434 88.8242004,50.2039658 86.7190503,44.998636 C83.0486233,36.3619781 72.7562258,33.4823203 64.7769362,30.1942092 C61.5802897,29.2467994 50.8239422,29.1143764 47.0810486,27.8604501 C38.6099521,25.0225038 36.5860013,21.641132 29.8549573,27.0446836 C28.7187374,27.9677559 28.0078452,28.9709869 27.4892829,30.3417012 L27.5105937,30.3475795 C27.3624837,30.9190222 27.521249,31.489218 27.8549404,31.9247471 C24.9364288,34.9169834 23.7151433,39.4030222 25.212581,43.3861986 C30.0993209,53.7514349 29.8695197,59.3559552 28.295008,70.4990875 C26.2388727,80.9019093 30.9373674,84.7019675 38.7186444,90.3622427 C38.4018241,90.9783961 38.3361159,91.7972621 38.7491899,92.3409164 C47.7471349,105.023631 64.7128092,111.079067 79.2490714,104.641786 C85.1494942,102.007592 87.7837015,95.704733 89.2869996,90.0175601 C91.0382131,83.6495725 91.5763104,76.9393961 90.150619,70.4525954 C89.5755831,67.4525213 88.8265091,64.4741792 88.5922681,61.4204878 Z" id="ðŸŽ¨-Background" fill="#FFFFFF"></path>
                        <polygon id="Path-2" fill="#DDDDDD" points="38.9099111 93.0136057 26.9157209 79.7771623 31.065872 60.9726027 53 37.2733116 84.5240196 42.3752396 90.1696744 61.8089192 88.6534837 93.0136057 81.0634966 103.356164 55.615763 108.436427 46.7258689 102.060133"></polygon>
                        <path d="M36.6902664,0.745779894 C37.7824751,0.581274804 38.6072791,1.26097127 38.9996405,2.21899153 L39.0202452,2.27057707 C39.146334,2.59655591 39.28663,2.91362822 39.4375814,3.22535661 C42.1706892,1.88047125 46.0705624,2.22604444 47.8002875,4.94965996 C49.034537,6.89484515 48.281556,9.20341658 47.8162706,11.2661679 L47.5108161,12.6253037 C48.1012579,13.0021833 48.5465134,13.6770931 48.525611,14.3759639 L48.5230782,14.4297658 L48.3987653,16.3250744 C48.7930148,15.9242808 49.1535222,15.487861 49.4749598,15.0229404 C49.6969471,14.6150215 49.9366934,14.2142279 50.1941987,13.8259034 C51.7090402,11.5404889 55.1098858,13.5266441 53.8596533,15.9741573 C53.619907,16.4462032 53.3499704,16.8933108 53.0604989,17.3243866 C52.7337336,17.9603125 52.4655729,18.6140515 52.2595687,19.2856035 C52.8509429,19.5438928 53.3055729,20.117473 53.3535222,20.9831873 C53.4654038,23.0049686 52.4069683,24.6918646 50.7234165,25.7517411 C50.2279408,26.0634695 49.716482,26.1240339 49.2529725,26.008249 C49.1712812,26.1186899 49.0895899,26.2291309 49.0114503,26.3413531 C49.68274,26.8882138 50.2883214,27.5116705 50.8086596,28.2028169 C52.3750021,27.9676847 53.9502241,27.8572437 55.5254461,27.8536811 C57.4505201,26.9078081 59.7556364,26.9274025 61.8245581,27.2818822 C63.156482,27.5098892 64.435129,27.9534342 65.7457421,28.2722878 C67.1273911,28.6071732 68.530351,28.6196423 69.9279831,28.8476494 C71.6896744,29.1344395 73.2347061,29.9502772 74.2061226,31.2524113 C75.2734376,31.2844748 76.3958055,31.7226758 77.3263763,32.3176317 C79.4929725,33.7034871 81.6471374,35.1089369 83.8084059,36.5036988 C84.6378615,37.0391665 84.9480017,37.8940035 84.7955113,38.8474693 L84.7851501,38.9084607 L84.7123383,39.3039104 L84.8833276,39.5473077 C85.5447346,40.4841747 86.2644025,41.4654885 86.6924651,42.4995718 C87.4845159,43.644951 88.200203,44.8455506 88.8341987,46.0835577 C89.6884059,47.7472966 90.3934376,49.5107887 90.8711543,51.3205947 C90.9901395,51.7783901 91.1091247,52.2397481 91.1872643,52.7064501 C91.2991459,53.365533 91.1268837,53.8767675 91.0327611,54.5091309 C90.9155518,55.3107182 90.8729302,56.1229933 90.7486173,56.9263619 C90.6651501,57.4589721 90.2140719,57.720824 89.7416829,57.7350744 C89.9192727,59.0906476 90.0471374,60.4551273 90.1696744,61.8089192 C90.3419366,63.7434166 90.4591459,65.6832578 90.5603721,67.6230991 C91.0824863,68.3837164 92.1498013,68.9857975 92.9205412,69.1942102 C93.9878562,69.4810004 95.1066723,69.169272 96.1153827,68.8041044 C96.7493784,68.574316 97.2697167,69.374122 96.9607104,69.9085136 C95.9892939,71.586503 93.9114926,71.5793778 92.3380465,70.8365735 C91.6720846,70.5230638 91.087814,70.068831 90.6544947,69.4774377 C90.6811332,70.0403302 90.7095476,70.6032226 90.7379619,71.1678963 L90.7644262,71.6793591 C91.0843636,77.6524228 91.7750867,83.830947 90.6562706,89.7451273 C88.7187653,99.9894131 80.2668267,107.789657 69.9421903,108.395392 C64.5242736,108.713255 60.0125315,107.108119 57.7689888,106.212708 C55.5254461,105.317297 56.3974346,103.491607 57.9549107,104.013494 C60.6379241,104.912531 65.5667793,106.251937 69.9777082,105.673558 C80.3738182,104.310376 89.1893784,99.0984457 88.2836702,76.6507534 C88.155232,73.467454 87.7597801,70.2825877 87.674537,67.0993954 C87.5928457,63.9874554 87.6230359,60.873734 87.4862918,57.7635753 L87.4406933,56.7024159 C87.3873019,55.462481 87.33021,54.2167989 87.237666,52.9754272 C87.1257844,52.4944748 87.0334376,52.0063972 86.8966934,51.5343513 C86.5255307,50.2500303 86.0407104,49.0013354 85.4386808,47.8096423 C85.3054884,47.9111767 85.1563129,47.9842102 84.9947061,48.0127111 C83.7675603,48.2335929 82.616778,48.1712473 81.4677717,47.6582314 C80.9314503,47.4213178 80.4590613,47.1060268 80.0186385,46.715921 C79.8090825,46.5324466 79.6687865,46.354316 79.5586808,46.1690603 C79.0028245,46.1779668 78.4469683,46.0105242 78.0988922,45.6097305 C77.7018929,45.1529119 77.635865,44.6810792 77.7913609,44.2442795 L77.8076448,44.2007182 L77.7685751,44.1864677 C77.2997378,45.4030991 76.3656152,46.4736635 75.3409218,47.1968734 C73.7213023,48.3440339 71.6950021,48.6753566 69.7521691,48.7056388 C67.6068837,48.7377023 65.344389,48.4063795 63.227518,48.0679316 C62.6681099,47.9788663 62.1122537,47.8773319 61.5670529,47.7401714 C61.5457421,47.7615471 61.5244313,47.7864854 61.5013446,47.807861 C59.6846004,49.5517587 57.1290825,50.0006476 54.8239662,49.0048981 C53.4920423,48.4295365 52.3750021,47.5032578 51.3876025,46.4416 C51.3733953,46.9973672 51.344981,47.5531344 51.2970317,48.1035577 L51.2771753,48.3221288 C51.1788595,49.3472728 50.9896829,50.4346923 50.2172854,51.1745277 C48.9688288,52.373346 47.1574123,51.8923937 45.7171586,51.112182 C45.7189345,51.1495894 45.7189345,51.1887781 45.7189345,51.2279668 C46.1078562,52.5532578 46.4985539,53.8803302 46.8892516,55.2074025 L46.9734046,55.4900973 C47.2575084,56.4323957 47.5690978,57.3758985 47.6546638,58.3620938 C47.8180465,60.2467146 46.567814,62.1081785 44.4793573,61.4758152 C43.3838816,61.1453067 42.5062688,60.2214157 41.6641844,59.4814229 L41.1335645,59.0211767 C42.506334,63.5225347 43.4582156,68.1842102 43.5470106,72.8815118 C43.5523383,73.1362384 43.3339027,73.3286194 43.0923805,73.3375259 C42.5276448,73.3606829 41.9202875,73.2484607 41.352,73.0222349 C41.3200338,73.0204536 41.2880677,73.0186723 41.2543256,73.0133284 C40.284685,72.8726053 39.3843044,72.5216882 38.5904778,72.0033284 C38.7733953,72.5858152 38.8550867,73.2110533 38.8071374,73.8647922 C38.7947061,74.0233284 38.5478562,74.0785489 38.5123383,73.903981 C38.0541564,71.6435048 35.4169471,69.9352332 33.143797,70.3680903 C30.7037125,70.8330109 28.9065032,72.9385136 28.4660803,75.334369 C27.9936913,77.9083549 28.8976237,80.8849157 30.572296,82.8710709 C31.3430359,83.7866617 32.357074,84.5508416 33.5611332,84.7432226 C34.1116617,84.8305065 34.6835011,84.8002243 35.2180465,84.6434695 C35.4453615,84.5757799 35.6584693,84.4813707 35.875129,84.3923055 C36.1912389,84.2640515 36.5606258,84.2444571 36.8589767,84.109078 C37.5355941,83.8044748 38.2157632,84.4297129 37.8730148,85.1262032 C37.5746638,85.7336282 37.3065032,86.1433284 36.8110275,86.4568381 C37.2123805,86.9484783 37.5764397,87.6324995 37.711408,87.8159739 C38.4004567,88.7493778 39.1001607,89.6311238 39.8851078,90.484369 C40.6842622,91.3500832 41.5562283,92.1409827 42.4779197,92.8730991 L42.8653326,93.1801516 C43.7531258,93.8864112 44.5261966,94.540846 45.1524228,95.5539633 C45.6461226,96.3537693 45.0067992,97.4385841 44.081556,97.426115 C41.1868414,97.385145 39.0824017,94.834316 37.5835433,92.6059034 C37.3704355,92.2870497 37.169759,91.9503831 36.9832896,91.6048099 C36.9158055,91.7134695 36.8412178,91.8150039 36.7577505,91.9076317 L36.9229091,92.352958 C37.4130571,93.6639986 35.3015137,94.5208063 34.6888288,93.2970497 C34.2430782,92.4099598 33.7262918,91.5656212 33.1509006,90.7675965 C32.811704,90.7195012 32.479611,90.5128698 32.2949175,90.2456741 C31.8278562,89.5669968 31.3039662,88.8811944 30.8617674,88.1579845 C30.6166934,87.9246335 30.3645159,87.7001891 30.1070106,87.4810885 C30.0324228,87.5469968 29.9560592,87.6129051 29.8832474,87.682376 C29.5600338,88.4216176 29.1604567,89.0967323 28.664981,89.7326582 L28.5587508,89.868326 C27.6095501,91.0682454 26.3731678,92.2963449 24.8432474,92.5898716 C24.376186,92.6789369 23.9268837,92.0964501 24.3406681,91.7241573 C25.4115349,90.7586899 26.6777505,90.1013884 27.6651501,89.0236988 C28.1516195,88.4927426 28.598276,87.9080292 28.9823698,87.2952304 L29.0698858,87.1533284 C29.1338182,87.0482314 29.1995264,86.9431344 29.2670106,86.8362561 C28.82126,86.5316529 28.3755095,86.2252684 27.929759,85.918884 C26.7026704,86.9704286 25.1046944,87.4514366 23.7474491,88.3224889 L23.6125497,88.4109298 C22.3854038,89.2338928 21.0925497,87.4133989 22.0763975,86.4140868 C23.1609387,85.3166247 24.0662918,84.0078998 25.0270529,82.7880621 C24.5752643,81.9533425 24.3614461,80.9663213 24.2813531,79.9687905 C24.2497421,79.6864536 24.2250571,79.4039386 24.2003721,79.1214236 C23.5113235,79.1321115 22.818723,78.8951979 22.2326765,78.487279 L22.0106892,78.3287429 C21.2985539,78.5567499 20.5509006,78.6671908 19.8352135,78.6475965 C18.1516617,78.5977199 17.4626131,76.6685665 18.5157209,75.4483725 C19.5901395,74.2014589 21.4708161,73.9289192 22.9607949,74.534563 C23.0087442,74.5096247 23.0584693,74.4829051 23.1064186,74.4561855 C23.0353827,74.1284254 23.0511882,73.8311256 23.1319915,73.5699862 L23.1085497,73.4107376 C22.7808964,72.9064501 22.5654799,72.3307323 22.4837886,71.7224166 C22.4191459,71.2405735 22.4322875,70.7630056 22.5434588,70.287219 C22.5803975,70.128861 22.6572939,69.9648028 22.7160761,69.7996758 C22.5949598,69.4929351 22.5237463,69.1758628 22.5017252,68.8570092 C22.4678055,68.8165735 22.4340634,68.7750691 22.4020973,68.7301802 C21.6627907,67.6890074 21.8121438,66.4344342 22.5157548,65.5918769 C22.5189514,65.5382596 22.5239239,65.4846423 22.5312051,65.4313813 C22.4900042,65.3383972 22.4521776,65.2445224 22.4177252,65.1495788 C21.7302748,64.4539792 21.2255645,63.6169439 21.3196871,62.5796899 C21.3749175,61.9694148 21.6249641,61.4200603 22.003408,61.0094695 C21.9362791,60.8103196 21.9298858,60.5796406 22.011222,60.3870815 C21.4072389,58.7757129 21.4836025,56.834981 21.9183425,55.0328346 C21.822444,54.7585136 21.7727188,54.4610356 21.7833742,54.1457446 C21.8330994,52.8079845 22.9874334,51.578884 24.3548753,51.5949157 C24.5195011,51.5963407 24.673649,51.6178945 24.821759,51.6494236 L24.8237125,51.6175383 C24.8761015,51.2160321 24.9862072,50.8449862 25.146926,50.5120603 C25.0678985,50.4833813 24.9947315,50.4422332 24.9306216,50.3875471 C24.0543932,50.8563866 23.1271966,51.2147852 22.1550698,51.4590021 C21.4402706,51.6385577 20.7080677,50.8236106 21.1523975,50.1506335 C21.3585793,49.8383707 21.5860719,49.5579933 21.8311459,49.3018416 C21.4827146,49.3038011 21.1289556,49.3274924 20.7711121,49.3736282 C20.1282368,49.4573496 19.4107738,49.0173672 18.9934376,48.4224113 C18.4748753,48.9283019 17.954537,49.4324113 17.4341987,49.9365206 C16.116482,51.217279 14.1256998,50.2749686 13.9179197,48.5862914 C13.5254461,48.4811944 13.159611,48.3030638 12.8381734,48.0483372 C10.7603721,48.9532402 8.52451586,49.4502243 6.23893446,49.5446335 C4.59800423,49.6123231 3.63901903,47.6956388 4.40620719,46.3418469 C4.92121776,45.4333813 5.56054123,44.6175436 6.29753911,43.9085841 C5.15386047,44.2595012 3.97288795,44.5124466 2.76705285,44.6745453 C2.1152981,44.7618293 1.19360677,44.2203125 0.932549683,43.6200127 C-0.0655052854,41.3114413 0.0197378436,38.9048981 1.16874419,36.6586723 C1.21314165,36.5696071 1.26286681,36.4841044 1.31081607,36.3986018 C1.42980127,36.1011238 1.55944186,35.8072085 1.69973784,35.518637 C0.286122622,34.0401538 0.163585624,31.8420233 0.925446089,30.0019351 C0.619991543,29.504951 0.502782241,28.9064325 0.710562368,28.3649157 C1.30193658,26.8062737 2.15436786,25.3669792 3.23056237,24.1307534 C3.12756025,23.9312473 3.03698943,23.719272 2.96062579,23.4912649 C2.3550444,21.6476141 3.05652431,19.422764 4.47191543,18.138443 C5.36164059,17.3297305 6.38455814,16.8452155 7.47673573,16.5352684 C7.93669345,15.7194307 8.52806765,14.9837517 9.21711628,14.3638575 C9.24375476,14.3050744 9.27039323,14.2462914 9.30058351,14.1875083 C10.3732262,12.1603831 12.3267146,11.0737869 14.4204989,10.8226229 C14.5021903,10.0299422 15.0349598,9.27288748 15.8092516,9.02706737 C16.0223594,8.3412649 16.3402452,7.68574462 16.7771163,7.09078871 C17.464389,6.15382222 18.6062918,5.71205855 19.6824863,6.32660882 C20.2720846,6.66327549 20.8368203,7.04981869 21.3660381,7.47733192 C21.6037352,7.36552077 21.8732095,7.29317238 22.1772543,7.27009406 L22.2539873,7.26535661 L24.0050233,7.17629136 C24.7384693,6.85031252 25.4701395,6.50830194 26.2035856,6.17519788 C26.6440085,5.81003034 27.1359323,5.50542716 27.6722537,5.27920141 C28.279611,5.02447478 28.9011755,4.88018907 29.5245159,4.83209383 C30.0306469,4.66643245 30.5403298,4.52036543 31.0588922,4.4063619 C32.2771586,4.13916614 33.5522537,3.98953651 34.8166934,4.00200564 C34.8425708,3.67373656 34.8554008,3.34154133 34.8529466,3.00541996 L34.8504355,2.8370321 C34.8220211,1.7593425 35.6797801,0.898972134 36.6902664,0.745779894 Z M35.4631205,86.969854 C35.2890825,87.0072614 35.1132685,87.0375436 34.9374545,87.0589192 C34.9907315,87.1907358 35.0440085,87.3225524 35.0955095,87.454369 C35.2375814,87.5345277 35.3814292,87.6111238 35.525277,87.682376 C35.4826554,87.4401185 35.4577928,87.1960797 35.4631205,86.969854 Z M26.3390867,84.2503354 L26.2210223,84.4683936 C26.2018887,84.5040725 26.1830444,84.5393225 26.1645159,84.5739986 C26.4149175,84.5544042 26.6670951,84.5597481 26.9157209,84.588249 L26.9150106,84.5617076 C26.8830444,84.5508416 26.8510782,84.5408663 26.8205328,84.5259034 C26.648981,84.4432508 26.4895053,84.3506229 26.3390867,84.2503354 Z M31.2702241,74.3012298 C32.841401,74.3930165 34.172537,74.6346541 35.6014518,75.3240672 L35.7241776,75.3842633 C36.9868414,76.013064 39.0752981,77.174475 38.8994841,78.8399952 C38.849759,79.3138224 38.5070106,79.8125878 37.9671374,79.7751804 C36.487814,79.673646 35.6424863,78.1773497 34.6408795,77.2439459 C33.6303932,76.3034168 32.3890402,75.3361681 31.1654461,74.6895543 C30.9924863,74.5985169 31.0606182,74.3103749 31.2488243,74.3010897 L31.2702241,74.3012298 Z M24.1453192,52.3573143 C23.7688288,52.3697834 23.8949175,52.7367323 24.0884905,52.4303478 C24.1044736,52.4054095 24.1240085,52.3804713 24.1453192,52.3573143 Z M44.4679915,27.8604501 C40.9023425,27.954503 37.3137844,30.0662402 34.6426554,32.2007781 C32.3188922,34.0577887 30.3123044,36.2666071 28.535518,38.6473213 C28.0784017,39.832958 27.6859281,41.0433549 27.3543679,42.2626582 C27.1359323,43.0678081 26.9991882,43.8818646 26.8162706,44.6941397 L26.7594419,44.9431661 C26.6157717,45.2124995 26.5090402,45.5023178 26.4312558,45.8017552 C26.7550021,46.1273778 27.1750021,46.3605506 27.6374461,46.4711697 C27.786444,46.5067958 27.9102241,46.5839263 28.0080761,46.6861732 C28.3803044,46.0630727 28.705649,45.4054148 28.8949598,44.708212 L28.9018858,44.6759704 C29.6173953,43.5004871 30.3945285,42.3615206 31.2276025,41.2615647 C33.5256152,38.2244395 36.0562706,35.4562914 39.0983848,33.1530638 C41.405277,31.4073848 43.9838816,30.0393425 46.7258689,29.1504713 C46.0547569,28.6073513 45.2925412,28.1777005 44.4679915,27.8604501 Z" id="ðŸ–-Ink" fill="#000000"></path>
                    </g>
                    <g id="FACE" transform="translate(60.420775, 51.178082)" fill="#000000">
                        <path d="M16.5986232,33.2081425 C19.6467739,32.8376461 22.6014164,33.7722269 25.5812547,34.2433322 C27.1545682,34.4919268 28.7298334,34.6775299 30.3219549,34.7465544 C30.6422246,34.7605722 30.9626716,34.7687345 31.2831187,34.7752998 C31.3129277,34.492814 31.4708446,34.2333956 31.8129387,34.0779574 C32.5141606,33.7596286 33.0753866,33.616079 33.8452757,33.6467762 C34.5500463,33.6746344 35.257301,33.7472077 35.9512481,33.8744328 C37.2113893,34.1058156 38.4772084,34.630863 39.3989817,35.5430862 C41.532279,37.6539221 41.2075735,41.0444612 39.5592052,43.3435618 C36.1536319,48.0943516 29.9379847,48.3148428 24.6145326,48.2528645 L24.1232738,48.246429 C19.2761128,48.1770496 12.3412552,48.9008307 10.1391131,43.3778079 C9.32930119,41.3468204 9.44179478,38.9927131 10.4332999,37.0447678 C11.6159021,34.7213578 14.1053109,33.5112114 16.5986232,33.2081425 Z M31.7394807,41.1182766 L31.6960092,41.120051 C29.4612192,41.2062872 27.2267841,41.266972 24.9907521,41.3065413 C25.0576449,41.881627 25.1259573,42.4568901 25.2040286,43.0307337 C25.2652435,43.4823206 25.3308944,43.9333751 25.3992067,44.3838973 C25.4281286,44.5746462 25.5342345,44.8707949 25.5042481,45.0597694 L25.4934246,45.134472 L25.4934246,45.134472 C25.6082248,45.1864621 25.712379,45.2702142 25.7899179,45.3917612 C25.816888,45.4338146 25.8364058,45.476223 25.8559236,45.5184539 C27.5919447,45.5321168 29.4601546,45.4984031 31.2298883,45.182381 L31.233437,45.1438763 L31.233437,45.1438763 C31.2655527,44.9174619 31.359593,44.7650402 31.4845071,44.6605276 C31.6088888,43.9385209 31.597533,43.1691375 31.6456178,42.452809 C31.6756042,42.0077874 31.7080748,41.5631207 31.7394807,41.1182766 Z M23.2829431,41.3370611 C21.6721515,41.3645053 20.0606589,41.3856405 18.45021,41.3659462 L17.7191234,41.3546278 L17.7191234,41.3546278 C17.8734915,42.1841636 18.0415222,43.0108603 18.1811633,43.8458968 C18.3268372,44.716244 17.5619162,45.2695044 16.8999074,45.2471469 C16.9742525,45.2593903 17.0484202,45.2719886 17.1227653,45.2824576 C19.1911216,45.5754124 21.3387912,45.4976933 23.4378436,45.4953866 C23.3249064,44.8352713 23.3706628,44.0904417 23.3537665,43.539454 L23.3505457,43.4541075 C23.3184301,42.7480705 23.2958958,42.0425658 23.2829431,41.3370611 Z M12.34161,41.1848169 C12.3975019,41.6161755 12.5062694,42.0383072 12.668977,42.4313386 C13.3565365,44.0918298 14.9328663,44.8667138 16.6007525,45.1930274 C16.3113565,45.0929508 16.0815785,44.8525185 16.0235574,44.4406784 C15.8789481,43.4166675 15.8269598,42.3756222 15.8230562,41.335819 C14.6606815,41.3249951 13.4904997,41.3001534 12.34161,41.1848169 Z M37.8011822,40.8302901 C36.9736268,41.0258299 36.0119308,40.9362223 35.1999896,40.97313 C34.4393271,41.007731 33.6783097,41.0378959 32.9176471,41.0687706 C32.9534889,41.5888496 32.9884436,42.1087512 33.0264146,42.6284754 C33.0753866,43.3002663 33.0799999,44.010207 33.2084626,44.6791589 C34.7393691,44.1558859 36.1111168,43.3167683 37.140238,41.9749608 C37.3966311,41.6406623 37.6262316,41.2483407 37.8011822,40.8302901 Z M16.2488995,35.9325688 C14.8712965,36.2592373 13.5675063,36.9493047 12.8668167,38.2117961 C12.4509098,38.9609512 12.2679746,39.848865 12.3031067,40.7238257 C13.4674332,40.5880834 14.6518098,40.5366256 15.8305084,40.4940398 C15.834412,40.2814657 15.8394196,40.0691282 15.8457941,39.8572376 L15.8639536,39.3141573 C15.8960825,38.2783562 15.9122263,36.9776462 16.2488995,35.9325688 Z M23.3792902,36.0589067 L22.7728513,35.9906901 C21.0884165,35.7984824 19.404886,35.5967114 17.7203654,35.7123647 C17.4765701,35.7292216 17.2290487,35.7558377 16.980995,35.7922131 C17.2787304,36.8682142 17.2537121,38.1319477 17.3780939,39.1971249 C17.4261787,39.608965 17.4868613,40.0174338 17.5541091,40.4243056 L17.846344,40.4106426 L17.846344,40.4106426 C19.6538713,40.3125179 21.4631729,40.252188 23.2721196,40.1803244 C23.2719865,39.8401704 23.2738496,39.4998167 23.2792808,39.1593383 L23.2859595,38.8188211 C23.3065419,37.9491836 23.2504726,36.9695329 23.3792902,36.0589067 Z M31.837957,35.9208577 C30.0737238,36.2060051 28.2504049,36.2666898 26.5174002,36.2688191 C25.8252274,36.2697063 25.1334096,36.2271205 24.4419466,36.165726 C24.487015,36.534448 24.5104363,36.9074286 24.5443264,37.2710049 C24.6126032,38.0057518 24.6906461,38.7393631 24.7754571,39.472293 L24.851111,40.1136067 L24.851111,40.1136067 C27.0745451,40.0126429 29.2978019,39.9035168 31.5207037,39.790487 L31.8344083,39.7736301 L31.8344083,39.7736301 L31.922337,38.5411328 C31.9821917,37.7192795 32.0480397,36.8976102 32.1410154,36.0794898 L32.0712836,36.0542932 L32.0712836,36.0542932 C31.9893088,36.0205794 31.9115924,35.9740899 31.837957,35.9208577 Z M32.60412,36.2267657 C32.7013542,37.3888256 32.7551169,38.5556764 32.8266231,39.7196881 L34.2920497,39.6412855 C34.5362656,39.6279512 34.7804748,39.6143474 35.0246841,39.6002704 C35.9743146,39.5454412 37.194533,39.2574548 38.13334,39.5261002 C38.2050236,38.6713678 37.9610509,37.838638 37.1908069,37.2644395 C35.8385771,36.255866 34.1167508,36.6150062 32.60412,36.2267657 Z M27.5973431,25.8386041 C29.7795121,24.5870425 35.2546724,23.3078781 35.6014153,27.2408233 C35.7608798,29.050666 34.4173699,30.5502587 32.8485312,31.2194081 L32.7895967,31.244111 C31.3181618,31.8499466 28.7101213,32.5341384 27.4367745,31.220426 C26.3769857,30.1270014 27.7826283,28.1664945 29.0995403,29.0622479 C29.7763151,29.522416 31.2008374,29.183353 31.9560105,28.9643945 L32.0032903,28.9505904 C32.8182252,28.7107137 33.9046864,27.9430014 33.5677234,26.9380836 C33.2695245,26.0490973 32.0006231,25.8866863 31.2059593,25.857837 C30.0197428,25.8152753 28.8653555,26.0911247 27.6899857,26.1808781 C27.5038114,26.1951247 27.4463766,25.9251521 27.5973431,25.8386041 Z M36.6366653,19.5144247 C39.5983836,19.3755205 41.4407445,22.6141233 40.7597058,25.267726 C40.641991,25.7255753 40.1305896,26.1750548 39.6369699,26.123589 L39.5125948,26.1121262 C39.4494086,26.1060444 39.385928,26.0980521 39.3275685,26.0819178 C38.8588431,25.9519178 38.4386618,25.4636164 38.4728026,24.9575068 L38.4818724,24.8100342 C38.5509748,23.5564902 38.4153273,22.1122358 36.9277516,21.8086575 C35.6661407,21.5511507 34.9618079,22.767274 34.9468713,23.8866986 C34.9440262,24.0854384 34.7210438,24.2241644 34.5455386,24.1173151 C33.6335157,23.5615205 33.4756143,22.4558082 33.8239576,21.5036027 C34.2654769,20.2970959 35.3704312,19.573726 36.6366653,19.5144247 Z M14.6579629,20.2090164 C16.8132815,19.4888521 19.1385931,20.6394411 20.1822005,22.5477699 C20.5483255,22.6539068 20.9139171,22.9365233 20.8630614,23.369263 C20.7896231,23.9918384 20.679021,24.3843315 20.2479928,24.8564274 C19.5738157,25.5949526 18.3111584,25.2173452 18.0309431,24.3082141 L18.0190579,24.2671534 C17.7007657,23.091989 16.4091037,22.3166192 15.2324893,22.727989 C13.8579646,23.2084548 13.8977956,24.6623178 12.9336724,25.5092767 C12.820403,25.6088247 12.6845509,25.624674 12.5486988,25.5589616 C11.5246512,25.0633589 11.7086917,23.5717425 12.0737498,22.7180164 C12.5526107,21.5977014 13.4833044,20.6013315 14.6579629,20.2090164 Z M11.7226504,13.6542918 C13.469168,11.8695521 18.0234144,10.142511 19.2181662,13.4382781 C19.4457718,14.0660178 18.9612208,14.9124425 18.3086327,15.0426205 C17.2399532,15.2556068 16.2918335,14.7909904 15.2302665,14.8743329 C14.3708775,14.9421822 13.4745025,15.2297849 12.787418,15.762963 C10.8844215,17.2396205 10.4658405,19.7372233 9.13985986,21.6167027 C9.07531232,21.708237 8.94995141,21.6697712 8.93803768,21.5618534 C8.63610458,18.8256205 9.80969613,15.6089219 11.7226504,13.6542918 Z M34.5001419,11.8973507 C35.6591525,11.4874055 36.971619,11.5224877 38.1366754,11.8861315 C39.3102669,12.2526247 40.3876595,12.9485699 41.2177088,13.8578575 C41.594325,14.2706521 41.9428461,14.7261863 42.2223743,15.2111041 C42.3708514,15.4680767 42.5269746,15.9989397 42.6957229,16.3150356 C43.6087225,16.8429435 43.9989588,18.0459056 43.181558,18.9017265 L43.1447106,18.9392548 L43.0353532,19.0478849 C42.5959676,19.483474 41.9334218,19.6722411 41.3336454,19.4982548 C39.9914835,19.1093233 39.8284254,18.0506247 39.3637898,16.926926 C39.0568778,16.1846795 38.5310732,15.5279123 37.8935996,15.0454877 C36.386957,13.9057616 33.9165468,13.5426521 32.1026366,14.0797479 C32.006082,14.1084192 31.8926349,13.9851863 31.96145,13.895789 C32.3051701,13.4498712 32.5032581,13.0839123 32.9634482,12.7241863 C33.4305732,12.3591178 33.9403743,12.0953781 34.5001419,11.8973507 Z" id="ðŸ–-Ink"></path>
                    </g>
                </g>
            </g>
        </g>
    </g>
</svg>