<?xml version="1.0" encoding="UTF-8"?>
<svg width="143px" height="204px" viewBox="0 0 143 204" version="1.1" xmlns="http://www.w3.org/2000/svg" xmlns:xlink="http://www.w3.org/1999/xlink">
    <title>a person/bust</title>
    <g id="Onboarding" stroke="none" stroke-width="1" fill="none" fill-rule="evenodd">
        <g id="Feeds-Explanation" transform="translate(-806.000000, -293.000000)">
            <g id="Private" transform="translate(741.000000, 252.000000)">
                <g id="a-person/bust" transform="translate(32.000000, 0.000000)">
                    <g id="BODY" transform="translate(26.178082, 113.794521)">
                        <path d="M117.522351,38.8178753 C115.975885,38.2665329 114.485337,37.629711 113.127282,36.6929986 C109.212501,33.7790397 106.659871,29.3937658 104.247926,25.2389301 C100.850474,19.1960671 98.4301589,12.7569712 96.7570767,6.03971096 C96.0381589,3.15371096 95.7940082,-0.192453425 94.1606384,-2.75113836 C90.4579534,-8.1087411 79.6004603,-7.41457671 73.8350493,-6.47412466 C69.9742274,-5.79100137 69.1762411,-1.47037123 68.2993644,1.72673836 C67.5692274,4.38319041 67.0912548,7.06973836 66.6900356,9.7922589 C65.7355151,10.4198205 64.6579397,10.9294918 63.6307616,11.3734507 C52.4366932,14.8059849 50.4692411,21.169574 46.1936658,30.9993548 C38.9722548,45.286711 19.3769808,50.8808068 16.4170767,67.7895329 C14.5099945,78.9526151 19.9331315,89.4546562 25.5243781,98.7348753 C30.7315014,108.871492 38.0009945,113.736697 49.5779397,111.341848 C60.4365014,108.90604 70.8721178,104.831341 81.5395973,101.68267 C86.7062959,100.41241 91.8648027,97.1082726 97.2996932,98.2602863 C108.498392,100.775341 120.00446,101.957807 131.481145,101.631382 C147.594734,102.282985 147.592241,86.817437 145.938392,74.8408753 C144.779967,56.2026151 135.379008,44.2347795 117.522351,38.8178753 L117.522351,38.8178753 Z" id="ðŸŽ¨-Background" fill="#FFFFFF"></path>
                        <path d="M118.599641,65.7874795 C119.946121,66.6778904 121.078545,68.0279315 121.987655,69.4486712 C118.192367,69.053863 114.403668,68.5986849 110.62334,68.0804658 C111.11823,67.7641918 111.617751,67.454863 112.128668,67.1628082 C113.992655,66.1124795 116.518216,64.4112603 118.599641,65.7874795 Z M55.5434082,77.0063014 C54.8479973,76.7340137 54.5789151,75.6737123 54.307874,75.0659178 C53.4580658,73.1599041 52.6825178,71.2214795 51.8756274,69.2969452 C54.9393534,68.4236301 57.9186685,67.4546849 61.0924493,66.9891781 C64.5050384,66.4891233 67.9680247,66.3680274 71.4121342,66.4803973 C78.388326,66.7079863 85.2996959,67.8480685 92.1583534,69.0706027 C99.0089973,70.2917123 105.859285,71.4649178 112.757833,72.3856027 C119.516586,73.287589 126.29671,73.9477397 133.089477,74.5272192 C134.409244,74.6399452 136.609805,75.1145342 137.671175,74.0759589 C138.511545,73.2533973 138.538792,71.7363151 137.487216,71.0676164 C136.83223,70.650726 135.88323,70.6446712 135.134929,70.5485068 C134.192518,70.4272329 133.246367,70.3465616 132.298258,70.2836986 C131.911997,70.2582329 131.525737,70.234726 131.139299,70.2112192 C134.240956,69.0417534 137.480449,68.4040411 140.842997,68.5817671 C141.033189,69.7369863 141.889942,70.9255068 142.358833,71.8782466 C143.177655,73.5415342 143.815901,75.2249452 144.234929,77.0335479 C145.110737,80.8138767 145.148847,84.7373836 144.90149,88.5930411 C144.674258,91.8077808 144.186134,95.363726 141.66449,97.6405068 C139.755271,99.3643425 137.0616,100.002589 134.562573,100.203288 C131.658052,100.436575 128.708655,100.187438 125.828532,99.7981507 C121.788915,99.2519726 117.730422,98.5296712 113.77023,97.5616164 C106.100052,95.6867671 98.7481068,92.7035342 91.9651342,88.6589315 C88.6572575,86.6866712 85.5009288,84.4677671 82.1476411,82.5704795 C78.7307781,80.636863 75.0950521,79.1368767 71.277326,78.2055068 C67.0049562,77.1631918 62.5386548,76.7183425 58.1475041,76.9754932 C57.3854904,77.0200137 56.2845863,77.2963973 55.5434082,77.0063014 Z M50.5923671,75.0709041 C51.0413123,76.5277945 51.3848329,78.1912603 52.3430932,79.4153973 C53.2922712,80.6284932 54.7242301,81.0566027 56.2076548,81.1645205 C57.9963123,81.2943425 59.8059836,81.2111781 61.5985589,81.2777808 C65.2750658,81.4143699 68.9011753,82.0114795 72.4158055,83.106863 C75.6910932,84.1278082 78.7314904,85.7202192 81.6602301,87.4867945 C84.3685041,89.1205205 86.9973534,90.8744521 89.7065178,92.5031918 C88.985463,92.8337123 88.2726,93.1913014 87.5558192,93.502589 C86.0524493,94.1554384 84.5398192,94.7853151 83.0204219,95.3995205 C80.024189,96.6104795 77.0153123,97.7920548 73.9756274,98.8897534 C67.8463945,101.103137 61.6163671,103.036932 55.3113671,104.684192 C52.3042712,105.46989 49.2544356,106.387548 46.1303397,106.51826 C43.3600932,106.634014 40.7941068,105.850986 38.5598877,104.203904 C33.9258329,100.787575 30.2389973,95.8564795 27.2586137,90.9925205 C25.4879425,88.1027808 23.9427233,85.0664795 22.6646274,81.9270685 C22.018189,80.3394658 21.4319425,78.7274658 20.9042849,77.096589 C20.6567507,76.3308356 20.4220384,75.5608082 20.1997918,74.7872192 C20.1020247,74.4470822 20.0083534,74.1058767 19.9155726,73.7643151 C24.6541616,72.3182877 29.4490247,71.0129452 34.3564356,70.2883288 C36.9765589,69.9013562 39.6315863,69.7054658 42.2803808,69.7339589 C43.5951616,69.7480274 44.9092301,69.8190822 46.2170658,69.9547808 C46.9210247,70.0277945 47.6221342,70.1218219 48.3202164,70.2382877 C48.6087096,70.2861918 48.9052164,70.3570685 49.2026137,70.4092466 C49.6569014,71.965863 50.1149288,73.5212329 50.5923671,75.0709041 Z M148.545052,68.8818356 C148.800422,68.3652192 148.908162,67.8569726 148.999696,67.294589 C149.069504,66.865589 149.25471,66.2617123 149.092477,65.7046712 C148.910833,65.0808493 148.415942,64.5229178 148.060668,63.9908082 C147.668353,63.4027808 147.276395,62.8143973 146.88497,62.2256575 C146.101942,61.0483562 145.320696,59.8699863 144.540696,58.690726 C141.35534,53.8752055 138.19171,49.0457945 135.023093,44.219411 C132.211175,39.9363562 129.446627,35.6148356 126.549052,31.3893014 C124.071395,27.7760137 121.370778,24.2223836 117.979381,21.4122466 C113.69134,17.8591507 108.585367,16.1853562 103.251984,14.8793014 C102.669477,14.2747123 101.891436,13.9445479 101.059792,14.0115068 C99.8848055,12.6789178 98.9509425,11.7480822 98.5276411,10.0534521 C98.3248055,9.24175342 98.3883808,6.96105479 97.597874,6.48076712 C96.6588466,5.91019178 96.1684321,6.66537346 95.9094767,7.51649315 C95.0431068,10.3640274 96.0375178,14.1924384 98.325874,17.0447808 C97.361737,20.3768767 96.083463,25.1124384 93.8031205,27.7818904 C91.3612575,30.6402877 87.9842849,31.5299863 84.3407233,31.5885753 C77.3923123,31.700411 70.4512027,29.1180411 65.1512986,24.6424795 C63.5403671,23.2822877 62.0442986,21.7630685 60.6906959,20.1473288 C59.6754493,18.9351233 58.474463,17.0643699 57.6802164,15.6503973 C57.6802164,15.0993711 57.0296277,14.523137 63.6530932,14.0779315 C70.2765586,13.632726 70.778874,4.56353425 70.9261479,3.32924658 C71.0458192,2.327 71.5547781,0.771273973 70.8485041,-0.0459452055 C70.5487918,-0.393027397 69.9336959,-0.448945205 69.5536685,-0.213164384 C68.8370658,0.231863014 68.6016411,1.36980822 68.3763671,2.14250685 C68.0608055,3.22506849 67.0291753,9.94357534 65.0743671,10.7214384 C64.1592027,11.0856164 63.1095863,11.0923836 62.1415315,11.1596986 C60.9460658,11.2432192 59.7481068,11.3043014 58.5574493,11.4433836 C58.1182986,11.4946712 57.6392575,11.6367808 57.2059836,11.6408767 C56.9240795,11.6435479 56.6332712,11.5066027 56.3608055,11.4104384 C55.441189,11.0854384 54.5222849,11.3292329 53.5748877,11.4565616 C45.1986137,12.5822192 36.5739151,15.151411 29.4292575,19.7742466 C23.1319151,23.8487671 18.6953534,29.7085616 15.7678603,36.5597397 C12.7808877,43.5516027 11.0688055,51.1124384 9.63399726,58.5555616 C9.15335342,61.0494247 8.7336137,63.554863 8.37299726,66.0688493 C8.02449041,68.4980685 7.58854521,70.9816027 7.48418904,73.4353973 C7.44287397,74.4063014 7.67491507,75.3082877 8.03196986,76.195137 C8.43407945,77.1932877 9.38450411,77.5868493 10.2961068,78.0528904 C12.2972164,79.0765068 14.4082027,79.8703973 16.5831205,80.4326027 C17.9117918,82.8497123 19.0299699,85.3612055 19.9285726,87.9677945 C19.5952027,88.6283014 19.5882575,89.6146986 19.5241479,90.2566849 C19.3651205,91.8553288 19.2970932,93.4623425 19.2828466,95.0682877 C19.2541753,98.2871233 19.4477507,101.502753 19.5994767,104.716603 C19.7533397,107.976219 20.2647918,120.837137 20.3481342,122.407644 C20.4129562,123.627685 20.3256959,125.334247 20.9683945,126.417342 C21.9560384,128.082233 24.3936274,128.026137 25.5226685,126.676274 C53.5748877,132.706814 106.305149,130.890411 127.542216,127.856247 C130.305373,127.461471 129.437723,127.899342 130.140436,127.20126 C130.667737,126.676986 131.116504,125.779274 131.262353,125.057863 C131.457175,124.094795 131.142682,123.22326 130.59134,122.443973 C130.011682,121.624795 129.906079,120.298082 129.690778,119.323973 C129.181641,117.021192 128.928586,106.907904 128.690668,105.787233 C128.616586,105.438014 128.544819,105.068849 128.458271,104.699507 C132.353819,105.068493 136.412847,105.068493 140.118915,103.765644 C142.220463,103.026781 144.180436,101.866219 145.689148,100.209164 C147.515915,98.2027123 148.53223,95.6767945 149.054901,93.0402877 C149.729299,89.6405205 149.872477,86.1189452 149.739984,82.6629041 C149.555847,78.578411 148.878422,74.4363973 147.19697,70.6861644 C147.750271,70.1723973 148.213997,69.5524932 148.545052,68.8818356 Z" id="ðŸ–-Ink" fill="#000000"></path>
                    </g>
                    <g id="HEAD" transform="translate(66.246575, 32.054795)">
                        <path d="M43.5947122,10.4545201 C51.5677253,10.4545201 61.1338988,14.3197175 61.9472396,14.3970214 L61.9691965,14.3981967 C62.3971159,14.3981967 64.0691772,15.6720577 66.9853803,18.2197797 L63.8268031,24.3803562 L64.0824139,24.6244316 C65.3055898,25.7971634 66.3498154,26.8660743 67.1740595,27.7086975 C73.9040791,34.5887838 75.1136861,61.6019884 73.5276457,71.0223845 C71.9416052,80.4427807 69.0039487,89.660812 55.3275046,89.660812 C41.6510606,89.660812 26.4357057,81.4374544 24.0918754,78.8766029 C22.5293219,77.1693685 20.7741665,76.3514553 18.8264092,76.4228634 C18.746357,76.3218526 18.6669507,76.2211376 18.5881902,76.1207184 L18.3016146,76.0801218 C15.6059584,75.6897145 13.6744571,75.164231 12.5071837,74.5038466 C10.2271704,73.2139301 7.72115949,66.4326897 7.72115949,64.9388685 C7.72115949,63.4599856 3.9791587,52.7016231 3.90431868,51.5631401 L3.90318092,51.5316046 C3.90318092,50.5798737 -0.985366973,46.2048302 -0.985366973,44.8154023 C-0.985366973,43.4259744 -1.97073395,43.5102717 -0.985366973,38.6141432 L-0.699089917,37.1758037 C0.349495272,31.9628689 2.40186306,23.3310029 10.2271704,19.5801971 C18.8264092,15.4584324 35.5411637,10.4545201 43.5947122,10.4545201 Z" id="Path" fill="#FFFFFF"></path>
                        <path d="M8.89981781,19.3865616 C13.1885249,14.8344603 37.5362272,7.79344195 49.8544056,9.28597038 L50.2239685,9.33382192 C51.2069822,9.45847945 52.1757493,9.64724658 53.1318726,9.90368493 C56.222311,10.6254521 59.4146123,11.7183425 61.9681329,13.543863 C64.0999548,15.0372603 70.8248726,17.4760959 68.8428178,21.382863 C69.577763,22.7752877 69.8520096,24.4955616 69.3553384,25.8669726 C69.2928315,26.3406712 69.1468041,26.7769726 68.9599959,27.2293014 C70.5301466,29.5463288 71.7733384,32.1666301 72.7796808,34.6588904 C74.5382425,40.9311233 75.6325575,47.4585479 75.7928315,53.8579315 C76.3260096,66.0159589 74.9928863,80.5387397 64.403763,88.4007123 C58.0068726,93.3825616 47.9865438,93.5499589 40.7979,87.373 C40.3899137,86.8902192 38.4714342,85.5873699 39.1116397,85.3588904 C39.3021877,85.5601233 39.4980781,85.7560137 39.6975301,85.9483425 C39.6884479,85.9269726 39.6866671,85.9056027 39.6904068,85.8824521 L39.5028103,85.7125666 C39.1495444,85.3857514 38.6918883,84.9117494 39.2131466,85.0045068 C39.2361192,85.0312192 39.2612288,85.0543699 39.2859822,85.0810822 C39.396382,85.1473065 39.4797857,85.2047196 39.5446804,85.2553383 L39.578062,85.2820541 L39.5677488,85.2713262 C39.2674862,84.9511457 39.0874726,84.6245768 39.5364148,84.8331439 L39.5958452,84.8620411 C39.7954753,85.0721781 39.998311,85.273411 40.2048863,85.4693014 C40.2015027,85.4461507 40.2048863,85.423 40.2175301,85.3980685 L40.0249253,85.2120039 C39.8369129,85.027768 39.8656083,85.0269819 39.9575301,84.8780685 C39.5579137,84.318 40.3039,84.6506575 40.3562562,84.8691644 C40.8230096,84.7587534 41.2327767,85.6349178 41.5333795,85.7417671 C54.7112836,95.872863 73.8349959,86.8834521 73.525311,58.6529726 L73.5205821,58.1006309 C73.4300093,49.073737 72.6703597,39.795771 68.9366671,31.6243699 C68.5735575,30.8372466 68.1673521,30.0714932 67.7205438,29.3306712 C67.4124616,28.7750548 67.0830096,28.2336849 66.728626,27.7065616 C65.7365301,27.6264247 64.7570781,27.4447808 63.7920507,27.163411 C63.4606397,27.0797123 63.1329685,26.9871096 62.8054753,26.8784795 C58.018626,27.1395479 53.3384479,27.423589 48.5382425,27.6928493 L47.0388746,27.7862337 C42.9725284,28.047655 38.7671504,28.4663653 35.4857082,30.9814932 C32.2659822,33.271274 32.2513795,37.7865479 29.4952014,40.3005342 C25.5649274,42.9680274 25.5362562,45.3733836 24.7794068,49.3043699 C24.8355027,52.2676575 26.8902151,56.5731507 23.1196808,57.8202603 C23.7557904,58.7272329 22.8691192,58.2914658 22.799311,57.973411 C22.7921877,57.9751918 22.7850644,57.9769726 22.7797219,57.9769726 C23.3465575,59.0306849 22.513311,58.3671507 22.4395849,58.0286164 C22.3950644,58.0161507 22.3505438,57.9840959 22.3060233,57.9395753 C22.8771329,58.8627534 21.9539548,58.2163151 22.008626,58.0482055 C20.9050507,56.3519726 18.6337904,56.088589 17.0328315,56.5380685 C17.0132425,56.5986164 16.9421877,56.6039589 16.8976671,56.5719041 C10.0901192,58.047137 11.8465438,72.1398493 18.8227356,70.7775205 C19.1213795,70.7166164 19.1142562,70.8599726 19.1735575,70.8736849 C19.0123932,70.4505616 19.4666808,70.6227671 19.4618726,70.7116301 L19.4895533,70.7102861 C19.5114872,70.7083521 19.5025149,70.7059513 19.5188589,70.7116301 C19.363037,69.8463288 20.2399137,71.1000274 20.1706397,71.1514932 C20.1975301,71.1354658 20.2278041,71.1265616 20.2545164,71.123 L20.2243314,71.0408594 C20.0788041,70.6531678 20.0912798,70.814308 20.0922836,70.5923151 C19.9829411,70.3178904 19.9749274,70.4379178 20.0005712,70.2591233 C20.3848726,69.9613699 20.498311,70.8646027 20.6265301,70.9306712 C20.4067767,70.6243699 20.5814753,70.3741644 20.788763,70.5404932 C22.3599822,73.8453425 24.3895849,76.9505616 27.0125575,79.3966986 C27.2994479,79.622863 27.5897219,79.8454658 27.8905027,80.0556027 C29.0061877,81.0273973 30.7175575,81.6522877 31.7620096,82.513137 C31.7620096,82.5273836 31.7550644,82.5451918 31.7443795,82.563 L31.768287,82.5845925 L31.768287,82.5845925 L31.7924616,82.6075205 L32.1557493,82.7820411 C32.2625986,82.872863 32.358763,82.9743699 32.4440644,83.0865616 C32.5350644,83.1916301 32.6150233,83.3073836 32.6828726,83.4302603 C32.7167082,83.5798493 32.6419137,83.6421781 32.4994479,83.5780685 C32.4369411,83.5566986 32.3747904,83.5317671 32.3124616,83.5086164 C32.3160233,83.5139589 32.317626,83.5175205 32.3213658,83.5210822 C32.3418007,83.5519922 32.4801351,83.8726832 32.3207343,83.8205029 L32.3017767,83.813137 C32.2143384,83.7810822 32.1272562,83.7454658 32.0417767,83.7116301 C32.1432836,83.8380685 32.2357082,83.9751918 32.317626,84.0909452 C32.4050644,84.1817671 32.458311,84.2886164 32.4798589,84.4097123 C32.4761192,84.4773836 32.4389,84.5058767 32.3712288,84.4969726 C32.2679411,84.463137 32.1664342,84.4275205 32.0647493,84.3901233 L32.0936672,84.4452888 C32.1655103,84.5866011 32.2676137,84.8236098 32.0862973,84.7445068 C31.9311877,84.6964247 31.7817767,84.6412192 31.6321877,84.5806712 C31.6195438,84.6056027 31.5947904,84.6145068 31.5449274,84.5913562 C31.0694479,84.4221781 30.6099959,84.2156027 30.1701329,83.9716301 C29.7836945,83.6902603 29.3935164,83.4142329 29.0054753,83.1346438 C28.6402288,82.9156027 28.287626,82.6716301 27.9512288,82.3973836 C25.6992014,80.9428082 23.7276534,79.0950274 22.1635575,77.0371096 C19.5477082,79.3024932 14.3176123,77.1382603 11.0823932,75.3649178 C8.22079041,73.7799863 7.09602329,70.8494658 6.80521507,67.6899315 C6.20062603,63.4362603 2.72446164,61.9802603 2.96629726,52.6469726 C2.96095479,52.6487534 2.95543425,52.6487534 2.94831096,52.6487534 C2.8218726,52.6113562 2.69917397,52.5614932 2.58342055,52.4973836 C2.46410548,52.4403973 2.3519137,52.372726 2.24666712,52.2908082 L2.11666712,52.1109452 L2.11666712,52.1109452 C2.04917397,52.0735479 1.98862603,52.0343699 1.94232466,51.9951918 L1.91831252,52.0261592 C1.84230183,52.1178842 1.89339658,51.9798767 1.89780411,51.9524521 L1.6719698,51.6453316 C1.13649996,50.9142468 0.549031849,50.0939418 0.0705027397,49.4379315 L0.0554296138,49.4645867 C0.044604501,49.4847053 0.0388804305,49.4992427 0.0439684931,49.5056027 C-1.09486712,47.8693836 -2.16585342,45.8930274 -2.46342877,43.9797123 C-2.81478493,42.5059041 -2.67748356,40.9872192 -2.37100411,39.6220411 C-1.05693562,34.8414247 3.24766712,24.0232877 8.89981781,19.3865616 Z M39.8055878,85.5001153 L39.7342241,85.4365584 L39.7969726,85.5151776 C39.829855,85.5558067 39.8635187,85.5923242 39.9183521,85.6295753 C39.9147904,85.6171096 39.9147904,85.6046438 39.9163932,85.5903973 C39.8800284,85.562638 39.8428462,85.5322809 39.8055878,85.5001153 Z M49.7999548,11.6880685 C41.4464753,10.969863 33.2302973,12.8101644 25.2589822,15.0377945 L24.7090874,15.1958457 C20.1765139,16.4891764 15.3837927,17.6529662 11.5534205,20.4212192 C6.2018726,24.520137 3.43839315,31.0407945 1.02680411,37.0612192 C-1.07901781,41.5342877 -0.00251095891,46.5781096 3.1709137,49.7014932 C3.50107808,46.5976986 4.06399589,43.584726 4.94372192,40.5959726 C5.12732466,40.1290411 4.98842055,39.9760685 5.38411918,39.9151644 C5.98176301,47.9694658 3.03824247,53.9202603 8.86331096,63.4658219 C11.3908315,67.9698767 8.4649411,71.2654658 15.6024753,73.6355616 L15.7956305,73.7093678 C17.2826314,74.2704785 18.9065381,74.7133893 20.3629685,74.3997123 L20.2324865,74.1874674 C20.0994138,73.968896 20.0590323,73.8627945 20.2525575,73.7693014 C20.2473932,73.7586164 20.2402699,73.7479315 20.2329685,73.7354658 C20.0764342,73.4398493 19.9250644,73.1406712 19.7806397,72.8379315 C19.7220507,72.8575205 19.6632836,72.8717671 19.6025575,72.8877945 C19.6419137,72.9608082 19.6470781,73.0338219 19.5368452,73.0587534 C19.1444233,73.1933836 18.7414526,73.2473464 18.3289466,73.2220899 L18.2404068,73.2154658 C17.7743658,73.1869726 17.4807082,73.1020274 17.218037,73.023137 C17.1309548,73.0088904 17.0436945,72.9946438 16.958037,72.9768356 C16.113037,72.7894932 15.2185301,72.3129452 14.6395849,71.8406712 C8.04021507,68.0923973 8.72226986,55.3329863 16.8567082,54.1268356 C17.0235712,46.0931918 20.8446808,32.5397123 27.1861877,24.8844932 C32.9182973,17.8429452 48.5670918,14.7909726 59.4543247,15.8671233 C59.6129959,15.9196575 59.7716671,15.972726 59.9303384,16.0263288 C61.6100096,16.1755616 63.2107904,16.923863 64.8917082,17.2714795 C63.6848452,16.367 62.3157493,15.7645479 60.9055164,15.2525616 C58.0957356,13.5338904 54.8745849,12.6039452 51.7625986,11.9480685 C51.1179411,11.7895753 50.4643795,11.7023151 49.7999548,11.6880685 Z M16.4843918,60.5805164 C16.9217616,60.3429548 16.8717205,60.5723247 16.972337,60.5057219 C20.118337,60.2491055 23.5106247,63.0035027 25.2691863,65.2996945 C25.1302822,65.4439411 24.7545288,65.0165438 24.6886384,64.9488726 C24.6797342,64.9577767 24.6690493,64.9649 24.6583644,64.9684616 L24.7073323,65.0375731 C25.4200949,66.0604293 24.0071216,64.8568116 23.8748027,64.6087356 C23.8516521,64.6212014 23.8285014,64.6283247 23.801789,64.6229822 C23.9138027,64.7328589 24.2558986,65.0193932 24.3146658,65.2231192 L24.405362,65.2985963 C25.2605846,66.0309552 25.189607,66.5818706 24.2186795,65.5418863 C24.2416521,65.5899685 24.2505562,65.634489 24.2345288,65.6701055 L24.2679602,65.692384 C24.7454068,66.0260276 25.1380611,66.9560936 24.1401452,66.0013384 C24.2439671,66.6987082 23.1512548,65.3508041 23.1161726,65.3602425 C21.2252959,63.8759274 18.441337,62.4323932 16.0694603,62.2384616 L15.9878256,62.2290825 C15.5525836,62.1731603 15.3468027,62.0440213 15.4995973,61.7594205 C14.9635699,61.6319137 15.0891178,61.3679959 15.3428849,61.3765438 C14.9648164,61.1279411 15.3051315,60.8902014 15.5245288,60.9829822 C15.3736932,60.5653795 15.9786384,60.8435438 16.0338438,60.785311 C16.3478027,60.3011055 16.4323918,60.7049959 16.4843918,60.5805164 Z M9.89002603,34.6962699 C11.4010534,34.1427904 15.8643274,35.7996671 15.5072726,37.9939959 C15.2946425,38.4977904 14.5940671,38.7864616 14.1016699,38.5020644 L13.4590018,38.070436 C12.3405919,37.3214288 11.3319107,36.6646498 10.1311493,36.0114068 C9.47758767,35.6871192 9.19621781,34.9986534 9.89002603,34.6962699 Z M18.486926,31.4353712 L17.9033615,31.0556099 C14.7541674,28.9945574 10.3022507,25.8715707 18.1975425,29.1026726 C19.0973918,29.4885767 20.2930356,29.7168781 20.7840082,30.5738096 C21.5552822,32.1532205 19.5255014,32.2593575 18.486926,31.4353712 Z M18.840811,22.1877411 C18.5881123,21.2287685 21.7325096,22.3540699 22.6478521,22.6507548 L22.787271,22.7034113 C23.6776849,23.0351924 24.6983616,23.3429781 25.2309342,24.1113849 C25.8549342,25.173111 24.5919753,25.3930425 23.8096603,24.9134671 C22.205674,23.8652753 20.4471123,23.0744123 18.840811,22.1877411 Z M26.8367548,17.7205671 C25.0668653,15.7877752 29.8035913,17.6393239 30.5131274,18.153284 L30.5333849,18.1684438 C31.0628233,18.5411699 30.9554397,19.3439644 30.4580562,19.5797452 C29.042837,19.6066356 28.0014123,18.4270192 26.8367548,17.7205671 Z M34.8907,15.6029562 C32.0770014,13.5808329 35.783426,14.5426548 37.0707822,15.3351205 C37.9481932,16.1088877 37.044426,17.4151205 34.8907,15.6029562 Z" id="ðŸ–-Ink" fill="#000000"></path>
                    </g>
                    <g id="FACE" transform="translate(94.561644, 65.178082)" fill="#000000">
                        <path d="M28.1108552,46.4953346 L28.4907348,46.3943796 C29.8511578,46.0237442 31.2629808,45.4353447 32.5620616,46.2417123 C33.0311301,46.5328767 33.1018288,47.1520685 32.7310616,47.5527534 C31.678751,48.6896905 30.1254926,48.469104 28.7023814,48.4805186 L28.6325,48.481274 C27.2007192,48.5010411 25.7796233,48.4296301 24.3626233,48.2243014 C24.1758151,48.1972329 24.1389521,47.8868356 24.3086644,47.8123973 C25.5424178,47.2715302 26.8113489,46.8450301 28.1108552,46.4953346 L28.1108552,46.4953346 Z M30.4189856,25.7092193 C31.7637516,26.5266247 33.8127621,28.4326546 32.3661033,30.4591021 C30.6632476,32.2458878 28.2115199,30.197216 27.0033509,29.2706814 C25.88308,28.552612 24.6243929,30.3994328 25.6637809,31.2379 C34.3940351,37.7014352 37.9369572,25.9229594 31.0991495,24.748151 C30.3462823,24.6186921 30.0666655,25.456346 30.4189856,25.7092193 Z M39.7686562,14.9598479 C41.9380534,14.8934233 41.9400123,18.3398479 39.7686562,18.3305877 C39.120437,18.3277384 38.4722178,18.3275603 37.8239986,18.3261356 C38.2006425,19.6993274 37.9855192,21.3367932 37.3052452,22.4902315 C36.8564781,23.2515329 35.7824644,23.3899027 35.1550808,22.7673274 C34.0719849,21.6924233 33.8584644,20.1204918 34.241163,18.6951219 L34.1624507,18.5086699 L34.1624507,18.5086699 C34.1368068,18.4475877 34.1184644,18.3857932 34.1035055,18.3236425 C32.0083091,18.3254233 29.9131128,18.3304492 27.8179164,18.3338657 L24.6751219,18.3371767 C22.6346562,18.337889 20.5933,18.3544507 18.5526562,18.3353959 C18.5777658,18.3733274 18.6028753,18.4110808 18.6233548,18.4543548 C18.7506836,18.7223685 18.8046425,19.0607247 18.844711,19.3504644 C18.9130945,19.8476699 18.9049027,20.383163 18.8265466,20.8784096 C18.7693822,21.2402726 18.6643137,21.6712315 18.4629027,22.0122589 L18.4616562,22.0193822 L18.4616562,22.0193822 C18.3667384,22.4239849 18.246889,22.8113137 17.9339986,23.1031904 C17.8399712,23.1906288 17.7482589,23.2529575 17.6513822,23.2971219 C17.4684918,23.4885603 17.2330671,23.6151767 16.9237384,23.6192071 C16.7595466,23.6210534 16.5795055,23.5731493 16.4049849,23.5051219 C16.1366151,23.5275603 15.8595192,23.4061082 15.6221356,23.2985466 C15.4317658,23.2121767 15.2570671,23.0974918 15.1162041,22.9479027 C15.0501356,22.9322315 14.9835329,22.9064096 14.9169301,22.8652726 C14.5087658,22.6141767 14.3527658,22.1109164 14.331574,21.6564507 C14.3301493,21.6288479 14.3312178,21.5998205 14.3303274,21.5718616 C14.3151904,21.5102452 14.3016562,21.4482726 14.2913274,21.3859438 C14.1556288,20.5783411 14.3205329,19.6688753 14.4932726,18.8840671 C14.5367247,18.6876425 14.5725192,18.4595192 14.6257658,18.2388753 C14.2184918,18.223026 13.811574,18.2073548 13.4043,18.1906151 C12.3842452,18.1489438 11.1392726,18.2855329 10.1956151,17.8543959 C10.1268753,17.8232315 10.1453959,17.7316973 10.1956151,17.6959027 C11.0668327,17.0731345 12.4204731,16.9723456 13.469705,16.7672459 L13.5588753,16.7493959 C14.8100808,16.4927795 16.060574,16.2769438 17.3244233,16.0926288 C19.7572041,15.737889 22.2211493,15.5469849 24.6751219,15.4095055 C29.6993548,15.1281356 34.7392589,15.1135329 39.7686562,14.9598479 Z" id="ðŸ–-Ink"></path>
                    </g>
                    <g id="ACCESORIES" transform="translate(74.616438, 74.972603)" fill="#000000">
                        <path d="M60.1577254,2.67123288 C64.3376818,2.67123288 66.7230422,3.57012532 67.5971497,3.64014714 L67.6234363,3.64202991 C67.9870088,3.66527611 68.3131547,3.69567499 68.6553405,3.82799951 C69.9135864,4.31259335 70.1185414,5.63226219 69.3842677,6.46393967 C69.3327616,8.18487367 69.5591032,10.1956699 69.1707579,11.9221472 C68.6916978,19.2005322 65.26877,20.4288256 63.3231227,20.8771196 C62.346289,21.1022501 61.1885603,21.1918373 60.150953,20.9541897 C58.3808541,20.8882062 56.6308944,20.3340526 55.1336531,19.3691565 C53.0484581,18.0242745 51.4997107,15.9571509 50.9971252,13.5039617 C50.758925,12.3346022 50.6476023,11.1174634 50.7772329,9.9288498 L50.7964475,9.76507876 C50.11867,9.44088369 49.3332466,9.37954949 48.523585,9.35093878 C48.1368437,9.33716988 47.7556273,9.32483151 47.3852824,9.34128267 C47.0233139,9.38169529 46.6656228,9.43551918 46.3068623,9.50883412 C45.9151308,9.6270321 45.5451424,9.82212135 45.2034912,10.131117 L45.1799659,10.5820932 C45.1158061,11.7086398 44.967882,12.8385839 44.7397581,13.9438513 C44.4029189,15.5746615 43.8611246,17.1321569 42.7080296,18.2889235 C42.3177239,18.8718667 41.8347429,19.3922239 41.2483932,19.8428425 C39.1184645,21.4827725 36.2246772,22.084849 33.5688161,21.8581092 C28.1770722,21.3980132 25.0605077,17.1178515 24.3422738,15.2883757 L24.2993649,15.1775365 C23.7805253,13.8174386 23.3670394,12.0527241 21.7275819,11.7604967 L21.3788923,11.6978486 C20.6307614,11.5574195 19.9404332,11.3619138 19.5017699,10.6319832 C19.3094686,10.3133314 19.2105555,9.95694931 19.1863174,9.59359334 C18.9303909,9.6132632 18.6748208,9.63203897 18.4201419,9.6502783 C16.3885025,10.0799306 4.20278015,10.4442254 3.23012021,10.4442254 C3.23012021,10.4442254 1.36043382,11.2311671 0.571051058,10.621433 C0.0239101528,10.1974581 -0.156093858,9.63239661 0.145100972,8.99223205 C0.59955982,8.02904991 2.69621226,7.44968954 3.62720621,7.26624285 C3.62720621,7.26624285 18.6510549,7.39102312 19.7323889,7.18600238 C20.4014336,6.49612671 21.5981929,6.59054205 22.5981954,6.48146373 C23.4260356,5.89118909 24.5841208,5.49582488 25.4989333,5.23117585 C25.6853533,5.16054317 25.8699911,5.0922351 26.0494604,5.02786101 C27.7265275,4.43061251 29.4697148,4.11428539 31.2394572,3.94440932 C33.0644484,3.77095691 34.8947862,3.84945754 36.7090841,4.09801305 C37.4736556,4.20172686 38.2310982,4.33583955 38.9831942,4.51125894 C40.3298826,4.68879061 41.668739,4.98120866 43.0159169,5.32810344 L43.2854683,5.39819085 C44.7041137,5.77013003 46.161968,6.09182167 47.6305156,5.83968981 C48.8260868,5.63576402 49.9758277,5.17564575 51.0781699,4.67809764 L51.2216847,4.61300577 C53.6455011,3.50630788 57.4307538,2.67123288 60.1577254,2.67123288 Z M38.8374087,6.71768087 C37.9430918,6.52098226 37.5611625,7.89983951 38.458331,8.09707456 C39.0936364,8.23674907 39.6320806,8.5571235 39.9958633,9.09988367 L40.0341681,9.15888941 C40.5223176,9.9356701 41.7566817,9.21861426 41.265146,8.4368267 C40.7121238,7.55704748 39.8527383,6.94084438 38.8374087,6.71768087 Z M65.0308439,5.8627572 C64.7155696,5.64066659 64.2384698,5.80553578 64.055436,6.11935947 C63.8539879,6.46493758 63.9860241,6.84970283 64.2812974,7.07577475 L64.3113625,7.09784564 C64.5822026,7.28873627 64.84598,7.63091117 64.8791055,7.98151052 L64.8820287,8.02536898 C64.9174949,8.94287858 66.3434474,8.94752782 66.3078031,8.02536898 C66.2730498,7.12323764 65.7506817,6.36952434 65.0308439,5.8627572 Z" id="ðŸ–-Ink"></path>
                    </g>
                </g>
            </g>
        </g>
    </g>
</svg>