<?xml version="1.0" encoding="UTF-8"?>
<svg width="133px" height="203px" viewBox="0 0 133 203" version="1.1" xmlns="http://www.w3.org/2000/svg" xmlns:xlink="http://www.w3.org/1999/xlink">
    <title>a person/bust</title>
    <g id="Onboarding" stroke="none" stroke-width="1" fill="none" fill-rule="evenodd">
        <g id="Feeds-Explanation" transform="translate(-515.000000, -290.000000)">
            <g id="Public" transform="translate(456.000000, 290.000000)">
                <g id="a-person/bust" transform="translate(59.000000, 0.000000)">
                    <g id="BODY" transform="translate(0.000000, 70.000000)">
                        <path d="M123.832706,58.7087883 C123.27575,57.1671703 124.089026,55.629484 124.540157,54.1380857 C126.142779,48.9658196 127.892529,43.7933749 130.368164,38.9697869 C131.305878,37.3563244 129.763171,35.3768483 127.975487,35.8318633 C124.915065,36.2640025 121.759277,35.9199711 118.693537,35.7292794 C117.572358,32.8047446 114.580004,31.5916095 112.224906,29.9073749 C109.552333,28.2256423 106.952614,26.2940625 104.173152,24.8196423 C104.01858,23.4265386 102.343103,23.0812562 101.318531,24.0777855 C98.5045031,22.3129492 95.1299737,22.6407173 92.1135128,21.4844145 C89.8214155,17.7491237 89.6494422,13.8214262 89.0425777,10.2178726 C88.7780471,8.64709334 89.0590924,7.13149528 87.9944847,5.73099427 C84.4182317,0.659882401 70.2876449,-1.53888022 65.0777488,1.46625621 C62.2732928,-0.297150341 62.2057561,2.89653315 61.7602977,4.86760955 C61.265206,5.85377326 60.9973637,6.97057954 61.0801449,8.14725621 C58.067761,14.4908374 51.1760067,17.3587187 45.0039346,19.6818688 C44.2296559,18.9307187 43.1230116,19.0256177 42.3863123,19.6471975 C37.0365568,20.8197637 31.8443869,22.8809138 27.3621498,26.0992603 C22.2697781,27.6008456 18.6834211,31.7765823 16.0900837,36.2539943 C15.804338,36.7259874 15.7369786,37.2072739 15.8204688,37.6492426 C7.84564609,49.4351321 4.03948472,63.5447078 3.50486369,77.7952917 C-1.62349205,80.8983653 5.94238814,108.774379 7.70365954,114.561612 C7.70543215,114.560897 7.70720477,114.560183 7.70897738,114.559289 C8.85160575,116.598814 10.1489835,122.418574 13.0085678,121.968384 C14.9701449,124.204499 18.0961534,123.764854 20.7580911,123.936601 C20.3245092,125.61333 20.5375776,127.531863 21.0535862,129.188754 C21.6638979,131.161082 24.6589101,131.227922 25.083629,129.077592 C51.5920397,134.270053 78.7908845,130.127022 105.597272,130.906409 C113.347859,130.961811 121.097737,131.203616 128.829711,131.760322 C129.918452,131.8386 131.02226,130.716968 130.948164,129.62411 C129.285805,111.793098 127.724662,88.3362344 125.865719,70.6798292 C125.42487,66.653143 125.076196,62.5823135 123.832706,58.7087883 Z" id="ðŸŽ¨-Background" fill="#FFFFFF"></path>
                        <polygon id="Path-3" fill="#D8D8D8" points="73.9904124 72.788721 82.8268712 62.7288366 97.9846841 57.3373466 106.565231 57.3373466 108.826237 59.2019151 108.826237 61.1794456 103.808087 62.7288366 97.9846841 62.7288366 91.4083247 65.9332492 113.578307 65.0630338 115.090044 66.5 113.578307 68.3469476 96.1284831 71.6040156 111.809859 72.788721 111.809859 74.6281869 103.808087 76.1301617 103.022866 79.2428895 94.5402281 83.003405 90.3437183 86.5 77.1922785 90.8626243 72.7000464 86.5 72.7000464 74.6281869"></polygon>
                        <path d="M40,24 L102,24 C98.9726525,31.4514307 95.4932003,36.6056915 91.5616433,39.4627825 C87.6300863,42.3198735 80.4609694,44.9040051 70.0542926,47.2151774 L49.4078881,39.4627825 L40,24 Z" id="Rectangle" fill="#D8D8D8"></path>
                        <path d="M62.1974957,2.56678131 C62.273541,2.35768172 62.5833943,2.38538295 62.5892439,2.62021787 C62.7113771,7.63378267 61.473382,13.7604007 57.4942133,17.1469205 C55.4515987,18.8852968 52.751061,19.6808755 50.27103,20.5950557 L49.991261,20.6991115 L45.6097084,22.3447431 C44.4475813,22.7811715 43.1939872,23.4526135 42.1674652,22.8360378 C42.9981131,24.9127363 43.6954603,27.0466244 44.7070923,29.0480828 C45.9663588,31.5395849 47.4888588,33.8191278 49.3522329,35.8924307 C56.73447,44.1061128 68.417783,46.6115548 78.9022757,44.2049437 C84.3011326,42.9655371 89.5546351,40.6168304 93.2379542,36.3329696 C96.0372696,33.0767349 97.6455642,28.7063748 98.0245495,24.3955276 C97.913761,24.4133993 97.7976546,24.4126844 97.6783576,24.3862342 C96.3518037,24.0945057 95.0126067,23.3776012 93.8452918,22.6745442 L93.7328686,22.6065644 C92.609739,21.9249355 91.4391033,21.1437608 90.6330947,20.0846804 C90.0994312,19.3835239 89.5525705,17.889318 88.9925127,15.6020628 C88.7636466,14.3126719 88.5489754,11.74393 88.5857231,10.4405426 C88.5890911,10.3175849 89.1302708,10.2450255 89.1880581,10.3728086 C89.688102,11.4792939 89.8497909,13.9104711 90.2357822,15.0620962 L90.3136693,15.2920105 C90.7258026,16.4946012 91.0792622,17.9588345 91.9338405,18.9310583 C93.5382353,20.7566585 95.9589199,21.5294334 98.1195617,22.4450037 C98.2746656,20.381709 101.54337,20.429784 101.501891,22.5817226 C101.499586,22.6984252 101.494446,22.8145917 101.490369,22.9309368 C101.748151,23.0738216 101.996063,23.2372141 102.227821,23.3948766 L102.453963,23.5496572 C103.309782,24.1365658 104.17216,24.6943434 105.083461,25.1922506 C106.847746,26.1564321 108.715552,26.9208072 110.523266,27.7959873 C112.352074,28.681533 114.062471,29.736503 115.659421,30.9991428 C116.409474,31.5920236 117.128695,32.2234986 117.810802,32.8945316 L117.995906,33.0785221 C118.645216,33.7304839 119.490045,34.459473 119.85999,35.3162452 C119.94153,35.5051497 120.35002,35.9445307 120.571681,35.9591822 C124.006306,36.1862065 127.433602,36.5067846 130.846664,36.9874334 C131.730314,37.1118209 132.079592,37.570976 131.752972,38.313518 C130.630552,40.8652479 126.236444,51.0559041 125.067936,53.7908195 C125.204427,55.7999628 125.020075,58.1652902 125.143095,60.1749696 C125.323015,63.1077254 125.558596,66.0394089 125.840974,68.9639437 C126.851365,79.4255357 128.383083,89.8361933 129.767141,100.252034 C130.45988,105.464869 131.091463,110.685388 131.714892,115.90698 C132.029708,118.545746 132.296842,121.187192 132.502465,123.837217 C132.588118,124.941405 132.665829,126.046395 132.734329,127.151819 L132.793364,128.13233 C132.874637,129.366267 133.062188,130.544646 132.304818,131.603747 C131.961463,132.08414 131.177257,132.354719 130.725772,131.808915 C130.15818,131.122818 129.947239,130.610256 129.892997,129.708983 C129.851518,129.019133 129.841591,128.326066 129.810393,127.635502 C129.743034,126.138563 129.658303,124.642339 129.559036,123.147009 C129.361035,120.157779 129.135026,117.169084 128.873211,114.184858 C127.955528,103.720406 126.21145,93.334769 125.050919,82.8960528 C124.465955,77.6335344 124.050454,72.3611865 123.830472,67.0695371 C123.720393,64.4270187 123.680509,61.784679 123.706389,59.1398372 C123.716139,58.1518864 123.762581,57.1685821 123.829763,56.1874225 C122.091182,60.1694293 120.263437,64.1130119 118.352557,68.0042302 L117.899618,68.9257832 C116.688646,71.3852429 115.445105,73.8539454 113.989722,76.1726392 L113.739593,76.5678473 C113.149877,77.5096801 112.344399,78.994641 111.269183,79.291855 C110.520252,79.4989887 109.605051,79.3531551 108.837153,79.3383216 C108.075106,79.3236667 107.312172,79.3204498 106.550656,79.2893529 C105.696432,79.2546817 104.881383,79.1415535 104.055876,78.9170842 C103.918675,78.8799109 103.78892,78.8395207 103.670686,78.7880501 C102.838975,80.1602438 101.425845,81.2053843 99.9809859,81.8142752 C98.8236635,82.3019861 97.6107134,82.6363227 96.3957168,82.9458097 L95.9668967,83.0542179 C94.6643784,83.3814498 93.1743172,83.5369341 92.4397451,84.8051142 L92.2690987,85.0990536 C91.7229653,86.0345398 91.1989969,86.8561164 90.2950568,87.5268045 C89.3220678,88.2490023 88.1693356,88.7031237 87.0210348,89.0566271 C85.8452586,89.4183516 84.6420757,89.6953787 83.4482145,89.9920535 L83.1228747,90.0735303 C82.3347696,90.272443 81.539574,90.4549136 80.7560776,90.6713407 C80.4219395,90.7635589 80.0817744,90.8586367 79.7538405,90.9723011 C79.3698918,91.105267 79.090882,91.3129368 78.7879419,91.5388359 C78.5156681,92.4978345 77.3519456,93.0186176 76.3950874,92.9517772 C75.8925507,92.9167486 75.4417744,92.7448222 75.0315911,92.4928304 C74.3156314,93.1072615 73.527349,93.6577117 72.797563,94.2269273 C71.7756498,95.0240078 70.7496595,95.815548 69.7179969,96.5997608 C67.5908576,98.2162615 65.4475874,99.8113161 63.2819823,101.374916 C59.4380642,104.150401 55.5110104,106.798817 51.5167744,109.349117 C49.8514016,110.412487 48.1748612,111.474069 46.4818356,112.510274 L46.6625177,112.577803 L47.0208881,112.714369 C47.8680214,113.033202 48.8119395,113.548444 48.9760837,114.544795 C49.1061938,115.335084 48.6683576,115.879815 47.8944334,115.976323 C46.9746229,116.090881 46.2588405,115.435702 45.6861082,114.810191 C45.4333331,114.534429 45.1504236,114.278148 44.9082842,113.994166 C44.8095495,113.878178 44.7336815,113.744498 44.6668539,113.604383 C42.9960678,114.597008 41.3074589,115.556284 39.5921045,116.453253 L39.1627035,116.676181 C34.9089566,118.869225 30.7686571,121.271904 26.4787488,123.402575 C25.3596962,123.958387 23.9953136,124.559593 22.5731436,124.969929 C22.9505336,126.444706 22.944684,128.063888 22.9542561,129.560648 C22.9632965,131.019341 20.6640361,131.012371 20.7126057,129.560648 L20.7360018,128.859632 C20.7778676,127.680687 20.846261,126.456919 21.1236754,125.30985 C16.9334591,126.010494 12.7474944,124.487787 11.9681131,124.030589 C11.1078625,123.526248 10.3270251,122.719159 9.67718399,121.970511 C8.28656663,120.36795 7.3215544,118.447094 6.46538081,116.51462 C4.63143215,112.376236 3.33210452,107.952618 2.38215954,103.528642 C-1.11999817,87.2178018 0.386371027,69.7603093 6.0738099,54.1250214 C7.494739,50.2184334 9.17234291,46.3979873 11.0947451,42.7158686 L11.33345,42.2606727 C13.2517855,38.6193853 15.3838735,34.9919728 18.0921473,31.893267 C20.9130886,28.6658059 24.3929114,26.1557172 28.1817011,24.2073379 C30.030717,23.2565603 31.9332659,22.4324935 33.8778258,21.7022533 C34.1901608,21.5848359 34.5046229,21.4795712 34.819794,21.3793106 C36.8462488,20.0768168 39.3055764,18.8307977 41.7657903,18.8797663 C41.932948,18.8828045 42.0683759,18.9467854 42.169415,19.0431142 C42.2880031,19.0640241 42.4065911,19.089402 42.5253564,19.124252 C42.7875263,19.2009218 43.0644089,19.4906231 43.0268295,19.7881879 L43.0140695,19.8871917 C43.0071392,19.9355441 42.9983967,19.9822752 42.9834004,20.0278482 C43.0713221,20.0410733 43.1576485,20.0621619 43.2422023,20.0912929 C45.5960593,19.4211019 47.9119823,18.3961565 50.2089383,17.5694089 L50.7320386,17.383175 C52.6558379,16.7034514 54.6295475,16.0372182 56.2076485,14.6920555 C57.7776546,13.3538181 58.958217,11.6204362 59.8117317,9.74658213 C60.8632476,7.43790819 61.3340544,4.93693411 62.1974957,2.56678131 Z M109.324127,124.330745 C109.790147,123.981174 110.341254,124.386862 110.515679,124.819538 C111.088234,126.239449 110.805325,128.445897 109.998252,129.701388 C109.161932,131.002094 107.160117,130.488639 107.111724,128.913064 C107.061205,127.270114 108.008491,125.31816 109.324127,124.330745 Z M114.138233,85.1224094 C114.180067,84.9377941 114.464394,84.9395813 114.506937,85.1224094 C114.89495,86.7885425 114.885897,88.5828004 114.999827,90.2910958 L115.013019,90.4805417 C115.149688,92.364404 115.264553,94.253449 115.346448,96.1405281 C115.507224,99.8533862 115.699376,103.566423 115.914749,107.276422 C116.021638,109.116141 116.136149,110.955681 116.258282,112.794685 C116.640812,112.579688 117.034865,112.390962 117.443276,112.224397 C118.055183,111.975086 118.650959,111.946491 119.308422,111.953283 C120.109113,111.961504 120.71198,112.671549 120.605977,113.462374 C120.490403,114.323614 119.738282,114.692666 118.957267,114.569708 C118.09223,114.433168 117.223471,114.221745 116.350103,114.134173 C116.44742,115.556051 116.547927,116.97757 116.654461,118.398197 C116.795739,120.279199 116.979914,122.157878 117.109315,124.039596 C117.121723,124.219029 117.135018,124.398819 117.148667,124.579145 C117.669461,124.306064 118.222518,124.166307 118.849315,123.994202 L119.01239,123.948095 C119.922412,123.684594 120.895997,123.320278 121.738325,123.937191 C122.304498,124.351995 122.417591,125.034696 121.948557,125.58175 C121.23741,126.411836 120.185163,126.250816 119.202821,126.208492 L118.674364,126.189056 C118.176289,126.169292 117.71678,126.137184 117.256442,126.010494 C117.340996,127.236318 117.385488,128.466789 117.236411,129.674741 C117.155757,130.327596 116.303306,130.498986 116.077652,129.832727 C115.488257,128.092197 115.366479,126.215126 115.150751,124.392027 C114.949318,122.689336 114.826846,120.974238 114.694905,119.26392 L114.65495,118.750985 C114.358215,114.988265 114.120861,111.223579 113.947499,107.453173 C113.77396,103.683304 113.66973,99.9141502 113.628251,96.1405281 C113.609397,94.4271137 113.637568,92.707496 113.704109,90.9942964 L113.725213,90.4805417 C113.80179,88.7185649 113.748257,86.8488214 114.138233,85.1224094 Z M36.2452965,124.608526 C36.2679859,124.367793 36.4592512,124.06862 36.7437561,124.105972 C37.005926,124.140286 37.2760727,124.123844 37.5354065,124.167451 C37.8776987,124.224641 38.1531632,124.428557 38.4715251,124.556877 C38.9889517,124.76544 39.5529982,124.873207 40.0838967,125.043882 C41.0799297,125.364323 41.6227048,126.421437 41.210217,127.408673 C40.7764578,128.446486 39.6864762,128.682036 38.7446852,128.246501 C38.0023267,127.903337 37.4489986,127.354675 36.949841,126.719725 L36.8084191,126.53866 C36.5933168,126.265856 36.3491926,125.961492 36.2589456,125.630969 C36.1712011,125.30892 36.2144529,124.936115 36.2452965,124.608526 Z M84.6372384,119.729589 C85.8778644,119.553486 86.9374954,119.981081 88.0854702,120.384144 L88.1787482,120.416758 C89.3470795,120.823341 91.0518044,121.104821 91.6505941,122.31045 C92.0118533,123.037473 91.7312482,124.002906 90.8811015,124.218082 C89.5346681,124.558465 88.3274218,123.566314 87.2141034,122.898425 L87.1555941,122.863581 C86.0810342,122.228955 84.9719083,121.695483 84.2857286,120.600837 C84.1026174,120.308813 84.2614438,119.783026 84.6372384,119.729589 Z M41.3288405,20.2566067 C40.8317989,20.3688413 40.3347573,20.4680296 39.8382476,20.5634648 C37.9495251,21.584121 36.1162855,22.6432015 34.1662304,23.5525166 C32.0972329,24.517413 30.0358576,25.5139423 28.0705581,26.6811469 C24.1000752,29.0393256 20.8269395,32.1054048 18.1222818,35.8636572 C13.4503747,42.3555739 9.97516076,49.8422329 7.48800306,57.4386244 C6.84897494,59.3902206 6.27712897,61.363799 5.77122433,63.3539982 C6.66568643,62.5199232 7.72464731,62.0071824 8.91212286,61.5680733 C9.41536858,61.3820282 10.0418111,61.6969286 10.2968906,62.1362165 C10.4115789,62.3335207 10.4762793,62.5286804 10.4644028,62.7601196 C10.4379908,63.2708945 10.1082842,63.8511906 9.56409108,63.9523447 C8.29542971,64.1880733 7.06186614,64.6470201 5.83858374,65.0509218 C5.65316809,65.112222 5.4938099,65.0889887 5.36653606,65.0167868 C4.15211675,70.2029928 3.39237347,75.4958932 3.12329034,80.820784 C2.89568643,85.3287568 3.03607763,89.8721156 3.53134658,94.3738332 C3.91192726,94.2013707 4.28417665,94.0396312 4.70145049,93.941694 C5.2426302,93.8148045 5.77494682,93.6603925 6.30283191,93.4859641 C7.82621822,92.9821592 8.52108374,95.5178045 6.96401773,95.904192 C6.38454951,96.0480596 5.80153606,96.167443 5.21107763,96.2548359 C4.69648716,96.3309696 4.24127934,96.2973707 3.7561143,96.2176626 C4.12676834,99.0262097 4.63302751,101.814383 5.27790526,104.562881 L5.42020475,105.164311 C6.25788346,108.674803 7.23418838,112.218017 8.64605318,115.535427 C9.3386143,117.162829 10.2555886,118.708379 11.3877586,120.065203 C11.9440055,120.732356 12.5614077,121.304252 13.2346473,121.846124 C13.7951485,122.297386 15.7004091,123.275857 17.956879,123.275857 C20.2133489,123.275857 20.8242171,123.060619 21.9626546,122.665544 C24.2140603,121.884322 26.3516705,120.636998 28.4630708,119.526047 L28.6814016,119.411633 C29.6150385,118.924627 30.5451302,118.430652 31.4727402,117.93203 C31.3555703,116.978571 31.560662,116.177738 32.0534493,115.297017 C32.5861138,114.344359 33.9059726,114.818859 34.0040921,115.793249 L34.0072268,115.830489 C34.0221167,116.050133 34.0586326,116.274066 34.1040116,116.497285 C40.3065727,113.071805 46.377783,109.406307 52.3523857,105.586754 C56.2009126,103.12617 60.0084921,100.592312 63.7604114,97.9842861 C65.6360165,96.6805412 67.4953136,95.3533843 69.3361754,94.0001347 C70.3004786,93.2911619 71.2603502,92.576649 72.2157903,91.8558809 C72.6137427,91.5556353 73.0040727,91.2403775 73.4029114,90.9385235 C73.3059493,90.8162806 73.2114688,90.6942165 73.1200018,90.5734034 C71.6306498,88.6075098 70.6643967,86.2641647 70.1829542,83.8466517 C69.8922451,82.3879587 69.7518539,80.8736844 69.7091339,79.3863966 L69.6903474,78.7397765 C69.6609187,77.6501452 69.6532374,76.5098773 69.8523612,75.454252 C69.5813282,75.6043748 69.3044456,75.7516381 69.0284493,75.909267 C68.0380886,76.4749082 67.0468417,77.0392984 66.0539994,77.6010078 C64.0658331,78.7253202 62.0718172,79.8367649 60.0524529,80.9033516 C56.4455336,82.8086599 52.803162,84.6208563 49.0624101,86.2450419 L47.2422374,87.0360306 C44.0832209,88.4060341 40.8984092,89.751239 37.6139688,90.7694566 C35.7614077,91.3436763 33.8948429,91.8344348 32.0156925,92.2726503 L32.7756131,93.1701701 C33.2909126,93.7788823 33.2999529,94.651739 32.641426,95.1641224 C31.9940666,95.6679273 31.1254847,95.4581128 30.6942072,94.7893516 L29.908052,93.5701401 C29.7400079,93.3095698 29.6446412,93.0654416 29.5905764,92.808267 C28.7249725,92.9908449 27.8570996,93.1662169 26.9868671,93.3357556 L25.341741,93.6523956 C22.9926319,94.1095236 20.7150217,95.0146304 18.6152742,96.1730062 C17.8853273,96.5756989 17.6819527,95.7933553 18.4553561,95.2482471 C20.7167705,93.6543629 23.3546214,92.7524202 26.0763251,91.995513 L26.2100202,91.9584648 C27.2085348,91.6827035 28.2052769,91.3953256 29.1998918,91.0975821 C29.0905214,90.6986844 29.0274163,90.2847745 29.0400018,89.8283297 C29.0680092,88.8116053 29.1571718,87.7913065 29.2107048,86.775297 C29.3230886,84.6428386 29.4664933,82.5171715 29.6345373,80.3886449 C29.6990605,79.5686885 29.7713833,78.7464089 29.8541644,77.9248441 C29.3208122,77.6365067 28.8608021,77.253854 28.2661403,77.0656065 L28.1657476,77.0360814 C27.5297329,76.8632615 27.7443967,76.0370501 28.3093295,75.9662779 C28.8210837,75.9024757 29.3303564,75.9317854 29.8348429,76.0409819 C29.9130153,76.0581387 29.9869334,76.0772615 30.0574835,76.0988864 C30.1501913,75.3379068 30.2530031,74.5788932 30.3698185,73.8241688 C30.6787855,71.8300378 30.897349,69.7290337 31.5404542,67.8130023 C31.5881375,67.6711005 31.797129,67.6203447 31.8745923,67.7690378 C32.8101586,69.5634312 32.8427003,71.7646319 32.9481408,73.7628611 L32.961206,74.0016353 C33.0854664,76.1816326 33.0925568,78.3828973 33.0524957,80.5659327 C33.011371,82.8156299 32.9349713,85.059608 32.8348185,87.3073393 C32.7945801,88.2123652 32.7961754,89.1513475 32.6431987,90.0168768 C38.2106314,88.1921701 43.679684,86.0080623 48.9218417,83.42184 C52.6196962,81.5976694 56.2856436,79.7004034 59.9097573,77.7318291 C61.7256253,76.7456653 63.5500018,75.7754075 65.3639199,74.7854907 C65.9994619,74.4385403 66.6345312,74.0904778 67.2693378,73.7418329 L68.2213771,73.2184948 C69.112294,72.7282724 69.8559065,72.2405521 70.893596,72.2062383 C71.2029175,72.1958727 71.4803319,72.3420637 71.6772696,72.5631374 C72.2349346,72.1644184 72.8794578,71.9195753 73.5558881,71.9252943 C74.5740789,70.5073488 75.6078686,69.1010201 76.682783,67.725252 L77.4769041,66.7066581 C78.851386,64.9493527 80.3073502,63.1653888 82.0600141,61.8277499 C82.8422696,61.2310119 83.7026974,60.7833243 84.5999957,60.4133789 C84.3888771,60.361372 84.1821901,60.2568222 83.9980153,60.0845385 C83.1409554,59.2833475 83.0228991,57.795166 82.8488282,56.6771087 C82.6681987,55.5177677 82.7380397,54.4801333 82.9163649,53.3245453 C82.9856742,52.875428 83.723437,52.7819587 83.9035348,53.1944389 C84.2830358,54.0641437 84.6849509,54.8976619 85.0303047,55.7771687 L85.1321351,56.0424825 C85.5027891,57.032578 86.2923123,58.0741442 86.2401974,59.148237 C86.2260165,59.4425849 86.1281681,59.6990446 85.9771412,59.9052847 C86.7303258,59.6531142 87.4943233,59.4282874 88.2466216,59.19381 C90.614305,58.4562424 92.9910287,57.7394061 95.4042683,57.1671524 C96.0466644,57.014885 96.6922512,56.8735194 97.3404969,56.7437704 C97.6801302,55.1181551 98.1750446,53.5225644 98.7585899,51.9557472 C98.2060654,51.6703352 97.8483515,51.1919082 97.3725813,50.7663816 C96.9273001,50.3678413 96.6213466,49.8826231 96.2414749,49.425106 C95.8956375,49.0088727 96.0899163,48.2568291 96.7113955,48.2811347 L96.8874754,48.2885891 C97.5313154,48.3187373 98.1549107,48.3858781 98.7387366,48.6887895 L98.9467098,48.7968965 C99.2320131,48.9462644 99.5442488,49.1173186 99.8223368,49.3194839 C100.185871,48.4760858 100.56393,47.6407547 100.946052,46.8139045 L101.441866,45.7446706 C102.727415,42.9616942 104.009422,40.0728141 105.6234,37.4814089 C106.340955,36.3293952 107.295864,35.6100569 108.66645,35.4987158 C110.077807,35.3841578 111.545179,35.532136 112.958486,35.5830705 C114.596915,35.6422261 116.234812,35.7122834 117.871646,35.7989614 C117.452068,35.3559205 117.069183,34.8626599 116.647832,34.4374907 C115.948358,33.7324498 115.209354,33.064046 114.432594,32.4462192 C112.895204,31.2236121 111.204837,30.216181 109.449061,29.3486858 C107.69293,28.4810119 105.885216,27.7245003 104.236683,26.6525521 C103.193498,25.9743188 102.261102,25.1207636 101.410424,24.197151 C100.874916,30.0215576 98.0853502,35.432769 93.8945312,39.498237 C89.541695,43.7204402 83.5264994,46.0401947 77.6421229,47.0268945 C71.6400446,48.0334321 65.3757965,47.6640228 59.6341155,45.5606954 C56.6736693,44.4760583 53.8342928,42.9265767 51.3021106,40.9830228 C51.2742806,41.1520896 51.2407781,41.3191906 51.1750141,41.4762834 C51.0867599,41.6873935 50.978827,41.8671695 50.8550153,42.0526068 L50.6343021,42.3779975 C50.4950457,42.5825015 50.3531279,42.7853642 50.1951119,42.9751879 C49.812404,43.4346708 49.2701608,43.6359068 48.6860837,43.6337622 C47.5677402,43.6300091 46.7207842,42.5244621 47.0217744,41.4310678 C47.2109126,40.7438986 47.6156009,40.3303461 48.2473612,40.0613761 C48.4470287,39.9763065 48.6505534,39.9050769 48.8552126,39.8349681 L49.0088771,39.782398 C49.2157414,39.7110896 49.4210104,39.6429982 49.6339016,39.6035016 C48.434904,38.5365576 47.3224101,37.3763229 46.3261999,36.1242274 C43.2016094,32.1976231 40.119739,26.6983038 41.1643417,21.483503 C41.1824224,21.3939655 41.2623674,21.3376694 41.3485165,21.323372 C41.40914,20.9573584 41.6023551,20.6033188 41.8670067,20.365267 C41.6888588,20.3180855 41.5092928,20.2816271 41.3288405,20.2566067 Z M73.7745935,110.418706 C74.3934138,110.071815 75.0326192,110.896239 74.529728,111.405406 L73.7788975,112.162747 C73.08208,112.868757 72.4038575,113.582346 71.8073441,114.386952 L71.6629092,114.583615 C70.8577742,115.687953 69.9991787,116.967556 68.6799175,117.380293 C67.0842084,117.879451 65.5507182,115.919812 66.474783,114.488284 C67.2820324,113.237261 68.8364395,112.765268 70.1765373,112.248059 C71.4443123,111.758731 72.5894224,111.082999 73.7745935,110.418706 Z M22.2976614,104.645627 C22.6612249,104.16577 23.60922,104.418477 23.3608765,105.097604 C22.5541589,107.302622 22.2253386,110.309367 20.1878936,111.774315 C19.5306076,112.246665 18.4980587,112.029523 17.956879,111.484077 C17.3419584,110.864106 17.3173191,109.991071 17.6690061,109.234738 C18.0979219,108.312098 19.1528749,107.643175 19.8923634,106.940373 L19.9586944,106.87638 C20.7542445,106.09735 21.6146724,105.547079 22.2976614,104.645627 Z M107.451873,107.183419 C108.100794,106.901407 109.792133,106.353065 110.29334,107.002126 C110.316738,107.025895 110.336769,107.051809 110.3529,107.080404 C110.475742,107.295938 110.494,107.599579 110.3529,107.813325 C109.768829,108.698264 109.160529,109.358861 108.33012,109.98869 L108.236928,110.058554 C107.332894,110.728567 106.483633,111.515639 105.38213,111.81785 C103.855375,112.236764 102.788969,110.309474 103.861225,109.184089 C104.72508,108.277524 106.043826,107.806791 107.188489,107.301253 L107.451873,107.183419 Z M46.1399156,94.5839872 C45.8844817,94.1187853 46.4063399,93.5477825 46.8789193,93.8389135 C48.2269939,94.6695929 49.7973545,95.2927812 51.3115232,95.7404688 C51.9243166,95.9216884 52.4771956,96.5479149 52.4316394,97.2236461 L52.4245001,97.3259605 C52.4064571,97.5647007 52.3738078,97.8017305 52.223357,98.0001741 C51.6960037,98.6955643 50.9415782,98.9634619 50.1359242,98.5518753 C48.3404413,97.6346966 47.1114866,96.354185 46.1399156,94.5839872 Z M85.5411663,93.1746917 C85.5083729,92.9789959 85.6503594,92.8279795 85.8476516,92.8656889 C86.986912,93.083367 88.0391369,93.6381064 89.0174438,94.2757708 C89.5421381,94.6178363 90.04822,94.9935007 90.5716736,95.3389618 C91.218324,95.765382 91.4604633,96.1176344 91.5560073,96.9004175 C91.6191125,97.4169113 91.1406834,97.8887258 90.7019609,98.0313424 C89.5061911,98.4200612 88.1361754,97.1444437 87.3261079,96.3156585 L87.2896748,96.2783015 C86.4416553,95.4068745 85.7421809,94.3763888 85.5411663,93.1746917 Z M119.758171,91.8208523 C119.498482,91.1138454 120.393476,90.5276517 120.978794,90.8749 C121.5299,91.2017745 122.127804,91.4728891 122.647712,91.8474812 C123.125452,92.1918898 123.561034,92.5998425 124.019197,92.9731834 L124.24561,93.1538957 C125.085816,93.8348531 126.472708,95.5191552 125.271361,96.4961046 C124.12795,97.4259931 122.611983,96.2384196 121.844536,95.3701484 L121.791007,95.3087049 C121.349448,94.7945344 120.805078,94.2358632 120.484766,93.6351933 C120.183244,93.0699095 119.978684,92.4209859 119.758171,91.8208523 Z M108.482453,37.0891237 C107.050356,37.3693529 106.466634,39.1515248 105.86359,40.3131892 C104.440356,43.0547172 103.131457,45.8464648 101.816884,48.6417868 C101.412196,49.5015971 101.018144,50.3680201 100.620546,51.2328345 C100.596261,51.3005685 100.565063,51.3672302 100.52837,51.4331769 C99.7138527,53.2012302 98.8750507,54.9576667 97.8946167,56.6360037 C98.791915,56.4665794 99.6938221,56.3221756 100.599097,56.2085112 C100.553428,55.3491278 101.137078,54.1990214 101.425774,53.4755677 L101.449776,53.414619 C101.809794,52.4874321 102.187184,51.0269518 103.113908,50.5458441 C103.422697,50.3857131 103.752936,50.586413 103.776689,50.9291933 C103.846884,51.9496708 102.856878,53.1175903 102.372954,53.9836558 C102.080295,54.5076558 101.795081,55.0339791 101.517135,55.5660214 C101.412905,55.7651128 101.32587,55.9608086 101.218981,56.1363093 C101.685888,56.0853748 102.153327,56.0399805 102.622007,56.0069177 L102.927434,55.9858475 C104.664978,55.8703631 106.510408,55.8373743 108.080246,56.7012356 C109.536805,57.5024266 110.281304,59.2129327 109.481145,60.7704566 C108.484226,62.7107936 106.289018,62.9679682 104.358639,63.1252397 C101.947526,63.3212929 99.5309187,63.6753325 97.1368233,64.0206149 C94.6604786,64.3776926 92.3286021,65.2980883 89.8891278,65.7711538 C89.6622329,65.8151183 89.5209554,65.515945 89.7290605,65.3881619 C91.6533426,64.2072995 93.9927201,63.5574469 96.1440443,62.895502 L96.318052,62.8417936 C97.4849652,62.4804266 98.6254664,62.0675889 99.832618,61.8625999 C101.004494,61.6636872 102.183639,61.5024839 103.365619,61.3798836 L103.480411,61.3691899 C104.781795,61.259178 108.101787,61.2967478 107.961481,59.3541196 C107.868596,58.0684252 105.795699,57.846458 104.849476,57.8310883 C100.511175,57.761031 96.1416767,58.9219805 92.0187488,60.165855 L91.0983323,60.4440935 C89.4100683,60.9562351 87.719432,61.4831412 86.0629358,62.0834948 C84.1857353,62.763694 82.7068417,63.8243829 81.3396229,65.276106 C79.8236815,66.8858154 78.3554236,68.5318045 76.7827586,70.0871838 C75.7913344,71.0678072 74.7871473,72.0309164 73.7748062,72.9861619 C73.5461388,73.2846203 73.3632048,73.6093502 73.2364627,74.0305876 C73.0223307,74.7422411 73.0716094,75.4036749 73.1524407,76.1346299 C73.3562916,77.980604 73.401316,79.8457008 73.65675,81.6859559 C73.8935715,83.3907431 74.2246962,85.1580814 74.9268295,86.7395535 C75.2048532,87.365847 75.5666954,87.9809881 75.9787625,88.53108 L76.3113593,88.9670129 C76.4563476,89.1563791 76.6185052,89.3635815 76.7887855,89.5584662 C77.0387243,89.2510719 77.400338,89.0510869 77.8206253,89.1011278 C78.7138466,89.2071074 79.4159798,89.1817295 80.292184,88.9747745 C80.9703869,88.8148222 81.643272,88.6273475 82.3184615,88.4538127 C83.6442011,88.1128195 84.982349,87.8025658 86.2946167,87.4109955 L86.5202112,87.3424796 C87.4981372,87.0400607 88.4763907,86.6612752 89.290338,86.0246831 C90.2360287,85.2849709 90.526915,84.2178482 91.2274529,83.2951292 C92.7231864,81.3247677 95.9553747,81.3660514 98.1438466,80.8263243 C100.003723,80.3677899 101.79352,79.6441704 103.080613,78.283694 L103.155719,78.2026606 C103.098663,77.9598727 103.191194,77.6858986 103.414898,77.5600814 L103.463645,77.5327377 C103.550858,77.4835903 103.644806,77.4632165 103.736982,77.4651824 C103.856457,77.288252 103.971677,77.1056026 104.076438,76.9111578 C104.162587,76.7508482 104.37796,76.8688018 104.349776,77.0271456 C104.332936,77.1216872 104.309537,77.2139055 104.28738,77.3063025 C105.534149,76.9830023 106.903385,77.0447413 108.169233,77.0455574 L109.811962,77.0397652 C110.096254,77.0362447 110.519987,77.0218606 110.557655,77.0046271 L110.59628,76.9873235 C110.698701,76.942491 110.553288,77.0165037 110.624837,76.9208086 C110.703718,76.8151865 110.781004,76.7083134 110.857227,76.6005467 C111.129501,76.2164825 111.387062,75.8208018 111.639482,75.4215467 C108.888559,76.1280173 106.038902,76.5676626 103.230014,76.9342124 C100.216567,77.3279273 97.1634126,77.6010078 94.1230214,77.6038673 C93.2849285,77.6047608 93.2925507,76.3290746 94.1230214,76.2970842 C97.3424468,76.1732329 100.545032,76.0013065 103.742832,75.5854307 C105.396506,75.370076 107.043266,75.1000337 108.680809,74.784061 C109.312994,74.66239 109.943706,74.5330557 110.572851,74.3964239 L111.044415,74.2925876 C111.340265,74.2266408 112.17623,74.1317417 112.583932,73.8559805 C112.664054,73.7171169 112.744177,73.5786108 112.82359,73.4399259 C112.784592,72.9529205 111.556524,73.0181524 111.268651,73.0174375 C110.452361,73.0158291 109.635894,73.0224416 108.819427,73.0245862 C107.186671,73.0294116 105.554091,73.0151142 103.921157,73.0018891 C100.658834,72.9750814 97.3841033,72.8603447 94.1244395,73.0008168 C93.3331436,73.0347731 92.9174652,71.7553338 93.6995434,71.4188086 C97.1522451,69.932593 100.984996,69.6096503 104.671683,69.1526694 C106.610393,68.9126517 108.550167,68.635282 110.445448,68.1491701 L110.914037,68.0289919 C112.104646,67.7212633 113.419387,67.3460027 114.421958,66.6127349 C112.915052,65.9981564 111.041976,66.0685881 109.47996,65.9815541 L109.36043,65.9745344 C107.173199,65.8390664 104.982068,65.769724 102.79076,65.7665071 C98.3071045,65.760252 93.8220312,65.9203829 89.3433392,66.1346653 C89.2309554,66.1400269 89.2077341,65.9611306 89.3169273,65.9371824 C93.9202341,64.9245685 98.5986999,64.4366694 103.309605,64.361608 C105.503559,64.3265922 107.698583,64.3578386 109.890703,64.4556334 L110.695028,64.4931239 C112.564045,64.5743252 114.637965,64.5962794 116.201664,65.7341592 C116.440081,65.9075153 116.56576,66.1289464 116.585436,66.3632452 C118.682618,62.148548 120.619556,57.8457431 122.564293,53.571533 C124.076157,50.2481005 125.531652,46.8967881 127.098645,43.5992697 L127.605929,42.5324944 C128.285213,41.1090044 128.981128,39.6853543 129.753847,38.313518 C126.864305,37.9240924 123.958633,37.6536926 121.051188,37.4467377 C118.40193,37.2579166 109.75785,36.8398127 108.482453,37.0891237 Z M107.202925,82.7684306 C107.532455,82.5838153 108.037296,82.7342955 108.118482,83.1439162 C108.178928,83.4489872 108.282094,83.787657 108.282094,84.099698 C108.282094,84.4735752 108.149502,84.8798003 108.078775,85.2454565 C107.916226,86.0865015 107.716098,86.7699176 107.291911,87.5191018 C107.02655,87.987878 106.490688,88.3061741 105.952167,88.2936638 C105.525676,88.2838344 105.147754,88.1683828 104.855095,87.8356106 C104.504472,87.4368917 104.263751,86.8505192 104.456079,86.3136516 C104.959857,84.9071441 105.885872,83.5058194 107.202925,82.7684306 Z M37.3092029,81.3652472 C38.080291,80.0035978 39.9080355,78.7867097 41.5030355,78.9071653 C43.8980171,79.0880276 44.3867274,82.3392581 42.0679682,83.1150712 C40.6819597,83.5786647 38.7751565,83.102561 37.562687,82.3394368 C37.2358166,82.1339116 37.1159878,81.7064191 37.3092029,81.3652472 Z M12.6948148,76.7133532 C12.5196803,76.4567147 12.8091485,76.1634392 13.0700776,76.2211649 C13.6488368,76.3493055 14.2727977,76.4052441 14.8396803,76.579315 C15.4202121,76.7573177 15.9821314,77.0525592 16.5571681,77.2557611 C17.761838,77.681109 19.0485801,77.8946765 20.2144297,78.4083109 C20.6804505,78.6136574 21.0470275,79.2940353 21.0039529,79.7956956 L20.9929658,79.9130162 C20.967166,80.1619897 20.9243861,80.3791848 20.7862757,80.6067161 C20.4152671,81.2175729 19.6801632,81.5331881 18.9863612,81.3451772 C17.6992647,80.9966779 16.4415935,80.101124 15.3441669,79.3571226 L15.1413737,79.2212938 C14.6619091,78.9027276 14.1463437,78.5697599 13.7599798,78.1598935 C13.3567097,77.7318648 13.0252304,77.1980353 12.6948148,76.7133532 Z M56.9388704,71.7611958 C56.7906797,71.2232558 57.4545244,70.8677865 57.8414866,71.2312981 C58.6147017,71.9576064 59.4231919,72.6310143 60.1804535,73.3757306 L60.2312984,73.4264865 C60.773584,73.9758821 61.5625078,75.0346368 60.8572384,75.7455259 C59.9535587,76.6566282 58.6951785,75.3048083 58.210368,74.6003035 C57.5954474,73.7067156 57.226566,72.8061576 56.9388704,71.7611958 Z M116.109666,67.3134866 C114.962606,68.5384171 113.195307,69.1015562 111.639305,69.5681879 C109.794366,70.1209614 107.893413,70.4512315 105.990509,70.7228823 C104.151774,70.9852397 102.327221,71.2198959 100.517734,71.5210351 C101.886548,71.538192 103.255185,71.5483789 104.620809,71.5730419 C106.195778,71.6018154 107.769861,71.6361292 109.344299,71.6822383 C110.491004,71.7158372 111.83642,71.5573147 112.926047,71.9869518 C113.122453,72.0641578 113.305919,72.1713884 113.466163,72.3018523 C114.382251,70.6596162 115.260228,68.9946831 116.109666,67.3134866 Z M45.3573233,55.8587787 C46.5545483,55.4754295 47.6803368,54.9666205 48.94953,55.0986928 C49.2868588,55.1335427 49.5284664,55.4647064 49.3442916,55.7917596 C48.7428075,56.8589488 47.7647826,57.4613356 46.8019992,58.1751189 L46.7170972,58.2384035 C45.6632769,59.0286928 44.531816,59.748746 43.3858197,60.3973121 C41.4127207,61.5135823 39.6445361,58.3186477 41.6371339,57.3810952 C42.8361314,56.8168838 44.0955752,56.2630379 45.3573233,55.8587787 Z M66.9122824,53.0849744 C68.7439267,53.2065023 70.5745073,53.2890698 72.408456,53.3637738 C74.5327592,53.4504518 73.8185721,56.7461831 72.0440061,56.079209 C70.2908888,55.4200985 68.5375941,54.7693877 66.7687005,54.1545992 C66.2302248,53.9675501 66.2735763,53.0758846 66.8781194,53.0836097 L66.9122824,53.0849744 Z M19.9332573,47.2217146 C20.4079639,47.1881157 20.8867476,47.2926655 21.3621632,47.3391321 L21.868039,47.3886005 C22.9108433,47.4932198 23.8886119,47.6222269 24.8831106,48.0500707 C26.7181229,48.839645 25.7325483,51.8136846 23.8904456,51.7454145 C22.5288991,51.6950161 21.3646449,51.1054267 20.214926,50.4191512 C19.2098527,49.8191962 18.5936913,49.0685823 17.9149566,48.1265618 C17.6901889,47.8145209 18.0034101,47.4647705 18.309541,47.4333162 C18.8487708,47.3779138 19.3938502,47.2597814 19.9332573,47.2217146 Z M111.917411,41.1482293 C111.613762,43.0585417 110.860045,44.8489347 109.72433,46.4077095 C109.153548,47.1910288 108.151488,47.2206959 107.585846,46.4077095 C106.785653,45.2576249 107.279061,43.9399901 107.881872,42.8353482 L108.060228,42.5119005 C108.330166,42.0269183 108.744733,41.3195332 109.218425,40.8310056 L109.226402,40.7809647 C109.480241,38.780936 112.230278,39.1801911 111.917411,41.1482293 Z M37.8336669,28.8885595 C38.2902928,28.4739347 39.1312219,28.5985008 39.2794126,29.2733385 C39.4868087,30.2183971 39.6130189,31.2831966 39.4772366,32.2425527 C39.403673,32.7624422 39.3760202,33.3463126 39.1732329,33.830816 C38.9552011,34.3517778 38.5358001,34.7524626 38.140684,35.1442116 C37.3518698,35.9262798 35.6889786,35.6676754 35.4776828,34.4354176 L35.4508464,34.2842735 C35.3445791,33.7011874 35.2086351,33.0780217 35.3660079,32.5000847 C35.4847969,32.0640614 35.7502796,31.6193199 35.9699115,31.2148276 L36.0162035,31.1287846 C36.4561669,30.3027518 37.1419921,29.5162157 37.8336669,28.8885595 Z M102.018555,30.8992021 L102.183704,30.9009732 C103.458273,30.926356 105.788404,31.2391806 105.800835,32.8270307 C105.8038,33.2012653 105.528867,33.5890825 105.16034,33.6752244 C104.398469,33.8532271 103.906037,33.3994632 103.363084,32.9408738 C102.919044,32.5659243 102.40144,32.2665723 101.863806,32.0510389 C101.283097,31.8181698 101.321031,30.8981317 102.018555,30.8992021 Z" id="ðŸ–-Ink" fill="#000000"></path>
                    </g>
                    <ellipse id="Oval" fill="#D8D8D8" cx="79" cy="49" rx="27" ry="37"></ellipse>
                    <g id="HEAD" transform="translate(32.000000, 0.000000)">
                        <path d="M46.223473,12.7346076 C72.95301,13.5834155 74.5652308,26.3182996 74.5652308,47.6752186 C74.5652308,69.0321375 60.699086,82.4900623 55.5933666,84.8400681 C50.4876472,87.190074 37.0435285,97.2837675 24.9110185,92.6323031 C12.7785085,87.9808387 16.2919173,68.3288757 16.2919173,59.8850488 C16.2919173,51.4412219 19.493936,11.8857996 46.223473,12.7346076 Z" id="Path-2" fill="#C8C8C8"></path>
                        <path d="M57.0671137,77.8258674 C52.1585302,80.5744212 46.537989,80.6812995 41.2580651,78.9516522 C38.0916381,77.9168921 35.1882216,76.3171019 32.4709192,74.4039802 C30.1071983,72.73846 27.9974309,70.8912466 25.9071983,68.9298515 C24.1863526,65.1233806 22.6539298,61.3238568 21.9362892,57.1823224 C21.293414,53.4647386 21.2081708,49.6046504 21.9540482,45.8941919 C27.4701666,41.3429573 32.9523653,36.7543153 38.4272829,32.1516011 C41.2154436,29.8072254 44.0107078,27.4756751 46.8397142,25.181176 C48.2764161,24.0162025 49.6990884,22.8334159 51.130285,21.6630984 C51.3664795,21.4707175 51.6010757,21.2783365 51.8372702,21.0859556 C54.7921877,23.2555852 57.9603907,25.1154459 60.8943526,27.3205235 C62.4303273,28.4765905 63.9238579,29.7074723 65.3463526,31.002303 C66.09223,31.6811584 66.820526,32.3812113 67.5308854,33.0990772 C68.1806867,33.7547757 68.8075789,34.6951266 69.7294478,34.9429062 C69.8555366,34.9765728 69.9743442,34.9836981 70.0862258,34.9676663 C71.3186994,45.7908762 72.1942173,57.478019 66.914471,67.3072607 C64.6111307,71.5948621 61.3454309,75.4282307 57.0671137,77.8258674 Z M25.13486,81.8036998 C24.4589531,81.1825587 25.4662427,80.1773683 26.1393082,80.7958374 C30.3670123,84.6801513 35.8939636,86.7391619 41.4766782,87.6921601 C42.377414,87.846243 41.9932871,89.2190949 41.0989446,89.0662589 C35.2702681,88.0712219 29.5415746,85.8524282 25.13486,81.8036998 Z M20.0618283,87.7634123 C19.25486,87.3291302 19.973211,86.0994952 20.7787586,86.5328868 C24.0725175,88.304751 27.6852279,89.2253295 31.3496169,89.8470049 C32.2508854,89.9998409 31.8664034,91.3726928 30.9720609,91.2211037 C27.1831814,90.5784088 23.4653378,89.5942377 20.0618283,87.7634123 Z M33.4671983,27.7286205 C36.2003061,25.26846 39.1376423,22.9276469 42.2403146,20.9523577 C45.3799256,18.9537333 48.8091856,17.7584776 52.5154858,17.7299767 C52.2562047,17.9383894 52.0093548,18.1699591 51.7589531,18.3853189 C51.0594266,18.9857968 50.3613209,19.5896593 49.6633928,20.1917404 C48.2675366,21.397684 46.8681285,22.6016681 45.4900313,23.8273841 C42.7764584,26.2428339 40.0540059,28.6458145 37.3457607,31.0666081 C32.1406021,35.7193771 27.0475027,40.4735023 22.0641539,45.3651443 C22.09097,45.2457968 22.1193844,45.1264494 22.1476211,45.0072801 C23.7974309,38.0956381 28.2851264,32.3936804 33.4671983,27.7286205 Z M54.8916381,18.0310173 C54.909397,17.9775781 54.9220059,17.9257422 54.9291095,17.8760437 C62.0415831,18.805885 67.9819636,24.0552131 69.9459298,30.966855 C69.7754436,31.2055499 69.6813209,31.4887774 69.7168389,31.7896399 C69.7345979,31.9412289 69.7523569,32.0944212 69.7701159,32.2458321 C69.5268178,32.0037527 69.2764161,31.7773489 69.0634858,31.5618109 C68.3547247,30.8421637 67.6285598,30.1419326 66.8825049,29.4596928 C65.357008,28.065109 63.7730841,26.7611937 62.1035619,25.5445623 C59.2001455,23.4283718 56.0566275,21.4831866 52.5954013,20.4678427 C52.8227163,20.2808056 53.0502089,20.0937686 53.2792998,19.9085129 C53.9628431,19.3507862 54.5970165,18.8913877 54.8916381,18.0310173 Z M67.642767,10.6403824 C63.2758326,5.85401552 57.2287205,2.34840705 50.860526,1.12999436 C44.7796719,-0.0349791887 38.4841116,0.732763316 32.7392575,2.99680212 C20.7180228,7.73507372 11.2329488,18.1541055 6.79142664,30.2276134 C4.2021666,37.2619873 3.3532871,44.9732571 4.13130825,52.4191125 C4.90542241,59.830945 7.13062326,67.4853912 11.1796719,73.7912113 C11.5508347,74.3685323 11.9575154,74.92234 12.3837311,75.4585129 C12.1937099,77.6352677 11.4691433,79.7692713 10.3290165,81.6253912 C10.267748,81.724788 10.2031053,81.8224035 10.1391729,81.9201972 C8.97169725,82.7971337 7.76071205,83.6200966 6.57849641,84.4696011 C5.55398055,85.2056363 4.53994249,85.9607316 3.57651755,86.7760349 C2.66707992,87.5457369 1.61095307,88.4029009 0.995249049,89.441758 C0.490716279,90.2926875 0.284712051,91.4496451 0.973405497,92.2612078 C1.80328288,93.238788 3.20943932,92.8941055 4.33358309,92.8941055 C4.42983679,92.8941055 4.5259129,92.896243 4.62198901,92.8973118 C4.95958732,93.1101778 5.30730825,93.3025587 5.64419619,93.4815799 C9.04859366,95.291564 12.4654224,97.0817757 15.885803,98.8630808 C22.6983273,102.413222 29.4822596,106.106046 36.4347247,109.374562 C39.6563822,110.890453 43.1051772,112.215566 46.7136254,112.21043 C50.0986655,112.205056 53.1583611,110.856608 55.8008981,108.806326 C58.812822,106.470857 61.3312237,103.505162 63.7746825,100.59825 C64.7514266,99.4347016 65.7086359,98.257437 66.6480863,97.0639626 C68.4523992,96.4601002 70.2425049,96.283751 71.8514689,97.4487245 C73.1425471,98.3839097 74.8438579,97.1120578 74.8740482,95.7082113 C74.8847036,95.2098021 74.8635704,94.7179838 74.8101159,94.2334688 C74.4870799,91.2406981 73.0271137,88.5332924 71.3826317,86.0218303 C70.4842047,84.648266 69.5376507,83.2996399 68.5855915,81.963661 C68.3618283,81.6485481 68.1416169,81.3332571 67.9285091,81.0124441 C71.7520186,75.365885 74.7852533,69.1045975 76.6499467,62.5616857 C78.6089404,55.6771196 79.2749023,48.5376487 78.8380313,41.4035217 C78.1665641,30.4698709 75.1761285,18.8985129 67.642767,10.6403824 Z" id="ðŸ–-Ink" fill="#000000"></path>
                    </g>
                    <g id="FACE" transform="translate(60.420775, 27.178082)" fill="#000000">
                        <path d="M26.0655691,42.9047287 C24.8702349,42.4163649 23.8036946,41.6017419 23.0239507,40.5611137 C22.7528624,40.1993485 22.6825737,39.8173302 22.7394421,39.4679257 C22.8033867,39.0750449 23.0354747,38.7189685 23.3519906,38.4801233 C23.669487,38.2405384 24.0666347,38.122381 24.4505937,38.1826143 C24.7842315,38.2349534 25.1163521,38.4179005 25.3792007,38.797326 L25.4341163,38.8732022 C25.8976876,39.5012895 26.5017635,40.0166277 27.1900659,40.3487929 C27.8534775,40.6689463 28.5954362,40.8183741 29.3632425,40.7314787 C30.8255791,40.5660438 31.833495,39.7740166 32.9047997,38.698457 C33.037591,38.5626649 33.1704674,38.4226159 33.3039879,38.2803125 C33.3883088,38.1513152 33.505325,38.0684085 33.6352447,38.0249088 C33.7794976,37.9766101 33.9426812,37.9793428 34.0921449,38.0315802 C34.2363034,38.0819633 34.3651738,38.1774372 34.451585,38.3045068 C34.5337117,38.425276 34.5802751,38.5744701 34.5651665,38.7460802 C34.4671081,39.8607217 33.8852287,40.8554917 33.0586932,41.6365963 C32.1407201,42.5041127 30.9238796,43.1042663 29.7782776,43.314759 C28.5161604,43.5466249 27.2300966,43.3805063 26.0655691,42.9047287 L26.0655691,42.9047287 Z M30.3736702,25.7092193 C31.7164329,26.5266247 33.762391,28.4326546 32.3178873,30.4591021 C30.6175684,32.2458878 28.169493,30.197216 26.9631238,29.2706814 C25.8445218,28.552612 24.5877098,30.3994328 25.6255494,31.2379 C34.3427981,37.7014352 37.8804422,25.9229594 31.0528208,24.748151 C30.3010752,24.6186921 30.021875,25.456346 30.3736702,25.7092193 Z M14.7522769,18.1904548 C14.9006346,16.3461865 17.7052822,15.9273863 17.9842769,17.7523726 C18.2341097,19.3871671 17.9400005,20.8889342 17.2047276,22.3607836 C16.5021731,23.7669205 14.7363592,23.1108915 14.6028187,21.8304805 C14.4238133,20.1141428 14.65999,19.3376952 14.7522769,18.1904548 Z M36.101632,17.3739658 C36.4926514,16.861089 37.0572201,16.5109795 37.7336356,16.7088288 C39.8469894,17.3273082 39.2240968,20.332089 38.4818891,21.7946781 C38.0786004,22.5889247 36.7750246,22.7903356 36.1859173,22.0910068 C35.225706,20.9505685 34.7658715,18.6730753 35.9865845,17.5497329 C36.0196585,17.4916781 36.0564665,17.433089 36.101632,17.3739658 Z M17.1749611,10.1205 L17.5087894,10.0619831 C18.5415142,9.88310932 19.8255887,9.71123151 20.5561495,10.5427329 C20.9436125,10.9836644 21.0769752,11.8031986 20.5561495,12.2252534 C19.6400368,12.9678562 18.6271917,12.6800753 17.5293502,12.7429384 C16.6246178,12.7949384 15.7550931,12.9448836 14.8836125,13.1943767 C12.9717252,13.7416233 11.4138713,14.7406644 9.7809787,15.8376507 C9.56670933,15.9815411 9.34799454,15.7071164 9.45023926,15.5064178 C10.3928467,13.6573904 12.2195597,12.1385274 14.0492956,11.2126781 C15.025866,10.7185 16.0945456,10.3085548 17.1749611,10.1205 Z M34.1751417,9.2922197 L34.4306521,9.34459026 C37.211217,9.92667125 40.8238218,11.0894258 42.1405534,13.8246712 C42.1907269,14.2114446 42.1377138,14.2943378 42.0946047,14.3484956 L42.0802516,14.3665174 C42.0447296,14.412765 42.0163858,14.4765169 41.8489911,14.5291575 C41.8025392,14.5180733 41.7556248,14.5063336 41.7082135,14.4938903 C41.1046467,14.3354816 40.6271087,14.1172514 40.1648013,13.8908114 L39.6635427,13.643491 C39.0819827,13.3579151 38.4952879,13.0827328 37.8735261,12.8795829 C36.5466331,12.4461406 35.1818095,12.1408076 33.7958407,11.9777667 C33.4954426,11.942459 33.2061781,11.8409234 32.9779692,11.6669081 C32.7613531,11.5017326 32.5958724,11.2730433 32.5204225,10.9690653 C32.4226394,10.5756693 32.4507401,10.2778363 32.6614996,9.92293546 C32.8199777,9.65641256 33.0467345,9.47167735 33.3071087,9.36559612 C33.5725489,9.2574509 33.87475,9.2319557 34.1751417,9.2922197 Z" id="ðŸ–-Ink"></path>
                    </g>
                </g>
            </g>
        </g>
    </g>
</svg>