<?xml version="1.0" encoding="UTF-8"?>
<svg width="257px" height="225px" viewBox="0 0 257 225" version="1.1" xmlns="http://www.w3.org/2000/svg" xmlns:xlink="http://www.w3.org/1999/xlink">
    <!-- Generator: Sketch 59.1 (86144) - https://sketch.com -->
    <title>Shape</title>
    <desc>Created with Sketch.</desc>
    <g id="Register" stroke="none" stroke-width="1" fill="none" fill-rule="evenodd">
        <g id="Settings" transform="translate(-1013.000000, -255.000000)" fill="#FFFFFF" fill-rule="nonzero">
            <path d="M1261.96875,432 L1093.3125,432 L1093.3125,424 C1093.3125,419.6 1089.69844,416 1085.28125,416 L1069.21875,416 C1064.80156,416 1061.1875,419.6 1061.1875,424 L1061.1875,432 L1021.03125,432 C1016.61406,432 1013,435.6 1013,440 L1013,456 C1013,460.4 1016.61406,464 1021.03125,464 L1061.1875,464 L1061.1875,472 C1061.1875,476.4 1064.80156,480 1069.21875,480 L1085.28125,480 C1089.69844,480 1093.3125,476.4 1093.3125,472 L1093.3125,464 L1261.96875,464 C1266.38594,464 1270,460.4 1270,456 L1270,440 C1270,435.6 1266.38594,432 1261.96875,432 Z M1261.96875,352 L1221.8125,352 L1221.8125,344 C1221.8125,339.6 1218.19844,336 1213.78125,336 L1197.71875,336 C1193.30156,336 1189.6875,339.6 1189.6875,344 L1189.6875,352 L1021.03125,352 C1016.61406,352 1013,355.6 1013,360 L1013,376 C1013,380.4 1016.61406,384 1021.03125,384 L1189.6875,384 L1189.6875,392 C1189.6875,396.4 1193.30156,400 1197.71875,400 L1213.78125,400 C1218.19844,400 1221.8125,396.4 1221.8125,392 L1221.8125,384 L1261.96875,384 C1266.38594,384 1270,380.4 1270,376 L1270,360 C1270,355.6 1266.38594,352 1261.96875,352 Z M1261.96875,271 L1157.5625,271 L1157.5625,263 C1157.5625,258.6 1153.94844,255 1149.53125,255 L1133.46875,255 C1129.05156,255 1125.4375,258.6 1125.4375,263 L1125.4375,271 L1021.03125,271 C1016.61406,271 1013,274.6 1013,279 L1013,295 C1013,299.4 1016.61406,303 1021.03125,303 L1125.4375,303 L1125.4375,311 C1125.4375,315.4 1129.05156,319 1133.46875,319 L1149.53125,319 C1153.94844,319 1157.5625,315.4 1157.5625,311 L1157.5625,303 L1261.96875,303 C1266.38594,303 1270,299.4 1270,295 L1270,279 C1270,274.6 1266.38594,271 1261.96875,271 Z" id="Shape"></path>
        </g>
    </g>
</svg>