<?xml version="1.0" encoding="UTF-8"?>
<svg width="180px" height="200px" viewBox="0 0 180 200" version="1.1" xmlns="http://www.w3.org/2000/svg" xmlns:xlink="http://www.w3.org/1999/xlink">
    <!-- Generator: Sketch 59.1 (86144) - https://sketch.com -->
    <title>Combined Shape</title>
    <desc>Created with Sketch.</desc>
    <g id="Register" stroke="none" stroke-width="1" fill="none" fill-rule="evenodd">
        <g id="User-type" transform="translate(-227.000000, -252.000000)" fill="#FFFFFF" fill-rule="nonzero">
            <path d="M357,372 C384.614237,372 407,394.385763 407,422 L407,422 L407,442 C407,447.522847 402.522847,452 397,452 C391.477153,452 387,447.522847 387,442 L387,442 L387,422 C387,405.431458 373.568542,392 357,392 L357,392 L277,392 C260.431458,392 247,405.431458 247,422 L247,422 L247,442 C247,447.522847 242.522847,452 237,452 C231.477153,452 227,447.522847 227,442 L227,442 L227,422 C227,394.385763 249.385763,372 277,372 L277,372 Z M317,252 C344.614237,252 367,274.385763 367,302 C367,329.614237 344.614237,352 317,352 C289.385763,352 267,329.614237 267,302 C267,274.385763 289.385763,252 317,252 Z M317,272 C300.431458,272 287,285.431458 287,302 C287,318.568542 300.431458,332 317,332 C333.568542,332 347,318.568542 347,302 C347,285.431458 333.568542,272 317,272 Z" id="Combined-Shape"></path>
        </g>
    </g>
</svg>